<svg width="32" height="32" viewBox="0 0 32 32" fill="none" xmlns="http://www.w3.org/2000/svg">
<circle cx="16" cy="16" r="16" fill="#DE091C"/>
<path d="M22 25C22 25.5523 22.4477 26 23 26C23.5523 26 24 25.5523 24 25H22ZM8 25C8 25.5523 8.44772 26 9 26C9.55228 26 10 25.5523 10 25H8ZM24 25C24 20.5817 20.4183 17 16 17V19C19.3137 19 22 21.6863 22 25H24ZM16 17C11.5817 17 8 20.5817 8 25H10C10 21.6863 12.6863 19 16 19V17ZM16 14C14.3431 14 13 12.6569 13 11H11C11 13.7614 13.2386 16 16 16V14ZM13 11C13 9.34315 14.3431 8 16 8V6C13.2386 6 11 8.23858 11 11H13ZM16 8C17.6569 8 19 9.34315 19 11H21C21 8.23858 18.7614 6 16 6V8ZM19 11C19 12.6569 17.6569 14 16 14V16C18.7614 16 21 13.7614 21 11H19Z" fill="white"/>
</svg>
