<svg width="35" height="35" viewBox="0 0 35 35" fill="none" xmlns="http://www.w3.org/2000/svg">
<circle cx="17.5" cy="17.5" r="17.5" fill="#DE091C"/>
<path d="M19.2929 24.7071C19.6834 25.0976 20.3166 25.0976 20.7071 24.7071C21.0976 24.3166 21.0976 23.6834 20.7071 23.2929L19.2929 24.7071ZM13 17L12.2929 16.2929C11.9024 16.6834 11.9024 17.3166 12.2929 17.7071L13 17ZM20.7071 10.7071C21.0976 10.3166 21.0976 9.68342 20.7071 9.29289C20.3166 8.90237 19.6834 8.90237 19.2929 9.29289L20.7071 10.7071ZM20.7071 23.2929L13.7071 16.2929L12.2929 17.7071L19.2929 24.7071L20.7071 23.2929ZM13.7071 17.7071L20.7071 10.7071L19.2929 9.29289L12.2929 16.2929L13.7071 17.7071Z" fill="white"/>
</svg>
