<svg width="322" height="196" viewBox="0 0 322 196" fill="none" xmlns="http://www.w3.org/2000/svg">
<rect width="322" height="196" rx="15" fill="white"/>
<path d="M23.517 78V60.5455H27.2074V67.7472H34.6989V60.5455H38.3807V78H34.6989V70.7898H27.2074V78H23.517ZM44.9858 60.5455V78H41.3551V60.5455H44.9858ZM53.8601 78.2557C52.5135 78.2557 51.3544 77.983 50.3828 77.4375C49.4169 76.8864 48.6726 76.108 48.1499 75.1023C47.6271 74.0909 47.3658 72.8949 47.3658 71.5142C47.3658 70.1676 47.6271 68.9858 48.1499 67.9688C48.6726 66.9517 49.4084 66.1591 50.3572 65.5909C51.3118 65.0227 52.4311 64.7386 53.7152 64.7386C54.5788 64.7386 55.3828 64.8778 56.1271 65.1562C56.8771 65.429 57.5305 65.8409 58.0874 66.392C58.6499 66.9432 59.0874 67.6364 59.3999 68.4716C59.7124 69.3011 59.8686 70.2727 59.8686 71.3864V72.3835H48.8146V70.1335H56.451C56.451 69.6108 56.3374 69.1477 56.1101 68.7443C55.8828 68.3409 55.5675 68.0256 55.1641 67.7983C54.7663 67.5653 54.3033 67.4489 53.7749 67.4489C53.2237 67.4489 52.7351 67.5767 52.3089 67.8324C51.8885 68.0824 51.5589 68.4205 51.3203 68.8466C51.0817 69.267 50.9595 69.7358 50.9538 70.2528V72.392C50.9538 73.0398 51.0732 73.5994 51.3118 74.071C51.5561 74.5426 51.8999 74.9062 52.343 75.1619C52.7862 75.4176 53.3118 75.5455 53.9197 75.5455C54.3232 75.5455 54.6925 75.4886 55.0277 75.375C55.3629 75.2614 55.6499 75.0909 55.8885 74.8636C56.1271 74.6364 56.3089 74.358 56.4339 74.0284L59.7919 74.25C59.6214 75.0568 59.272 75.7614 58.7436 76.3636C58.2209 76.9602 57.5447 77.4261 56.7152 77.7614C55.8913 78.0909 54.9396 78.2557 53.8601 78.2557ZM67.0618 78.2131C66.0675 78.2131 65.1669 77.9574 64.3601 77.446C63.5589 76.929 62.9226 76.1705 62.451 75.1705C61.9851 74.1648 61.7521 72.9318 61.7521 71.4716C61.7521 69.9716 61.9936 68.7244 62.4766 67.7301C62.9595 66.7301 63.6016 65.983 64.4027 65.4886C65.2095 64.9886 66.093 64.7386 67.0533 64.7386C67.7862 64.7386 68.397 64.8636 68.8857 65.1136C69.38 65.358 69.7777 65.6648 70.0788 66.0341C70.3857 66.3977 70.6186 66.7557 70.7777 67.108H70.8885V60.5455H74.5107V78H70.9311V75.9034H70.7777C70.6072 76.267 70.3658 76.6278 70.0533 76.9858C69.7464 77.3381 69.3459 77.6307 68.8516 77.8636C68.3629 78.0966 67.7663 78.2131 67.0618 78.2131ZM68.2124 75.3239C68.7976 75.3239 69.2919 75.1648 69.6953 74.8466C70.1044 74.5227 70.4169 74.071 70.6328 73.4915C70.8544 72.9119 70.9652 72.233 70.9652 71.4545C70.9652 70.6761 70.8572 70 70.6413 69.4261C70.4254 68.8523 70.1129 68.4091 69.7038 68.0966C69.2947 67.7841 68.7976 67.6278 68.2124 67.6278C67.6158 67.6278 67.1129 67.7898 66.7038 68.1136C66.2947 68.4375 65.9851 68.8864 65.7749 69.4602C65.5646 70.0341 65.4595 70.6989 65.4595 71.4545C65.4595 72.2159 65.5646 72.8892 65.7749 73.4744C65.9908 74.054 66.3004 74.5085 66.7038 74.8381C67.1129 75.1619 67.6158 75.3239 68.2124 75.3239ZM81.2287 78.2472C80.3935 78.2472 79.6491 78.1023 78.9957 77.8125C78.3423 77.517 77.8253 77.0824 77.4446 76.5085C77.0696 75.929 76.8821 75.2074 76.8821 74.3438C76.8821 73.6165 77.0156 73.0057 77.2827 72.5114C77.5497 72.017 77.9134 71.6193 78.3736 71.3182C78.8338 71.017 79.3565 70.7898 79.9418 70.6364C80.5327 70.483 81.152 70.375 81.7997 70.3125C82.5611 70.233 83.1747 70.1591 83.6406 70.0909C84.1065 70.017 84.4446 69.9091 84.6548 69.767C84.8651 69.625 84.9702 69.4148 84.9702 69.1364V69.0852C84.9702 68.5455 84.7997 68.1278 84.4588 67.8324C84.1236 67.5369 83.6463 67.3892 83.027 67.3892C82.3736 67.3892 81.8537 67.5341 81.4673 67.8239C81.081 68.108 80.8253 68.4659 80.7003 68.8977L77.3423 68.625C77.5128 67.8295 77.848 67.142 78.348 66.5625C78.848 65.9773 79.4929 65.5284 80.2827 65.2159C81.0781 64.8977 81.9986 64.7386 83.044 64.7386C83.7713 64.7386 84.4673 64.8239 85.1321 64.9943C85.8026 65.1648 86.3963 65.429 86.9134 65.7869C87.4361 66.1449 87.848 66.6051 88.1491 67.1676C88.4503 67.7244 88.6009 68.392 88.6009 69.1705V78H85.1577V76.1847H85.0554C84.8452 76.5938 84.5639 76.9545 84.2116 77.267C83.8594 77.5739 83.4361 77.8153 82.9418 77.9915C82.4474 78.1619 81.8764 78.2472 81.2287 78.2472ZM82.2685 75.7415C82.8026 75.7415 83.2741 75.6364 83.6832 75.4261C84.0923 75.2102 84.4134 74.9205 84.6463 74.5568C84.8793 74.1932 84.9957 73.7812 84.9957 73.321V71.9318C84.8821 72.0057 84.7259 72.0739 84.527 72.1364C84.3338 72.1932 84.1151 72.2472 83.8707 72.2983C83.6264 72.3437 83.3821 72.3864 83.1378 72.4261C82.8935 72.4602 82.6719 72.4915 82.473 72.5199C82.0469 72.5824 81.6747 72.6818 81.3565 72.8182C81.0384 72.9545 80.7912 73.1392 80.6151 73.3722C80.4389 73.5994 80.3509 73.8835 80.3509 74.2244C80.3509 74.7188 80.5298 75.0966 80.8878 75.358C81.2514 75.6136 81.7116 75.7415 82.2685 75.7415ZM98.3807 64.9091V67.6364H90.4972V64.9091H98.3807ZM92.2869 61.7727H95.9176V73.9773C95.9176 74.3125 95.9688 74.5739 96.071 74.7614C96.1733 74.9432 96.3153 75.071 96.4972 75.1449C96.6847 75.2187 96.9006 75.2557 97.1449 75.2557C97.3153 75.2557 97.4858 75.2415 97.6562 75.2131C97.8267 75.179 97.9574 75.1534 98.0483 75.1364L98.6193 77.8381C98.4375 77.8949 98.1818 77.9602 97.8523 78.0341C97.5227 78.1136 97.1222 78.1619 96.6506 78.179C95.7756 78.2131 95.0085 78.0966 94.3494 77.8295C93.696 77.5625 93.1875 77.1477 92.8239 76.5852C92.4602 76.0227 92.2813 75.3125 92.2869 74.4545V61.7727ZM109.931 60.5455V78H106.3V60.5455H109.931ZM118.805 78.2557C117.459 78.2557 116.3 77.983 115.328 77.4375C114.362 76.8864 113.618 76.108 113.095 75.1023C112.572 74.0909 112.311 72.8949 112.311 71.5142C112.311 70.1676 112.572 68.9858 113.095 67.9688C113.618 66.9517 114.354 66.1591 115.303 65.5909C116.257 65.0227 117.376 64.7386 118.661 64.7386C119.524 64.7386 120.328 64.8778 121.072 65.1562C121.822 65.429 122.476 65.8409 123.033 66.392C123.595 66.9432 124.033 67.6364 124.345 68.4716C124.658 69.3011 124.814 70.2727 124.814 71.3864V72.3835H113.76V70.1335H121.396C121.396 69.6108 121.283 69.1477 121.055 68.7443C120.828 68.3409 120.513 68.0256 120.109 67.7983C119.712 67.5653 119.249 67.4489 118.72 67.4489C118.169 67.4489 117.68 67.5767 117.254 67.8324C116.834 68.0824 116.504 68.4205 116.266 68.8466C116.027 69.267 115.905 69.7358 115.899 70.2528V72.392C115.899 73.0398 116.018 73.5994 116.257 74.071C116.501 74.5426 116.845 74.9062 117.288 75.1619C117.732 75.4176 118.257 75.5455 118.865 75.5455C119.268 75.5455 119.638 75.4886 119.973 75.375C120.308 75.2614 120.595 75.0909 120.834 74.8636C121.072 74.6364 121.254 74.358 121.379 74.0284L124.737 74.25C124.567 75.0568 124.217 75.7614 123.689 76.3636C123.166 76.9602 122.49 77.4261 121.661 77.7614C120.837 78.0909 119.885 78.2557 118.805 78.2557ZM117.271 63.2216L119.078 59.3438H122.436L119.837 63.2216H117.271ZM130.473 74.233L130.482 69.8778H131.01L135.203 64.9091H139.371L133.737 71.4886H132.876L130.473 74.233ZM127.183 78V60.5455H130.814V78H127.183ZM135.365 78L131.513 72.2983L133.933 69.733L139.618 78H135.365ZM144.885 78.2472C144.05 78.2472 143.305 78.1023 142.652 77.8125C141.999 77.517 141.482 77.0824 141.101 76.5085C140.726 75.929 140.538 75.2074 140.538 74.3438C140.538 73.6165 140.672 73.0057 140.939 72.5114C141.206 72.017 141.57 71.6193 142.03 71.3182C142.49 71.017 143.013 70.7898 143.598 70.6364C144.189 70.483 144.808 70.375 145.456 70.3125C146.217 70.233 146.831 70.1591 147.297 70.0909C147.763 70.017 148.101 69.9091 148.311 69.767C148.521 69.625 148.626 69.4148 148.626 69.1364V69.0852C148.626 68.5455 148.456 68.1278 148.115 67.8324C147.78 67.5369 147.303 67.3892 146.683 67.3892C146.03 67.3892 145.51 67.5341 145.124 67.8239C144.737 68.108 144.482 68.4659 144.357 68.8977L140.999 68.625C141.169 67.8295 141.504 67.142 142.004 66.5625C142.504 65.9773 143.149 65.5284 143.939 65.2159C144.734 64.8977 145.655 64.7386 146.7 64.7386C147.428 64.7386 148.124 64.8239 148.788 64.9943C149.459 65.1648 150.053 65.429 150.57 65.7869C151.092 66.1449 151.504 66.6051 151.805 67.1676C152.107 67.7244 152.257 68.392 152.257 69.1705V78H148.814V76.1847H148.712C148.501 76.5938 148.22 76.9545 147.868 77.267C147.516 77.5739 147.092 77.8153 146.598 77.9915C146.104 78.1619 145.533 78.2472 144.885 78.2472ZM145.925 75.7415C146.459 75.7415 146.93 75.6364 147.339 75.4261C147.749 75.2102 148.07 74.9205 148.303 74.5568C148.536 74.1932 148.652 73.7812 148.652 73.321V71.9318C148.538 72.0057 148.382 72.0739 148.183 72.1364C147.99 72.1932 147.771 72.2472 147.527 72.2983C147.283 72.3437 147.038 72.3864 146.794 72.4261C146.55 72.4602 146.328 72.4915 146.129 72.5199C145.703 72.5824 145.331 72.6818 145.013 72.8182C144.695 72.9545 144.447 73.1392 144.271 73.3722C144.095 73.5994 144.007 73.8835 144.007 74.2244C144.007 74.7188 144.186 75.0966 144.544 75.358C144.908 75.6136 145.368 75.7415 145.925 75.7415ZM155.074 78V64.9091H158.594V67.1932H158.73C158.969 66.3807 159.369 65.767 159.932 65.3523C160.494 64.9318 161.142 64.7216 161.875 64.7216C162.057 64.7216 162.253 64.733 162.463 64.7557C162.673 64.7784 162.858 64.8097 163.017 64.8494V68.071C162.847 68.0199 162.611 67.9744 162.31 67.9347C162.009 67.8949 161.733 67.875 161.483 67.875C160.949 67.875 160.472 67.9915 160.051 68.2244C159.636 68.4517 159.307 68.7699 159.062 69.179C158.824 69.5881 158.705 70.0597 158.705 70.5938V78H155.074ZM157.29 59.4716L159.003 61.5511L160.716 59.4716H163.81V59.5909L160.349 63.3409H157.648L154.196 59.5909V59.4716H157.29ZM170.251 78.2557C168.904 78.2557 167.745 77.983 166.773 77.4375C165.808 76.8864 165.063 76.108 164.54 75.1023C164.018 74.0909 163.756 72.8949 163.756 71.5142C163.756 70.1676 164.018 68.9858 164.54 67.9688C165.063 66.9517 165.799 66.1591 166.748 65.5909C167.702 65.0227 168.822 64.7386 170.106 64.7386C170.969 64.7386 171.773 64.8778 172.518 65.1562C173.268 65.429 173.921 65.8409 174.478 66.392C175.04 66.9432 175.478 67.6364 175.79 68.4716C176.103 69.3011 176.259 70.2727 176.259 71.3864V72.3835H165.205V70.1335H172.842C172.842 69.6108 172.728 69.1477 172.501 68.7443C172.273 68.3409 171.958 68.0256 171.555 67.7983C171.157 67.5653 170.694 67.4489 170.165 67.4489C169.614 67.4489 169.126 67.5767 168.7 67.8324C168.279 68.0824 167.95 68.4205 167.711 68.8466C167.472 69.267 167.35 69.7358 167.344 70.2528V72.392C167.344 73.0398 167.464 73.5994 167.702 74.071C167.947 74.5426 168.29 74.9062 168.734 75.1619C169.177 75.4176 169.702 75.5455 170.31 75.5455C170.714 75.5455 171.083 75.4886 171.418 75.375C171.754 75.2614 172.04 75.0909 172.279 74.8636C172.518 74.6364 172.7 74.358 172.825 74.0284L176.183 74.25C176.012 75.0568 175.663 75.7614 175.134 76.3636C174.612 76.9602 173.935 77.4261 173.106 77.7614C172.282 78.0909 171.33 78.2557 170.251 78.2557ZM23.4489 111.909V93.9091H27.0284V96.108H27.1903C27.3494 95.7557 27.5795 95.3977 27.8807 95.0341C28.1875 94.6648 28.5852 94.358 29.0739 94.1136C29.5682 93.8636 30.1818 93.7386 30.9148 93.7386C31.8693 93.7386 32.75 93.9886 33.5568 94.4886C34.3636 94.983 35.0085 95.7301 35.4915 96.7301C35.9744 97.7244 36.2159 98.9716 36.2159 100.472C36.2159 101.932 35.9801 103.165 35.5085 104.17C35.0426 105.17 34.4063 105.929 33.5994 106.446C32.7983 106.957 31.9006 107.213 30.9062 107.213C30.2017 107.213 29.6023 107.097 29.108 106.864C28.6193 106.631 28.2188 106.338 27.9062 105.986C27.5938 105.628 27.3551 105.267 27.1903 104.903H27.0795V111.909H23.4489ZM27.0028 100.455C27.0028 101.233 27.1108 101.912 27.3267 102.491C27.5426 103.071 27.8551 103.523 28.2642 103.847C28.6733 104.165 29.1705 104.324 29.7557 104.324C30.3466 104.324 30.8466 104.162 31.2557 103.838C31.6648 103.509 31.9744 103.054 32.1847 102.474C32.4006 101.889 32.5085 101.216 32.5085 100.455C32.5085 99.6989 32.4034 99.0341 32.1932 98.4602C31.983 97.8864 31.6733 97.4375 31.2642 97.1136C30.8551 96.7898 30.3523 96.6278 29.7557 96.6278C29.1648 96.6278 28.6648 96.7841 28.2557 97.0966C27.8523 97.4091 27.5426 97.8523 27.3267 98.4261C27.1108 99 27.0028 99.6761 27.0028 100.455ZM44.5511 107.256C43.2273 107.256 42.0824 106.974 41.1165 106.412C40.1563 105.844 39.4148 105.054 38.892 104.043C38.3693 103.026 38.108 101.847 38.108 100.506C38.108 99.1534 38.3693 97.9716 38.892 96.9602C39.4148 95.9432 40.1563 95.1534 41.1165 94.5909C42.0824 94.0227 43.2273 93.7386 44.5511 93.7386C45.875 93.7386 47.017 94.0227 47.9773 94.5909C48.9432 95.1534 49.6875 95.9432 50.2102 96.9602C50.733 97.9716 50.9943 99.1534 50.9943 100.506C50.9943 101.847 50.733 103.026 50.2102 104.043C49.6875 105.054 48.9432 105.844 47.9773 106.412C47.017 106.974 45.875 107.256 44.5511 107.256ZM44.5682 104.443C45.1705 104.443 45.6733 104.273 46.0767 103.932C46.4801 103.585 46.7841 103.114 46.9886 102.517C47.1989 101.92 47.304 101.241 47.304 100.48C47.304 99.7188 47.1989 99.0398 46.9886 98.4432C46.7841 97.8466 46.4801 97.375 46.0767 97.0284C45.6733 96.6818 45.1705 96.5085 44.5682 96.5085C43.9602 96.5085 43.4489 96.6818 43.0341 97.0284C42.625 97.375 42.3153 97.8466 42.1051 98.4432C41.9006 99.0398 41.7983 99.7188 41.7983 100.48C41.7983 101.241 41.9006 101.92 42.1051 102.517C42.3153 103.114 42.625 103.585 43.0341 103.932C43.4489 104.273 43.9602 104.443 44.5682 104.443ZM53.3551 107V93.9091H56.8153V96.2188H56.9688C57.2415 95.4517 57.696 94.8466 58.3324 94.4034C58.9688 93.9602 59.7301 93.7386 60.6165 93.7386C61.5142 93.7386 62.2784 93.9631 62.9091 94.4119C63.5398 94.8551 63.9602 95.4574 64.1705 96.2188H64.3068C64.5739 95.4688 65.0568 94.8693 65.7557 94.4205C66.4602 93.9659 67.2926 93.7386 68.2528 93.7386C69.4744 93.7386 70.4659 94.1278 71.2273 94.9062C71.9943 95.679 72.3778 96.7756 72.3778 98.196V107H68.7557V98.9119C68.7557 98.1847 68.5625 97.6392 68.1761 97.2756C67.7898 96.9119 67.3068 96.7301 66.7273 96.7301C66.0682 96.7301 65.554 96.9403 65.1847 97.3608C64.8153 97.7756 64.6307 98.3239 64.6307 99.0057V107H61.1108V98.8352C61.1108 98.1932 60.9261 97.6818 60.5568 97.3011C60.1932 96.9205 59.7131 96.7301 59.1165 96.7301C58.7131 96.7301 58.3494 96.8324 58.0256 97.0369C57.7074 97.2358 57.4545 97.517 57.267 97.8807C57.0795 98.2386 56.9858 98.6591 56.9858 99.142V107H53.3551ZM81.1605 107.256C79.8366 107.256 78.6918 106.974 77.7259 106.412C76.7656 105.844 76.0241 105.054 75.5014 104.043C74.9787 103.026 74.7173 101.847 74.7173 100.506C74.7173 99.1534 74.9787 97.9716 75.5014 96.9602C76.0241 95.9432 76.7656 95.1534 77.7259 94.5909C78.6918 94.0227 79.8366 93.7386 81.1605 93.7386C82.4844 93.7386 83.6264 94.0227 84.5866 94.5909C85.5526 95.1534 86.2969 95.9432 86.8196 96.9602C87.3423 97.9716 87.6037 99.1534 87.6037 100.506C87.6037 101.847 87.3423 103.026 86.8196 104.043C86.2969 105.054 85.5526 105.844 84.5866 106.412C83.6264 106.974 82.4844 107.256 81.1605 107.256ZM81.1776 104.443C81.7798 104.443 82.2827 104.273 82.6861 103.932C83.0895 103.585 83.3935 103.114 83.598 102.517C83.8082 101.92 83.9134 101.241 83.9134 100.48C83.9134 99.7188 83.8082 99.0398 83.598 98.4432C83.3935 97.8466 83.0895 97.375 82.6861 97.0284C82.2827 96.6818 81.7798 96.5085 81.1776 96.5085C80.5696 96.5085 80.0582 96.6818 79.6435 97.0284C79.2344 97.375 78.9247 97.8466 78.7145 98.4432C78.5099 99.0398 78.4077 99.7188 78.4077 100.48C78.4077 101.241 78.5099 101.92 78.7145 102.517C78.9247 103.114 79.2344 103.585 79.6435 103.932C80.0582 104.273 80.5696 104.443 81.1776 104.443ZM95.8793 107.256C94.5384 107.256 93.3849 106.972 92.419 106.403C91.4588 105.83 90.7202 105.034 90.2031 104.017C89.6918 103 89.4361 101.83 89.4361 100.506C89.4361 99.1648 89.6946 97.9886 90.2116 96.9773C90.7344 95.9602 91.4759 95.1676 92.4361 94.5994C93.3963 94.0256 94.5384 93.7386 95.8622 93.7386C97.0043 93.7386 98.0043 93.946 98.8622 94.3608C99.7202 94.7756 100.399 95.358 100.899 96.108C101.399 96.858 101.675 97.7386 101.726 98.75H98.2997C98.2031 98.0966 97.9474 97.571 97.5327 97.1733C97.1236 96.7699 96.5866 96.5682 95.9219 96.5682C95.3594 96.5682 94.8679 96.7216 94.4474 97.0284C94.0327 97.3295 93.7088 97.7699 93.4759 98.3494C93.2429 98.929 93.1264 99.6307 93.1264 100.455C93.1264 101.29 93.2401 102 93.4673 102.585C93.7003 103.17 94.027 103.616 94.4474 103.923C94.8679 104.23 95.3594 104.384 95.9219 104.384C96.3366 104.384 96.7088 104.298 97.0384 104.128C97.3736 103.957 97.6491 103.71 97.8651 103.386C98.0866 103.057 98.2315 102.662 98.2997 102.202H101.726C101.669 103.202 101.396 104.082 100.908 104.844C100.425 105.599 99.7571 106.19 98.9048 106.616C98.0526 107.043 97.044 107.256 95.8793 107.256ZM104.05 107V93.9091H107.681V107H104.05ZM104.57 92.2216L106.377 88.3438H109.735L107.136 92.2216H104.57ZM34.3409 126.642L31.017 126.847C30.9602 126.562 30.8381 126.307 30.6506 126.08C30.4631 125.847 30.2159 125.662 29.9091 125.526C29.608 125.384 29.2472 125.312 28.8267 125.312C28.2642 125.312 27.7898 125.432 27.4034 125.67C27.017 125.903 26.8239 126.216 26.8239 126.608C26.8239 126.92 26.9489 127.185 27.1989 127.401C27.4489 127.616 27.8778 127.79 28.4858 127.92L30.8551 128.398C32.1278 128.659 33.0767 129.08 33.7017 129.659C34.3267 130.239 34.6392 131 34.6392 131.943C34.6392 132.801 34.3864 133.554 33.8807 134.202C33.3807 134.849 32.6932 135.355 31.8182 135.719C30.9489 136.077 29.946 136.256 28.8097 136.256C27.0767 136.256 25.696 135.895 24.6676 135.173C23.6449 134.446 23.0455 133.457 22.8693 132.207L26.4403 132.02C26.5483 132.548 26.8097 132.952 27.2244 133.23C27.6392 133.503 28.1705 133.639 28.8182 133.639C29.4545 133.639 29.9659 133.517 30.3523 133.273C30.7443 133.023 30.9432 132.702 30.9489 132.31C30.9432 131.98 30.804 131.71 30.5312 131.5C30.2585 131.284 29.8381 131.119 29.2699 131.006L27.0028 130.554C25.7244 130.298 24.7727 129.855 24.1477 129.224C23.5284 128.594 23.2188 127.79 23.2188 126.812C23.2188 125.972 23.446 125.247 23.9006 124.639C24.3608 124.031 25.0057 123.562 25.8352 123.233C26.6705 122.903 27.6477 122.739 28.767 122.739C30.4205 122.739 31.7216 123.088 32.6705 123.787C33.625 124.486 34.1818 125.437 34.3409 126.642ZM40.6584 136.247C39.8232 136.247 39.0788 136.102 38.4254 135.812C37.772 135.517 37.255 135.082 36.8743 134.509C36.4993 133.929 36.3118 133.207 36.3118 132.344C36.3118 131.616 36.4453 131.006 36.7124 130.511C36.9794 130.017 37.343 129.619 37.8033 129.318C38.2635 129.017 38.7862 128.79 39.3714 128.636C39.9624 128.483 40.5817 128.375 41.2294 128.312C41.9908 128.233 42.6044 128.159 43.0703 128.091C43.5362 128.017 43.8743 127.909 44.0845 127.767C44.2947 127.625 44.3999 127.415 44.3999 127.136V127.085C44.3999 126.545 44.2294 126.128 43.8885 125.832C43.5533 125.537 43.076 125.389 42.4567 125.389C41.8033 125.389 41.2834 125.534 40.897 125.824C40.5107 126.108 40.255 126.466 40.13 126.898L36.772 126.625C36.9425 125.83 37.2777 125.142 37.7777 124.562C38.2777 123.977 38.9226 123.528 39.7124 123.216C40.5078 122.898 41.4283 122.739 42.4737 122.739C43.201 122.739 43.897 122.824 44.5618 122.994C45.2322 123.165 45.826 123.429 46.343 123.787C46.8658 124.145 47.2777 124.605 47.5788 125.168C47.88 125.724 48.0305 126.392 48.0305 127.17V136H44.5874V134.185H44.4851C44.2749 134.594 43.9936 134.955 43.6413 135.267C43.2891 135.574 42.8658 135.815 42.3714 135.991C41.8771 136.162 41.3061 136.247 40.6584 136.247ZM41.6982 133.741C42.2322 133.741 42.7038 133.636 43.1129 133.426C43.522 133.21 43.843 132.92 44.076 132.557C44.3089 132.193 44.4254 131.781 44.4254 131.321V129.932C44.3118 130.006 44.1555 130.074 43.9567 130.136C43.7635 130.193 43.5447 130.247 43.3004 130.298C43.0561 130.344 42.8118 130.386 42.5675 130.426C42.3232 130.46 42.1016 130.491 41.9027 130.52C41.4766 130.582 41.1044 130.682 40.7862 130.818C40.468 130.955 40.2209 131.139 40.0447 131.372C39.8686 131.599 39.7805 131.884 39.7805 132.224C39.7805 132.719 39.9595 133.097 40.3175 133.358C40.6811 133.614 41.1413 133.741 41.6982 133.741ZM50.8473 136V122.909H54.3075V125.219H54.4609C54.7337 124.452 55.1882 123.847 55.8246 123.403C56.4609 122.96 57.2223 122.739 58.1087 122.739C59.0064 122.739 59.7706 122.963 60.4013 123.412C61.032 123.855 61.4524 124.457 61.6626 125.219H61.799C62.0661 124.469 62.549 123.869 63.2479 123.42C63.9524 122.966 64.7848 122.739 65.745 122.739C66.9666 122.739 67.9581 123.128 68.7195 123.906C69.4865 124.679 69.87 125.776 69.87 127.196V136H66.2479V127.912C66.2479 127.185 66.0547 126.639 65.6683 126.276C65.282 125.912 64.799 125.73 64.2195 125.73C63.5604 125.73 63.0462 125.94 62.6768 126.361C62.3075 126.776 62.1229 127.324 62.1229 128.006V136H58.603V127.835C58.603 127.193 58.4183 126.682 58.049 126.301C57.6854 125.92 57.2053 125.73 56.6087 125.73C56.2053 125.73 55.8416 125.832 55.5178 126.037C55.1996 126.236 54.9467 126.517 54.7592 126.881C54.5717 127.239 54.478 127.659 54.478 128.142V136H50.8473ZM78.6527 136.256C77.3288 136.256 76.1839 135.974 75.218 135.412C74.2578 134.844 73.5163 134.054 72.9936 133.043C72.4709 132.026 72.2095 130.847 72.2095 129.506C72.2095 128.153 72.4709 126.972 72.9936 125.96C73.5163 124.943 74.2578 124.153 75.218 123.591C76.1839 123.023 77.3288 122.739 78.6527 122.739C79.9766 122.739 81.1186 123.023 82.0788 123.591C83.0447 124.153 83.7891 124.943 84.3118 125.96C84.8345 126.972 85.0959 128.153 85.0959 129.506C85.0959 130.847 84.8345 132.026 84.3118 133.043C83.7891 134.054 83.0447 134.844 82.0788 135.412C81.1186 135.974 79.9766 136.256 78.6527 136.256ZM78.6697 133.443C79.272 133.443 79.7749 133.273 80.1783 132.932C80.5817 132.585 80.8857 132.114 81.0902 131.517C81.3004 130.92 81.4055 130.241 81.4055 129.48C81.4055 128.719 81.3004 128.04 81.0902 127.443C80.8857 126.847 80.5817 126.375 80.1783 126.028C79.7749 125.682 79.272 125.509 78.6697 125.509C78.0618 125.509 77.5504 125.682 77.1357 126.028C76.7266 126.375 76.4169 126.847 76.2067 127.443C76.0021 128.04 75.8999 128.719 75.8999 129.48C75.8999 130.241 76.0021 130.92 76.2067 131.517C76.4169 132.114 76.7266 132.585 77.1357 132.932C77.5504 133.273 78.0618 133.443 78.6697 133.443ZM92.2805 136.213C91.2862 136.213 90.3857 135.957 89.5788 135.446C88.7777 134.929 88.1413 134.17 87.6697 133.17C87.2038 132.165 86.9709 130.932 86.9709 129.472C86.9709 127.972 87.2124 126.724 87.6953 125.73C88.1783 124.73 88.8203 123.983 89.6214 123.489C90.4283 122.989 91.3118 122.739 92.272 122.739C93.005 122.739 93.6158 122.864 94.1044 123.114C94.5987 123.358 94.9964 123.665 95.2976 124.034C95.6044 124.398 95.8374 124.756 95.9964 125.108H96.1072V118.545H99.7294V136H96.1499V133.903H95.9964C95.826 134.267 95.5845 134.628 95.272 134.986C94.9652 135.338 94.5646 135.631 94.0703 135.864C93.5817 136.097 92.9851 136.213 92.2805 136.213ZM93.4311 133.324C94.0163 133.324 94.5107 133.165 94.9141 132.847C95.3232 132.523 95.6357 132.071 95.8516 131.491C96.0732 130.912 96.1839 130.233 96.1839 129.455C96.1839 128.676 96.076 128 95.8601 127.426C95.6442 126.852 95.3317 126.409 94.9226 126.097C94.5135 125.784 94.0163 125.628 93.4311 125.628C92.8345 125.628 92.3317 125.79 91.9226 126.114C91.5135 126.437 91.2038 126.886 90.9936 127.46C90.7834 128.034 90.6783 128.699 90.6783 129.455C90.6783 130.216 90.7834 130.889 90.9936 131.474C91.2095 132.054 91.5192 132.509 91.9226 132.838C92.3317 133.162 92.8345 133.324 93.4311 133.324ZM102.714 136V122.909H106.345V136H102.714ZM104.538 121.222C103.999 121.222 103.536 121.043 103.149 120.685C102.768 120.321 102.578 119.886 102.578 119.381C102.578 118.881 102.768 118.452 103.149 118.094C103.536 117.73 103.999 117.548 104.538 117.548C105.078 117.548 105.538 117.73 105.919 118.094C106.305 118.452 106.499 118.881 106.499 119.381C106.499 119.886 106.305 120.321 105.919 120.685C105.538 121.043 105.078 121.222 104.538 121.222ZM112.987 136.247C112.151 136.247 111.407 136.102 110.754 135.812C110.1 135.517 109.583 135.082 109.202 134.509C108.827 133.929 108.64 133.207 108.64 132.344C108.64 131.616 108.773 131.006 109.04 130.511C109.308 130.017 109.671 129.619 110.131 129.318C110.592 129.017 111.114 128.79 111.7 128.636C112.29 128.483 112.91 128.375 113.558 128.312C114.319 128.233 114.933 128.159 115.398 128.091C115.864 128.017 116.202 127.909 116.413 127.767C116.623 127.625 116.728 127.415 116.728 127.136V127.085C116.728 126.545 116.558 126.128 116.217 125.832C115.881 125.537 115.404 125.389 114.785 125.389C114.131 125.389 113.612 125.534 113.225 125.824C112.839 126.108 112.583 126.466 112.458 126.898L109.1 126.625C109.271 125.83 109.606 125.142 110.106 124.562C110.606 123.977 111.251 123.528 112.04 123.216C112.836 122.898 113.756 122.739 114.802 122.739C115.529 122.739 116.225 122.824 116.89 122.994C117.56 123.165 118.154 123.429 118.671 123.787C119.194 124.145 119.606 124.605 119.907 125.168C120.208 125.724 120.359 126.392 120.359 127.17V136H116.915V134.185H116.813C116.603 134.594 116.322 134.955 115.969 135.267C115.617 135.574 115.194 135.815 114.7 135.991C114.205 136.162 113.634 136.247 112.987 136.247ZM114.026 133.741C114.56 133.741 115.032 133.636 115.441 133.426C115.85 133.21 116.171 132.92 116.404 132.557C116.637 132.193 116.754 131.781 116.754 131.321V129.932C116.64 130.006 116.484 130.074 116.285 130.136C116.092 130.193 115.873 130.247 115.629 130.298C115.384 130.344 115.14 130.386 114.896 130.426C114.651 130.46 114.43 130.491 114.231 130.52C113.805 130.582 113.433 130.682 113.114 130.818C112.796 130.955 112.549 131.139 112.373 131.372C112.197 131.599 112.109 131.884 112.109 132.224C112.109 132.719 112.288 133.097 112.646 133.358C113.009 133.614 113.469 133.741 114.026 133.741ZM129.073 141.182C127.897 141.182 126.888 141.02 126.048 140.696C125.212 140.378 124.548 139.943 124.053 139.392C123.559 138.841 123.238 138.222 123.09 137.534L126.448 137.082C126.55 137.344 126.712 137.588 126.934 137.815C127.156 138.043 127.448 138.224 127.812 138.361C128.181 138.503 128.63 138.574 129.158 138.574C129.948 138.574 130.599 138.381 131.11 137.994C131.627 137.614 131.886 136.974 131.886 136.077V133.682H131.732C131.573 134.045 131.335 134.389 131.016 134.713C130.698 135.037 130.289 135.301 129.789 135.506C129.289 135.71 128.692 135.812 127.999 135.812C127.016 135.812 126.121 135.585 125.315 135.131C124.513 134.67 123.874 133.969 123.397 133.026C122.925 132.077 122.69 130.878 122.69 129.429C122.69 127.946 122.931 126.707 123.414 125.713C123.897 124.719 124.539 123.974 125.34 123.48C126.147 122.986 127.031 122.739 127.991 122.739C128.724 122.739 129.337 122.864 129.832 123.114C130.326 123.358 130.724 123.665 131.025 124.034C131.332 124.398 131.567 124.756 131.732 125.108H131.869V122.909H135.474V136.128C135.474 137.241 135.201 138.173 134.656 138.923C134.11 139.673 133.354 140.236 132.388 140.611C131.428 140.991 130.323 141.182 129.073 141.182ZM129.15 133.085C129.735 133.085 130.229 132.94 130.633 132.651C131.042 132.355 131.354 131.935 131.57 131.389C131.792 130.838 131.903 130.179 131.903 129.412C131.903 128.645 131.795 127.98 131.579 127.418C131.363 126.849 131.05 126.409 130.641 126.097C130.232 125.784 129.735 125.628 129.15 125.628C128.553 125.628 128.05 125.79 127.641 126.114C127.232 126.432 126.923 126.875 126.712 127.443C126.502 128.011 126.397 128.668 126.397 129.412C126.397 130.168 126.502 130.821 126.712 131.372C126.928 131.918 127.238 132.341 127.641 132.642C128.05 132.937 128.553 133.085 129.15 133.085ZM141.994 128.432V136H138.363V122.909H141.823V125.219H141.977C142.266 124.457 142.752 123.855 143.434 123.412C144.116 122.963 144.942 122.739 145.914 122.739C146.823 122.739 147.616 122.938 148.292 123.335C148.968 123.733 149.494 124.301 149.869 125.04C150.244 125.773 150.431 126.648 150.431 127.665V136H146.8V128.312C146.806 127.511 146.602 126.886 146.187 126.438C145.772 125.983 145.201 125.756 144.474 125.756C143.985 125.756 143.553 125.861 143.178 126.071C142.809 126.281 142.519 126.588 142.309 126.991C142.104 127.389 141.999 127.869 141.994 128.432ZM159.207 136.256C157.884 136.256 156.739 135.974 155.773 135.412C154.813 134.844 154.071 134.054 153.548 133.043C153.026 132.026 152.764 130.847 152.764 129.506C152.764 128.153 153.026 126.972 153.548 125.96C154.071 124.943 154.813 124.153 155.773 123.591C156.739 123.023 157.884 122.739 159.207 122.739C160.531 122.739 161.673 123.023 162.634 123.591C163.599 124.153 164.344 124.943 164.866 125.96C165.389 126.972 165.651 128.153 165.651 129.506C165.651 130.847 165.389 132.026 164.866 133.043C164.344 134.054 163.599 134.844 162.634 135.412C161.673 135.974 160.531 136.256 159.207 136.256ZM159.224 133.443C159.827 133.443 160.33 133.273 160.733 132.932C161.136 132.585 161.44 132.114 161.645 131.517C161.855 130.92 161.96 130.241 161.96 129.48C161.96 128.719 161.855 128.04 161.645 127.443C161.44 126.847 161.136 126.375 160.733 126.028C160.33 125.682 159.827 125.509 159.224 125.509C158.616 125.509 158.105 125.682 157.69 126.028C157.281 126.375 156.972 126.847 156.761 127.443C156.557 128.04 156.455 128.719 156.455 129.48C156.455 130.241 156.557 130.92 156.761 131.517C156.972 132.114 157.281 132.585 157.69 132.932C158.105 133.273 158.616 133.443 159.224 133.443ZM157.903 121.222L159.71 117.344H163.068L160.469 121.222H157.903ZM167.943 136V133.835L174.352 125.901V125.807H168.165V122.909H178.724V125.27L172.707 133.009V133.102H178.946V136H167.943ZM183.964 140.909C183.504 140.909 183.072 140.872 182.668 140.798C182.271 140.73 181.941 140.642 181.68 140.534L182.498 137.824C182.924 137.955 183.308 138.026 183.648 138.037C183.995 138.048 184.293 137.969 184.543 137.798C184.799 137.628 185.006 137.338 185.165 136.929L185.379 136.375L180.683 122.909H184.501L187.211 132.523H187.347L190.083 122.909H193.927L188.839 137.415C188.594 138.119 188.262 138.733 187.842 139.256C187.427 139.784 186.901 140.19 186.265 140.474C185.629 140.764 184.862 140.909 183.964 140.909Z" fill="black"/>
<path d="M278.917 91.75L285.167 98L278.917 104.25M299.75 98C299.75 87.6447 291.355 79.25 281 79.25C270.645 79.25 262.25 87.6447 262.25 98C262.25 108.355 270.645 116.75 281 116.75C291.355 116.75 299.75 108.355 299.75 98Z" stroke="black" stroke-width="3" stroke-linecap="round" stroke-linejoin="round"/>
</svg>
