<svg width="322" height="196" viewBox="0 0 322 196" fill="none" xmlns="http://www.w3.org/2000/svg">
<rect width="322" height="196" rx="15" fill="white"/>
<path d="M23.517 92V74.5455H27.2074V81.7472H34.6989V74.5455H38.3807V92H34.6989V84.7898H27.2074V92H23.517ZM44.9858 74.5455V92H41.3551V74.5455H44.9858ZM53.8601 92.2557C52.5135 92.2557 51.3544 91.983 50.3828 91.4375C49.4169 90.8864 48.6726 90.108 48.1499 89.1023C47.6271 88.0909 47.3658 86.8949 47.3658 85.5142C47.3658 84.1676 47.6271 82.9858 48.1499 81.9688C48.6726 80.9517 49.4084 80.1591 50.3572 79.5909C51.3118 79.0227 52.4311 78.7386 53.7152 78.7386C54.5788 78.7386 55.3828 78.8778 56.1271 79.1562C56.8771 79.429 57.5305 79.8409 58.0874 80.392C58.6499 80.9432 59.0874 81.6364 59.3999 82.4716C59.7124 83.3011 59.8686 84.2727 59.8686 85.3864V86.3835H48.8146V84.1335H56.451C56.451 83.6108 56.3374 83.1477 56.1101 82.7443C55.8828 82.3409 55.5675 82.0256 55.1641 81.7983C54.7663 81.5653 54.3033 81.4489 53.7749 81.4489C53.2237 81.4489 52.7351 81.5767 52.3089 81.8324C51.8885 82.0824 51.5589 82.4205 51.3203 82.8466C51.0817 83.267 50.9595 83.7358 50.9538 84.2528V86.392C50.9538 87.0398 51.0732 87.5994 51.3118 88.071C51.5561 88.5426 51.8999 88.9062 52.343 89.1619C52.7862 89.4176 53.3118 89.5455 53.9197 89.5455C54.3232 89.5455 54.6925 89.4886 55.0277 89.375C55.3629 89.2614 55.6499 89.0909 55.8885 88.8636C56.1271 88.6364 56.3089 88.358 56.4339 88.0284L59.7919 88.25C59.6214 89.0568 59.272 89.7614 58.7436 90.3636C58.2209 90.9602 57.5447 91.4261 56.7152 91.7614C55.8913 92.0909 54.9396 92.2557 53.8601 92.2557ZM67.0618 92.2131C66.0675 92.2131 65.1669 91.9574 64.3601 91.446C63.5589 90.929 62.9226 90.1705 62.451 89.1705C61.9851 88.1648 61.7521 86.9318 61.7521 85.4716C61.7521 83.9716 61.9936 82.7244 62.4766 81.7301C62.9595 80.7301 63.6016 79.983 64.4027 79.4886C65.2095 78.9886 66.093 78.7386 67.0533 78.7386C67.7862 78.7386 68.397 78.8636 68.8857 79.1136C69.38 79.358 69.7777 79.6648 70.0788 80.0341C70.3857 80.3977 70.6186 80.7557 70.7777 81.108H70.8885V74.5455H74.5107V92H70.9311V89.9034H70.7777C70.6072 90.267 70.3658 90.6278 70.0533 90.9858C69.7464 91.3381 69.3459 91.6307 68.8516 91.8636C68.3629 92.0966 67.7663 92.2131 67.0618 92.2131ZM68.2124 89.3239C68.7976 89.3239 69.2919 89.1648 69.6953 88.8466C70.1044 88.5227 70.4169 88.071 70.6328 87.4915C70.8544 86.9119 70.9652 86.233 70.9652 85.4545C70.9652 84.6761 70.8572 84 70.6413 83.4261C70.4254 82.8523 70.1129 82.4091 69.7038 82.0966C69.2947 81.7841 68.7976 81.6278 68.2124 81.6278C67.6158 81.6278 67.1129 81.7898 66.7038 82.1136C66.2947 82.4375 65.9851 82.8864 65.7749 83.4602C65.5646 84.0341 65.4595 84.6989 65.4595 85.4545C65.4595 86.2159 65.5646 86.8892 65.7749 87.4744C65.9908 88.054 66.3004 88.5085 66.7038 88.8381C67.1129 89.1619 67.6158 89.3239 68.2124 89.3239ZM81.2287 92.2472C80.3935 92.2472 79.6491 92.1023 78.9957 91.8125C78.3423 91.517 77.8253 91.0824 77.4446 90.5085C77.0696 89.929 76.8821 89.2074 76.8821 88.3438C76.8821 87.6165 77.0156 87.0057 77.2827 86.5114C77.5497 86.017 77.9134 85.6193 78.3736 85.3182C78.8338 85.017 79.3565 84.7898 79.9418 84.6364C80.5327 84.483 81.152 84.375 81.7997 84.3125C82.5611 84.233 83.1747 84.1591 83.6406 84.0909C84.1065 84.017 84.4446 83.9091 84.6548 83.767C84.8651 83.625 84.9702 83.4148 84.9702 83.1364V83.0852C84.9702 82.5455 84.7997 82.1278 84.4588 81.8324C84.1236 81.5369 83.6463 81.3892 83.027 81.3892C82.3736 81.3892 81.8537 81.5341 81.4673 81.8239C81.081 82.108 80.8253 82.4659 80.7003 82.8977L77.3423 82.625C77.5128 81.8295 77.848 81.142 78.348 80.5625C78.848 79.9773 79.4929 79.5284 80.2827 79.2159C81.0781 78.8977 81.9986 78.7386 83.044 78.7386C83.7713 78.7386 84.4673 78.8239 85.1321 78.9943C85.8026 79.1648 86.3963 79.429 86.9134 79.7869C87.4361 80.1449 87.848 80.6051 88.1491 81.1676C88.4503 81.7244 88.6009 82.392 88.6009 83.1705V92H85.1577V90.1847H85.0554C84.8452 90.5938 84.5639 90.9545 84.2116 91.267C83.8594 91.5739 83.4361 91.8153 82.9418 91.9915C82.4474 92.1619 81.8764 92.2472 81.2287 92.2472ZM82.2685 89.7415C82.8026 89.7415 83.2741 89.6364 83.6832 89.4261C84.0923 89.2102 84.4134 88.9205 84.6463 88.5568C84.8793 88.1932 84.9957 87.7812 84.9957 87.321V85.9318C84.8821 86.0057 84.7259 86.0739 84.527 86.1364C84.3338 86.1932 84.1151 86.2472 83.8707 86.2983C83.6264 86.3437 83.3821 86.3864 83.1378 86.4261C82.8935 86.4602 82.6719 86.4915 82.473 86.5199C82.0469 86.5824 81.6747 86.6818 81.3565 86.8182C81.0384 86.9545 80.7912 87.1392 80.6151 87.3722C80.4389 87.5994 80.3509 87.8835 80.3509 88.2244C80.3509 88.7188 80.5298 89.0966 80.8878 89.358C81.2514 89.6136 81.7116 89.7415 82.2685 89.7415ZM98.3807 78.9091V81.6364H90.4972V78.9091H98.3807ZM92.2869 75.7727H95.9176V87.9773C95.9176 88.3125 95.9688 88.5739 96.071 88.7614C96.1733 88.9432 96.3153 89.071 96.4972 89.1449C96.6847 89.2187 96.9006 89.2557 97.1449 89.2557C97.3153 89.2557 97.4858 89.2415 97.6562 89.2131C97.8267 89.179 97.9574 89.1534 98.0483 89.1364L98.6193 91.8381C98.4375 91.8949 98.1818 91.9602 97.8523 92.0341C97.5227 92.1136 97.1222 92.1619 96.6506 92.179C95.7756 92.2131 95.0085 92.0966 94.3494 91.8295C93.696 91.5625 93.1875 91.1477 92.8239 90.5852C92.4602 90.0227 92.2813 89.3125 92.2869 88.4545V75.7727ZM109.931 74.5455V92H106.3V74.5455H109.931ZM118.805 92.2557C117.459 92.2557 116.3 91.983 115.328 91.4375C114.362 90.8864 113.618 90.108 113.095 89.1023C112.572 88.0909 112.311 86.8949 112.311 85.5142C112.311 84.1676 112.572 82.9858 113.095 81.9688C113.618 80.9517 114.354 80.1591 115.303 79.5909C116.257 79.0227 117.376 78.7386 118.661 78.7386C119.524 78.7386 120.328 78.8778 121.072 79.1562C121.822 79.429 122.476 79.8409 123.033 80.392C123.595 80.9432 124.033 81.6364 124.345 82.4716C124.658 83.3011 124.814 84.2727 124.814 85.3864V86.3835H113.76V84.1335H121.396C121.396 83.6108 121.283 83.1477 121.055 82.7443C120.828 82.3409 120.513 82.0256 120.109 81.7983C119.712 81.5653 119.249 81.4489 118.72 81.4489C118.169 81.4489 117.68 81.5767 117.254 81.8324C116.834 82.0824 116.504 82.4205 116.266 82.8466C116.027 83.267 115.905 83.7358 115.899 84.2528V86.392C115.899 87.0398 116.018 87.5994 116.257 88.071C116.501 88.5426 116.845 88.9062 117.288 89.1619C117.732 89.4176 118.257 89.5455 118.865 89.5455C119.268 89.5455 119.638 89.4886 119.973 89.375C120.308 89.2614 120.595 89.0909 120.834 88.8636C121.072 88.6364 121.254 88.358 121.379 88.0284L124.737 88.25C124.567 89.0568 124.217 89.7614 123.689 90.3636C123.166 90.9602 122.49 91.4261 121.661 91.7614C120.837 92.0909 119.885 92.2557 118.805 92.2557ZM117.271 77.2216L119.078 73.3438H122.436L119.837 77.2216H117.271ZM130.473 88.233L130.482 83.8778H131.01L135.203 78.9091H139.371L133.737 85.4886H132.876L130.473 88.233ZM127.183 92V74.5455H130.814V92H127.183ZM135.365 92L131.513 86.2983L133.933 83.733L139.618 92H135.365ZM144.885 92.2472C144.05 92.2472 143.305 92.1023 142.652 91.8125C141.999 91.517 141.482 91.0824 141.101 90.5085C140.726 89.929 140.538 89.2074 140.538 88.3438C140.538 87.6165 140.672 87.0057 140.939 86.5114C141.206 86.017 141.57 85.6193 142.03 85.3182C142.49 85.017 143.013 84.7898 143.598 84.6364C144.189 84.483 144.808 84.375 145.456 84.3125C146.217 84.233 146.831 84.1591 147.297 84.0909C147.763 84.017 148.101 83.9091 148.311 83.767C148.521 83.625 148.626 83.4148 148.626 83.1364V83.0852C148.626 82.5455 148.456 82.1278 148.115 81.8324C147.78 81.5369 147.303 81.3892 146.683 81.3892C146.03 81.3892 145.51 81.5341 145.124 81.8239C144.737 82.108 144.482 82.4659 144.357 82.8977L140.999 82.625C141.169 81.8295 141.504 81.142 142.004 80.5625C142.504 79.9773 143.149 79.5284 143.939 79.2159C144.734 78.8977 145.655 78.7386 146.7 78.7386C147.428 78.7386 148.124 78.8239 148.788 78.9943C149.459 79.1648 150.053 79.429 150.57 79.7869C151.092 80.1449 151.504 80.6051 151.805 81.1676C152.107 81.7244 152.257 82.392 152.257 83.1705V92H148.814V90.1847H148.712C148.501 90.5938 148.22 90.9545 147.868 91.267C147.516 91.5739 147.092 91.8153 146.598 91.9915C146.104 92.1619 145.533 92.2472 144.885 92.2472ZM145.925 89.7415C146.459 89.7415 146.93 89.6364 147.339 89.4261C147.749 89.2102 148.07 88.9205 148.303 88.5568C148.536 88.1932 148.652 87.7812 148.652 87.321V85.9318C148.538 86.0057 148.382 86.0739 148.183 86.1364C147.99 86.1932 147.771 86.2472 147.527 86.2983C147.283 86.3437 147.038 86.3864 146.794 86.4261C146.55 86.4602 146.328 86.4915 146.129 86.5199C145.703 86.5824 145.331 86.6818 145.013 86.8182C144.695 86.9545 144.447 87.1392 144.271 87.3722C144.095 87.5994 144.007 87.8835 144.007 88.2244C144.007 88.7188 144.186 89.0966 144.544 89.358C144.908 89.6136 145.368 89.7415 145.925 89.7415ZM155.074 92V78.9091H158.594V81.1932H158.73C158.969 80.3807 159.369 79.767 159.932 79.3523C160.494 78.9318 161.142 78.7216 161.875 78.7216C162.057 78.7216 162.253 78.733 162.463 78.7557C162.673 78.7784 162.858 78.8097 163.017 78.8494V82.071C162.847 82.0199 162.611 81.9744 162.31 81.9347C162.009 81.8949 161.733 81.875 161.483 81.875C160.949 81.875 160.472 81.9915 160.051 82.2244C159.636 82.4517 159.307 82.7699 159.062 83.179C158.824 83.5881 158.705 84.0597 158.705 84.5938V92H155.074ZM157.29 73.4716L159.003 75.5511L160.716 73.4716H163.81V73.5909L160.349 77.3409H157.648L154.196 73.5909V73.4716H157.29ZM170.251 92.2557C168.904 92.2557 167.745 91.983 166.773 91.4375C165.808 90.8864 165.063 90.108 164.54 89.1023C164.018 88.0909 163.756 86.8949 163.756 85.5142C163.756 84.1676 164.018 82.9858 164.54 81.9688C165.063 80.9517 165.799 80.1591 166.748 79.5909C167.702 79.0227 168.822 78.7386 170.106 78.7386C170.969 78.7386 171.773 78.8778 172.518 79.1562C173.268 79.429 173.921 79.8409 174.478 80.392C175.04 80.9432 175.478 81.6364 175.79 82.4716C176.103 83.3011 176.259 84.2727 176.259 85.3864V86.3835H165.205V84.1335H172.842C172.842 83.6108 172.728 83.1477 172.501 82.7443C172.273 82.3409 171.958 82.0256 171.555 81.7983C171.157 81.5653 170.694 81.4489 170.165 81.4489C169.614 81.4489 169.126 81.5767 168.7 81.8324C168.279 82.0824 167.95 82.4205 167.711 82.8466C167.472 83.267 167.35 83.7358 167.344 84.2528V86.392C167.344 87.0398 167.464 87.5994 167.702 88.071C167.947 88.5426 168.29 88.9062 168.734 89.1619C169.177 89.4176 169.702 89.5455 170.31 89.5455C170.714 89.5455 171.083 89.4886 171.418 89.375C171.754 89.2614 172.04 89.0909 172.279 88.8636C172.518 88.6364 172.7 88.358 172.825 88.0284L176.183 88.25C176.012 89.0568 175.663 89.7614 175.134 90.3636C174.612 90.9602 173.935 91.4261 173.106 91.7614C172.282 92.0909 171.33 92.2557 170.251 92.2557ZM23.4489 125.909V107.909H27.0284V110.108H27.1903C27.3494 109.756 27.5795 109.398 27.8807 109.034C28.1875 108.665 28.5852 108.358 29.0739 108.114C29.5682 107.864 30.1818 107.739 30.9148 107.739C31.8693 107.739 32.75 107.989 33.5568 108.489C34.3636 108.983 35.0085 109.73 35.4915 110.73C35.9744 111.724 36.2159 112.972 36.2159 114.472C36.2159 115.932 35.9801 117.165 35.5085 118.17C35.0426 119.17 34.4063 119.929 33.5994 120.446C32.7983 120.957 31.9006 121.213 30.9062 121.213C30.2017 121.213 29.6023 121.097 29.108 120.864C28.6193 120.631 28.2188 120.338 27.9062 119.986C27.5938 119.628 27.3551 119.267 27.1903 118.903H27.0795V125.909H23.4489ZM27.0028 114.455C27.0028 115.233 27.1108 115.912 27.3267 116.491C27.5426 117.071 27.8551 117.523 28.2642 117.847C28.6733 118.165 29.1705 118.324 29.7557 118.324C30.3466 118.324 30.8466 118.162 31.2557 117.838C31.6648 117.509 31.9744 117.054 32.1847 116.474C32.4006 115.889 32.5085 115.216 32.5085 114.455C32.5085 113.699 32.4034 113.034 32.1932 112.46C31.983 111.886 31.6733 111.437 31.2642 111.114C30.8551 110.79 30.3523 110.628 29.7557 110.628C29.1648 110.628 28.6648 110.784 28.2557 111.097C27.8523 111.409 27.5426 111.852 27.3267 112.426C27.1108 113 27.0028 113.676 27.0028 114.455ZM44.5511 121.256C43.2273 121.256 42.0824 120.974 41.1165 120.412C40.1563 119.844 39.4148 119.054 38.892 118.043C38.3693 117.026 38.108 115.847 38.108 114.506C38.108 113.153 38.3693 111.972 38.892 110.96C39.4148 109.943 40.1563 109.153 41.1165 108.591C42.0824 108.023 43.2273 107.739 44.5511 107.739C45.875 107.739 47.017 108.023 47.9773 108.591C48.9432 109.153 49.6875 109.943 50.2102 110.96C50.733 111.972 50.9943 113.153 50.9943 114.506C50.9943 115.847 50.733 117.026 50.2102 118.043C49.6875 119.054 48.9432 119.844 47.9773 120.412C47.017 120.974 45.875 121.256 44.5511 121.256ZM44.5682 118.443C45.1705 118.443 45.6733 118.273 46.0767 117.932C46.4801 117.585 46.7841 117.114 46.9886 116.517C47.1989 115.92 47.304 115.241 47.304 114.48C47.304 113.719 47.1989 113.04 46.9886 112.443C46.7841 111.847 46.4801 111.375 46.0767 111.028C45.6733 110.682 45.1705 110.509 44.5682 110.509C43.9602 110.509 43.4489 110.682 43.0341 111.028C42.625 111.375 42.3153 111.847 42.1051 112.443C41.9006 113.04 41.7983 113.719 41.7983 114.48C41.7983 115.241 41.9006 115.92 42.1051 116.517C42.3153 117.114 42.625 117.585 43.0341 117.932C43.4489 118.273 43.9602 118.443 44.5682 118.443ZM58.179 121.213C57.1847 121.213 56.2841 120.957 55.4773 120.446C54.6761 119.929 54.0398 119.17 53.5682 118.17C53.1023 117.165 52.8693 115.932 52.8693 114.472C52.8693 112.972 53.1108 111.724 53.5938 110.73C54.0767 109.73 54.7188 108.983 55.5199 108.489C56.3267 107.989 57.2102 107.739 58.1705 107.739C58.9034 107.739 59.5142 107.864 60.0028 108.114C60.4972 108.358 60.8949 108.665 61.196 109.034C61.5028 109.398 61.7358 109.756 61.8949 110.108H62.0057V103.545H65.6278V121H62.0483V118.903H61.8949C61.7244 119.267 61.483 119.628 61.1705 119.986C60.8636 120.338 60.4631 120.631 59.9688 120.864C59.4801 121.097 58.8835 121.213 58.179 121.213ZM59.3295 118.324C59.9148 118.324 60.4091 118.165 60.8125 117.847C61.2216 117.523 61.5341 117.071 61.75 116.491C61.9716 115.912 62.0824 115.233 62.0824 114.455C62.0824 113.676 61.9744 113 61.7585 112.426C61.5426 111.852 61.2301 111.409 60.821 111.097C60.4119 110.784 59.9148 110.628 59.3295 110.628C58.733 110.628 58.2301 110.79 57.821 111.114C57.4119 111.437 57.1023 111.886 56.892 112.46C56.6818 113.034 56.5767 113.699 56.5767 114.455C56.5767 115.216 56.6818 115.889 56.892 116.474C57.108 117.054 57.4176 117.509 57.821 117.838C58.2301 118.162 58.733 118.324 59.3295 118.324ZM72.2436 103.545V121H68.6129V103.545H72.2436ZM81.1179 121.256C79.7713 121.256 78.6122 120.983 77.6406 120.438C76.6747 119.886 75.9304 119.108 75.4077 118.102C74.8849 117.091 74.6236 115.895 74.6236 114.514C74.6236 113.168 74.8849 111.986 75.4077 110.969C75.9304 109.952 76.6662 109.159 77.6151 108.591C78.5696 108.023 79.6889 107.739 80.973 107.739C81.8366 107.739 82.6406 107.878 83.3849 108.156C84.1349 108.429 84.7884 108.841 85.3452 109.392C85.9077 109.943 86.3452 110.636 86.6577 111.472C86.9702 112.301 87.1264 113.273 87.1264 114.386V115.384H76.0724V113.134H83.7088C83.7088 112.611 83.5952 112.148 83.3679 111.744C83.1406 111.341 82.8253 111.026 82.4219 110.798C82.0241 110.565 81.5611 110.449 81.0327 110.449C80.4815 110.449 79.9929 110.577 79.5668 110.832C79.1463 111.082 78.8168 111.42 78.5781 111.847C78.3395 112.267 78.2173 112.736 78.2116 113.253V115.392C78.2116 116.04 78.331 116.599 78.5696 117.071C78.8139 117.543 79.1577 117.906 79.6009 118.162C80.044 118.418 80.5696 118.545 81.1776 118.545C81.581 118.545 81.9503 118.489 82.2855 118.375C82.6207 118.261 82.9077 118.091 83.1463 117.864C83.3849 117.636 83.5668 117.358 83.6918 117.028L87.0497 117.25C86.8793 118.057 86.5298 118.761 86.0014 119.364C85.4787 119.96 84.8026 120.426 83.973 120.761C83.1491 121.091 82.1974 121.256 81.1179 121.256ZM100.965 121.256C99.6413 121.256 98.4964 120.974 97.5305 120.412C96.5703 119.844 95.8288 119.054 95.3061 118.043C94.7834 117.026 94.522 115.847 94.522 114.506C94.522 113.153 94.7834 111.972 95.3061 110.96C95.8288 109.943 96.5703 109.153 97.5305 108.591C98.4964 108.023 99.6413 107.739 100.965 107.739C102.289 107.739 103.431 108.023 104.391 108.591C105.357 109.153 106.102 109.943 106.624 110.96C107.147 111.972 107.408 113.153 107.408 114.506C107.408 115.847 107.147 117.026 106.624 118.043C106.102 119.054 105.357 119.844 104.391 120.412C103.431 120.974 102.289 121.256 100.965 121.256ZM100.982 118.443C101.585 118.443 102.087 118.273 102.491 117.932C102.894 117.585 103.198 117.114 103.403 116.517C103.613 115.92 103.718 115.241 103.718 114.48C103.718 113.719 103.613 113.04 103.403 112.443C103.198 111.847 102.894 111.375 102.491 111.028C102.087 110.682 101.585 110.509 100.982 110.509C100.374 110.509 99.8629 110.682 99.4482 111.028C99.0391 111.375 98.7294 111.847 98.5192 112.443C98.3146 113.04 98.2124 113.719 98.2124 114.48C98.2124 115.241 98.3146 115.92 98.5192 116.517C98.7294 117.114 99.0391 117.585 99.4482 117.932C99.8629 118.273 100.374 118.443 100.982 118.443ZM109.837 121V103.545H113.468V110.108H113.579C113.738 109.756 113.968 109.398 114.269 109.034C114.576 108.665 114.974 108.358 115.462 108.114C115.957 107.864 116.57 107.739 117.303 107.739C118.258 107.739 119.138 107.989 119.945 108.489C120.752 108.983 121.397 109.73 121.88 110.73C122.363 111.724 122.604 112.972 122.604 114.472C122.604 115.932 122.369 117.165 121.897 118.17C121.431 119.17 120.795 119.929 119.988 120.446C119.187 120.957 118.289 121.213 117.295 121.213C116.59 121.213 115.991 121.097 115.496 120.864C115.008 120.631 114.607 120.338 114.295 119.986C113.982 119.628 113.744 119.267 113.579 118.903H113.417V121H109.837ZM113.391 114.455C113.391 115.233 113.499 115.912 113.715 116.491C113.931 117.071 114.244 117.523 114.653 117.847C115.062 118.165 115.559 118.324 116.144 118.324C116.735 118.324 117.235 118.162 117.644 117.838C118.053 117.509 118.363 117.054 118.573 116.474C118.789 115.889 118.897 115.216 118.897 114.455C118.897 113.699 118.792 113.034 118.582 112.46C118.371 111.886 118.062 111.437 117.653 111.114C117.244 110.79 116.741 110.628 116.144 110.628C115.553 110.628 115.053 110.784 114.644 111.097C114.241 111.409 113.931 111.852 113.715 112.426C113.499 113 113.391 113.676 113.391 114.455ZM130.942 121.256C129.618 121.256 128.473 120.974 127.507 120.412C126.547 119.844 125.805 119.054 125.283 118.043C124.76 117.026 124.499 115.847 124.499 114.506C124.499 113.153 124.76 111.972 125.283 110.96C125.805 109.943 126.547 109.153 127.507 108.591C128.473 108.023 129.618 107.739 130.942 107.739C132.266 107.739 133.408 108.023 134.368 108.591C135.334 109.153 136.078 109.943 136.601 110.96C137.124 111.972 137.385 113.153 137.385 114.506C137.385 115.847 137.124 117.026 136.601 118.043C136.078 119.054 135.334 119.844 134.368 120.412C133.408 120.974 132.266 121.256 130.942 121.256ZM130.959 118.443C131.561 118.443 132.064 118.273 132.467 117.932C132.871 117.585 133.175 117.114 133.379 116.517C133.589 115.92 133.695 115.241 133.695 114.48C133.695 113.719 133.589 113.04 133.379 112.443C133.175 111.847 132.871 111.375 132.467 111.028C132.064 110.682 131.561 110.509 130.959 110.509C130.351 110.509 129.839 110.682 129.425 111.028C129.016 111.375 128.706 111.847 128.496 112.443C128.291 113.04 128.189 113.719 128.189 114.48C128.189 115.241 128.291 115.92 128.496 116.517C128.706 117.114 129.016 117.585 129.425 117.932C129.839 118.273 130.351 118.443 130.959 118.443ZM139.746 121V107.909H143.266V110.193H143.402C143.641 109.381 144.041 108.767 144.604 108.352C145.166 107.932 145.814 107.722 146.547 107.722C146.729 107.722 146.925 107.733 147.135 107.756C147.345 107.778 147.53 107.81 147.689 107.849V111.071C147.518 111.02 147.283 110.974 146.982 110.935C146.68 110.895 146.405 110.875 146.155 110.875C145.621 110.875 145.143 110.991 144.723 111.224C144.308 111.452 143.979 111.77 143.734 112.179C143.496 112.588 143.376 113.06 143.376 113.594V121H139.746ZM157.961 115.426V107.909H161.592V121H158.106V118.622H157.969C157.674 119.389 157.183 120.006 156.495 120.472C155.813 120.937 154.981 121.17 153.998 121.17C153.123 121.17 152.353 120.972 151.688 120.574C151.023 120.176 150.504 119.611 150.129 118.878C149.759 118.145 149.572 117.267 149.566 116.244V107.909H153.197V115.597C153.202 116.369 153.41 116.98 153.819 117.429C154.228 117.878 154.776 118.102 155.464 118.102C155.901 118.102 156.31 118.003 156.691 117.804C157.072 117.599 157.379 117.298 157.612 116.901C157.85 116.503 157.967 116.011 157.961 115.426Z" fill="black"/>
<path d="M279.977 90.6893C279.392 90.1036 278.442 90.1036 277.856 90.6893C277.27 91.2751 277.27 92.2249 277.856 92.8107L279.977 90.6893ZM285.167 98L286.227 99.0607C286.813 98.4749 286.813 97.5251 286.227 96.9393L285.167 98ZM277.856 103.189C277.27 103.775 277.27 104.725 277.856 105.311C278.442 105.896 279.392 105.896 279.977 105.311L277.856 103.189ZM301.25 98C301.25 86.8162 292.184 77.75 281 77.75V80.75C290.527 80.75 298.25 88.4731 298.25 98H301.25ZM281 77.75C269.816 77.75 260.75 86.8162 260.75 98H263.75C263.75 88.4731 271.473 80.75 281 80.75V77.75ZM260.75 98C260.75 109.184 269.816 118.25 281 118.25V115.25C271.473 115.25 263.75 107.527 263.75 98H260.75ZM281 118.25C292.184 118.25 301.25 109.184 301.25 98H298.25C298.25 107.527 290.527 115.25 281 115.25V118.25ZM277.856 92.8107L284.106 99.0607L286.227 96.9393L279.977 90.6893L277.856 92.8107ZM284.106 96.9393L277.856 103.189L279.977 105.311L286.227 99.0607L284.106 96.9393Z" fill="#DE091C"/>
</svg>
