<svg width="322" height="196" viewBox="0 0 322 196" fill="none" xmlns="http://www.w3.org/2000/svg">
<rect width="322" height="196" rx="15" fill="#24CE85"/>
<path d="M23.517 174V156.545H27.2074V163.747H34.6989V156.545H38.3807V174H34.6989V166.79H27.2074V174H23.517ZM44.9858 156.545V174H41.3551V156.545H44.9858ZM53.8601 174.256C52.5135 174.256 51.3544 173.983 50.3828 173.438C49.4169 172.886 48.6726 172.108 48.1499 171.102C47.6271 170.091 47.3658 168.895 47.3658 167.514C47.3658 166.168 47.6271 164.986 48.1499 163.969C48.6726 162.952 49.4084 162.159 50.3572 161.591C51.3118 161.023 52.4311 160.739 53.7152 160.739C54.5788 160.739 55.3828 160.878 56.1271 161.156C56.8771 161.429 57.5305 161.841 58.0874 162.392C58.6499 162.943 59.0874 163.636 59.3999 164.472C59.7124 165.301 59.8686 166.273 59.8686 167.386V168.384H48.8146V166.134H56.451C56.451 165.611 56.3374 165.148 56.1101 164.744C55.8828 164.341 55.5675 164.026 55.1641 163.798C54.7663 163.565 54.3033 163.449 53.7749 163.449C53.2237 163.449 52.7351 163.577 52.3089 163.832C51.8885 164.082 51.5589 164.42 51.3203 164.847C51.0817 165.267 50.9595 165.736 50.9538 166.253V168.392C50.9538 169.04 51.0732 169.599 51.3118 170.071C51.5561 170.543 51.8999 170.906 52.343 171.162C52.7862 171.418 53.3118 171.545 53.9197 171.545C54.3232 171.545 54.6925 171.489 55.0277 171.375C55.3629 171.261 55.6499 171.091 55.8885 170.864C56.1271 170.636 56.3089 170.358 56.4339 170.028L59.7919 170.25C59.6214 171.057 59.272 171.761 58.7436 172.364C58.2209 172.96 57.5447 173.426 56.7152 173.761C55.8913 174.091 54.9396 174.256 53.8601 174.256ZM67.0618 174.213C66.0675 174.213 65.1669 173.957 64.3601 173.446C63.5589 172.929 62.9226 172.17 62.451 171.17C61.9851 170.165 61.7521 168.932 61.7521 167.472C61.7521 165.972 61.9936 164.724 62.4766 163.73C62.9595 162.73 63.6016 161.983 64.4027 161.489C65.2095 160.989 66.093 160.739 67.0533 160.739C67.7862 160.739 68.397 160.864 68.8857 161.114C69.38 161.358 69.7777 161.665 70.0788 162.034C70.3857 162.398 70.6186 162.756 70.7777 163.108H70.8885V156.545H74.5107V174H70.9311V171.903H70.7777C70.6072 172.267 70.3658 172.628 70.0533 172.986C69.7464 173.338 69.3459 173.631 68.8516 173.864C68.3629 174.097 67.7663 174.213 67.0618 174.213ZM68.2124 171.324C68.7976 171.324 69.2919 171.165 69.6953 170.847C70.1044 170.523 70.4169 170.071 70.6328 169.491C70.8544 168.912 70.9652 168.233 70.9652 167.455C70.9652 166.676 70.8572 166 70.6413 165.426C70.4254 164.852 70.1129 164.409 69.7038 164.097C69.2947 163.784 68.7976 163.628 68.2124 163.628C67.6158 163.628 67.1129 163.79 66.7038 164.114C66.2947 164.437 65.9851 164.886 65.7749 165.46C65.5646 166.034 65.4595 166.699 65.4595 167.455C65.4595 168.216 65.5646 168.889 65.7749 169.474C65.9908 170.054 66.3004 170.509 66.7038 170.838C67.1129 171.162 67.6158 171.324 68.2124 171.324ZM81.2287 174.247C80.3935 174.247 79.6491 174.102 78.9957 173.812C78.3423 173.517 77.8253 173.082 77.4446 172.509C77.0696 171.929 76.8821 171.207 76.8821 170.344C76.8821 169.616 77.0156 169.006 77.2827 168.511C77.5497 168.017 77.9134 167.619 78.3736 167.318C78.8338 167.017 79.3565 166.79 79.9418 166.636C80.5327 166.483 81.152 166.375 81.7997 166.312C82.5611 166.233 83.1747 166.159 83.6406 166.091C84.1065 166.017 84.4446 165.909 84.6548 165.767C84.8651 165.625 84.9702 165.415 84.9702 165.136V165.085C84.9702 164.545 84.7997 164.128 84.4588 163.832C84.1236 163.537 83.6463 163.389 83.027 163.389C82.3736 163.389 81.8537 163.534 81.4673 163.824C81.081 164.108 80.8253 164.466 80.7003 164.898L77.3423 164.625C77.5128 163.83 77.848 163.142 78.348 162.562C78.848 161.977 79.4929 161.528 80.2827 161.216C81.0781 160.898 81.9986 160.739 83.044 160.739C83.7713 160.739 84.4673 160.824 85.1321 160.994C85.8026 161.165 86.3963 161.429 86.9134 161.787C87.4361 162.145 87.848 162.605 88.1491 163.168C88.4503 163.724 88.6009 164.392 88.6009 165.17V174H85.1577V172.185H85.0554C84.8452 172.594 84.5639 172.955 84.2116 173.267C83.8594 173.574 83.4361 173.815 82.9418 173.991C82.4474 174.162 81.8764 174.247 81.2287 174.247ZM82.2685 171.741C82.8026 171.741 83.2741 171.636 83.6832 171.426C84.0923 171.21 84.4134 170.92 84.6463 170.557C84.8793 170.193 84.9957 169.781 84.9957 169.321V167.932C84.8821 168.006 84.7259 168.074 84.527 168.136C84.3338 168.193 84.1151 168.247 83.8707 168.298C83.6264 168.344 83.3821 168.386 83.1378 168.426C82.8935 168.46 82.6719 168.491 82.473 168.52C82.0469 168.582 81.6747 168.682 81.3565 168.818C81.0384 168.955 80.7912 169.139 80.6151 169.372C80.4389 169.599 80.3509 169.884 80.3509 170.224C80.3509 170.719 80.5298 171.097 80.8878 171.358C81.2514 171.614 81.7116 171.741 82.2685 171.741ZM98.3807 160.909V163.636H90.4972V160.909H98.3807ZM92.2869 157.773H95.9176V169.977C95.9176 170.312 95.9688 170.574 96.071 170.761C96.1733 170.943 96.3153 171.071 96.4972 171.145C96.6847 171.219 96.9006 171.256 97.1449 171.256C97.3153 171.256 97.4858 171.241 97.6562 171.213C97.8267 171.179 97.9574 171.153 98.0483 171.136L98.6193 173.838C98.4375 173.895 98.1818 173.96 97.8523 174.034C97.5227 174.114 97.1222 174.162 96.6506 174.179C95.7756 174.213 95.0085 174.097 94.3494 173.83C93.696 173.562 93.1875 173.148 92.8239 172.585C92.4602 172.023 92.2813 171.312 92.2869 170.455V157.773ZM109.931 156.545V174H106.3V156.545H109.931ZM118.805 174.256C117.459 174.256 116.3 173.983 115.328 173.438C114.362 172.886 113.618 172.108 113.095 171.102C112.572 170.091 112.311 168.895 112.311 167.514C112.311 166.168 112.572 164.986 113.095 163.969C113.618 162.952 114.354 162.159 115.303 161.591C116.257 161.023 117.376 160.739 118.661 160.739C119.524 160.739 120.328 160.878 121.072 161.156C121.822 161.429 122.476 161.841 123.033 162.392C123.595 162.943 124.033 163.636 124.345 164.472C124.658 165.301 124.814 166.273 124.814 167.386V168.384H113.76V166.134H121.396C121.396 165.611 121.283 165.148 121.055 164.744C120.828 164.341 120.513 164.026 120.109 163.798C119.712 163.565 119.249 163.449 118.72 163.449C118.169 163.449 117.68 163.577 117.254 163.832C116.834 164.082 116.504 164.42 116.266 164.847C116.027 165.267 115.905 165.736 115.899 166.253V168.392C115.899 169.04 116.018 169.599 116.257 170.071C116.501 170.543 116.845 170.906 117.288 171.162C117.732 171.418 118.257 171.545 118.865 171.545C119.268 171.545 119.638 171.489 119.973 171.375C120.308 171.261 120.595 171.091 120.834 170.864C121.072 170.636 121.254 170.358 121.379 170.028L124.737 170.25C124.567 171.057 124.217 171.761 123.689 172.364C123.166 172.96 122.49 173.426 121.661 173.761C120.837 174.091 119.885 174.256 118.805 174.256ZM117.271 159.222L119.078 155.344H122.436L119.837 159.222H117.271ZM130.473 170.233L130.482 165.878H131.01L135.203 160.909H139.371L133.737 167.489H132.876L130.473 170.233ZM127.183 174V156.545H130.814V174H127.183ZM135.365 174L131.513 168.298L133.933 165.733L139.618 174H135.365ZM144.885 174.247C144.05 174.247 143.305 174.102 142.652 173.812C141.999 173.517 141.482 173.082 141.101 172.509C140.726 171.929 140.538 171.207 140.538 170.344C140.538 169.616 140.672 169.006 140.939 168.511C141.206 168.017 141.57 167.619 142.03 167.318C142.49 167.017 143.013 166.79 143.598 166.636C144.189 166.483 144.808 166.375 145.456 166.312C146.217 166.233 146.831 166.159 147.297 166.091C147.763 166.017 148.101 165.909 148.311 165.767C148.521 165.625 148.626 165.415 148.626 165.136V165.085C148.626 164.545 148.456 164.128 148.115 163.832C147.78 163.537 147.303 163.389 146.683 163.389C146.03 163.389 145.51 163.534 145.124 163.824C144.737 164.108 144.482 164.466 144.357 164.898L140.999 164.625C141.169 163.83 141.504 163.142 142.004 162.562C142.504 161.977 143.149 161.528 143.939 161.216C144.734 160.898 145.655 160.739 146.7 160.739C147.428 160.739 148.124 160.824 148.788 160.994C149.459 161.165 150.053 161.429 150.57 161.787C151.092 162.145 151.504 162.605 151.805 163.168C152.107 163.724 152.257 164.392 152.257 165.17V174H148.814V172.185H148.712C148.501 172.594 148.22 172.955 147.868 173.267C147.516 173.574 147.092 173.815 146.598 173.991C146.104 174.162 145.533 174.247 144.885 174.247ZM145.925 171.741C146.459 171.741 146.93 171.636 147.339 171.426C147.749 171.21 148.07 170.92 148.303 170.557C148.536 170.193 148.652 169.781 148.652 169.321V167.932C148.538 168.006 148.382 168.074 148.183 168.136C147.99 168.193 147.771 168.247 147.527 168.298C147.283 168.344 147.038 168.386 146.794 168.426C146.55 168.46 146.328 168.491 146.129 168.52C145.703 168.582 145.331 168.682 145.013 168.818C144.695 168.955 144.447 169.139 144.271 169.372C144.095 169.599 144.007 169.884 144.007 170.224C144.007 170.719 144.186 171.097 144.544 171.358C144.908 171.614 145.368 171.741 145.925 171.741ZM155.074 174V160.909H158.594V163.193H158.73C158.969 162.381 159.369 161.767 159.932 161.352C160.494 160.932 161.142 160.722 161.875 160.722C162.057 160.722 162.253 160.733 162.463 160.756C162.673 160.778 162.858 160.81 163.017 160.849V164.071C162.847 164.02 162.611 163.974 162.31 163.935C162.009 163.895 161.733 163.875 161.483 163.875C160.949 163.875 160.472 163.991 160.051 164.224C159.636 164.452 159.307 164.77 159.062 165.179C158.824 165.588 158.705 166.06 158.705 166.594V174H155.074ZM157.29 155.472L159.003 157.551L160.716 155.472H163.81V155.591L160.349 159.341H157.648L154.196 155.591V155.472H157.29ZM170.251 174.256C168.904 174.256 167.745 173.983 166.773 173.438C165.808 172.886 165.063 172.108 164.54 171.102C164.018 170.091 163.756 168.895 163.756 167.514C163.756 166.168 164.018 164.986 164.54 163.969C165.063 162.952 165.799 162.159 166.748 161.591C167.702 161.023 168.822 160.739 170.106 160.739C170.969 160.739 171.773 160.878 172.518 161.156C173.268 161.429 173.921 161.841 174.478 162.392C175.04 162.943 175.478 163.636 175.79 164.472C176.103 165.301 176.259 166.273 176.259 167.386V168.384H165.205V166.134H172.842C172.842 165.611 172.728 165.148 172.501 164.744C172.273 164.341 171.958 164.026 171.555 163.798C171.157 163.565 170.694 163.449 170.165 163.449C169.614 163.449 169.126 163.577 168.7 163.832C168.279 164.082 167.95 164.42 167.711 164.847C167.472 165.267 167.35 165.736 167.344 166.253V168.392C167.344 169.04 167.464 169.599 167.702 170.071C167.947 170.543 168.29 170.906 168.734 171.162C169.177 171.418 169.702 171.545 170.31 171.545C170.714 171.545 171.083 171.489 171.418 171.375C171.754 171.261 172.04 171.091 172.279 170.864C172.518 170.636 172.7 170.358 172.825 170.028L176.183 170.25C176.012 171.057 175.663 171.761 175.134 172.364C174.612 172.96 173.935 173.426 173.106 173.761C172.282 174.091 171.33 174.256 170.251 174.256Z" fill="white"/>
<rect x="236" y="107" width="77" height="77" rx="38.5" fill="white"/>
<path d="M265.127 142.423C268.255 138.181 280.244 129.765 284.487 132.894C288.729 136.022 283.618 149.51 280.489 153.752L277.003 158.479C273.875 162.721 267.9 163.624 263.657 160.496C259.415 157.367 258.512 151.392 261.641 147.15L265.127 142.423Z" fill="url(#paint0_linear_227_1975)"/>
<g filter="url(#filter0_b_227_1975)">
<path d="M285.445 130.953C281.202 127.825 275.227 128.727 272.099 132.97L266.434 140.651L281.796 151.98L287.461 144.299C290.59 140.057 289.687 134.082 285.445 130.953Z" fill="white" fill-opacity="0.2"/>
</g>
<path fill-rule="evenodd" clip-rule="evenodd" d="M273.373 135.337C275.58 130.928 279.902 130.469 281.936 131.298C282.525 131.538 282.808 132.211 282.568 132.801C282.327 133.39 281.654 133.673 281.065 133.433C280.058 133.022 277.06 133.122 275.435 136.37C275.15 136.939 274.458 137.169 273.888 136.885C273.319 136.6 273.088 135.907 273.373 135.337Z" fill="white"/>
<rect x="180" y="63" width="57" height="57" rx="28.5" fill="white"/>
<path d="M219.597 82.2152C218.972 81.5935 218.229 81.1003 217.412 80.7637C216.594 80.4272 215.718 80.254 214.834 80.254C213.949 80.254 213.073 80.4272 212.256 80.7637C211.438 81.1003 210.696 81.5935 210.07 82.2152L208.772 83.505L207.474 82.2152C206.211 80.9599 204.497 80.2547 202.711 80.2547C200.924 80.2547 199.211 80.9599 197.947 82.2152C196.684 83.4706 195.974 85.1731 195.974 86.9484C195.974 88.7237 196.684 90.4263 197.947 91.6816L199.245 92.9714L208.772 102.438L218.299 92.9714L219.597 91.6816C220.223 91.0602 220.719 90.3223 221.058 89.5102C221.397 88.698 221.571 87.8275 221.571 86.9484C221.571 86.0693 221.397 85.1989 221.058 84.3867C220.719 83.5746 220.223 82.8367 219.597 82.2152Z" fill="url(#paint1_linear_227_1975)"/>
<g filter="url(#filter1_b_227_1975)">
<path d="M205.573 96.4653C205.33 96.4651 205.091 96.4009 204.881 96.2792C204.67 96.1575 204.495 95.9826 204.374 95.7721L202.01 91.5226L200.498 93.7894C200.368 93.977 200.194 94.1295 199.991 94.2335C199.788 94.3375 199.562 94.3898 199.334 94.3856H193.095C192.727 94.3856 192.374 94.2395 192.114 93.9795C191.854 93.7195 191.708 93.3669 191.708 92.9992C191.708 92.6315 191.854 92.2788 192.114 92.0188C192.374 91.7588 192.727 91.6127 193.095 91.6127H198.592L200.956 88.0703C201.088 87.8729 201.269 87.7128 201.48 87.6052C201.692 87.4977 201.928 87.4463 202.165 87.4561C202.402 87.4658 202.633 87.5363 202.835 87.6609C203.038 87.7854 203.205 87.9598 203.32 88.1674L205.573 92.3059L209.199 86.0669C209.323 85.8522 209.502 85.6747 209.718 85.5527C209.933 85.4308 210.178 85.369 210.426 85.3737C210.668 85.3751 210.905 85.4399 211.114 85.5615C211.323 85.6831 211.497 85.8573 211.618 86.0669L214.939 91.6127L216.325 90.5174C216.571 90.3267 216.874 90.2241 217.185 90.2263H223.597C223.965 90.2263 224.318 90.3723 224.578 90.6323C224.838 90.8923 224.984 91.245 224.984 91.6127C224.984 91.9804 224.838 92.3331 224.578 92.5931C224.318 92.8531 223.965 92.9992 223.597 92.9992H217.67L215.417 94.7808C215.262 94.9085 215.081 95.0009 214.886 95.0516C214.692 95.1023 214.488 95.1102 214.291 95.0746C214.093 95.039 213.905 94.9608 213.74 94.8454C213.576 94.73 213.438 94.5802 213.337 94.4064L210.426 89.4914L206.772 95.7721C206.651 95.9826 206.476 96.1575 206.265 96.2792C206.055 96.4009 205.816 96.4651 205.573 96.4653Z" fill="white" fill-opacity="0.2"/>
</g>
<rect x="243" y="28" width="47" height="47" rx="23.5" fill="white"/>
<path d="M269.202 52.0662C269.027 52.0629 268.856 52.0133 268.707 51.9224L266.328 50.5049L263.963 51.9224C263.852 51.9895 263.728 52.0339 263.599 52.0531C263.47 52.0723 263.339 52.066 263.213 52.0344C263.087 52.0029 262.968 51.9468 262.863 51.8693C262.758 51.7919 262.67 51.6945 262.603 51.5829C262.536 51.4713 262.491 51.3476 262.472 51.2188C262.453 51.09 262.459 50.9587 262.491 50.8323C262.522 50.706 262.579 50.5871 262.656 50.4825C262.733 50.3778 262.831 50.2894 262.942 50.2224L266.328 48.1903L269.713 50.2224C269.9 50.3334 270.045 50.503 270.127 50.7048C270.208 50.9067 270.22 51.1297 270.162 51.3394C270.104 51.5491 269.979 51.7339 269.805 51.8653C269.632 51.9966 269.42 52.0672 269.202 52.0662Z" fill="url(#paint2_linear_227_1975)"/>
<path d="M257.01 63.2229C256.84 63.219 256.673 63.1872 256.514 63.1288C255.919 62.9256 255.116 62.311 254.779 60.5762V60.5118C254.42 57.7612 254.344 54.9811 254.551 52.2149C254.829 48.6909 255.424 47.2238 255.85 46.4259C256.894 44.5383 258.457 42.9901 260.355 41.9652L260.539 41.8611H260.752C261.406 41.8047 262.055 42.0099 262.558 42.4318C263.06 42.8536 263.375 43.4576 263.433 44.1113L264.296 53.9C264.532 55.5947 264.158 57.3184 263.24 58.7622C262.823 59.3867 262.149 59.9319 260.811 61.0174C258.72 62.7273 257.728 63.2229 257.01 63.2229ZM256.727 60.2491C256.77 60.603 256.894 60.9422 257.089 61.2404C257.982 60.7707 258.815 60.1931 259.567 59.5205C260.308 58.9926 260.988 58.3842 261.594 57.7065C262.253 56.6413 262.512 55.3762 262.323 54.1379L261.46 44.2401C261.456 44.1736 261.439 44.1086 261.409 44.049C261.379 43.9894 261.338 43.9364 261.287 43.8932C261.229 43.8456 261.161 43.8117 261.089 43.794C259.625 44.632 258.424 45.8608 257.619 47.3428C257.406 47.7244 256.806 48.8495 256.529 52.3685C256.326 54.9953 256.392 57.6359 256.727 60.2491Z" fill="url(#paint3_linear_227_1975)"/>
<path d="M275.646 63.2229C274.932 63.2229 273.941 62.7273 271.844 61.0124C270.506 59.9269 269.832 59.3817 269.415 58.7572C268.497 57.308 268.124 55.5791 268.365 53.8802L269.217 44.0666C269.275 43.4129 269.59 42.809 270.093 42.3871C270.595 41.9653 271.245 41.76 271.899 41.8164H272.112L272.275 41.9403C274.173 42.9653 275.737 44.5135 276.781 46.401C277.207 47.199 277.802 48.671 278.079 52.1901C278.292 54.9574 278.22 57.7392 277.866 60.4919V60.5564C277.529 62.2911 276.746 62.9057 276.151 63.1138C275.99 63.1784 275.819 63.2153 275.646 63.2229ZM271.566 43.8039C271.494 43.8216 271.426 43.8555 271.368 43.903C271.268 43.988 271.206 44.1092 271.195 44.2401L270.332 54.0735C270.141 55.3182 270.399 56.5905 271.061 57.6619C271.668 58.3396 272.347 58.948 273.088 59.4759C273.841 60.1485 274.673 60.7261 275.566 61.1957C275.762 60.8976 275.885 60.5583 275.928 60.2045C276.261 57.5978 276.328 54.9639 276.126 52.3437C275.849 48.8495 275.249 47.7244 275.056 47.3626C274.247 45.8741 273.039 44.6415 271.566 43.8039Z" fill="url(#paint4_linear_227_1975)"/>
<g filter="url(#filter2_b_227_1975)">
<path d="M266.017 50.0518C265.761 50.0518 265.516 49.9501 265.335 49.7691C265.154 49.588 265.052 49.3425 265.052 49.0864V40.3978C265.052 40.1417 265.154 39.8962 265.335 39.7151C265.516 39.5341 265.761 39.4324 266.017 39.4324C266.273 39.4324 266.519 39.5341 266.7 39.7151C266.881 39.8962 266.983 40.1417 266.983 40.3978V49.0864C266.983 49.3425 266.881 49.588 266.7 49.7691C266.519 49.9501 266.273 50.0518 266.017 50.0518Z" fill="#E8E4E4" fill-opacity="0.2"/>
</g>
<path d="M39.5821 36.1679C39.1916 35.7774 38.5584 35.7774 38.1679 36.1679C37.7774 36.5584 37.7774 37.1916 38.1679 37.5821L39.5821 36.1679ZM46.9179 46.3321C47.3084 46.7226 47.9416 46.7226 48.3321 46.3321C48.7226 45.9416 48.7226 45.3084 48.3321 44.9179L46.9179 46.3321ZM31.5833 38.7917C26.4977 38.7917 22.375 34.669 22.375 29.5833H20.375C20.375 35.7735 25.3931 40.7917 31.5833 40.7917V38.7917ZM22.375 29.5833C22.375 24.4977 26.4977 20.375 31.5833 20.375V18.375C25.3931 18.375 20.375 23.3931 20.375 29.5833H22.375ZM31.5833 20.375C36.669 20.375 40.7917 24.4977 40.7917 29.5833H42.7917C42.7917 23.3931 37.7735 18.375 31.5833 18.375V20.375ZM40.7917 29.5833C40.7917 34.669 36.669 38.7917 31.5833 38.7917V40.7917C37.7735 40.7917 42.7917 35.7735 42.7917 29.5833H40.7917ZM38.1679 37.5821L46.9179 46.3321L48.3321 44.9179L39.5821 36.1679L38.1679 37.5821Z" fill="white"/>
<defs>
<filter id="filter0_b_227_1975" x="241.434" y="104.09" width="72.8904" height="72.8904" filterUnits="userSpaceOnUse" color-interpolation-filters="sRGB">
<feFlood flood-opacity="0" result="BackgroundImageFix"/>
<feGaussianBlur in="BackgroundImageFix" stdDeviation="12.5"/>
<feComposite in2="SourceAlpha" operator="in" result="effect1_backgroundBlur_227_1975"/>
<feBlend mode="normal" in="SourceGraphic" in2="effect1_backgroundBlur_227_1975" result="shape"/>
</filter>
<filter id="filter1_b_227_1975" x="166.708" y="60.3734" width="83.2756" height="61.0919" filterUnits="userSpaceOnUse" color-interpolation-filters="sRGB">
<feFlood flood-opacity="0" result="BackgroundImageFix"/>
<feGaussianBlur in="BackgroundImageFix" stdDeviation="12.5"/>
<feComposite in2="SourceAlpha" operator="in" result="effect1_backgroundBlur_227_1975"/>
<feBlend mode="normal" in="SourceGraphic" in2="effect1_backgroundBlur_227_1975" result="shape"/>
</filter>
<filter id="filter2_b_227_1975" x="240.052" y="14.4324" width="51.9308" height="60.6195" filterUnits="userSpaceOnUse" color-interpolation-filters="sRGB">
<feFlood flood-opacity="0" result="BackgroundImageFix"/>
<feGaussianBlur in="BackgroundImageFix" stdDeviation="12.5"/>
<feComposite in2="SourceAlpha" operator="in" result="effect1_backgroundBlur_227_1975"/>
<feBlend mode="normal" in="SourceGraphic" in2="effect1_backgroundBlur_227_1975" result="shape"/>
</filter>
<linearGradient id="paint0_linear_227_1975" x1="259.348" y1="147.568" x2="286.109" y2="145.633" gradientUnits="userSpaceOnUse">
<stop stop-color="#AA80FF"/>
<stop offset="1" stop-color="#A071FF" stop-opacity="0.65"/>
</linearGradient>
<linearGradient id="paint1_linear_227_1975" x1="195.974" y1="90.6065" x2="220.957" y2="90.7351" gradientUnits="userSpaceOnUse">
<stop stop-color="#FF7070"/>
<stop offset="1" stop-color="#FF7070" stop-opacity="0.65"/>
</linearGradient>
<linearGradient id="paint2_linear_227_1975" x1="254.438" y1="51.8012" x2="277.629" y2="51.9161" gradientUnits="userSpaceOnUse">
<stop stop-color="#FF7070"/>
<stop offset="1" stop-color="#FF7070" stop-opacity="0.65"/>
</linearGradient>
<linearGradient id="paint3_linear_227_1975" x1="254.438" y1="51.8012" x2="277.629" y2="51.9161" gradientUnits="userSpaceOnUse">
<stop stop-color="#FF7070"/>
<stop offset="1" stop-color="#FF7070" stop-opacity="0.65"/>
</linearGradient>
<linearGradient id="paint4_linear_227_1975" x1="254.438" y1="51.8012" x2="277.629" y2="51.9161" gradientUnits="userSpaceOnUse">
<stop stop-color="#FF7070"/>
<stop offset="1" stop-color="#FF7070" stop-opacity="0.65"/>
</linearGradient>
</defs>
</svg>
