<svg width="342" height="145" viewBox="0 0 342 145" fill="none" xmlns="http://www.w3.org/2000/svg">
<g filter="url(#filter0_d_233_2577)">
<rect x="10" y="10" width="322" height="125" rx="15" fill="white"/>
</g>
<circle cx="52" cy="73" r="29" fill="#DE091C"/>
<path d="M50.9643 78.7648H54.6928V74.0005H59.3536V70.1891H54.6928V65.4248H50.9643V70.1891H46.3036V74.0005H50.9643V78.7648ZM52.8286 92.0572C48.4786 90.9455 44.9053 88.3648 42.1089 84.3152C39.3125 80.2655 37.9143 75.8268 37.9143 70.999V59.66L52.8286 53.9429L67.7428 59.66V70.999C67.7428 75.8268 66.3446 80.2655 63.5482 84.3152C60.7518 88.3648 57.1786 90.9455 52.8286 92.0572ZM52.8286 89.1033C56.4018 87.8963 59.3147 85.6174 61.5674 82.2665C63.8201 78.9157 64.9464 75.1598 64.9464 70.999V61.661L52.8286 56.992L40.7107 61.661V70.999C40.7107 75.1598 41.837 78.9157 44.0897 82.2665C46.3424 85.6174 49.2553 87.8963 52.8286 89.1033Z" fill="white"/>
<path d="M97.0114 45.3636H100.045L103.25 53.1818H103.386L106.591 45.3636H109.625V57H107.239V49.4261H107.142L104.131 56.9432H102.506L99.4943 49.3977H99.3977V57H97.0114V45.3636ZM118.839 45.3636H121.3V52.9205C121.3 53.7689 121.097 54.5114 120.692 55.1477C120.29 55.7841 119.728 56.2803 119.004 56.6364C118.281 56.9886 117.438 57.1648 116.476 57.1648C115.51 57.1648 114.665 56.9886 113.942 56.6364C113.218 56.2803 112.656 55.7841 112.254 55.1477C111.853 54.5114 111.652 53.7689 111.652 52.9205V45.3636H114.112V52.7102C114.112 53.1534 114.209 53.5473 114.402 53.892C114.599 54.2367 114.875 54.5076 115.232 54.7045C115.588 54.9015 116.002 55 116.476 55C116.953 55 117.368 54.9015 117.72 54.7045C118.076 54.5076 118.351 54.2367 118.544 53.892C118.741 53.5473 118.839 53.1534 118.839 52.7102V45.3636ZM127.449 57H123.324V45.3636H127.483C128.653 45.3636 129.661 45.5966 130.506 46.0625C131.35 46.5246 132 47.1894 132.455 48.0568C132.913 48.9242 133.142 49.9621 133.142 51.1705C133.142 52.3826 132.913 53.4242 132.455 54.2955C132 55.1667 131.347 55.8352 130.494 56.3011C129.646 56.767 128.631 57 127.449 57ZM125.784 54.892H127.347C128.074 54.892 128.686 54.7633 129.182 54.5057C129.682 54.2443 130.057 53.8409 130.307 53.2955C130.561 52.7462 130.688 52.0379 130.688 51.1705C130.688 50.3106 130.561 49.608 130.307 49.0625C130.057 48.517 129.684 48.1155 129.188 47.858C128.691 47.6004 128.08 47.4716 127.352 47.4716H125.784V54.892ZM134.919 57V48.2727H137.266V49.7955H137.357C137.516 49.2538 137.783 48.8447 138.158 48.5682C138.533 48.2879 138.964 48.1477 139.453 48.1477C139.574 48.1477 139.705 48.1553 139.845 48.1705C139.985 48.1856 140.108 48.2064 140.214 48.233V50.3807C140.101 50.3466 139.944 50.3163 139.743 50.2898C139.542 50.2633 139.358 50.25 139.192 50.25C138.836 50.25 138.518 50.3277 138.237 50.483C137.961 50.6345 137.741 50.8466 137.578 51.1193C137.419 51.392 137.339 51.7064 137.339 52.0625V57H134.919ZM141.881 57.1477C141.506 57.1477 141.184 57.0152 140.915 56.75C140.65 56.4811 140.517 56.1591 140.517 55.7841C140.517 55.4129 140.65 55.0947 140.915 54.8295C141.184 54.5644 141.506 54.4318 141.881 54.4318C142.244 54.4318 142.563 54.5644 142.835 54.8295C143.108 55.0947 143.244 55.4129 143.244 55.7841C143.244 56.0341 143.18 56.2633 143.051 56.4716C142.926 56.6761 142.761 56.8409 142.557 56.9659C142.352 57.0871 142.127 57.1477 141.881 57.1477ZM153.092 45.3636H155.524V53.4773C155.524 54.2273 155.356 54.8788 155.018 55.4318C154.685 55.9848 154.221 56.411 153.626 56.7102C153.032 57.0095 152.34 57.1591 151.553 57.1591C150.852 57.1591 150.215 57.036 149.643 56.7898C149.075 56.5398 148.625 56.161 148.291 55.6534C147.958 55.142 147.793 54.5 147.797 53.7273H150.246C150.253 54.0341 150.316 54.2973 150.433 54.517C150.554 54.733 150.719 54.8996 150.928 55.017C151.14 55.1307 151.39 55.1875 151.678 55.1875C151.981 55.1875 152.236 55.1231 152.445 54.9943C152.657 54.8617 152.818 54.6686 152.928 54.4148C153.037 54.161 153.092 53.8485 153.092 53.4773V45.3636ZM160.001 57.1648C159.445 57.1648 158.948 57.0682 158.513 56.875C158.077 56.678 157.732 56.3883 157.479 56.0057C157.229 55.6193 157.104 55.1383 157.104 54.5625C157.104 54.0777 157.193 53.6705 157.371 53.3409C157.549 53.0114 157.791 52.7462 158.098 52.5455C158.405 52.3447 158.753 52.1932 159.143 52.0909C159.537 51.9886 159.95 51.9167 160.382 51.875C160.89 51.822 161.299 51.7727 161.609 51.7273C161.92 51.678 162.145 51.6061 162.286 51.5114C162.426 51.4167 162.496 51.2765 162.496 51.0909V51.0568C162.496 50.697 162.382 50.4186 162.155 50.2216C161.931 50.0246 161.613 49.9261 161.2 49.9261C160.765 49.9261 160.418 50.0227 160.161 50.2159C159.903 50.4053 159.732 50.6439 159.649 50.9318L157.411 50.75C157.524 50.2197 157.748 49.7614 158.081 49.375C158.414 48.9848 158.844 48.6856 159.371 48.4773C159.901 48.2652 160.515 48.1591 161.212 48.1591C161.696 48.1591 162.161 48.2159 162.604 48.3295C163.051 48.4432 163.446 48.6193 163.791 48.858C164.14 49.0966 164.414 49.4034 164.615 49.7784C164.816 50.1496 164.916 50.5947 164.916 51.1136V57H162.621V55.7898H162.553C162.412 56.0625 162.225 56.303 161.99 56.5114C161.755 56.7159 161.473 56.8769 161.143 56.9943C160.814 57.108 160.433 57.1648 160.001 57.1648ZM160.695 55.4943C161.051 55.4943 161.365 55.4242 161.638 55.2841C161.911 55.1402 162.125 54.947 162.28 54.7045C162.435 54.4621 162.513 54.1875 162.513 53.8807V52.9545C162.437 53.0038 162.333 53.0492 162.2 53.0909C162.071 53.1288 161.926 53.1648 161.763 53.1989C161.6 53.2292 161.437 53.2576 161.274 53.2841C161.111 53.3068 160.964 53.3277 160.831 53.3466C160.547 53.3883 160.299 53.4545 160.087 53.5455C159.875 53.6364 159.71 53.7595 159.592 53.9148C159.475 54.0663 159.416 54.2557 159.416 54.483C159.416 54.8125 159.536 55.0644 159.774 55.2386C160.017 55.4091 160.323 55.4943 160.695 55.4943ZM169.214 51.9545V57H166.794V48.2727H169.101V49.8125H169.203C169.396 49.3049 169.72 48.9034 170.175 48.608C170.629 48.3087 171.18 48.1591 171.828 48.1591C172.434 48.1591 172.963 48.2917 173.413 48.5568C173.864 48.822 174.214 49.2008 174.464 49.6932C174.714 50.1818 174.839 50.7652 174.839 51.4432V57H172.419V51.875C172.423 51.3409 172.286 50.9242 172.01 50.625C171.733 50.322 171.353 50.1705 170.868 50.1705C170.542 50.1705 170.254 50.2405 170.004 50.3807C169.758 50.5208 169.565 50.7254 169.425 50.9943C169.288 51.2595 169.218 51.5795 169.214 51.9545ZM179.236 57.1648C178.679 57.1648 178.183 57.0682 177.747 56.875C177.312 56.678 176.967 56.3883 176.713 56.0057C176.463 55.6193 176.338 55.1383 176.338 54.5625C176.338 54.0777 176.427 53.6705 176.605 53.3409C176.783 53.0114 177.026 52.7462 177.332 52.5455C177.639 52.3447 177.988 52.1932 178.378 52.0909C178.772 51.9886 179.185 51.9167 179.616 51.875C180.124 51.822 180.533 51.7727 180.844 51.7273C181.154 51.678 181.38 51.6061 181.52 51.5114C181.66 51.4167 181.73 51.2765 181.73 51.0909V51.0568C181.73 50.697 181.616 50.4186 181.389 50.2216C181.166 50.0246 180.848 49.9261 180.435 49.9261C179.999 49.9261 179.652 50.0227 179.395 50.2159C179.137 50.4053 178.967 50.6439 178.884 50.9318L176.645 50.75C176.759 50.2197 176.982 49.7614 177.315 49.375C177.649 48.9848 178.079 48.6856 178.605 48.4773C179.135 48.2652 179.749 48.1591 180.446 48.1591C180.931 48.1591 181.395 48.2159 181.838 48.3295C182.285 48.4432 182.681 48.6193 183.026 48.858C183.374 49.0966 183.649 49.4034 183.849 49.7784C184.05 50.1496 184.151 50.5947 184.151 51.1136V57H181.855V55.7898H181.787C181.647 56.0625 181.459 56.303 181.224 56.5114C180.99 56.7159 180.707 56.8769 180.378 56.9943C180.048 57.108 179.668 57.1648 179.236 57.1648ZM179.929 55.4943C180.285 55.4943 180.599 55.4242 180.872 55.2841C181.145 55.1402 181.359 54.947 181.514 54.7045C181.67 54.4621 181.747 54.1875 181.747 53.8807V52.9545C181.671 53.0038 181.567 53.0492 181.435 53.0909C181.306 53.1288 181.16 53.1648 180.997 53.1989C180.834 53.2292 180.671 53.2576 180.509 53.2841C180.346 53.3068 180.198 53.3277 180.065 53.3466C179.781 53.3883 179.533 53.4545 179.321 53.5455C179.109 53.6364 178.944 53.7595 178.827 53.9148C178.709 54.0663 178.651 54.2557 178.651 54.483C178.651 54.8125 178.77 55.0644 179.009 55.2386C179.251 55.4091 179.558 55.4943 179.929 55.4943ZM193.902 57H189.777V45.3636H193.936C195.107 45.3636 196.114 45.5966 196.959 46.0625C197.804 46.5246 198.453 47.1894 198.908 48.0568C199.366 48.9242 199.595 49.9621 199.595 51.1705C199.595 52.3826 199.366 53.4242 198.908 54.2955C198.453 55.1667 197.8 55.8352 196.947 56.3011C196.099 56.767 195.084 57 193.902 57ZM192.237 54.892H193.8C194.527 54.892 195.139 54.7633 195.635 54.5057C196.135 54.2443 196.51 53.8409 196.76 53.2955C197.014 52.7462 197.141 52.0379 197.141 51.1705C197.141 50.3106 197.014 49.608 196.76 49.0625C196.51 48.517 196.137 48.1155 195.641 47.858C195.144 47.6004 194.533 47.4716 193.805 47.4716H192.237V54.892ZM201.372 57V48.2727H203.719V49.7955H203.81C203.969 49.2538 204.236 48.8447 204.611 48.5682C204.986 48.2879 205.418 48.1477 205.906 48.1477C206.027 48.1477 206.158 48.1553 206.298 48.1705C206.438 48.1856 206.562 48.2064 206.668 48.233V50.3807C206.554 50.3466 206.397 50.3163 206.196 50.2898C205.995 50.2633 205.812 50.25 205.645 50.25C205.289 50.25 204.971 50.3277 204.69 50.483C204.414 50.6345 204.194 50.8466 204.031 51.1193C203.872 51.392 203.793 51.7064 203.793 52.0625V57H201.372ZM210.158 57.1648C209.601 57.1648 209.105 57.0682 208.669 56.875C208.233 56.678 207.889 56.3883 207.635 56.0057C207.385 55.6193 207.26 55.1383 207.26 54.5625C207.26 54.0777 207.349 53.6705 207.527 53.3409C207.705 53.0114 207.947 52.7462 208.254 52.5455C208.561 52.3447 208.91 52.1932 209.3 52.0909C209.694 51.9886 210.107 51.9167 210.538 51.875C211.046 51.822 211.455 51.7727 211.766 51.7273C212.076 51.678 212.302 51.6061 212.442 51.5114C212.582 51.4167 212.652 51.2765 212.652 51.0909V51.0568C212.652 50.697 212.538 50.4186 212.311 50.2216C212.088 50.0246 211.769 49.9261 211.357 49.9261C210.921 49.9261 210.574 50.0227 210.317 50.2159C210.059 50.4053 209.889 50.6439 209.805 50.9318L207.567 50.75C207.68 50.2197 207.904 49.7614 208.237 49.375C208.571 48.9848 209 48.6856 209.527 48.4773C210.057 48.2652 210.671 48.1591 211.368 48.1591C211.853 48.1591 212.317 48.2159 212.76 48.3295C213.207 48.4432 213.603 48.6193 213.947 48.858C214.296 49.0966 214.571 49.4034 214.771 49.7784C214.972 50.1496 215.072 50.5947 215.072 51.1136V57H212.777V55.7898H212.709C212.569 56.0625 212.381 56.303 212.146 56.5114C211.911 56.7159 211.629 56.8769 211.3 56.9943C210.97 57.108 210.589 57.1648 210.158 57.1648ZM210.851 55.4943C211.207 55.4943 211.521 55.4242 211.794 55.2841C212.067 55.1402 212.281 54.947 212.436 54.7045C212.591 54.4621 212.669 54.1875 212.669 53.8807V52.9545C212.593 53.0038 212.489 53.0492 212.357 53.0909C212.228 53.1288 212.082 53.1648 211.919 53.1989C211.756 53.2292 211.593 53.2576 211.43 53.2841C211.268 53.3068 211.12 53.3277 210.987 53.3466C210.703 53.3883 210.455 53.4545 210.243 53.5455C210.031 53.6364 209.866 53.7595 209.749 53.9148C209.631 54.0663 209.572 54.2557 209.572 54.483C209.572 54.8125 209.692 55.0644 209.93 55.2386C210.173 55.4091 210.48 55.4943 210.851 55.4943ZM224.212 50.7614L221.996 50.8977C221.958 50.7083 221.876 50.5379 221.751 50.3864C221.626 50.2311 221.462 50.108 221.257 50.017C221.056 49.9223 220.816 49.875 220.536 49.875C220.161 49.875 219.844 49.9545 219.587 50.1136C219.329 50.2689 219.2 50.4773 219.2 50.7386C219.2 50.947 219.284 51.1231 219.45 51.267C219.617 51.411 219.903 51.5265 220.308 51.6136L221.888 51.9318C222.736 52.1061 223.369 52.3864 223.786 52.7727C224.202 53.1591 224.411 53.6667 224.411 54.2955C224.411 54.8674 224.242 55.3693 223.905 55.8011C223.571 56.233 223.113 56.5701 222.53 56.8125C221.95 57.0511 221.282 57.1705 220.524 57.1705C219.369 57.1705 218.448 56.9299 217.763 56.4489C217.081 55.964 216.681 55.3049 216.564 54.4716L218.945 54.3466C219.017 54.6989 219.191 54.9678 219.467 55.1534C219.744 55.3352 220.098 55.4261 220.53 55.4261C220.954 55.4261 221.295 55.3447 221.553 55.1818C221.814 55.0152 221.946 54.8011 221.95 54.5398C221.946 54.3201 221.854 54.1402 221.672 54C221.49 53.8561 221.21 53.7462 220.831 53.6705L219.32 53.3693C218.467 53.1989 217.833 52.9034 217.416 52.483C217.003 52.0625 216.797 51.5265 216.797 50.875C216.797 50.3144 216.948 49.8314 217.251 49.4261C217.558 49.0208 217.988 48.7083 218.541 48.4886C219.098 48.2689 219.75 48.1591 220.496 48.1591C221.598 48.1591 222.465 48.392 223.098 48.858C223.734 49.3239 224.106 49.9583 224.212 50.7614ZM219.405 44.6477L220.547 46.0341L221.689 44.6477H223.751V44.7273L221.445 47.2273H219.643L217.342 44.7273V44.6477H219.405ZM228.355 51.9545V57H225.935V48.2727H228.241V49.8125H228.344C228.537 49.3049 228.861 48.9034 229.315 48.608C229.77 48.3087 230.321 48.1591 230.969 48.1591C231.575 48.1591 232.103 48.2917 232.554 48.5568C233.005 48.822 233.355 49.2008 233.605 49.6932C233.855 50.1818 233.98 50.7652 233.98 51.4432V57H231.56V51.875C231.563 51.3409 231.427 50.9242 231.151 50.625C230.874 50.322 230.493 50.1705 230.009 50.1705C229.683 50.1705 229.395 50.2405 229.145 50.3807C228.899 50.5208 228.705 50.7254 228.565 50.9943C228.429 51.2595 228.359 51.5795 228.355 51.9545ZM238.376 57.1648C237.82 57.1648 237.323 57.0682 236.888 56.875C236.452 56.678 236.107 56.3883 235.854 56.0057C235.604 55.6193 235.479 55.1383 235.479 54.5625C235.479 54.0777 235.568 53.6705 235.746 53.3409C235.924 53.0114 236.166 52.7462 236.473 52.5455C236.78 52.3447 237.128 52.1932 237.518 52.0909C237.912 51.9886 238.325 51.9167 238.757 51.875C239.265 51.822 239.674 51.7727 239.984 51.7273C240.295 51.678 240.52 51.6061 240.661 51.5114C240.801 51.4167 240.871 51.2765 240.871 51.0909V51.0568C240.871 50.697 240.757 50.4186 240.53 50.2216C240.306 50.0246 239.988 49.9261 239.575 49.9261C239.14 49.9261 238.793 50.0227 238.536 50.2159C238.278 50.4053 238.107 50.6439 238.024 50.9318L235.786 50.75C235.899 50.2197 236.123 49.7614 236.456 49.375C236.789 48.9848 237.219 48.6856 237.746 48.4773C238.276 48.2652 238.89 48.1591 239.587 48.1591C240.071 48.1591 240.536 48.2159 240.979 48.3295C241.426 48.4432 241.821 48.6193 242.166 48.858C242.515 49.0966 242.789 49.4034 242.99 49.7784C243.191 50.1496 243.291 50.5947 243.291 51.1136V57H240.996V55.7898H240.928C240.787 56.0625 240.6 56.303 240.365 56.5114C240.13 56.7159 239.848 56.8769 239.518 56.9943C239.189 57.108 238.808 57.1648 238.376 57.1648ZM239.07 55.4943C239.426 55.4943 239.74 55.4242 240.013 55.2841C240.286 55.1402 240.5 54.947 240.655 54.7045C240.81 54.4621 240.888 54.1875 240.888 53.8807V52.9545C240.812 53.0038 240.708 53.0492 240.575 53.0909C240.446 53.1288 240.301 53.1648 240.138 53.1989C239.975 53.2292 239.812 53.2576 239.649 53.2841C239.486 53.3068 239.339 53.3277 239.206 53.3466C238.922 53.3883 238.674 53.4545 238.462 53.5455C238.25 53.6364 238.085 53.7595 237.967 53.9148C237.85 54.0663 237.791 54.2557 237.791 54.483C237.791 54.8125 237.911 55.0644 238.149 55.2386C238.392 55.4091 238.698 55.4943 239.07 55.4943ZM245.169 57V48.2727H247.516V49.7955H247.607C247.766 49.2538 248.033 48.8447 248.408 48.5682C248.783 48.2879 249.214 48.1477 249.703 48.1477C249.824 48.1477 249.955 48.1553 250.095 48.1705C250.235 48.1856 250.358 48.2064 250.464 48.233V50.3807C250.351 50.3466 250.194 50.3163 249.993 50.2898C249.792 50.2633 249.608 50.25 249.442 50.25C249.086 50.25 248.768 50.3277 248.487 50.483C248.211 50.6345 247.991 50.8466 247.828 51.1193C247.669 51.392 247.589 51.7064 247.589 52.0625V57H245.169ZM255.253 57.1705C254.37 57.1705 253.607 56.983 252.963 56.608C252.323 56.2292 251.829 55.7027 251.48 55.0284C251.132 54.3504 250.957 53.5644 250.957 52.6705C250.957 51.7689 251.132 50.9811 251.48 50.3068C251.829 49.6288 252.323 49.1023 252.963 48.7273C253.607 48.3485 254.37 48.1591 255.253 48.1591C256.135 48.1591 256.897 48.3485 257.537 48.7273C258.181 49.1023 258.677 49.6288 259.026 50.3068C259.374 50.9811 259.548 51.7689 259.548 52.6705C259.548 53.5644 259.374 54.3504 259.026 55.0284C258.677 55.7027 258.181 56.2292 257.537 56.608C256.897 56.983 256.135 57.1705 255.253 57.1705ZM255.264 55.2955C255.666 55.2955 256.001 55.1818 256.27 54.9545C256.539 54.7235 256.741 54.4091 256.878 54.0114C257.018 53.6136 257.088 53.161 257.088 52.6534C257.088 52.1458 257.018 51.6932 256.878 51.2955C256.741 50.8977 256.539 50.5833 256.27 50.3523C256.001 50.1212 255.666 50.0057 255.264 50.0057C254.859 50.0057 254.518 50.1212 254.241 50.3523C253.969 50.5833 253.762 50.8977 253.622 51.2955C253.486 51.6932 253.418 52.1458 253.418 52.6534C253.418 53.161 253.486 53.6136 253.622 54.0114C253.762 54.4091 253.969 54.7235 254.241 54.9545C254.518 55.1818 254.859 55.2955 255.264 55.2955ZM268.977 48.2727L265.926 57H263.199L260.148 48.2727H262.705L264.517 54.517H264.608L266.415 48.2727H268.977ZM272.47 57.1648C271.913 57.1648 271.417 57.0682 270.982 56.875C270.546 56.678 270.201 56.3883 269.947 56.0057C269.697 55.6193 269.572 55.1383 269.572 54.5625C269.572 54.0777 269.661 53.6705 269.839 53.3409C270.018 53.0114 270.26 52.7462 270.567 52.5455C270.874 52.3447 271.222 52.1932 271.612 52.0909C272.006 51.9886 272.419 51.9167 272.851 51.875C273.358 51.822 273.768 51.7727 274.078 51.7273C274.389 51.678 274.614 51.6061 274.754 51.5114C274.894 51.4167 274.964 51.2765 274.964 51.0909V51.0568C274.964 50.697 274.851 50.4186 274.624 50.2216C274.4 50.0246 274.082 49.9261 273.669 49.9261C273.233 49.9261 272.887 50.0227 272.629 50.2159C272.372 50.4053 272.201 50.6439 272.118 50.9318L269.879 50.75C269.993 50.2197 270.216 49.7614 270.55 49.375C270.883 48.9848 271.313 48.6856 271.839 48.4773C272.37 48.2652 272.983 48.1591 273.68 48.1591C274.165 48.1591 274.629 48.2159 275.072 48.3295C275.519 48.4432 275.915 48.6193 276.26 48.858C276.608 49.0966 276.883 49.4034 277.084 49.7784C277.285 50.1496 277.385 50.5947 277.385 51.1136V57H275.089V55.7898H275.021C274.881 56.0625 274.694 56.303 274.459 56.5114C274.224 56.7159 273.942 56.8769 273.612 56.9943C273.283 57.108 272.902 57.1648 272.47 57.1648ZM273.163 55.4943C273.519 55.4943 273.834 55.4242 274.107 55.2841C274.379 55.1402 274.593 54.947 274.749 54.7045C274.904 54.4621 274.982 54.1875 274.982 53.8807V52.9545C274.906 53.0038 274.802 53.0492 274.669 53.0909C274.54 53.1288 274.394 53.1648 274.232 53.1989C274.069 53.2292 273.906 53.2576 273.743 53.2841C273.58 53.3068 273.432 53.3277 273.3 53.3466C273.016 53.3883 272.768 53.4545 272.555 53.5455C272.343 53.6364 272.179 53.7595 272.061 53.9148C271.944 54.0663 271.885 54.2557 271.885 54.483C271.885 54.8125 272.004 55.0644 272.243 55.2386C272.485 55.4091 272.792 55.4943 273.163 55.4943ZM272.902 47.1477L274.107 44.5625H276.345L274.612 47.1477H272.902Z" fill="#DE091C"/>
<path d="M97.142 82.2727V70.2727H98.8011V71.6875H98.9432C99.0417 71.5057 99.1837 71.2955 99.3693 71.0568C99.5549 70.8182 99.8125 70.6098 100.142 70.4318C100.472 70.25 100.907 70.1591 101.449 70.1591C102.153 70.1591 102.782 70.3371 103.335 70.6932C103.888 71.0492 104.322 71.5625 104.636 72.233C104.955 72.9034 105.114 73.7102 105.114 74.6534C105.114 75.5966 104.956 76.4053 104.642 77.0795C104.328 77.75 103.896 78.267 103.347 78.6307C102.797 78.9905 102.17 79.1705 101.466 79.1705C100.936 79.1705 100.502 79.0814 100.165 78.9034C99.8314 78.7254 99.5701 78.517 99.3807 78.2784C99.1913 78.0398 99.0455 77.8277 98.9432 77.642H98.8409V82.2727H97.142ZM98.8068 74.6364C98.8068 75.25 98.8958 75.7879 99.0739 76.25C99.2519 76.7121 99.5095 77.0739 99.8466 77.3352C100.184 77.5928 100.597 77.7216 101.085 77.7216C101.593 77.7216 102.017 77.5871 102.358 77.3182C102.699 77.0455 102.956 76.6761 103.131 76.2102C103.309 75.7443 103.398 75.2197 103.398 74.6364C103.398 74.0606 103.311 73.5436 103.136 73.0852C102.966 72.6269 102.708 72.2652 102.364 72C102.023 71.7348 101.597 71.6023 101.085 71.6023C100.593 71.6023 100.176 71.7292 99.8352 71.983C99.4981 72.2367 99.2424 72.5909 99.0682 73.0455C98.8939 73.5 98.8068 74.0303 98.8068 74.6364ZM107.017 79V70.2727H108.659V71.6591H108.75C108.909 71.1894 109.189 70.8201 109.591 70.5511C109.996 70.2784 110.455 70.142 110.966 70.142C111.072 70.142 111.197 70.1458 111.341 70.1534C111.489 70.161 111.604 70.1705 111.688 70.1818V71.8068C111.619 71.7879 111.498 71.767 111.324 71.7443C111.15 71.7178 110.975 71.7045 110.801 71.7045C110.4 71.7045 110.042 71.7898 109.727 71.9602C109.417 72.1269 109.17 72.3598 108.989 72.6591C108.807 72.9545 108.716 73.2917 108.716 73.6705V79H107.017ZM115.619 79.1932C115.066 79.1932 114.566 79.0909 114.119 78.8864C113.672 78.678 113.318 78.3769 113.057 77.983C112.799 77.589 112.67 77.1061 112.67 76.5341C112.67 76.0417 112.765 75.6364 112.955 75.3182C113.144 75 113.4 74.7481 113.722 74.5625C114.044 74.3769 114.403 74.2367 114.801 74.142C115.199 74.0473 115.604 73.9754 116.017 73.9261C116.54 73.8655 116.964 73.8163 117.29 73.7784C117.616 73.7367 117.852 73.6705 118 73.5795C118.148 73.4886 118.222 73.3409 118.222 73.1364V73.0966C118.222 72.6004 118.081 72.2159 117.801 71.9432C117.525 71.6705 117.112 71.5341 116.562 71.5341C115.991 71.5341 115.54 71.661 115.21 71.9148C114.884 72.1648 114.659 72.4432 114.534 72.75L112.938 72.3864C113.127 71.8561 113.403 71.428 113.767 71.1023C114.134 70.7727 114.557 70.5341 115.034 70.3864C115.511 70.2348 116.013 70.1591 116.54 70.1591C116.888 70.1591 117.258 70.2008 117.648 70.2841C118.042 70.3636 118.409 70.5114 118.75 70.7273C119.095 70.9432 119.377 71.2519 119.597 71.6534C119.816 72.0511 119.926 72.5682 119.926 73.2045V79H118.267V77.8068H118.199C118.089 78.0265 117.924 78.2424 117.705 78.4545C117.485 78.6667 117.203 78.8428 116.858 78.983C116.513 79.1231 116.1 79.1932 115.619 79.1932ZM115.989 77.8295C116.458 77.8295 116.86 77.7367 117.193 77.5511C117.53 77.3655 117.786 77.1231 117.96 76.8239C118.138 76.5208 118.227 76.197 118.227 75.8523V74.7273C118.167 74.7879 118.049 74.8447 117.875 74.8977C117.705 74.947 117.509 74.9905 117.29 75.0284C117.07 75.0625 116.856 75.0947 116.648 75.125C116.439 75.1515 116.265 75.1742 116.125 75.1932C115.795 75.2348 115.494 75.3049 115.222 75.4034C114.953 75.5019 114.737 75.6439 114.574 75.8295C114.415 76.0114 114.335 76.2538 114.335 76.5568C114.335 76.9773 114.491 77.2955 114.801 77.5114C115.112 77.7235 115.508 77.8295 115.989 77.8295ZM123.751 76.0398L123.74 73.9659H124.036L127.513 70.2727H129.547L125.581 74.4773H125.314L123.751 76.0398ZM122.189 79V67.3636H123.888V79H122.189ZM127.7 79L124.575 74.8523L125.746 73.6648L129.786 79H127.7ZM135.169 70.2727V71.6364H130.402V70.2727H135.169ZM131.68 68.1818H133.379V76.4375C133.379 76.767 133.429 77.0152 133.527 77.1818C133.625 77.3447 133.752 77.4564 133.908 77.517C134.067 77.5739 134.239 77.6023 134.425 77.6023C134.561 77.6023 134.68 77.5928 134.783 77.5739C134.885 77.5549 134.964 77.5398 135.021 77.5284L135.328 78.9318C135.23 78.9697 135.089 79.0076 134.908 79.0455C134.726 79.0871 134.499 79.1098 134.226 79.1136C133.779 79.1212 133.362 79.0417 132.976 78.875C132.589 78.7083 132.277 78.4508 132.038 78.1023C131.8 77.7538 131.68 77.3163 131.68 76.7898V68.1818ZM137.048 79V70.2727H138.747V79H137.048ZM137.906 68.9261C137.611 68.9261 137.357 68.8277 137.145 68.6307C136.937 68.4299 136.832 68.1913 136.832 67.9148C136.832 67.6345 136.937 67.3958 137.145 67.1989C137.357 66.9981 137.611 66.8977 137.906 66.8977C138.202 66.8977 138.454 66.9981 138.662 67.1989C138.874 67.3958 138.98 67.6345 138.98 67.9148C138.98 68.1913 138.874 68.4299 138.662 68.6307C138.454 68.8277 138.202 68.9261 137.906 68.9261ZM144.709 79.1761C143.864 79.1761 143.137 78.9848 142.527 78.6023C141.921 78.2159 141.455 77.6837 141.129 77.0057C140.804 76.3277 140.641 75.5511 140.641 74.6761C140.641 73.7898 140.807 73.0076 141.141 72.3295C141.474 71.6477 141.944 71.1155 142.55 70.733C143.156 70.3504 143.87 70.1591 144.692 70.1591C145.355 70.1591 145.946 70.2822 146.464 70.5284C146.983 70.7708 147.402 71.1117 147.72 71.5511C148.042 71.9905 148.233 72.5038 148.294 73.0909H146.641C146.55 72.6818 146.341 72.3295 146.016 72.0341C145.694 71.7386 145.262 71.5909 144.72 71.5909C144.247 71.5909 143.832 71.7159 143.476 71.9659C143.124 72.2121 142.849 72.5644 142.652 73.0227C142.455 73.4773 142.357 74.0152 142.357 74.6364C142.357 75.2727 142.453 75.822 142.646 76.2841C142.839 76.7462 143.112 77.1042 143.464 77.358C143.821 77.6117 144.239 77.7386 144.72 77.7386C145.042 77.7386 145.334 77.6799 145.595 77.5625C145.86 77.4413 146.082 77.2689 146.26 77.0455C146.442 76.822 146.569 76.553 146.641 76.2386H148.294C148.233 76.803 148.05 77.3068 147.743 77.75C147.436 78.1932 147.025 78.5417 146.51 78.7955C145.999 79.0492 145.398 79.1761 144.709 79.1761ZM151.673 76.0398L151.662 73.9659H151.957L155.435 70.2727H157.469L153.503 74.4773H153.236L151.673 76.0398ZM150.111 79V67.3636H151.81V79H150.111ZM155.622 79L152.497 74.8523L153.668 73.6648L157.707 79H155.622ZM161.557 79.1932C161.004 79.1932 160.504 79.0909 160.057 78.8864C159.61 78.678 159.256 78.3769 158.994 77.983C158.737 77.589 158.608 77.1061 158.608 76.5341C158.608 76.0417 158.703 75.6364 158.892 75.3182C159.081 75 159.337 74.7481 159.659 74.5625C159.981 74.3769 160.341 74.2367 160.739 74.142C161.136 74.0473 161.542 73.9754 161.955 73.9261C162.477 73.8655 162.902 73.8163 163.227 73.7784C163.553 73.7367 163.79 73.6705 163.938 73.5795C164.085 73.4886 164.159 73.3409 164.159 73.1364V73.0966C164.159 72.6004 164.019 72.2159 163.739 71.9432C163.462 71.6705 163.049 71.5341 162.5 71.5341C161.928 71.5341 161.477 71.661 161.148 71.9148C160.822 72.1648 160.597 72.4432 160.472 72.75L158.875 72.3864C159.064 71.8561 159.341 71.428 159.705 71.1023C160.072 70.7727 160.494 70.5341 160.972 70.3864C161.449 70.2348 161.951 70.1591 162.477 70.1591C162.826 70.1591 163.195 70.2008 163.585 70.2841C163.979 70.3636 164.347 70.5114 164.688 70.7273C165.032 70.9432 165.314 71.2519 165.534 71.6534C165.754 72.0511 165.864 72.5682 165.864 73.2045V79H164.205V77.8068H164.136C164.027 78.0265 163.862 78.2424 163.642 78.4545C163.422 78.6667 163.14 78.8428 162.795 78.983C162.451 79.1231 162.038 79.1932 161.557 79.1932ZM161.926 77.8295C162.396 77.8295 162.797 77.7367 163.131 77.5511C163.468 77.3655 163.723 77.1231 163.898 76.8239C164.076 76.5208 164.165 76.197 164.165 75.8523V74.7273C164.104 74.7879 163.987 74.8447 163.812 74.8977C163.642 74.947 163.447 74.9905 163.227 75.0284C163.008 75.0625 162.794 75.0947 162.585 75.125C162.377 75.1515 162.203 75.1742 162.062 75.1932C161.733 75.2348 161.432 75.3049 161.159 75.4034C160.89 75.5019 160.674 75.6439 160.511 75.8295C160.352 76.0114 160.273 76.2538 160.273 76.5568C160.273 76.9773 160.428 77.2955 160.739 77.5114C161.049 77.7235 161.445 77.8295 161.926 77.8295ZM161.864 69.108L163.193 66.4886H164.983L163.222 69.108H161.864ZM174.06 67.3636V79H172.361V67.3636H174.06ZM180.107 79.1761C179.247 79.1761 178.506 78.9924 177.885 78.625C177.268 78.2538 176.79 77.733 176.453 77.0625C176.12 76.3883 175.953 75.5985 175.953 74.6932C175.953 73.7992 176.12 73.0114 176.453 72.3295C176.79 71.6477 177.26 71.1155 177.862 70.733C178.468 70.3504 179.177 70.1591 179.987 70.1591C180.48 70.1591 180.957 70.2405 181.419 70.4034C181.881 70.5663 182.296 70.822 182.663 71.1705C183.031 71.5189 183.321 71.9716 183.533 72.5284C183.745 73.0814 183.851 73.7538 183.851 74.5455V75.1477H176.913V73.875H182.186C182.186 73.428 182.095 73.0322 181.913 72.6875C181.732 72.339 181.476 72.0644 181.146 71.8636C180.821 71.6629 180.438 71.5625 179.999 71.5625C179.521 71.5625 179.105 71.6799 178.749 71.9148C178.396 72.1458 178.124 72.4489 177.93 72.8239C177.741 73.1951 177.646 73.5985 177.646 74.0341V75.0284C177.646 75.6117 177.749 76.108 177.953 76.517C178.161 76.9261 178.451 77.2386 178.822 77.4545C179.194 77.6667 179.627 77.7727 180.124 77.7727C180.446 77.7727 180.739 77.7273 181.004 77.6364C181.269 77.5417 181.499 77.4015 181.692 77.2159C181.885 77.0303 182.033 76.8011 182.135 76.5284L183.743 76.8182C183.614 77.2917 183.383 77.7064 183.05 78.0625C182.72 78.4148 182.305 78.6894 181.805 78.8864C181.309 79.0795 180.743 79.1761 180.107 79.1761ZM179.22 69.108L180.55 66.4886H182.339L180.578 69.108H179.22ZM187.298 76.0398L187.287 73.9659H187.582L191.06 70.2727H193.094L189.128 74.4773H188.861L187.298 76.0398ZM185.736 79V67.3636H187.435V79H185.736ZM191.247 79L188.122 74.8523L189.293 73.6648L193.332 79H191.247ZM197.182 79.1932C196.629 79.1932 196.129 79.0909 195.682 78.8864C195.235 78.678 194.881 78.3769 194.619 77.983C194.362 77.589 194.233 77.1061 194.233 76.5341C194.233 76.0417 194.328 75.6364 194.517 75.3182C194.706 75 194.962 74.7481 195.284 74.5625C195.606 74.3769 195.966 74.2367 196.364 74.142C196.761 74.0473 197.167 73.9754 197.58 73.9261C198.102 73.8655 198.527 73.8163 198.852 73.7784C199.178 73.7367 199.415 73.6705 199.562 73.5795C199.71 73.4886 199.784 73.3409 199.784 73.1364V73.0966C199.784 72.6004 199.644 72.2159 199.364 71.9432C199.087 71.6705 198.674 71.5341 198.125 71.5341C197.553 71.5341 197.102 71.661 196.773 71.9148C196.447 72.1648 196.222 72.4432 196.097 72.75L194.5 72.3864C194.689 71.8561 194.966 71.428 195.33 71.1023C195.697 70.7727 196.119 70.5341 196.597 70.3864C197.074 70.2348 197.576 70.1591 198.102 70.1591C198.451 70.1591 198.82 70.2008 199.21 70.2841C199.604 70.3636 199.972 70.5114 200.312 70.7273C200.657 70.9432 200.939 71.2519 201.159 71.6534C201.379 72.0511 201.489 72.5682 201.489 73.2045V79H199.83V77.8068H199.761C199.652 78.0265 199.487 78.2424 199.267 78.4545C199.047 78.6667 198.765 78.8428 198.42 78.983C198.076 79.1231 197.663 79.1932 197.182 79.1932ZM197.551 77.8295C198.021 77.8295 198.422 77.7367 198.756 77.5511C199.093 77.3655 199.348 77.1231 199.523 76.8239C199.701 76.5208 199.79 76.197 199.79 75.8523V74.7273C199.729 74.7879 199.612 74.8447 199.438 74.8977C199.267 74.947 199.072 74.9905 198.852 75.0284C198.633 75.0625 198.419 75.0947 198.21 75.125C198.002 75.1515 197.828 75.1742 197.688 75.1932C197.358 75.2348 197.057 75.3049 196.784 75.4034C196.515 75.5019 196.299 75.6439 196.136 75.8295C195.977 76.0114 195.898 76.2538 195.898 76.5568C195.898 76.9773 196.053 77.2955 196.364 77.5114C196.674 77.7235 197.07 77.8295 197.551 77.8295ZM203.751 79V70.2727H205.393V71.6591H205.484C205.643 71.1894 205.924 70.8201 206.325 70.5511C206.731 70.2784 207.189 70.142 207.7 70.142C207.806 70.142 207.931 70.1458 208.075 70.1534C208.223 70.161 208.339 70.1705 208.422 70.1818V71.8068C208.354 71.7879 208.232 71.767 208.058 71.7443C207.884 71.7178 207.71 71.7045 207.536 71.7045C207.134 71.7045 206.776 71.7898 206.462 71.9602C206.151 72.1269 205.905 72.3598 205.723 72.6591C205.541 72.9545 205.45 73.2917 205.45 73.6705V79H203.751ZM204.831 66.733L206.001 68.2557L207.166 66.733H208.706V66.8182L206.706 69.2273H205.291L203.297 66.8182V66.733H204.831ZM211.455 76.0398L211.443 73.9659H211.739L215.216 70.2727H217.25L213.284 74.4773H213.017L211.455 76.0398ZM209.892 79V67.3636H211.591V79H209.892ZM215.403 79L212.278 74.8523L213.449 73.6648L217.489 79H215.403ZM221.338 79.1932C220.785 79.1932 220.285 79.0909 219.838 78.8864C219.391 78.678 219.037 78.3769 218.776 77.983C218.518 77.589 218.389 77.1061 218.389 76.5341C218.389 76.0417 218.484 75.6364 218.673 75.3182C218.863 75 219.118 74.7481 219.44 74.5625C219.762 74.3769 220.122 74.2367 220.52 74.142C220.918 74.0473 221.323 73.9754 221.736 73.9261C222.259 73.8655 222.683 73.8163 223.009 73.7784C223.334 73.7367 223.571 73.6705 223.719 73.5795C223.866 73.4886 223.94 73.3409 223.94 73.1364V73.0966C223.94 72.6004 223.8 72.2159 223.52 71.9432C223.243 71.6705 222.83 71.5341 222.281 71.5341C221.709 71.5341 221.259 71.661 220.929 71.9148C220.603 72.1648 220.378 72.4432 220.253 72.75L218.656 72.3864C218.846 71.8561 219.122 71.428 219.486 71.1023C219.853 70.7727 220.276 70.5341 220.753 70.3864C221.23 70.2348 221.732 70.1591 222.259 70.1591C222.607 70.1591 222.976 70.2008 223.366 70.2841C223.76 70.3636 224.128 70.5114 224.469 70.7273C224.813 70.9432 225.096 71.2519 225.315 71.6534C225.535 72.0511 225.645 72.5682 225.645 73.2045V79H223.986V77.8068H223.918C223.808 78.0265 223.643 78.2424 223.423 78.4545C223.204 78.6667 222.921 78.8428 222.577 78.983C222.232 79.1231 221.819 79.1932 221.338 79.1932ZM221.707 77.8295C222.177 77.8295 222.579 77.7367 222.912 77.5511C223.249 77.3655 223.505 77.1231 223.679 76.8239C223.857 76.5208 223.946 76.197 223.946 75.8523V74.7273C223.885 74.7879 223.768 74.8447 223.594 74.8977C223.423 74.947 223.228 74.9905 223.009 75.0284C222.789 75.0625 222.575 75.0947 222.366 75.125C222.158 75.1515 221.984 75.1742 221.844 75.1932C221.514 75.2348 221.213 75.3049 220.94 75.4034C220.671 75.5019 220.455 75.6439 220.293 75.8295C220.134 76.0114 220.054 76.2538 220.054 76.5568C220.054 76.9773 220.209 77.2955 220.52 77.5114C220.83 77.7235 221.226 77.8295 221.707 77.8295ZM232.142 82.2727V70.2727H233.801V71.6875H233.943C234.042 71.5057 234.184 71.2955 234.369 71.0568C234.555 70.8182 234.813 70.6098 235.142 70.4318C235.472 70.25 235.907 70.1591 236.449 70.1591C237.153 70.1591 237.782 70.3371 238.335 70.6932C238.888 71.0492 239.322 71.5625 239.636 72.233C239.955 72.9034 240.114 73.7102 240.114 74.6534C240.114 75.5966 239.956 76.4053 239.642 77.0795C239.328 77.75 238.896 78.267 238.347 78.6307C237.797 78.9905 237.17 79.1705 236.466 79.1705C235.936 79.1705 235.502 79.0814 235.165 78.9034C234.831 78.7254 234.57 78.517 234.381 78.2784C234.191 78.0398 234.045 77.8277 233.943 77.642H233.841V82.2727H232.142ZM233.807 74.6364C233.807 75.25 233.896 75.7879 234.074 76.25C234.252 76.7121 234.509 77.0739 234.847 77.3352C235.184 77.5928 235.597 77.7216 236.085 77.7216C236.593 77.7216 237.017 77.5871 237.358 77.3182C237.699 77.0455 237.956 76.6761 238.131 76.2102C238.309 75.7443 238.398 75.2197 238.398 74.6364C238.398 74.0606 238.311 73.5436 238.136 73.0852C237.966 72.6269 237.708 72.2652 237.364 72C237.023 71.7348 236.597 71.6023 236.085 71.6023C235.593 71.6023 235.176 71.7292 234.835 71.983C234.498 72.2367 234.242 72.5909 234.068 73.0455C233.894 73.5 233.807 74.0303 233.807 74.6364ZM242.017 79V70.2727H243.659V71.6591H243.75C243.909 71.1894 244.189 70.8201 244.591 70.5511C244.996 70.2784 245.455 70.142 245.966 70.142C246.072 70.142 246.197 70.1458 246.341 70.1534C246.489 70.161 246.604 70.1705 246.688 70.1818V71.8068C246.619 71.7879 246.498 71.767 246.324 71.7443C246.15 71.7178 245.975 71.7045 245.801 71.7045C245.4 71.7045 245.042 71.7898 244.727 71.9602C244.417 72.1269 244.17 72.3598 243.989 72.6591C243.807 72.9545 243.716 73.2917 243.716 73.6705V79H242.017ZM251.521 79.1761C250.703 79.1761 249.989 78.9886 249.379 78.6136C248.769 78.2386 248.296 77.714 247.959 77.0398C247.622 76.3655 247.453 75.5777 247.453 74.6761C247.453 73.7708 247.622 72.9792 247.959 72.3011C248.296 71.6231 248.769 71.0966 249.379 70.7216C249.989 70.3466 250.703 70.1591 251.521 70.1591C252.339 70.1591 253.054 70.3466 253.663 70.7216C254.273 71.0966 254.747 71.6231 255.084 72.3011C255.421 72.9792 255.589 73.7708 255.589 74.6761C255.589 75.5777 255.421 76.3655 255.084 77.0398C254.747 77.714 254.273 78.2386 253.663 78.6136C253.054 78.9886 252.339 79.1761 251.521 79.1761ZM251.527 77.75C252.057 77.75 252.497 77.6098 252.845 77.3295C253.194 77.0492 253.451 76.6761 253.618 76.2102C253.788 75.7443 253.874 75.2311 253.874 74.6705C253.874 74.1136 253.788 73.6023 253.618 73.1364C253.451 72.6667 253.194 72.2898 252.845 72.0057C252.497 71.7216 252.057 71.5795 251.527 71.5795C250.993 71.5795 250.55 71.7216 250.197 72.0057C249.849 72.2898 249.589 72.6667 249.419 73.1364C249.252 73.6023 249.169 74.1136 249.169 74.6705C249.169 75.2311 249.252 75.7443 249.419 76.2102C249.589 76.6761 249.849 77.0492 250.197 77.3295C250.55 77.6098 250.993 77.75 251.527 77.75ZM264.987 79.1705C264.283 79.1705 263.654 78.9905 263.101 78.6307C262.552 78.267 262.12 77.75 261.805 77.0795C261.495 76.4053 261.339 75.5966 261.339 74.6534C261.339 73.7102 261.497 72.9034 261.811 72.233C262.129 71.5625 262.565 71.0492 263.118 70.6932C263.671 70.3371 264.298 70.1591 264.999 70.1591C265.54 70.1591 265.976 70.25 266.305 70.4318C266.639 70.6098 266.896 70.8182 267.078 71.0568C267.264 71.2955 267.408 71.5057 267.51 71.6875H267.612V67.3636H269.311V79H267.652V77.642H267.51C267.408 77.8277 267.26 78.0398 267.067 78.2784C266.877 78.517 266.616 78.7254 266.283 78.9034C265.949 79.0814 265.518 79.1705 264.987 79.1705ZM265.362 77.7216C265.851 77.7216 266.264 77.5928 266.601 77.3352C266.942 77.0739 267.199 76.7121 267.374 76.25C267.552 75.7879 267.641 75.25 267.641 74.6364C267.641 74.0303 267.554 73.5 267.379 73.0455C267.205 72.5909 266.949 72.2367 266.612 71.983C266.275 71.7292 265.858 71.6023 265.362 71.6023C264.851 71.6023 264.425 71.7348 264.084 72C263.743 72.2652 263.485 72.6269 263.311 73.0852C263.141 73.5436 263.055 74.0606 263.055 74.6364C263.055 75.2197 263.143 75.7443 263.317 76.2102C263.491 76.6761 263.749 77.0455 264.089 77.3182C264.434 77.5871 264.858 77.7216 265.362 77.7216ZM275.412 79.1761C274.594 79.1761 273.88 78.9886 273.27 78.6136C272.66 78.2386 272.187 77.714 271.849 77.0398C271.512 76.3655 271.344 75.5777 271.344 74.6761C271.344 73.7708 271.512 72.9792 271.849 72.3011C272.187 71.6231 272.66 71.0966 273.27 70.7216C273.88 70.3466 274.594 70.1591 275.412 70.1591C276.23 70.1591 276.944 70.3466 277.554 70.7216C278.164 71.0966 278.637 71.6231 278.974 72.3011C279.312 72.9792 279.48 73.7708 279.48 74.6761C279.48 75.5777 279.312 76.3655 278.974 77.0398C278.637 77.714 278.164 78.2386 277.554 78.6136C276.944 78.9886 276.23 79.1761 275.412 79.1761ZM275.418 77.75C275.948 77.75 276.387 77.6098 276.736 77.3295C277.084 77.0492 277.342 76.6761 277.509 76.2102C277.679 75.7443 277.764 75.2311 277.764 74.6705C277.764 74.1136 277.679 73.6023 277.509 73.1364C277.342 72.6667 277.084 72.2898 276.736 72.0057C276.387 71.7216 275.948 71.5795 275.418 71.5795C274.884 71.5795 274.44 71.7216 274.088 72.0057C273.74 72.2898 273.48 72.6667 273.31 73.1364C273.143 73.6023 273.06 74.1136 273.06 74.6705C273.06 75.2311 273.143 75.7443 273.31 76.2102C273.48 76.6761 273.74 77.0492 274.088 77.3295C274.44 77.6098 274.884 77.75 275.418 77.75ZM287.916 72.4034L286.376 72.6761C286.312 72.4792 286.21 72.2917 286.07 72.1136C285.933 71.9356 285.748 71.7898 285.513 71.6761C285.278 71.5625 284.984 71.5057 284.632 71.5057C284.151 71.5057 283.75 71.6136 283.428 71.8295C283.106 72.0417 282.945 72.3163 282.945 72.6534C282.945 72.9451 283.053 73.1799 283.268 73.358C283.484 73.536 283.833 73.6818 284.314 73.7955L285.7 74.1136C286.503 74.2992 287.102 74.5852 287.496 74.9716C287.89 75.358 288.087 75.8598 288.087 76.4773C288.087 77 287.935 77.4659 287.632 77.875C287.333 78.2803 286.914 78.5985 286.376 78.8295C285.842 79.0606 285.223 79.1761 284.518 79.1761C283.541 79.1761 282.744 78.9678 282.126 78.5511C281.509 78.1307 281.13 77.5341 280.99 76.7614L282.632 76.5114C282.734 76.9394 282.945 77.2633 283.263 77.483C283.581 77.6989 283.996 77.8068 284.507 77.8068C285.064 77.8068 285.509 77.6913 285.842 77.4602C286.176 77.2254 286.342 76.9394 286.342 76.6023C286.342 76.3295 286.24 76.1004 286.036 75.9148C285.835 75.7292 285.526 75.589 285.109 75.4943L283.632 75.1705C282.818 74.9848 282.215 74.6894 281.825 74.2841C281.439 73.8788 281.246 73.3655 281.246 72.7443C281.246 72.2292 281.39 71.7784 281.678 71.392C281.965 71.0057 282.363 70.7045 282.871 70.4886C283.378 70.2689 283.96 70.1591 284.615 70.1591C285.558 70.1591 286.301 70.3636 286.842 70.7727C287.384 71.178 287.742 71.7216 287.916 72.4034ZM289.955 82.2727V70.2727H291.614V71.6875H291.756C291.854 71.5057 291.996 71.2955 292.182 71.0568C292.367 70.8182 292.625 70.6098 292.955 70.4318C293.284 70.25 293.72 70.1591 294.261 70.1591C294.966 70.1591 295.595 70.3371 296.148 70.6932C296.701 71.0492 297.134 71.5625 297.449 72.233C297.767 72.9034 297.926 73.7102 297.926 74.6534C297.926 75.5966 297.769 76.4053 297.455 77.0795C297.14 77.75 296.708 78.267 296.159 78.6307C295.61 78.9905 294.983 79.1705 294.278 79.1705C293.748 79.1705 293.314 79.0814 292.977 78.9034C292.644 78.7254 292.383 78.517 292.193 78.2784C292.004 78.0398 291.858 77.8277 291.756 77.642H291.653V82.2727H289.955ZM291.619 74.6364C291.619 75.25 291.708 75.7879 291.886 76.25C292.064 76.7121 292.322 77.0739 292.659 77.3352C292.996 77.5928 293.409 77.7216 293.898 77.7216C294.405 77.7216 294.83 77.5871 295.17 77.3182C295.511 77.0455 295.769 76.6761 295.943 76.2102C296.121 75.7443 296.21 75.2197 296.21 74.6364C296.21 74.0606 296.123 73.5436 295.949 73.0852C295.778 72.6269 295.521 72.2652 295.176 72C294.835 71.7348 294.409 71.6023 293.898 71.6023C293.405 71.6023 292.989 71.7292 292.648 71.983C292.311 72.2367 292.055 72.5909 291.881 73.0455C291.706 73.5 291.619 74.0303 291.619 74.6364ZM303.591 79.1761C302.731 79.1761 301.991 78.9924 301.369 78.625C300.752 78.2538 300.275 77.733 299.938 77.0625C299.604 76.3883 299.438 75.5985 299.438 74.6932C299.438 73.7992 299.604 73.0114 299.938 72.3295C300.275 71.6477 300.744 71.1155 301.347 70.733C301.953 70.3504 302.661 70.1591 303.472 70.1591C303.964 70.1591 304.441 70.2405 304.903 70.4034C305.366 70.5663 305.78 70.822 306.148 71.1705C306.515 71.5189 306.805 71.9716 307.017 72.5284C307.229 73.0814 307.335 73.7538 307.335 74.5455V75.1477H300.398V73.875H305.67C305.67 73.428 305.58 73.0322 305.398 72.6875C305.216 72.339 304.96 72.0644 304.631 71.8636C304.305 71.6629 303.922 71.5625 303.483 71.5625C303.006 71.5625 302.589 71.6799 302.233 71.9148C301.881 72.1458 301.608 72.4489 301.415 72.8239C301.225 73.1951 301.131 73.5985 301.131 74.0341V75.0284C301.131 75.6117 301.233 76.108 301.438 76.517C301.646 76.9261 301.936 77.2386 302.307 77.4545C302.678 77.6667 303.112 77.7727 303.608 77.7727C303.93 77.7727 304.223 77.7273 304.489 77.6364C304.754 77.5417 304.983 77.4015 305.176 77.2159C305.369 77.0303 305.517 76.8011 305.619 76.5284L307.227 76.8182C307.098 77.2917 306.867 77.7064 306.534 78.0625C306.205 78.4148 305.79 78.6894 305.29 78.8864C304.794 79.0795 304.227 79.1761 303.591 79.1761ZM302.239 66.733L303.409 68.2557L304.574 66.733H306.114V66.8182L304.114 69.2273H302.699L300.705 66.8182V66.733H302.239ZM310.919 67.3636V79H309.22V67.3636H310.919ZM316.966 79.1761C316.106 79.1761 315.366 78.9924 314.744 78.625C314.127 78.2538 313.65 77.733 313.312 77.0625C312.979 76.3883 312.812 75.5985 312.812 74.6932C312.812 73.7992 312.979 73.0114 313.312 72.3295C313.65 71.6477 314.119 71.1155 314.722 70.733C315.328 70.3504 316.036 70.1591 316.847 70.1591C317.339 70.1591 317.816 70.2405 318.278 70.4034C318.741 70.5663 319.155 70.822 319.523 71.1705C319.89 71.5189 320.18 71.9716 320.392 72.5284C320.604 73.0814 320.71 73.7538 320.71 74.5455V75.1477H313.773V73.875H319.045C319.045 73.428 318.955 73.0322 318.773 72.6875C318.591 72.339 318.335 72.0644 318.006 71.8636C317.68 71.6629 317.297 71.5625 316.858 71.5625C316.381 71.5625 315.964 71.6799 315.608 71.9148C315.256 72.1458 314.983 72.4489 314.79 72.8239C314.6 73.1951 314.506 73.5985 314.506 74.0341V75.0284C314.506 75.6117 314.608 76.108 314.812 76.517C315.021 76.9261 315.311 77.2386 315.682 77.4545C316.053 77.6667 316.487 77.7727 316.983 77.7727C317.305 77.7727 317.598 77.7273 317.864 77.6364C318.129 77.5417 318.358 77.4015 318.551 77.2159C318.744 77.0303 318.892 76.8011 318.994 76.5284L320.602 76.8182C320.473 77.2917 320.242 77.7064 319.909 78.0625C319.58 78.4148 319.165 78.6894 318.665 78.8864C318.169 79.0795 317.602 79.1761 316.966 79.1761ZM316.08 69.108L317.409 66.4886H319.199L317.438 69.108H316.08Z" fill="#666666"/>
<path d="M100.415 99H97.1186V88.8182H100.519C101.517 88.8182 102.374 89.022 103.089 89.4297C103.805 89.834 104.354 90.4157 104.735 91.1747C105.12 91.9304 105.312 92.8369 105.312 93.8942C105.312 94.9548 105.118 95.8662 104.73 96.6286C104.346 97.3909 103.789 97.9775 103.06 98.3885C102.33 98.7962 101.449 99 100.415 99ZM98.6548 97.6577H100.33C101.106 97.6577 101.75 97.5118 102.264 97.2202C102.778 96.9252 103.162 96.4993 103.418 95.9425C103.673 95.3823 103.8 94.6996 103.8 93.8942C103.8 93.0954 103.673 92.4176 103.418 91.8608C103.166 91.304 102.79 90.8814 102.289 90.593C101.789 90.3047 101.167 90.1605 100.425 90.1605H98.6548V97.6577ZM110.394 99.1541C109.642 99.1541 108.994 98.9934 108.45 98.6719C107.91 98.3471 107.492 97.8913 107.197 97.3047C106.906 96.7147 106.76 96.0237 106.76 95.2315C106.76 94.4493 106.906 93.7599 107.197 93.1634C107.492 92.5668 107.903 92.1011 108.43 91.7663C108.961 91.4316 109.58 91.2642 110.29 91.2642C110.72 91.2642 111.138 91.3355 111.542 91.478C111.947 91.6205 112.31 91.8442 112.631 92.1491C112.953 92.4541 113.206 92.8501 113.392 93.3374C113.577 93.8213 113.67 94.4096 113.67 95.1023V95.6293H107.6V94.5156H112.214C112.214 94.1245 112.134 93.7782 111.975 93.4766C111.816 93.1716 111.592 92.9313 111.304 92.7557C111.019 92.58 110.684 92.4922 110.3 92.4922C109.882 92.4922 109.517 92.5949 109.206 92.8004C108.898 93.0026 108.659 93.2678 108.49 93.5959C108.324 93.9207 108.241 94.2737 108.241 94.6548V95.5249C108.241 96.0353 108.331 96.4695 108.51 96.8274C108.692 97.1854 108.946 97.4588 109.27 97.6477C109.595 97.8333 109.975 97.9261 110.409 97.9261C110.691 97.9261 110.948 97.8864 111.18 97.8068C111.412 97.724 111.612 97.6013 111.781 97.4389C111.95 97.2765 112.079 97.076 112.169 96.8374L113.576 97.0909C113.463 97.5052 113.261 97.8681 112.969 98.1797C112.681 98.4879 112.318 98.7282 111.881 98.9006C111.446 99.0696 110.951 99.1541 110.394 99.1541ZM121.634 91.3636L118.864 99H117.273L114.499 91.3636H116.095L118.029 97.2401H118.109L120.038 91.3636H121.634ZM125.987 99.1541C125.271 99.1541 124.647 98.9901 124.113 98.6619C123.579 98.3338 123.165 97.8748 122.87 97.2848C122.575 96.6948 122.428 96.0054 122.428 95.2166C122.428 94.4245 122.575 93.7318 122.87 93.1385C123.165 92.5452 123.579 92.0845 124.113 91.7564C124.647 91.4283 125.271 91.2642 125.987 91.2642C126.703 91.2642 127.328 91.4283 127.862 91.7564C128.395 92.0845 128.81 92.5452 129.105 93.1385C129.4 93.7318 129.547 94.4245 129.547 95.2166C129.547 96.0054 129.4 96.6948 129.105 97.2848C128.81 97.8748 128.395 98.3338 127.862 98.6619C127.328 98.9901 126.703 99.1541 125.987 99.1541ZM125.992 97.9062C126.456 97.9062 126.841 97.7836 127.146 97.5384C127.451 97.2931 127.676 96.9666 127.822 96.5589C127.971 96.1513 128.046 95.7022 128.046 95.2116C128.046 94.7244 127.971 94.277 127.822 93.8693C127.676 93.4583 127.451 93.1286 127.146 92.88C126.841 92.6314 126.456 92.5071 125.992 92.5071C125.525 92.5071 125.137 92.6314 124.829 92.88C124.524 93.1286 124.297 93.4583 124.148 93.8693C124.002 94.277 123.929 94.7244 123.929 95.2116C123.929 95.7022 124.002 96.1513 124.148 96.5589C124.297 96.9666 124.524 97.2931 124.829 97.5384C125.137 97.7836 125.525 97.9062 125.992 97.9062ZM134.771 91.3636V92.5568H130.6V91.3636H134.771ZM131.718 89.5341H133.205V96.7578C133.205 97.0462 133.248 97.2633 133.334 97.4091C133.42 97.5516 133.531 97.6494 133.667 97.7024C133.806 97.7521 133.957 97.777 134.12 97.777C134.239 97.777 134.343 97.7687 134.433 97.7521C134.522 97.7356 134.592 97.7223 134.642 97.7124L134.91 98.9403C134.824 98.9735 134.701 99.0066 134.542 99.0398C134.383 99.0762 134.184 99.0961 133.946 99.0994C133.555 99.1061 133.19 99.0365 132.852 98.8906C132.514 98.7448 132.24 98.5194 132.032 98.2145C131.823 97.9096 131.718 97.5268 131.718 97.0661V89.5341ZM137.355 101.864C137.133 101.864 136.931 101.845 136.748 101.809C136.566 101.776 136.43 101.739 136.341 101.7L136.699 100.482C136.97 100.554 137.212 100.586 137.425 100.576C137.637 100.566 137.824 100.487 137.986 100.337C138.152 100.188 138.298 99.9446 138.424 99.6065L138.608 99.0994L135.814 91.3636H137.405L139.339 97.2898H139.418L141.352 91.3636H142.948L139.801 100.019C139.655 100.417 139.47 100.753 139.244 101.028C139.019 101.307 138.75 101.516 138.439 101.655C138.127 101.794 137.766 101.864 137.355 101.864ZM145.831 94.4659V99H144.345V88.8182H145.812V92.6065H145.906C146.085 92.1955 146.358 91.8691 146.726 91.6271C147.094 91.3852 147.575 91.2642 148.168 91.2642C148.692 91.2642 149.149 91.3719 149.54 91.5874C149.935 91.8028 150.24 92.1243 150.455 92.5518C150.674 92.9761 150.783 93.5064 150.783 94.1428V99H149.297V94.3217C149.297 93.7616 149.153 93.3274 148.864 93.0192C148.576 92.7076 148.175 92.5518 147.661 92.5518C147.31 92.5518 146.995 92.6264 146.716 92.7756C146.441 92.9247 146.224 93.1435 146.065 93.4318C145.909 93.7169 145.831 94.0616 145.831 94.4659ZM155.983 99.1541C155.268 99.1541 154.643 98.9901 154.109 98.6619C153.576 98.3338 153.161 97.8748 152.866 97.2848C152.571 96.6948 152.424 96.0054 152.424 95.2166C152.424 94.4245 152.571 93.7318 152.866 93.1385C153.161 92.5452 153.576 92.0845 154.109 91.7564C154.643 91.4283 155.268 91.2642 155.983 91.2642C156.699 91.2642 157.324 91.4283 157.858 91.7564C158.391 92.0845 158.806 92.5452 159.101 93.1385C159.396 93.7318 159.543 94.4245 159.543 95.2166C159.543 96.0054 159.396 96.6948 159.101 97.2848C158.806 97.8748 158.391 98.3338 157.858 98.6619C157.324 98.9901 156.699 99.1541 155.983 99.1541ZM155.988 97.9062C156.452 97.9062 156.837 97.7836 157.142 97.5384C157.447 97.2931 157.672 96.9666 157.818 96.5589C157.967 96.1513 158.042 95.7022 158.042 95.2116C158.042 94.7244 157.967 94.277 157.818 93.8693C157.672 93.4583 157.447 93.1286 157.142 92.88C156.837 92.6314 156.452 92.5071 155.988 92.5071C155.521 92.5071 155.133 92.6314 154.825 92.88C154.52 93.1286 154.293 93.4583 154.144 93.8693C153.998 94.277 153.925 94.7244 153.925 95.2116C153.925 95.7022 153.998 96.1513 154.144 96.5589C154.293 96.9666 154.52 97.2931 154.825 97.5384C155.133 97.7836 155.521 97.9062 155.988 97.9062ZM168.248 99.1392C167.625 99.1392 167.065 99.0199 166.568 98.7812C166.074 98.5393 165.68 98.2079 165.385 97.7869C165.09 97.366 164.932 96.8854 164.912 96.3452H166.404C166.44 96.7827 166.634 97.1423 166.986 97.424C167.337 97.7057 167.758 97.8466 168.248 97.8466C168.64 97.8466 168.986 97.7571 169.287 97.5781C169.592 97.3958 169.831 97.1456 170.003 96.8274C170.179 96.5092 170.267 96.1463 170.267 95.7386C170.267 95.3243 170.177 94.9548 169.998 94.63C169.819 94.3052 169.573 94.05 169.258 93.8643C168.946 93.6787 168.588 93.5843 168.184 93.581C167.876 93.581 167.566 93.634 167.254 93.7401C166.943 93.8461 166.691 93.9853 166.498 94.1577L165.091 93.9489L165.663 88.8182H171.261V90.1357H166.941L166.618 92.9844H166.677C166.876 92.7921 167.14 92.6314 167.468 92.5021C167.799 92.3729 168.154 92.3082 168.532 92.3082C169.152 92.3082 169.703 92.4557 170.187 92.7507C170.675 93.0457 171.057 93.4484 171.336 93.9588C171.617 94.4659 171.757 95.0492 171.753 95.7088C171.757 96.3684 171.608 96.9567 171.306 97.4737C171.008 97.9908 170.593 98.3984 170.063 98.6967C169.536 98.9917 168.931 99.1392 168.248 99.1392ZM176.93 99.1392C176.307 99.1392 175.747 99.0199 175.25 98.7812C174.756 98.5393 174.361 98.2079 174.066 97.7869C173.771 97.366 173.614 96.8854 173.594 96.3452H175.086C175.122 96.7827 175.316 97.1423 175.667 97.424C176.019 97.7057 176.44 97.8466 176.93 97.8466C177.321 97.8466 177.667 97.7571 177.969 97.5781C178.274 97.3958 178.513 97.1456 178.685 96.8274C178.861 96.5092 178.949 96.1463 178.949 95.7386C178.949 95.3243 178.859 94.9548 178.68 94.63C178.501 94.3052 178.254 94.05 177.939 93.8643C177.628 93.6787 177.27 93.5843 176.865 93.581C176.557 93.581 176.247 93.634 175.936 93.7401C175.624 93.8461 175.372 93.9853 175.18 94.1577L173.773 93.9489L174.345 88.8182H179.943V90.1357H175.623L175.299 92.9844H175.359C175.558 92.7921 175.821 92.6314 176.15 92.5021C176.481 92.3729 176.836 92.3082 177.213 92.3082C177.833 92.3082 178.385 92.4557 178.869 92.7507C179.356 93.0457 179.739 93.4484 180.017 93.9588C180.299 94.4659 180.438 95.0492 180.435 95.7088C180.438 96.3684 180.289 96.9567 179.988 97.4737C179.689 97.9908 179.275 98.3984 178.745 98.6967C178.218 98.9917 177.613 99.1392 176.93 99.1392ZM185.637 88.679C186.091 88.6823 186.538 88.7652 186.979 88.9276C187.42 89.09 187.817 89.3551 188.172 89.723C188.53 90.0909 188.815 90.5881 189.027 91.2145C189.243 91.8376 189.352 92.6132 189.355 93.5412C189.355 94.4328 189.266 95.2266 189.087 95.9226C188.908 96.6153 188.651 97.2003 188.316 97.6776C187.985 98.1548 187.582 98.5178 187.108 98.7663C186.634 99.0149 186.101 99.1392 185.507 99.1392C184.901 99.1392 184.362 99.0199 183.892 98.7812C183.421 98.5426 183.038 98.2128 182.743 97.7919C182.448 97.3677 182.264 96.8804 182.191 96.3303H183.708C183.807 96.7678 184.009 97.1224 184.314 97.3942C184.622 97.6626 185.02 97.7969 185.507 97.7969C186.253 97.7969 186.835 97.4721 187.252 96.8224C187.67 96.1695 187.88 95.258 187.884 94.0881H187.804C187.632 94.3731 187.416 94.6184 187.158 94.8239C186.903 95.0294 186.616 95.1884 186.298 95.3011C185.98 95.4138 185.64 95.4702 185.279 95.4702C184.692 95.4702 184.158 95.326 183.678 95.0376C183.197 94.7493 182.814 94.3532 182.529 93.8494C182.244 93.3456 182.102 92.7706 182.102 92.1243C182.102 91.4813 182.248 90.898 182.539 90.3743C182.834 89.8506 183.245 89.4363 183.772 89.1314C184.302 88.8232 184.924 88.6723 185.637 88.679ZM185.642 89.9716C185.254 89.9716 184.904 90.0677 184.593 90.2599C184.284 90.4489 184.041 90.7057 183.862 91.0305C183.683 91.352 183.593 91.71 183.593 92.1044C183.593 92.4988 183.679 92.8568 183.852 93.1783C184.027 93.4964 184.266 93.75 184.568 93.9389C184.873 94.1245 185.221 94.2173 185.612 94.2173C185.903 94.2173 186.175 94.161 186.427 94.0483C186.679 93.9356 186.899 93.7798 187.088 93.581C187.277 93.3788 187.425 93.1501 187.531 92.8949C187.637 92.6397 187.69 92.3712 187.69 92.0895C187.69 91.715 187.6 91.367 187.421 91.0455C187.246 90.724 187.004 90.4654 186.695 90.2699C186.387 90.071 186.036 89.9716 185.642 89.9716ZM192.736 97.608L192.661 98.1499C192.612 98.5476 192.527 98.9619 192.408 99.3928C192.292 99.8269 192.171 100.23 192.045 100.601C191.922 100.972 191.821 101.267 191.742 101.486H190.688C190.731 101.28 190.79 101.002 190.867 100.651C190.943 100.303 191.017 99.9131 191.09 99.4822C191.163 99.0514 191.218 98.6122 191.254 98.1648L191.304 97.608H192.736ZM198.496 99V88.8182H202.125C202.917 88.8182 203.573 88.9624 204.094 89.2507C204.614 89.5391 205.003 89.9335 205.262 90.4339C205.52 90.9311 205.65 91.4912 205.65 92.1143C205.65 92.7408 205.519 93.3042 205.257 93.8047C204.998 94.3018 204.607 94.6963 204.084 94.9879C203.563 95.2763 202.909 95.4205 202.12 95.4205H199.624V94.1179H201.981C202.481 94.1179 202.887 94.0317 203.199 93.8594C203.51 93.6837 203.739 93.4451 203.885 93.1435C204.031 92.8419 204.104 92.4988 204.104 92.1143C204.104 91.7299 204.031 91.3885 203.885 91.0902C203.739 90.7919 203.509 90.5582 203.194 90.3892C202.882 90.2202 202.471 90.1357 201.961 90.1357H200.032V99H198.496ZM209.485 99.169C209.001 99.169 208.564 99.0795 208.173 98.9006C207.782 98.7183 207.472 98.4548 207.243 98.1101C207.018 97.7654 206.905 97.3428 206.905 96.8423C206.905 96.4115 206.988 96.0568 207.154 95.7784C207.319 95.5 207.543 95.2796 207.825 95.1172C208.106 94.9548 208.421 94.8321 208.769 94.7493C209.117 94.6664 209.472 94.6035 209.833 94.5604C210.291 94.5073 210.662 94.4643 210.947 94.4311C211.232 94.3946 211.439 94.3366 211.568 94.2571C211.698 94.1776 211.762 94.0483 211.762 93.8693V93.8345C211.762 93.4003 211.64 93.0639 211.394 92.8253C211.152 92.5866 210.791 92.4673 210.311 92.4673C209.81 92.4673 209.416 92.5784 209.127 92.8004C208.842 93.0192 208.645 93.2628 208.536 93.5312L207.139 93.2131C207.304 92.7491 207.546 92.3745 207.865 92.0895C208.186 91.8011 208.556 91.5923 208.973 91.4631C209.391 91.3305 209.83 91.2642 210.291 91.2642C210.596 91.2642 210.919 91.3007 211.26 91.3736C211.605 91.4432 211.926 91.5724 212.225 91.7614C212.526 91.9503 212.773 92.2204 212.965 92.5717C213.158 92.9197 213.254 93.3722 213.254 93.929V99H211.802V97.956H211.742C211.646 98.1482 211.502 98.3371 211.31 98.5227C211.118 98.7083 210.871 98.8625 210.569 98.9851C210.267 99.1077 209.906 99.169 209.485 99.169ZM209.808 97.9759C210.219 97.9759 210.571 97.8946 210.862 97.7322C211.157 97.5698 211.381 97.3577 211.534 97.0959C211.689 96.8307 211.767 96.5473 211.767 96.2457V95.2614C211.714 95.3144 211.611 95.3641 211.459 95.4105C211.31 95.4536 211.139 95.4917 210.947 95.5249C210.755 95.5547 210.567 95.5829 210.385 95.6094C210.203 95.6326 210.05 95.6525 209.928 95.669C209.639 95.7055 209.376 95.7668 209.137 95.853C208.902 95.9392 208.713 96.0634 208.57 96.2259C208.431 96.3849 208.362 96.5971 208.362 96.8622C208.362 97.2301 208.498 97.5085 208.769 97.6974C209.041 97.883 209.387 97.9759 209.808 97.9759ZM215.234 99V91.3636H216.67V92.5767H216.75C216.889 92.1657 217.134 91.8426 217.486 91.6072C217.84 91.3686 218.241 91.2493 218.689 91.2493C218.782 91.2493 218.891 91.2526 219.017 91.2592C219.146 91.2659 219.247 91.2741 219.32 91.2841V92.706C219.261 92.6894 219.155 92.6712 219.002 92.6513C218.85 92.6281 218.697 92.6165 218.545 92.6165C218.193 92.6165 217.88 92.6911 217.605 92.8402C217.333 92.986 217.118 93.1899 216.959 93.4517C216.8 93.7102 216.72 94.0052 216.72 94.3366V99H215.234ZM223.192 99.1491C222.575 99.1491 222.025 98.9917 221.541 98.6768C221.061 98.3587 220.683 97.9062 220.408 97.3196C220.136 96.7296 220 96.022 220 95.1967C220 94.3714 220.138 93.6655 220.413 93.0788C220.691 92.4922 221.072 92.0431 221.556 91.7315C222.04 91.42 222.589 91.2642 223.202 91.2642C223.676 91.2642 224.057 91.3438 224.345 91.5028C224.637 91.6586 224.862 91.8409 225.021 92.0497C225.184 92.2585 225.31 92.4425 225.399 92.6016H225.489V88.8182H226.975V99H225.524V97.8118H225.399C225.31 97.9742 225.181 98.1598 225.012 98.3686C224.846 98.5774 224.617 98.7597 224.325 98.9155C224.034 99.0713 223.656 99.1491 223.192 99.1491ZM223.52 97.8814C223.948 97.8814 224.309 97.7687 224.604 97.5433C224.902 97.3146 225.128 96.9981 225.28 96.5938C225.436 96.1894 225.514 95.7187 225.514 95.1818C225.514 94.6515 225.437 94.1875 225.285 93.7898C225.133 93.392 224.909 93.0821 224.614 92.8601C224.319 92.638 223.954 92.527 223.52 92.527C223.073 92.527 222.7 92.643 222.401 92.875C222.103 93.107 221.878 93.4235 221.725 93.8246C221.576 94.2256 221.502 94.678 221.502 95.1818C221.502 95.6922 221.578 96.1513 221.73 96.5589C221.883 96.9666 222.108 97.2898 222.406 97.5284C222.708 97.7637 223.079 97.8814 223.52 97.8814ZM233.934 95.8331V91.3636H235.426V99H233.964V97.6776H233.885C233.709 98.0852 233.427 98.425 233.039 98.6967C232.655 98.9652 232.176 99.0994 231.603 99.0994C231.112 99.0994 230.678 98.9917 230.3 98.7763C229.926 98.5575 229.631 98.2344 229.415 97.8068C229.203 97.3793 229.097 96.8506 229.097 96.2209V91.3636H230.583V96.0419C230.583 96.5623 230.728 96.9766 231.016 97.2848C231.304 97.593 231.679 97.7472 232.14 97.7472C232.418 97.7472 232.695 97.6776 232.97 97.5384C233.248 97.3991 233.479 97.1887 233.661 96.907C233.846 96.6252 233.938 96.2673 233.934 95.8331ZM237.542 99V88.8182H239.029V92.6016H239.118C239.205 92.4425 239.329 92.2585 239.491 92.0497C239.654 91.8409 239.879 91.6586 240.167 91.5028C240.456 91.3438 240.837 91.2642 241.311 91.2642C241.927 91.2642 242.478 91.42 242.961 91.7315C243.445 92.0431 243.825 92.4922 244.1 93.0788C244.378 93.6655 244.518 94.3714 244.518 95.1967C244.518 96.022 244.38 96.7296 244.105 97.3196C243.83 97.9062 243.452 98.3587 242.971 98.6768C242.491 98.9917 241.942 99.1491 241.326 99.1491C240.862 99.1491 240.482 99.0713 240.187 98.9155C239.896 98.7597 239.667 98.5774 239.501 98.3686C239.336 98.1598 239.208 97.9742 239.118 97.8118H238.994V99H237.542ZM238.999 95.1818C238.999 95.7187 239.077 96.1894 239.233 96.5938C239.389 96.9981 239.614 97.3146 239.909 97.5433C240.204 97.7687 240.565 97.8814 240.993 97.8814C241.437 97.8814 241.808 97.7637 242.106 97.5284C242.405 97.2898 242.63 96.9666 242.782 96.5589C242.938 96.1513 243.016 95.6922 243.016 95.1818C243.016 94.678 242.94 94.2256 242.787 93.8246C242.638 93.4235 242.413 93.107 242.111 92.875C241.813 92.643 241.44 92.527 240.993 92.527C240.562 92.527 240.197 92.638 239.899 92.8601C239.604 93.0821 239.38 93.392 239.228 93.7898C239.075 94.1875 238.999 94.6515 238.999 95.1818ZM246.187 99V91.3636H247.673V99H246.187ZM246.938 90.1854C246.679 90.1854 246.457 90.0992 246.271 89.9268C246.089 89.7512 245.998 89.5424 245.998 89.3004C245.998 89.0552 246.089 88.8464 246.271 88.674C246.457 88.4983 246.679 88.4105 246.938 88.4105C247.196 88.4105 247.416 88.4983 247.599 88.674C247.784 88.8464 247.877 89.0552 247.877 89.3004C247.877 89.5424 247.784 89.7512 247.599 89.9268C247.416 90.0992 247.196 90.1854 246.938 90.1854ZM252.89 99.1541C252.151 99.1541 251.514 98.9867 250.981 98.652C250.45 98.3139 250.043 97.8482 249.758 97.255C249.473 96.6617 249.33 95.9822 249.33 95.2166C249.33 94.4411 249.476 93.7566 249.768 93.1634C250.059 92.5668 250.47 92.1011 251.001 91.7663C251.531 91.4316 252.156 91.2642 252.875 91.2642C253.455 91.2642 253.972 91.3719 254.426 91.5874C254.88 91.7995 255.246 92.0978 255.525 92.4822C255.806 92.8667 255.974 93.3158 256.027 93.8295H254.58C254.501 93.4716 254.318 93.1634 254.033 92.9048C253.751 92.6463 253.374 92.517 252.9 92.517C252.485 92.517 252.122 92.6264 251.811 92.8452C251.503 93.0606 251.262 93.3688 251.09 93.7699C250.918 94.1676 250.831 94.6383 250.831 95.1818C250.831 95.7386 250.916 96.2192 251.085 96.6236C251.254 97.0279 251.493 97.3411 251.801 97.5632C252.113 97.7853 252.479 97.8963 252.9 97.8963C253.181 97.8963 253.437 97.8449 253.665 97.7422C253.897 97.6361 254.091 97.4853 254.247 97.2898C254.406 97.0942 254.517 96.8589 254.58 96.5838H256.027C255.974 97.0777 255.813 97.5185 255.545 97.9062C255.276 98.294 254.916 98.599 254.466 98.821C254.018 99.0431 253.493 99.1541 252.89 99.1541ZM260.908 99.1541C260.155 99.1541 259.507 98.9934 258.964 98.6719C258.424 98.3471 258.006 97.8913 257.711 97.3047C257.419 96.7147 257.273 96.0237 257.273 95.2315C257.273 94.4493 257.419 93.7599 257.711 93.1634C258.006 92.5668 258.417 92.1011 258.944 91.7663C259.474 91.4316 260.094 91.2642 260.803 91.2642C261.234 91.2642 261.652 91.3355 262.056 91.478C262.46 91.6205 262.823 91.8442 263.145 92.1491C263.466 92.4541 263.72 92.8501 263.906 93.3374C264.091 93.8213 264.184 94.4096 264.184 95.1023V95.6293H258.114V94.5156H262.727C262.727 94.1245 262.648 93.7782 262.489 93.4766C262.33 93.1716 262.106 92.9313 261.817 92.7557C261.532 92.58 261.198 92.4922 260.813 92.4922C260.396 92.4922 260.031 92.5949 259.719 92.8004C259.411 93.0026 259.173 93.2678 259.004 93.5959C258.838 93.9207 258.755 94.2737 258.755 94.6548V95.5249C258.755 96.0353 258.844 96.4695 259.023 96.8274C259.206 97.1854 259.459 97.4588 259.784 97.6477C260.109 97.8333 260.488 97.9261 260.923 97.9261C261.204 97.9261 261.461 97.8864 261.693 97.8068C261.925 97.724 262.126 97.6013 262.295 97.4389C262.464 97.2765 262.593 97.076 262.683 96.8374L264.089 97.0909C263.977 97.5052 263.775 97.8681 263.483 98.1797C263.195 98.4879 262.832 98.7282 262.394 98.9006C261.96 99.0696 261.464 99.1541 260.908 99.1541ZM269.518 99V97.8864L272.964 94.3168C273.332 93.929 273.635 93.5893 273.874 93.2976C274.116 93.0026 274.296 92.7225 274.415 92.4574C274.535 92.1922 274.594 91.9105 274.594 91.6122C274.594 91.2741 274.515 90.9825 274.356 90.7372C274.197 90.4886 273.98 90.2981 273.705 90.1655C273.429 90.0296 273.12 89.9616 272.775 89.9616C272.41 89.9616 272.092 90.0362 271.82 90.1854C271.549 90.3345 271.34 90.545 271.194 90.8168C271.048 91.0885 270.975 91.4067 270.975 91.7713H269.509C269.509 91.1515 269.651 90.6096 269.936 90.1456C270.221 89.6816 270.612 89.322 271.109 89.0668C271.607 88.8082 272.172 88.679 272.805 88.679C273.444 88.679 274.008 88.8066 274.495 89.0618C274.986 89.3137 275.368 89.6584 275.643 90.0959C275.919 90.5301 276.056 91.0206 276.056 91.5675C276.056 91.9453 275.985 92.3149 275.842 92.6761C275.703 93.0374 275.46 93.4401 275.112 93.8842C274.763 94.325 274.28 94.8603 273.66 95.4901L271.636 97.608V97.6825H276.22V99H269.518Z" fill="#666666"/>
<defs>
<filter id="filter0_d_233_2577" x="0" y="0" width="342" height="145" filterUnits="userSpaceOnUse" color-interpolation-filters="sRGB">
<feFlood flood-opacity="0" result="BackgroundImageFix"/>
<feColorMatrix in="SourceAlpha" type="matrix" values="0 0 0 0 0 0 0 0 0 0 0 0 0 0 0 0 0 0 127 0" result="hardAlpha"/>
<feOffset/>
<feGaussianBlur stdDeviation="5"/>
<feComposite in2="hardAlpha" operator="out"/>
<feColorMatrix type="matrix" values="0 0 0 0 0 0 0 0 0 0 0 0 0 0 0 0 0 0 0.25 0"/>
<feBlend mode="normal" in2="BackgroundImageFix" result="effect1_dropShadow_233_2577"/>
<feBlend mode="normal" in="SourceGraphic" in2="effect1_dropShadow_233_2577" result="shape"/>
</filter>
</defs>
</svg>
