<svg width="58" height="58" viewBox="0 0 58 58" fill="none" xmlns="http://www.w3.org/2000/svg">
<circle cx="29" cy="29" r="29" fill="#DE091C"/>
<path d="M27.9643 34.7648H31.6929V30.0005H36.3536V26.1891H31.6929V21.4248H27.9643V26.1891H23.3036V30.0005H27.9643V34.7648ZM29.8286 48.0572C25.4786 46.9455 21.9054 44.3648 19.1089 40.3152C16.3125 36.2655 14.9143 31.8268 14.9143 26.999V15.66L29.8286 9.94287L44.7429 15.66V26.999C44.7429 31.8268 43.3447 36.2655 40.5482 40.3152C37.7518 44.3648 34.1786 46.9455 29.8286 48.0572ZM29.8286 45.1033C33.4018 43.8963 36.3148 41.6174 38.5674 38.2665C40.8201 34.9157 41.9464 31.1598 41.9464 26.999V17.661L29.8286 12.992L17.7107 17.661V26.999C17.7107 31.1598 18.8371 34.9157 21.0898 38.2665C23.3424 41.6174 26.2554 43.8963 29.8286 45.1033Z" fill="white"/>
</svg>
