<svg width="342" height="145" viewBox="0 0 342 145" fill="none" xmlns="http://www.w3.org/2000/svg">
<g filter="url(#filter0_d_233_2588)">
<rect x="10" y="10" width="322" height="125" rx="15" fill="white"/>
</g>
<circle cx="52" cy="73" r="29" fill="#DE091C"/>
<path d="M50.9643 78.7648H54.6928V74.0005H59.3536V70.1891H54.6928V65.4248H50.9643V70.1891H46.3036V74.0005H50.9643V78.7648ZM52.8286 92.0572C48.4786 90.9455 44.9053 88.3648 42.1089 84.3152C39.3125 80.2655 37.9143 75.8268 37.9143 70.999V59.66L52.8286 53.9429L67.7428 59.66V70.999C67.7428 75.8268 66.3446 80.2655 63.5482 84.3152C60.7518 88.3648 57.1786 90.9455 52.8286 92.0572ZM52.8286 89.1033C56.4018 87.8963 59.3147 85.6174 61.5674 82.2665C63.8201 78.9157 64.9464 75.1598 64.9464 70.999V61.661L52.8286 56.992L40.7107 61.661V70.999C40.7107 75.1598 41.837 78.9157 44.0897 82.2665C46.3424 85.6174 49.2553 87.8963 52.8286 89.1033Z" fill="white"/>
<path d="M97.0114 45.3636H100.045L103.25 53.1818H103.386L106.591 45.3636H109.625V57H107.239V49.4261H107.142L104.131 56.9432H102.506L99.4943 49.3977H99.3977V57H97.0114V45.3636ZM118.839 45.3636H121.3V52.9205C121.3 53.7689 121.097 54.5114 120.692 55.1477C120.29 55.7841 119.728 56.2803 119.004 56.6364C118.281 56.9886 117.438 57.1648 116.476 57.1648C115.51 57.1648 114.665 56.9886 113.942 56.6364C113.218 56.2803 112.656 55.7841 112.254 55.1477C111.853 54.5114 111.652 53.7689 111.652 52.9205V45.3636H114.112V52.7102C114.112 53.1534 114.209 53.5473 114.402 53.892C114.599 54.2367 114.875 54.5076 115.232 54.7045C115.588 54.9015 116.002 55 116.476 55C116.953 55 117.368 54.9015 117.72 54.7045C118.076 54.5076 118.351 54.2367 118.544 53.892C118.741 53.5473 118.839 53.1534 118.839 52.7102V45.3636ZM127.449 57H123.324V45.3636H127.483C128.653 45.3636 129.661 45.5966 130.506 46.0625C131.35 46.5246 132 47.1894 132.455 48.0568C132.913 48.9242 133.142 49.9621 133.142 51.1705C133.142 52.3826 132.913 53.4242 132.455 54.2955C132 55.1667 131.347 55.8352 130.494 56.3011C129.646 56.767 128.631 57 127.449 57ZM125.784 54.892H127.347C128.074 54.892 128.686 54.7633 129.182 54.5057C129.682 54.2443 130.057 53.8409 130.307 53.2955C130.561 52.7462 130.688 52.0379 130.688 51.1705C130.688 50.3106 130.561 49.608 130.307 49.0625C130.057 48.517 129.684 48.1155 129.188 47.858C128.691 47.6004 128.08 47.4716 127.352 47.4716H125.784V54.892ZM134.919 57V48.2727H137.266V49.7955H137.357C137.516 49.2538 137.783 48.8447 138.158 48.5682C138.533 48.2879 138.964 48.1477 139.453 48.1477C139.574 48.1477 139.705 48.1553 139.845 48.1705C139.985 48.1856 140.108 48.2064 140.214 48.233V50.3807C140.101 50.3466 139.944 50.3163 139.743 50.2898C139.542 50.2633 139.358 50.25 139.192 50.25C138.836 50.25 138.518 50.3277 138.237 50.483C137.961 50.6345 137.741 50.8466 137.578 51.1193C137.419 51.392 137.339 51.7064 137.339 52.0625V57H134.919ZM141.881 57.1477C141.506 57.1477 141.184 57.0152 140.915 56.75C140.65 56.4811 140.517 56.1591 140.517 55.7841C140.517 55.4129 140.65 55.0947 140.915 54.8295C141.184 54.5644 141.506 54.4318 141.881 54.4318C142.244 54.4318 142.563 54.5644 142.835 54.8295C143.108 55.0947 143.244 55.4129 143.244 55.7841C143.244 56.0341 143.18 56.2633 143.051 56.4716C142.926 56.6761 142.761 56.8409 142.557 56.9659C142.352 57.0871 142.127 57.1477 141.881 57.1477ZM150.439 57H147.803L151.82 45.3636H154.99L159.001 57H156.365L153.45 48.0227H153.359L150.439 57ZM150.274 52.4261H156.501V54.3466H150.274V52.4261ZM162.777 45.3636V57H160.357V45.3636H162.777ZM168.693 57.1705C167.795 57.1705 167.023 56.9886 166.375 56.625C165.731 56.2576 165.235 55.7386 164.886 55.0682C164.538 54.3939 164.364 53.5966 164.364 52.6761C164.364 51.7784 164.538 50.9905 164.886 50.3125C165.235 49.6345 165.725 49.1061 166.358 48.7273C166.994 48.3485 167.741 48.1591 168.597 48.1591C169.172 48.1591 169.708 48.2519 170.205 48.4375C170.705 48.6193 171.14 48.8939 171.511 49.2614C171.886 49.6288 172.178 50.0909 172.386 50.6477C172.595 51.2008 172.699 51.8485 172.699 52.5909V53.2557H165.33V51.7557H170.42C170.42 51.4072 170.345 51.0985 170.193 50.8295C170.042 50.5606 169.831 50.3504 169.562 50.1989C169.297 50.0436 168.989 49.9659 168.636 49.9659C168.269 49.9659 167.943 50.0511 167.659 50.2216C167.379 50.3883 167.159 50.6136 167 50.8977C166.841 51.178 166.759 51.4905 166.756 51.8352V53.2614C166.756 53.6932 166.835 54.0663 166.994 54.3807C167.157 54.6951 167.386 54.9375 167.682 55.108C167.977 55.2784 168.328 55.3636 168.733 55.3636C169.002 55.3636 169.248 55.3258 169.472 55.25C169.695 55.1742 169.886 55.0606 170.045 54.9091C170.205 54.7576 170.326 54.572 170.409 54.3523L172.648 54.5C172.534 55.0379 172.301 55.5076 171.949 55.9091C171.6 56.3068 171.15 56.6174 170.597 56.8409C170.047 57.0606 169.413 57.1705 168.693 57.1705ZM176.699 51.9545V57H174.278V48.2727H176.585V49.8125H176.688C176.881 49.3049 177.205 48.9034 177.659 48.608C178.114 48.3087 178.665 48.1591 179.312 48.1591C179.919 48.1591 180.447 48.2917 180.898 48.5568C181.348 48.822 181.699 49.2008 181.949 49.6932C182.199 50.1818 182.324 50.7652 182.324 51.4432V57H179.903V51.875C179.907 51.3409 179.771 50.9242 179.494 50.625C179.218 50.322 178.837 50.1705 178.352 50.1705C178.027 50.1705 177.739 50.2405 177.489 50.3807C177.242 50.5208 177.049 50.7254 176.909 50.9943C176.773 51.2595 176.703 51.5795 176.699 51.9545ZM186.72 57.1648C186.163 57.1648 185.667 57.0682 185.232 56.875C184.796 56.678 184.451 56.3883 184.197 56.0057C183.947 55.6193 183.822 55.1383 183.822 54.5625C183.822 54.0777 183.911 53.6705 184.089 53.3409C184.268 53.0114 184.51 52.7462 184.817 52.5455C185.124 52.3447 185.472 52.1932 185.862 52.0909C186.256 51.9886 186.669 51.9167 187.101 51.875C187.608 51.822 188.018 51.7727 188.328 51.7273C188.639 51.678 188.864 51.6061 189.004 51.5114C189.144 51.4167 189.214 51.2765 189.214 51.0909V51.0568C189.214 50.697 189.101 50.4186 188.874 50.2216C188.65 50.0246 188.332 49.9261 187.919 49.9261C187.483 49.9261 187.137 50.0227 186.879 50.2159C186.622 50.4053 186.451 50.6439 186.368 50.9318L184.129 50.75C184.243 50.2197 184.466 49.7614 184.8 49.375C185.133 48.9848 185.563 48.6856 186.089 48.4773C186.62 48.2652 187.233 48.1591 187.93 48.1591C188.415 48.1591 188.879 48.2159 189.322 48.3295C189.769 48.4432 190.165 48.6193 190.51 48.858C190.858 49.0966 191.133 49.4034 191.334 49.7784C191.535 50.1496 191.635 50.5947 191.635 51.1136V57H189.339V55.7898H189.271C189.131 56.0625 188.944 56.303 188.709 56.5114C188.474 56.7159 188.192 56.8769 187.862 56.9943C187.533 57.108 187.152 57.1648 186.72 57.1648ZM187.413 55.4943C187.769 55.4943 188.084 55.4242 188.357 55.2841C188.629 55.1402 188.843 54.947 188.999 54.7045C189.154 54.4621 189.232 54.1875 189.232 53.8807V52.9545C189.156 53.0038 189.052 53.0492 188.919 53.0909C188.79 53.1288 188.644 53.1648 188.482 53.1989C188.319 53.2292 188.156 53.2576 187.993 53.2841C187.83 53.3068 187.682 53.3277 187.55 53.3466C187.266 53.3883 187.018 53.4545 186.805 53.5455C186.593 53.6364 186.429 53.7595 186.311 53.9148C186.194 54.0663 186.135 54.2557 186.135 54.483C186.135 54.8125 186.254 55.0644 186.493 55.2386C186.735 55.4091 187.042 55.4943 187.413 55.4943ZM197.261 57V45.3636H201.92C202.777 45.3636 203.491 45.4905 204.062 45.7443C204.634 45.9981 205.064 46.3504 205.352 46.8011C205.64 47.2481 205.784 47.7633 205.784 48.3466C205.784 48.8011 205.693 49.2008 205.511 49.5455C205.33 49.8864 205.08 50.1667 204.761 50.3864C204.447 50.6023 204.087 50.7557 203.682 50.8466V50.9602C204.125 50.9792 204.54 51.1042 204.926 51.3352C205.316 51.5663 205.633 51.8902 205.875 52.3068C206.117 52.7197 206.239 53.2121 206.239 53.7841C206.239 54.4015 206.085 54.9527 205.778 55.4375C205.475 55.9186 205.027 56.2992 204.432 56.5795C203.837 56.8598 203.104 57 202.233 57H197.261ZM199.722 54.9886H201.727C202.413 54.9886 202.913 54.858 203.227 54.5966C203.542 54.3314 203.699 53.9792 203.699 53.5398C203.699 53.2178 203.621 52.9337 203.466 52.6875C203.311 52.4413 203.089 52.2481 202.801 52.108C202.517 51.9678 202.178 51.8977 201.784 51.8977H199.722V54.9886ZM199.722 50.233H201.545C201.883 50.233 202.182 50.1742 202.443 50.0568C202.708 49.9356 202.917 49.7652 203.068 49.5455C203.223 49.3258 203.301 49.0625 203.301 48.7557C203.301 48.3352 203.152 47.9962 202.852 47.7386C202.557 47.4811 202.136 47.3523 201.591 47.3523H199.722V50.233ZM211.737 57.1705C210.855 57.1705 210.091 56.983 209.447 56.608C208.807 56.2292 208.313 55.7027 207.964 55.0284C207.616 54.3504 207.442 53.5644 207.442 52.6705C207.442 51.7689 207.616 50.9811 207.964 50.3068C208.313 49.6288 208.807 49.1023 209.447 48.7273C210.091 48.3485 210.855 48.1591 211.737 48.1591C212.62 48.1591 213.381 48.3485 214.021 48.7273C214.665 49.1023 215.161 49.6288 215.51 50.3068C215.858 50.9811 216.033 51.7689 216.033 52.6705C216.033 53.5644 215.858 54.3504 215.51 55.0284C215.161 55.7027 214.665 56.2292 214.021 56.608C213.381 56.983 212.62 57.1705 211.737 57.1705ZM211.749 55.2955C212.15 55.2955 212.485 55.1818 212.754 54.9545C213.023 54.7235 213.226 54.4091 213.362 54.0114C213.502 53.6136 213.572 53.161 213.572 52.6534C213.572 52.1458 213.502 51.6932 213.362 51.2955C213.226 50.8977 213.023 50.5833 212.754 50.3523C212.485 50.1212 212.15 50.0057 211.749 50.0057C211.343 50.0057 211.002 50.1212 210.726 50.3523C210.453 50.5833 210.247 50.8977 210.107 51.2955C209.97 51.6932 209.902 52.1458 209.902 52.6534C209.902 53.161 209.97 53.6136 210.107 54.0114C210.247 54.4091 210.453 54.7235 210.726 54.9545C211.002 55.1818 211.343 55.2955 211.749 55.2955ZM220.027 45.3636V57H217.607V45.3636H220.027ZM225.943 57.1705C225.045 57.1705 224.273 56.9886 223.625 56.625C222.981 56.2576 222.485 55.7386 222.136 55.0682C221.788 54.3939 221.614 53.5966 221.614 52.6761C221.614 51.7784 221.788 50.9905 222.136 50.3125C222.485 49.6345 222.975 49.1061 223.608 48.7273C224.244 48.3485 224.991 48.1591 225.847 48.1591C226.422 48.1591 226.958 48.2519 227.455 48.4375C227.955 48.6193 228.39 48.8939 228.761 49.2614C229.136 49.6288 229.428 50.0909 229.636 50.6477C229.845 51.2008 229.949 51.8485 229.949 52.5909V53.2557H222.58V51.7557H227.67C227.67 51.4072 227.595 51.0985 227.443 50.8295C227.292 50.5606 227.081 50.3504 226.812 50.1989C226.547 50.0436 226.239 49.9659 225.886 49.9659C225.519 49.9659 225.193 50.0511 224.909 50.2216C224.629 50.3883 224.409 50.6136 224.25 50.8977C224.091 51.178 224.009 51.4905 224.006 51.8352V53.2614C224.006 53.6932 224.085 54.0663 224.244 54.3807C224.407 54.6951 224.636 54.9375 224.932 55.108C225.227 55.2784 225.578 55.3636 225.983 55.3636C226.252 55.3636 226.498 55.3258 226.722 55.25C226.945 55.1742 227.136 55.0606 227.295 54.9091C227.455 54.7576 227.576 54.572 227.659 54.3523L229.898 54.5C229.784 55.0379 229.551 55.5076 229.199 55.9091C228.85 56.3068 228.4 56.6174 227.847 56.8409C227.297 57.0606 226.663 57.1705 225.943 57.1705ZM233.949 51.9545V57H231.528V45.3636H233.881V49.8125H233.983C234.18 49.2973 234.498 48.8939 234.938 48.6023C235.377 48.3068 235.928 48.1591 236.591 48.1591C237.197 48.1591 237.725 48.2917 238.176 48.5568C238.631 48.8182 238.983 49.1951 239.233 49.6875C239.487 50.1761 239.612 50.7614 239.608 51.4432V57H237.188V51.875C237.191 51.3371 237.055 50.9186 236.778 50.6193C236.506 50.3201 236.123 50.1705 235.631 50.1705C235.301 50.1705 235.009 50.2405 234.756 50.3807C234.506 50.5208 234.309 50.7254 234.165 50.9943C234.025 51.2595 233.953 51.5795 233.949 51.9545ZM243.933 45.3636V57H241.513V45.3636H243.933ZM248.361 57.1648C247.804 57.1648 247.308 57.0682 246.872 56.875C246.437 56.678 246.092 56.3883 245.838 56.0057C245.588 55.6193 245.463 55.1383 245.463 54.5625C245.463 54.0777 245.552 53.6705 245.73 53.3409C245.908 53.0114 246.151 52.7462 246.457 52.5455C246.764 52.3447 247.113 52.1932 247.503 52.0909C247.897 51.9886 248.31 51.9167 248.741 51.875C249.249 51.822 249.658 51.7727 249.969 51.7273C250.279 51.678 250.505 51.6061 250.645 51.5114C250.785 51.4167 250.855 51.2765 250.855 51.0909V51.0568C250.855 50.697 250.741 50.4186 250.514 50.2216C250.291 50.0246 249.973 49.9261 249.56 49.9261C249.124 49.9261 248.777 50.0227 248.52 50.2159C248.262 50.4053 248.092 50.6439 248.009 50.9318L245.77 50.75C245.884 50.2197 246.107 49.7614 246.44 49.375C246.774 48.9848 247.204 48.6856 247.73 48.4773C248.26 48.2652 248.874 48.1591 249.571 48.1591C250.056 48.1591 250.52 48.2159 250.963 48.3295C251.41 48.4432 251.806 48.6193 252.151 48.858C252.499 49.0966 252.774 49.4034 252.974 49.7784C253.175 50.1496 253.276 50.5947 253.276 51.1136V57H250.98V55.7898H250.912C250.772 56.0625 250.584 56.303 250.349 56.5114C250.115 56.7159 249.832 56.8769 249.503 56.9943C249.173 57.108 248.793 57.1648 248.361 57.1648ZM249.054 55.4943C249.41 55.4943 249.724 55.4242 249.997 55.2841C250.27 55.1402 250.484 54.947 250.639 54.7045C250.795 54.4621 250.872 54.1875 250.872 53.8807V52.9545C250.796 53.0038 250.692 53.0492 250.56 53.0909C250.431 53.1288 250.285 53.1648 250.122 53.1989C249.959 53.2292 249.796 53.2576 249.634 53.2841C249.471 53.3068 249.323 53.3277 249.19 53.3466C248.906 53.3883 248.658 53.4545 248.446 53.5455C248.234 53.6364 248.069 53.7595 247.952 53.9148C247.834 54.0663 247.776 54.2557 247.776 54.483C247.776 54.8125 247.895 55.0644 248.134 55.2386C248.376 55.4091 248.683 55.4943 249.054 55.4943ZM262.977 48.2727L259.926 57H257.199L254.148 48.2727H256.705L258.517 54.517H258.608L260.415 48.2727H262.977Z" fill="#DE091C"/>
<path d="M97.142 82.2727V70.2727H98.8011V71.6875H98.9432C99.0417 71.5057 99.1837 71.2955 99.3693 71.0568C99.5549 70.8182 99.8125 70.6098 100.142 70.4318C100.472 70.25 100.907 70.1591 101.449 70.1591C102.153 70.1591 102.782 70.3371 103.335 70.6932C103.888 71.0492 104.322 71.5625 104.636 72.233C104.955 72.9034 105.114 73.7102 105.114 74.6534C105.114 75.5966 104.956 76.4053 104.642 77.0795C104.328 77.75 103.896 78.267 103.347 78.6307C102.797 78.9905 102.17 79.1705 101.466 79.1705C100.936 79.1705 100.502 79.0814 100.165 78.9034C99.8314 78.7254 99.5701 78.517 99.3807 78.2784C99.1913 78.0398 99.0455 77.8277 98.9432 77.642H98.8409V82.2727H97.142ZM98.8068 74.6364C98.8068 75.25 98.8958 75.7879 99.0739 76.25C99.2519 76.7121 99.5095 77.0739 99.8466 77.3352C100.184 77.5928 100.597 77.7216 101.085 77.7216C101.593 77.7216 102.017 77.5871 102.358 77.3182C102.699 77.0455 102.956 76.6761 103.131 76.2102C103.309 75.7443 103.398 75.2197 103.398 74.6364C103.398 74.0606 103.311 73.5436 103.136 73.0852C102.966 72.6269 102.708 72.2652 102.364 72C102.023 71.7348 101.597 71.6023 101.085 71.6023C100.593 71.6023 100.176 71.7292 99.8352 71.983C99.4981 72.2367 99.2424 72.5909 99.0682 73.0455C98.8939 73.5 98.8068 74.0303 98.8068 74.6364ZM107.017 79V70.2727H108.659V71.6591H108.75C108.909 71.1894 109.189 70.8201 109.591 70.5511C109.996 70.2784 110.455 70.142 110.966 70.142C111.072 70.142 111.197 70.1458 111.341 70.1534C111.489 70.161 111.604 70.1705 111.688 70.1818V71.8068C111.619 71.7879 111.498 71.767 111.324 71.7443C111.15 71.7178 110.975 71.7045 110.801 71.7045C110.4 71.7045 110.042 71.7898 109.727 71.9602C109.417 72.1269 109.17 72.3598 108.989 72.6591C108.807 72.9545 108.716 73.2917 108.716 73.6705V79H107.017ZM115.619 79.1932C115.066 79.1932 114.566 79.0909 114.119 78.8864C113.672 78.678 113.318 78.3769 113.057 77.983C112.799 77.589 112.67 77.1061 112.67 76.5341C112.67 76.0417 112.765 75.6364 112.955 75.3182C113.144 75 113.4 74.7481 113.722 74.5625C114.044 74.3769 114.403 74.2367 114.801 74.142C115.199 74.0473 115.604 73.9754 116.017 73.9261C116.54 73.8655 116.964 73.8163 117.29 73.7784C117.616 73.7367 117.852 73.6705 118 73.5795C118.148 73.4886 118.222 73.3409 118.222 73.1364V73.0966C118.222 72.6004 118.081 72.2159 117.801 71.9432C117.525 71.6705 117.112 71.5341 116.562 71.5341C115.991 71.5341 115.54 71.661 115.21 71.9148C114.884 72.1648 114.659 72.4432 114.534 72.75L112.938 72.3864C113.127 71.8561 113.403 71.428 113.767 71.1023C114.134 70.7727 114.557 70.5341 115.034 70.3864C115.511 70.2348 116.013 70.1591 116.54 70.1591C116.888 70.1591 117.258 70.2008 117.648 70.2841C118.042 70.3636 118.409 70.5114 118.75 70.7273C119.095 70.9432 119.377 71.2519 119.597 71.6534C119.816 72.0511 119.926 72.5682 119.926 73.2045V79H118.267V77.8068H118.199C118.089 78.0265 117.924 78.2424 117.705 78.4545C117.485 78.6667 117.203 78.8428 116.858 78.983C116.513 79.1231 116.1 79.1932 115.619 79.1932ZM115.989 77.8295C116.458 77.8295 116.86 77.7367 117.193 77.5511C117.53 77.3655 117.786 77.1231 117.96 76.8239C118.138 76.5208 118.227 76.197 118.227 75.8523V74.7273C118.167 74.7879 118.049 74.8447 117.875 74.8977C117.705 74.947 117.509 74.9905 117.29 75.0284C117.07 75.0625 116.856 75.0947 116.648 75.125C116.439 75.1515 116.265 75.1742 116.125 75.1932C115.795 75.2348 115.494 75.3049 115.222 75.4034C114.953 75.5019 114.737 75.6439 114.574 75.8295C114.415 76.0114 114.335 76.2538 114.335 76.5568C114.335 76.9773 114.491 77.2955 114.801 77.5114C115.112 77.7235 115.508 77.8295 115.989 77.8295ZM123.751 76.0398L123.74 73.9659H124.036L127.513 70.2727H129.547L125.581 74.4773H125.314L123.751 76.0398ZM122.189 79V67.3636H123.888V79H122.189ZM127.7 79L124.575 74.8523L125.746 73.6648L129.786 79H127.7ZM135.169 70.2727V71.6364H130.402V70.2727H135.169ZM131.68 68.1818H133.379V76.4375C133.379 76.767 133.429 77.0152 133.527 77.1818C133.625 77.3447 133.752 77.4564 133.908 77.517C134.067 77.5739 134.239 77.6023 134.425 77.6023C134.561 77.6023 134.68 77.5928 134.783 77.5739C134.885 77.5549 134.964 77.5398 135.021 77.5284L135.328 78.9318C135.23 78.9697 135.089 79.0076 134.908 79.0455C134.726 79.0871 134.499 79.1098 134.226 79.1136C133.779 79.1212 133.362 79.0417 132.976 78.875C132.589 78.7083 132.277 78.4508 132.038 78.1023C131.8 77.7538 131.68 77.3163 131.68 76.7898V68.1818ZM137.048 79V70.2727H138.747V79H137.048ZM137.906 68.9261C137.611 68.9261 137.357 68.8277 137.145 68.6307C136.937 68.4299 136.832 68.1913 136.832 67.9148C136.832 67.6345 136.937 67.3958 137.145 67.1989C137.357 66.9981 137.611 66.8977 137.906 66.8977C138.202 66.8977 138.454 66.9981 138.662 67.1989C138.874 67.3958 138.98 67.6345 138.98 67.9148C138.98 68.1913 138.874 68.4299 138.662 68.6307C138.454 68.8277 138.202 68.9261 137.906 68.9261ZM144.709 79.1761C143.864 79.1761 143.137 78.9848 142.527 78.6023C141.921 78.2159 141.455 77.6837 141.129 77.0057C140.804 76.3277 140.641 75.5511 140.641 74.6761C140.641 73.7898 140.807 73.0076 141.141 72.3295C141.474 71.6477 141.944 71.1155 142.55 70.733C143.156 70.3504 143.87 70.1591 144.692 70.1591C145.355 70.1591 145.946 70.2822 146.464 70.5284C146.983 70.7708 147.402 71.1117 147.72 71.5511C148.042 71.9905 148.233 72.5038 148.294 73.0909H146.641C146.55 72.6818 146.341 72.3295 146.016 72.0341C145.694 71.7386 145.262 71.5909 144.72 71.5909C144.247 71.5909 143.832 71.7159 143.476 71.9659C143.124 72.2121 142.849 72.5644 142.652 73.0227C142.455 73.4773 142.357 74.0152 142.357 74.6364C142.357 75.2727 142.453 75.822 142.646 76.2841C142.839 76.7462 143.112 77.1042 143.464 77.358C143.821 77.6117 144.239 77.7386 144.72 77.7386C145.042 77.7386 145.334 77.6799 145.595 77.5625C145.86 77.4413 146.082 77.2689 146.26 77.0455C146.442 76.822 146.569 76.553 146.641 76.2386H148.294C148.233 76.803 148.05 77.3068 147.743 77.75C147.436 78.1932 147.025 78.5417 146.51 78.7955C145.999 79.0492 145.398 79.1761 144.709 79.1761ZM151.673 76.0398L151.662 73.9659H151.957L155.435 70.2727H157.469L153.503 74.4773H153.236L151.673 76.0398ZM150.111 79V67.3636H151.81V79H150.111ZM155.622 79L152.497 74.8523L153.668 73.6648L157.707 79H155.622ZM161.557 79.1932C161.004 79.1932 160.504 79.0909 160.057 78.8864C159.61 78.678 159.256 78.3769 158.994 77.983C158.737 77.589 158.608 77.1061 158.608 76.5341C158.608 76.0417 158.703 75.6364 158.892 75.3182C159.081 75 159.337 74.7481 159.659 74.5625C159.981 74.3769 160.341 74.2367 160.739 74.142C161.136 74.0473 161.542 73.9754 161.955 73.9261C162.477 73.8655 162.902 73.8163 163.227 73.7784C163.553 73.7367 163.79 73.6705 163.938 73.5795C164.085 73.4886 164.159 73.3409 164.159 73.1364V73.0966C164.159 72.6004 164.019 72.2159 163.739 71.9432C163.462 71.6705 163.049 71.5341 162.5 71.5341C161.928 71.5341 161.477 71.661 161.148 71.9148C160.822 72.1648 160.597 72.4432 160.472 72.75L158.875 72.3864C159.064 71.8561 159.341 71.428 159.705 71.1023C160.072 70.7727 160.494 70.5341 160.972 70.3864C161.449 70.2348 161.951 70.1591 162.477 70.1591C162.826 70.1591 163.195 70.2008 163.585 70.2841C163.979 70.3636 164.347 70.5114 164.688 70.7273C165.032 70.9432 165.314 71.2519 165.534 71.6534C165.754 72.0511 165.864 72.5682 165.864 73.2045V79H164.205V77.8068H164.136C164.027 78.0265 163.862 78.2424 163.642 78.4545C163.422 78.6667 163.14 78.8428 162.795 78.983C162.451 79.1231 162.038 79.1932 161.557 79.1932ZM161.926 77.8295C162.396 77.8295 162.797 77.7367 163.131 77.5511C163.468 77.3655 163.723 77.1231 163.898 76.8239C164.076 76.5208 164.165 76.197 164.165 75.8523V74.7273C164.104 74.7879 163.987 74.8447 163.812 74.8977C163.642 74.947 163.447 74.9905 163.227 75.0284C163.008 75.0625 162.794 75.0947 162.585 75.125C162.377 75.1515 162.203 75.1742 162.062 75.1932C161.733 75.2348 161.432 75.3049 161.159 75.4034C160.89 75.5019 160.674 75.6439 160.511 75.8295C160.352 76.0114 160.273 76.2538 160.273 76.5568C160.273 76.9773 160.428 77.2955 160.739 77.5114C161.049 77.7235 161.445 77.8295 161.926 77.8295ZM161.864 69.108L163.193 66.4886H164.983L163.222 69.108H161.864ZM174.06 67.3636V79H172.361V67.3636H174.06ZM180.107 79.1761C179.247 79.1761 178.506 78.9924 177.885 78.625C177.268 78.2538 176.79 77.733 176.453 77.0625C176.12 76.3883 175.953 75.5985 175.953 74.6932C175.953 73.7992 176.12 73.0114 176.453 72.3295C176.79 71.6477 177.26 71.1155 177.862 70.733C178.468 70.3504 179.177 70.1591 179.987 70.1591C180.48 70.1591 180.957 70.2405 181.419 70.4034C181.881 70.5663 182.296 70.822 182.663 71.1705C183.031 71.5189 183.321 71.9716 183.533 72.5284C183.745 73.0814 183.851 73.7538 183.851 74.5455V75.1477H176.913V73.875H182.186C182.186 73.428 182.095 73.0322 181.913 72.6875C181.732 72.339 181.476 72.0644 181.146 71.8636C180.821 71.6629 180.438 71.5625 179.999 71.5625C179.521 71.5625 179.105 71.6799 178.749 71.9148C178.396 72.1458 178.124 72.4489 177.93 72.8239C177.741 73.1951 177.646 73.5985 177.646 74.0341V75.0284C177.646 75.6117 177.749 76.108 177.953 76.517C178.161 76.9261 178.451 77.2386 178.822 77.4545C179.194 77.6667 179.627 77.7727 180.124 77.7727C180.446 77.7727 180.739 77.7273 181.004 77.6364C181.269 77.5417 181.499 77.4015 181.692 77.2159C181.885 77.0303 182.033 76.8011 182.135 76.5284L183.743 76.8182C183.614 77.2917 183.383 77.7064 183.05 78.0625C182.72 78.4148 182.305 78.6894 181.805 78.8864C181.309 79.0795 180.743 79.1761 180.107 79.1761ZM179.22 69.108L180.55 66.4886H182.339L180.578 69.108H179.22ZM187.298 76.0398L187.287 73.9659H187.582L191.06 70.2727H193.094L189.128 74.4773H188.861L187.298 76.0398ZM185.736 79V67.3636H187.435V79H185.736ZM191.247 79L188.122 74.8523L189.293 73.6648L193.332 79H191.247ZM197.182 79.1932C196.629 79.1932 196.129 79.0909 195.682 78.8864C195.235 78.678 194.881 78.3769 194.619 77.983C194.362 77.589 194.233 77.1061 194.233 76.5341C194.233 76.0417 194.328 75.6364 194.517 75.3182C194.706 75 194.962 74.7481 195.284 74.5625C195.606 74.3769 195.966 74.2367 196.364 74.142C196.761 74.0473 197.167 73.9754 197.58 73.9261C198.102 73.8655 198.527 73.8163 198.852 73.7784C199.178 73.7367 199.415 73.6705 199.562 73.5795C199.71 73.4886 199.784 73.3409 199.784 73.1364V73.0966C199.784 72.6004 199.644 72.2159 199.364 71.9432C199.087 71.6705 198.674 71.5341 198.125 71.5341C197.553 71.5341 197.102 71.661 196.773 71.9148C196.447 72.1648 196.222 72.4432 196.097 72.75L194.5 72.3864C194.689 71.8561 194.966 71.428 195.33 71.1023C195.697 70.7727 196.119 70.5341 196.597 70.3864C197.074 70.2348 197.576 70.1591 198.102 70.1591C198.451 70.1591 198.82 70.2008 199.21 70.2841C199.604 70.3636 199.972 70.5114 200.312 70.7273C200.657 70.9432 200.939 71.2519 201.159 71.6534C201.379 72.0511 201.489 72.5682 201.489 73.2045V79H199.83V77.8068H199.761C199.652 78.0265 199.487 78.2424 199.267 78.4545C199.047 78.6667 198.765 78.8428 198.42 78.983C198.076 79.1231 197.663 79.1932 197.182 79.1932ZM197.551 77.8295C198.021 77.8295 198.422 77.7367 198.756 77.5511C199.093 77.3655 199.348 77.1231 199.523 76.8239C199.701 76.5208 199.79 76.197 199.79 75.8523V74.7273C199.729 74.7879 199.612 74.8447 199.438 74.8977C199.267 74.947 199.072 74.9905 198.852 75.0284C198.633 75.0625 198.419 75.0947 198.21 75.125C198.002 75.1515 197.828 75.1742 197.688 75.1932C197.358 75.2348 197.057 75.3049 196.784 75.4034C196.515 75.5019 196.299 75.6439 196.136 75.8295C195.977 76.0114 195.898 76.2538 195.898 76.5568C195.898 76.9773 196.053 77.2955 196.364 77.5114C196.674 77.7235 197.07 77.8295 197.551 77.8295ZM203.751 79V70.2727H205.393V71.6591H205.484C205.643 71.1894 205.924 70.8201 206.325 70.5511C206.731 70.2784 207.189 70.142 207.7 70.142C207.806 70.142 207.931 70.1458 208.075 70.1534C208.223 70.161 208.339 70.1705 208.422 70.1818V71.8068C208.354 71.7879 208.232 71.767 208.058 71.7443C207.884 71.7178 207.71 71.7045 207.536 71.7045C207.134 71.7045 206.776 71.7898 206.462 71.9602C206.151 72.1269 205.905 72.3598 205.723 72.6591C205.541 72.9545 205.45 73.2917 205.45 73.6705V79H203.751ZM204.831 66.733L206.001 68.2557L207.166 66.733H208.706V66.8182L206.706 69.2273H205.291L203.297 66.8182V66.733H204.831ZM211.455 76.0398L211.443 73.9659H211.739L215.216 70.2727H217.25L213.284 74.4773H213.017L211.455 76.0398ZM209.892 79V67.3636H211.591V79H209.892ZM215.403 79L212.278 74.8523L213.449 73.6648L217.489 79H215.403ZM221.338 79.1932C220.785 79.1932 220.285 79.0909 219.838 78.8864C219.391 78.678 219.037 78.3769 218.776 77.983C218.518 77.589 218.389 77.1061 218.389 76.5341C218.389 76.0417 218.484 75.6364 218.673 75.3182C218.863 75 219.118 74.7481 219.44 74.5625C219.762 74.3769 220.122 74.2367 220.52 74.142C220.918 74.0473 221.323 73.9754 221.736 73.9261C222.259 73.8655 222.683 73.8163 223.009 73.7784C223.334 73.7367 223.571 73.6705 223.719 73.5795C223.866 73.4886 223.94 73.3409 223.94 73.1364V73.0966C223.94 72.6004 223.8 72.2159 223.52 71.9432C223.243 71.6705 222.83 71.5341 222.281 71.5341C221.709 71.5341 221.259 71.661 220.929 71.9148C220.603 72.1648 220.378 72.4432 220.253 72.75L218.656 72.3864C218.846 71.8561 219.122 71.428 219.486 71.1023C219.853 70.7727 220.276 70.5341 220.753 70.3864C221.23 70.2348 221.732 70.1591 222.259 70.1591C222.607 70.1591 222.976 70.2008 223.366 70.2841C223.76 70.3636 224.128 70.5114 224.469 70.7273C224.813 70.9432 225.096 71.2519 225.315 71.6534C225.535 72.0511 225.645 72.5682 225.645 73.2045V79H223.986V77.8068H223.918C223.808 78.0265 223.643 78.2424 223.423 78.4545C223.204 78.6667 222.921 78.8428 222.577 78.983C222.232 79.1231 221.819 79.1932 221.338 79.1932ZM221.707 77.8295C222.177 77.8295 222.579 77.7367 222.912 77.5511C223.249 77.3655 223.505 77.1231 223.679 76.8239C223.857 76.5208 223.946 76.197 223.946 75.8523V74.7273C223.885 74.7879 223.768 74.8447 223.594 74.8977C223.423 74.947 223.228 74.9905 223.009 75.0284C222.789 75.0625 222.575 75.0947 222.366 75.125C222.158 75.1515 221.984 75.1742 221.844 75.1932C221.514 75.2348 221.213 75.3049 220.94 75.4034C220.671 75.5019 220.455 75.6439 220.293 75.8295C220.134 76.0114 220.054 76.2538 220.054 76.5568C220.054 76.9773 220.209 77.2955 220.52 77.5114C220.83 77.7235 221.226 77.8295 221.707 77.8295ZM232.142 82.2727V70.2727H233.801V71.6875H233.943C234.042 71.5057 234.184 71.2955 234.369 71.0568C234.555 70.8182 234.813 70.6098 235.142 70.4318C235.472 70.25 235.907 70.1591 236.449 70.1591C237.153 70.1591 237.782 70.3371 238.335 70.6932C238.888 71.0492 239.322 71.5625 239.636 72.233C239.955 72.9034 240.114 73.7102 240.114 74.6534C240.114 75.5966 239.956 76.4053 239.642 77.0795C239.328 77.75 238.896 78.267 238.347 78.6307C237.797 78.9905 237.17 79.1705 236.466 79.1705C235.936 79.1705 235.502 79.0814 235.165 78.9034C234.831 78.7254 234.57 78.517 234.381 78.2784C234.191 78.0398 234.045 77.8277 233.943 77.642H233.841V82.2727H232.142ZM233.807 74.6364C233.807 75.25 233.896 75.7879 234.074 76.25C234.252 76.7121 234.509 77.0739 234.847 77.3352C235.184 77.5928 235.597 77.7216 236.085 77.7216C236.593 77.7216 237.017 77.5871 237.358 77.3182C237.699 77.0455 237.956 76.6761 238.131 76.2102C238.309 75.7443 238.398 75.2197 238.398 74.6364C238.398 74.0606 238.311 73.5436 238.136 73.0852C237.966 72.6269 237.708 72.2652 237.364 72C237.023 71.7348 236.597 71.6023 236.085 71.6023C235.593 71.6023 235.176 71.7292 234.835 71.983C234.498 72.2367 234.242 72.5909 234.068 73.0455C233.894 73.5 233.807 74.0303 233.807 74.6364ZM242.017 79V70.2727H243.659V71.6591H243.75C243.909 71.1894 244.189 70.8201 244.591 70.5511C244.996 70.2784 245.455 70.142 245.966 70.142C246.072 70.142 246.197 70.1458 246.341 70.1534C246.489 70.161 246.604 70.1705 246.688 70.1818V71.8068C246.619 71.7879 246.498 71.767 246.324 71.7443C246.15 71.7178 245.975 71.7045 245.801 71.7045C245.4 71.7045 245.042 71.7898 244.727 71.9602C244.417 72.1269 244.17 72.3598 243.989 72.6591C243.807 72.9545 243.716 73.2917 243.716 73.6705V79H242.017ZM251.521 79.1761C250.703 79.1761 249.989 78.9886 249.379 78.6136C248.769 78.2386 248.296 77.714 247.959 77.0398C247.622 76.3655 247.453 75.5777 247.453 74.6761C247.453 73.7708 247.622 72.9792 247.959 72.3011C248.296 71.6231 248.769 71.0966 249.379 70.7216C249.989 70.3466 250.703 70.1591 251.521 70.1591C252.339 70.1591 253.054 70.3466 253.663 70.7216C254.273 71.0966 254.747 71.6231 255.084 72.3011C255.421 72.9792 255.589 73.7708 255.589 74.6761C255.589 75.5777 255.421 76.3655 255.084 77.0398C254.747 77.714 254.273 78.2386 253.663 78.6136C253.054 78.9886 252.339 79.1761 251.521 79.1761ZM251.527 77.75C252.057 77.75 252.497 77.6098 252.845 77.3295C253.194 77.0492 253.451 76.6761 253.618 76.2102C253.788 75.7443 253.874 75.2311 253.874 74.6705C253.874 74.1136 253.788 73.6023 253.618 73.1364C253.451 72.6667 253.194 72.2898 252.845 72.0057C252.497 71.7216 252.057 71.5795 251.527 71.5795C250.993 71.5795 250.55 71.7216 250.197 72.0057C249.849 72.2898 249.589 72.6667 249.419 73.1364C249.252 73.6023 249.169 74.1136 249.169 74.6705C249.169 75.2311 249.252 75.7443 249.419 76.2102C249.589 76.6761 249.849 77.0492 250.197 77.3295C250.55 77.6098 250.993 77.75 251.527 77.75ZM264.987 79.1705C264.283 79.1705 263.654 78.9905 263.101 78.6307C262.552 78.267 262.12 77.75 261.805 77.0795C261.495 76.4053 261.339 75.5966 261.339 74.6534C261.339 73.7102 261.497 72.9034 261.811 72.233C262.129 71.5625 262.565 71.0492 263.118 70.6932C263.671 70.3371 264.298 70.1591 264.999 70.1591C265.54 70.1591 265.976 70.25 266.305 70.4318C266.639 70.6098 266.896 70.8182 267.078 71.0568C267.264 71.2955 267.408 71.5057 267.51 71.6875H267.612V67.3636H269.311V79H267.652V77.642H267.51C267.408 77.8277 267.26 78.0398 267.067 78.2784C266.877 78.517 266.616 78.7254 266.283 78.9034C265.949 79.0814 265.518 79.1705 264.987 79.1705ZM265.362 77.7216C265.851 77.7216 266.264 77.5928 266.601 77.3352C266.942 77.0739 267.199 76.7121 267.374 76.25C267.552 75.7879 267.641 75.25 267.641 74.6364C267.641 74.0303 267.554 73.5 267.379 73.0455C267.205 72.5909 266.949 72.2367 266.612 71.983C266.275 71.7292 265.858 71.6023 265.362 71.6023C264.851 71.6023 264.425 71.7348 264.084 72C263.743 72.2652 263.485 72.6269 263.311 73.0852C263.141 73.5436 263.055 74.0606 263.055 74.6364C263.055 75.2197 263.143 75.7443 263.317 76.2102C263.491 76.6761 263.749 77.0455 264.089 77.3182C264.434 77.5871 264.858 77.7216 265.362 77.7216ZM275.412 79.1761C274.594 79.1761 273.88 78.9886 273.27 78.6136C272.66 78.2386 272.187 77.714 271.849 77.0398C271.512 76.3655 271.344 75.5777 271.344 74.6761C271.344 73.7708 271.512 72.9792 271.849 72.3011C272.187 71.6231 272.66 71.0966 273.27 70.7216C273.88 70.3466 274.594 70.1591 275.412 70.1591C276.23 70.1591 276.944 70.3466 277.554 70.7216C278.164 71.0966 278.637 71.6231 278.974 72.3011C279.312 72.9792 279.48 73.7708 279.48 74.6761C279.48 75.5777 279.312 76.3655 278.974 77.0398C278.637 77.714 278.164 78.2386 277.554 78.6136C276.944 78.9886 276.23 79.1761 275.412 79.1761ZM275.418 77.75C275.948 77.75 276.387 77.6098 276.736 77.3295C277.084 77.0492 277.342 76.6761 277.509 76.2102C277.679 75.7443 277.764 75.2311 277.764 74.6705C277.764 74.1136 277.679 73.6023 277.509 73.1364C277.342 72.6667 277.084 72.2898 276.736 72.0057C276.387 71.7216 275.948 71.5795 275.418 71.5795C274.884 71.5795 274.44 71.7216 274.088 72.0057C273.74 72.2898 273.48 72.6667 273.31 73.1364C273.143 73.6023 273.06 74.1136 273.06 74.6705C273.06 75.2311 273.143 75.7443 273.31 76.2102C273.48 76.6761 273.74 77.0492 274.088 77.3295C274.44 77.6098 274.884 77.75 275.418 77.75ZM287.916 72.4034L286.376 72.6761C286.312 72.4792 286.21 72.2917 286.07 72.1136C285.933 71.9356 285.748 71.7898 285.513 71.6761C285.278 71.5625 284.984 71.5057 284.632 71.5057C284.151 71.5057 283.75 71.6136 283.428 71.8295C283.106 72.0417 282.945 72.3163 282.945 72.6534C282.945 72.9451 283.053 73.1799 283.268 73.358C283.484 73.536 283.833 73.6818 284.314 73.7955L285.7 74.1136C286.503 74.2992 287.102 74.5852 287.496 74.9716C287.89 75.358 288.087 75.8598 288.087 76.4773C288.087 77 287.935 77.4659 287.632 77.875C287.333 78.2803 286.914 78.5985 286.376 78.8295C285.842 79.0606 285.223 79.1761 284.518 79.1761C283.541 79.1761 282.744 78.9678 282.126 78.5511C281.509 78.1307 281.13 77.5341 280.99 76.7614L282.632 76.5114C282.734 76.9394 282.945 77.2633 283.263 77.483C283.581 77.6989 283.996 77.8068 284.507 77.8068C285.064 77.8068 285.509 77.6913 285.842 77.4602C286.176 77.2254 286.342 76.9394 286.342 76.6023C286.342 76.3295 286.24 76.1004 286.036 75.9148C285.835 75.7292 285.526 75.589 285.109 75.4943L283.632 75.1705C282.818 74.9848 282.215 74.6894 281.825 74.2841C281.439 73.8788 281.246 73.3655 281.246 72.7443C281.246 72.2292 281.39 71.7784 281.678 71.392C281.965 71.0057 282.363 70.7045 282.871 70.4886C283.378 70.2689 283.96 70.1591 284.615 70.1591C285.558 70.1591 286.301 70.3636 286.842 70.7727C287.384 71.178 287.742 71.7216 287.916 72.4034ZM289.955 82.2727V70.2727H291.614V71.6875H291.756C291.854 71.5057 291.996 71.2955 292.182 71.0568C292.367 70.8182 292.625 70.6098 292.955 70.4318C293.284 70.25 293.72 70.1591 294.261 70.1591C294.966 70.1591 295.595 70.3371 296.148 70.6932C296.701 71.0492 297.134 71.5625 297.449 72.233C297.767 72.9034 297.926 73.7102 297.926 74.6534C297.926 75.5966 297.769 76.4053 297.455 77.0795C297.14 77.75 296.708 78.267 296.159 78.6307C295.61 78.9905 294.983 79.1705 294.278 79.1705C293.748 79.1705 293.314 79.0814 292.977 78.9034C292.644 78.7254 292.383 78.517 292.193 78.2784C292.004 78.0398 291.858 77.8277 291.756 77.642H291.653V82.2727H289.955ZM291.619 74.6364C291.619 75.25 291.708 75.7879 291.886 76.25C292.064 76.7121 292.322 77.0739 292.659 77.3352C292.996 77.5928 293.409 77.7216 293.898 77.7216C294.405 77.7216 294.83 77.5871 295.17 77.3182C295.511 77.0455 295.769 76.6761 295.943 76.2102C296.121 75.7443 296.21 75.2197 296.21 74.6364C296.21 74.0606 296.123 73.5436 295.949 73.0852C295.778 72.6269 295.521 72.2652 295.176 72C294.835 71.7348 294.409 71.6023 293.898 71.6023C293.405 71.6023 292.989 71.7292 292.648 71.983C292.311 72.2367 292.055 72.5909 291.881 73.0455C291.706 73.5 291.619 74.0303 291.619 74.6364ZM303.591 79.1761C302.731 79.1761 301.991 78.9924 301.369 78.625C300.752 78.2538 300.275 77.733 299.938 77.0625C299.604 76.3883 299.438 75.5985 299.438 74.6932C299.438 73.7992 299.604 73.0114 299.938 72.3295C300.275 71.6477 300.744 71.1155 301.347 70.733C301.953 70.3504 302.661 70.1591 303.472 70.1591C303.964 70.1591 304.441 70.2405 304.903 70.4034C305.366 70.5663 305.78 70.822 306.148 71.1705C306.515 71.5189 306.805 71.9716 307.017 72.5284C307.229 73.0814 307.335 73.7538 307.335 74.5455V75.1477H300.398V73.875H305.67C305.67 73.428 305.58 73.0322 305.398 72.6875C305.216 72.339 304.96 72.0644 304.631 71.8636C304.305 71.6629 303.922 71.5625 303.483 71.5625C303.006 71.5625 302.589 71.6799 302.233 71.9148C301.881 72.1458 301.608 72.4489 301.415 72.8239C301.225 73.1951 301.131 73.5985 301.131 74.0341V75.0284C301.131 75.6117 301.233 76.108 301.438 76.517C301.646 76.9261 301.936 77.2386 302.307 77.4545C302.678 77.6667 303.112 77.7727 303.608 77.7727C303.93 77.7727 304.223 77.7273 304.489 77.6364C304.754 77.5417 304.983 77.4015 305.176 77.2159C305.369 77.0303 305.517 76.8011 305.619 76.5284L307.227 76.8182C307.098 77.2917 306.867 77.7064 306.534 78.0625C306.205 78.4148 305.79 78.6894 305.29 78.8864C304.794 79.0795 304.227 79.1761 303.591 79.1761ZM302.239 66.733L303.409 68.2557L304.574 66.733H306.114V66.8182L304.114 69.2273H302.699L300.705 66.8182V66.733H302.239ZM310.919 67.3636V79H309.22V67.3636H310.919ZM316.966 79.1761C316.106 79.1761 315.366 78.9924 314.744 78.625C314.127 78.2538 313.65 77.733 313.312 77.0625C312.979 76.3883 312.812 75.5985 312.812 74.6932C312.812 73.7992 312.979 73.0114 313.312 72.3295C313.65 71.6477 314.119 71.1155 314.722 70.733C315.328 70.3504 316.036 70.1591 316.847 70.1591C317.339 70.1591 317.816 70.2405 318.278 70.4034C318.741 70.5663 319.155 70.822 319.523 71.1705C319.89 71.5189 320.18 71.9716 320.392 72.5284C320.604 73.0814 320.71 73.7538 320.71 74.5455V75.1477H313.773V73.875H319.045C319.045 73.428 318.955 73.0322 318.773 72.6875C318.591 72.339 318.335 72.0644 318.006 71.8636C317.68 71.6629 317.297 71.5625 316.858 71.5625C316.381 71.5625 315.964 71.6799 315.608 71.9148C315.256 72.1458 314.983 72.4489 314.79 72.8239C314.6 73.1951 314.506 73.5985 314.506 74.0341V75.0284C314.506 75.6117 314.608 76.108 314.812 76.517C315.021 76.9261 315.311 77.2386 315.682 77.4545C316.053 77.6667 316.487 77.7727 316.983 77.7727C317.305 77.7727 317.598 77.7273 317.864 77.6364C318.129 77.5417 318.358 77.4015 318.551 77.2159C318.744 77.0303 318.892 76.8011 318.994 76.5284L320.602 76.8182C320.473 77.2917 320.242 77.7064 319.909 78.0625C319.58 78.4148 319.165 78.6894 318.665 78.8864C318.169 79.0795 317.602 79.1761 316.966 79.1761ZM316.08 69.108L317.409 66.4886H319.199L317.438 69.108H316.08Z" fill="#666666"/>
<path d="M103.666 88.8182H105.207V95.5149C105.207 96.2275 105.04 96.8589 104.705 97.4091C104.371 97.956 103.9 98.3868 103.293 98.7017C102.687 99.0133 101.976 99.169 101.161 99.169C100.348 99.169 99.6392 99.0133 99.0327 98.7017C98.4261 98.3868 97.9555 97.956 97.6207 97.4091C97.286 96.8589 97.1186 96.2275 97.1186 95.5149V88.8182H98.6548V95.3906C98.6548 95.8513 98.7559 96.2607 98.9581 96.6186C99.1636 96.9766 99.4536 97.2583 99.8281 97.4638C100.203 97.666 100.647 97.767 101.161 97.767C101.678 97.767 102.123 97.666 102.498 97.4638C102.876 97.2583 103.164 96.9766 103.363 96.6186C103.565 96.2607 103.666 95.8513 103.666 95.3906V88.8182ZM111.146 88.8182H113.01L116.252 96.733H116.371L119.613 88.8182H121.477V99H120.015V91.6321H119.921L116.918 98.9851H115.705L112.702 91.6271H112.608V99H111.146V88.8182ZM124.531 101.864C124.309 101.864 124.106 101.845 123.924 101.809C123.742 101.776 123.606 101.739 123.517 101.7L123.874 100.482C124.146 100.554 124.388 100.586 124.6 100.576C124.812 100.566 125 100.487 125.162 100.337C125.328 100.188 125.474 99.9446 125.6 99.6065L125.784 99.0994L122.99 91.3636H124.58L126.514 97.2898H126.594L128.528 91.3636H130.124L126.977 100.019C126.831 100.417 126.645 100.753 126.42 101.028C126.195 101.307 125.926 101.516 125.615 101.655C125.303 101.794 124.942 101.864 124.531 101.864ZM137.243 93.228L135.896 93.4666C135.839 93.2943 135.75 93.1302 135.627 92.9744C135.508 92.8187 135.346 92.6911 135.14 92.5916C134.935 92.4922 134.678 92.4425 134.369 92.4425C133.949 92.4425 133.597 92.5369 133.316 92.7259C133.034 92.9115 132.893 93.1518 132.893 93.4467C132.893 93.7019 132.987 93.9074 133.176 94.0632C133.365 94.219 133.67 94.3466 134.091 94.446L135.304 94.7244C136.007 94.8868 136.53 95.1371 136.875 95.4751C137.22 95.8132 137.392 96.2524 137.392 96.7926C137.392 97.25 137.26 97.6577 136.994 98.0156C136.733 98.3703 136.366 98.6487 135.896 98.8509C135.428 99.053 134.887 99.1541 134.27 99.1541C133.415 99.1541 132.717 98.9718 132.177 98.6072C131.637 98.2393 131.305 97.7173 131.183 97.0412L132.619 96.8224C132.709 97.197 132.893 97.4804 133.171 97.6726C133.45 97.8615 133.813 97.956 134.26 97.956C134.747 97.956 135.137 97.8549 135.428 97.6527C135.72 97.4472 135.866 97.197 135.866 96.902C135.866 96.6634 135.776 96.4628 135.597 96.3004C135.422 96.138 135.152 96.0154 134.787 95.9325L133.494 95.6491C132.782 95.4867 132.255 95.2282 131.914 94.8736C131.575 94.5189 131.406 94.0698 131.406 93.5263C131.406 93.0755 131.532 92.6811 131.784 92.343C132.036 92.005 132.384 91.7415 132.828 91.5526C133.272 91.3603 133.781 91.2642 134.355 91.2642C135.18 91.2642 135.829 91.4432 136.303 91.8011C136.777 92.1558 137.091 92.6314 137.243 93.228ZM133.35 88.2663L134.374 89.5987L135.394 88.2663H136.741V88.3409L134.991 90.4489H133.753L132.008 88.3409V88.2663H133.35ZM139.027 99V91.3636H140.513V99H139.027ZM139.166 90.3445L140.329 88.0526H141.895L140.354 90.3445H139.166ZM149.077 99.1491C148.46 99.1491 147.91 98.9917 147.426 98.6768C146.946 98.3587 146.568 97.9062 146.293 97.3196C146.021 96.7296 145.885 96.022 145.885 95.1967C145.885 94.3714 146.022 93.6655 146.298 93.0788C146.576 92.4922 146.957 92.0431 147.441 91.7315C147.925 91.42 148.473 91.2642 149.087 91.2642C149.561 91.2642 149.942 91.3438 150.23 91.5028C150.522 91.6586 150.747 91.8409 150.906 92.0497C151.069 92.2585 151.195 92.4425 151.284 92.6016H151.374V88.8182H152.86V99H151.408V97.8118H151.284C151.195 97.9742 151.065 98.1598 150.896 98.3686C150.731 98.5774 150.502 98.7597 150.21 98.9155C149.919 99.0713 149.541 99.1491 149.077 99.1491ZM149.405 97.8814C149.832 97.8814 150.194 97.7687 150.489 97.5433C150.787 97.3146 151.012 96.9981 151.165 96.5938C151.321 96.1894 151.398 95.7187 151.398 95.1818C151.398 94.6515 151.322 94.1875 151.17 93.7898C151.017 93.392 150.794 93.0821 150.499 92.8601C150.204 92.638 149.839 92.527 149.405 92.527C148.957 92.527 148.585 92.643 148.286 92.875C147.988 93.107 147.763 93.4235 147.61 93.8246C147.461 94.2256 147.386 94.678 147.386 95.1818C147.386 95.6922 147.463 96.1513 147.615 96.5589C147.768 96.9666 147.993 97.2898 148.291 97.5284C148.593 97.7637 148.964 97.8814 149.405 97.8814ZM154.982 99V91.3636H156.468V99H154.982ZM155.121 90.3445L156.284 88.0526H157.85L156.309 90.3445H155.121ZM158.468 99V91.3636H159.905V92.5767H159.984C160.124 92.1657 160.369 91.8426 160.72 91.6072C161.075 91.3686 161.476 91.2493 161.923 91.2493C162.016 91.2493 162.125 91.2526 162.251 91.2592C162.381 91.2659 162.482 91.2741 162.555 91.2841V92.706C162.495 92.6894 162.389 92.6712 162.237 92.6513C162.084 92.6281 161.932 92.6165 161.779 92.6165C161.428 92.6165 161.115 92.6911 160.839 92.8402C160.568 92.986 160.352 93.1899 160.193 93.4517C160.034 93.7102 159.955 94.0052 159.955 94.3366V99H158.468ZM165.013 101.864C164.791 101.864 164.589 101.845 164.407 101.809C164.224 101.776 164.088 101.739 163.999 101.7L164.357 100.482C164.629 100.554 164.871 100.586 165.083 100.576C165.295 100.566 165.482 100.487 165.645 100.337C165.81 100.188 165.956 99.9446 166.082 99.6065L166.266 99.0994L163.472 91.3636H165.063L166.997 97.2898H167.076L169.01 91.3636H170.606L167.459 100.019C167.313 100.417 167.128 100.753 166.902 101.028C166.677 101.307 166.408 101.516 166.097 101.655C165.785 101.794 165.424 101.864 165.013 101.864ZM175.688 99V97.8864L179.134 94.3168C179.502 93.929 179.805 93.5893 180.044 93.2976C180.285 93.0026 180.466 92.7225 180.585 92.4574C180.705 92.1922 180.764 91.9105 180.764 91.6122C180.764 91.2741 180.685 90.9825 180.526 90.7372C180.367 90.4886 180.15 90.2981 179.874 90.1655C179.599 90.0296 179.289 89.9616 178.945 89.9616C178.58 89.9616 178.262 90.0362 177.99 90.1854C177.718 90.3345 177.51 90.545 177.364 90.8168C177.218 91.0885 177.145 91.4067 177.145 91.7713H175.678C175.678 91.1515 175.821 90.6096 176.106 90.1456C176.391 89.6816 176.782 89.322 177.279 89.0668C177.776 88.8082 178.342 88.679 178.975 88.679C179.614 88.679 180.178 88.8066 180.665 89.0618C181.155 89.3137 181.538 89.6584 181.813 90.0959C182.088 90.5301 182.226 91.0206 182.226 91.5675C182.226 91.9453 182.155 92.3149 182.012 92.6761C181.873 93.0374 181.629 93.4401 181.281 93.8842C180.933 94.325 180.45 94.8603 179.83 95.4901L177.806 97.608V97.6825H182.39V99H175.688ZM187.635 99.1392C187.012 99.1392 186.452 99.0199 185.955 98.7812C185.461 98.5393 185.066 98.2079 184.771 97.7869C184.477 97.366 184.319 96.8854 184.299 96.3452H185.791C185.827 96.7827 186.021 97.1423 186.372 97.424C186.724 97.7057 187.145 97.8466 187.635 97.8466C188.026 97.8466 188.373 97.7571 188.674 97.5781C188.979 97.3958 189.218 97.1456 189.39 96.8274C189.566 96.5092 189.654 96.1463 189.654 95.7386C189.654 95.3243 189.564 94.9548 189.385 94.63C189.206 94.3052 188.959 94.05 188.644 93.8643C188.333 93.6787 187.975 93.5843 187.57 93.581C187.262 93.581 186.952 93.634 186.641 93.7401C186.329 93.8461 186.077 93.9853 185.885 94.1577L184.478 93.9489L185.05 88.8182H190.648V90.1357H186.328L186.004 92.9844H186.064C186.263 92.7921 186.526 92.6314 186.855 92.5021C187.186 92.3729 187.541 92.3082 187.919 92.3082C188.538 92.3082 189.09 92.4557 189.574 92.7507C190.061 93.0457 190.444 93.4484 190.722 93.9588C191.004 94.4659 191.143 95.0492 191.14 95.7088C191.143 96.3684 190.994 96.9567 190.693 97.4737C190.394 97.9908 189.98 98.3984 189.45 98.6967C188.923 98.9917 188.318 99.1392 187.635 99.1392ZM194.541 97.608L194.466 98.1499C194.416 98.5476 194.332 98.9619 194.213 99.3928C194.097 99.8269 193.976 100.23 193.85 100.601C193.727 100.972 193.626 101.267 193.546 101.486H192.492C192.535 101.28 192.595 101.002 192.671 100.651C192.748 100.303 192.822 99.9131 192.895 99.4822C192.968 99.0514 193.023 98.6122 193.059 98.1648L193.109 97.608H194.541ZM200.3 99V88.8182H203.93C204.722 88.8182 205.378 88.9624 205.898 89.2507C206.419 89.5391 206.808 89.9335 207.067 90.4339C207.325 90.9311 207.454 91.4912 207.454 92.1143C207.454 92.7408 207.323 93.3042 207.062 93.8047C206.803 94.3018 206.412 94.6963 205.888 94.9879C205.368 95.2763 204.713 95.4205 203.925 95.4205H201.429V94.1179H203.785C204.286 94.1179 204.692 94.0317 205.003 93.8594C205.315 93.6837 205.544 93.4451 205.689 93.1435C205.835 92.8419 205.908 92.4988 205.908 92.1143C205.908 91.7299 205.835 91.3885 205.689 91.0902C205.544 90.7919 205.313 90.5582 204.998 90.3892C204.687 90.2202 204.276 90.1357 203.765 90.1357H201.836V99H200.3ZM211.29 99.169C210.806 99.169 210.369 99.0795 209.977 98.9006C209.586 98.7183 209.276 98.4548 209.048 98.1101C208.822 97.7654 208.71 97.3428 208.71 96.8423C208.71 96.4115 208.793 96.0568 208.958 95.7784C209.124 95.5 209.348 95.2796 209.629 95.1172C209.911 94.9548 210.226 94.8321 210.574 94.7493C210.922 94.6664 211.277 94.6035 211.638 94.5604C212.095 94.5073 212.467 94.4643 212.752 94.4311C213.037 94.3946 213.244 94.3366 213.373 94.2571C213.502 94.1776 213.567 94.0483 213.567 93.8693V93.8345C213.567 93.4003 213.444 93.0639 213.199 92.8253C212.957 92.5866 212.596 92.4673 212.115 92.4673C211.615 92.4673 211.22 92.5784 210.932 92.8004C210.647 93.0192 210.45 93.2628 210.34 93.5312L208.943 93.2131C209.109 92.7491 209.351 92.3745 209.669 92.0895C209.991 91.8011 210.36 91.5923 210.778 91.4631C211.195 91.3305 211.635 91.2642 212.095 91.2642C212.4 91.2642 212.723 91.3007 213.065 91.3736C213.41 91.4432 213.731 91.5724 214.029 91.7614C214.331 91.9503 214.578 92.2204 214.77 92.5717C214.962 92.9197 215.058 93.3722 215.058 93.929V99H213.607V97.956H213.547C213.451 98.1482 213.307 98.3371 213.115 98.5227C212.922 98.7083 212.675 98.8625 212.374 98.9851C212.072 99.1077 211.711 99.169 211.29 99.169ZM211.613 97.9759C212.024 97.9759 212.375 97.8946 212.667 97.7322C212.962 97.5698 213.186 97.3577 213.338 97.0959C213.494 96.8307 213.572 96.5473 213.572 96.2457V95.2614C213.519 95.3144 213.416 95.3641 213.264 95.4105C213.115 95.4536 212.944 95.4917 212.752 95.5249C212.559 95.5547 212.372 95.5829 212.19 95.6094C212.008 95.6326 211.855 95.6525 211.732 95.669C211.444 95.7055 211.181 95.7668 210.942 95.853C210.707 95.9392 210.518 96.0634 210.375 96.2259C210.236 96.3849 210.166 96.5971 210.166 96.8622C210.166 97.2301 210.302 97.5085 210.574 97.6974C210.846 97.883 211.192 97.9759 211.613 97.9759ZM217.038 99V91.3636H218.475V92.5767H218.555C218.694 92.1657 218.939 91.8426 219.29 91.6072C219.645 91.3686 220.046 91.2493 220.494 91.2493C220.586 91.2493 220.696 91.2526 220.822 91.2592C220.951 91.2659 221.052 91.2741 221.125 91.2841V92.706C221.065 92.6894 220.959 92.6712 220.807 92.6513C220.654 92.6281 220.502 92.6165 220.349 92.6165C219.998 92.6165 219.685 92.6911 219.41 92.8402C219.138 92.986 218.923 93.1899 218.763 93.4517C218.604 93.7102 218.525 94.0052 218.525 94.3366V99H217.038ZM224.997 99.1491C224.38 99.1491 223.83 98.9917 223.346 98.6768C222.865 98.3587 222.488 97.9062 222.213 97.3196C221.941 96.7296 221.805 96.022 221.805 95.1967C221.805 94.3714 221.942 93.6655 222.218 93.0788C222.496 92.4922 222.877 92.0431 223.361 91.7315C223.845 91.42 224.393 91.2642 225.007 91.2642C225.481 91.2642 225.862 91.3438 226.15 91.5028C226.442 91.6586 226.667 91.8409 226.826 92.0497C226.989 92.2585 227.115 92.4425 227.204 92.6016H227.294V88.8182H228.78V99H227.328V97.8118H227.204C227.115 97.9742 226.985 98.1598 226.816 98.3686C226.651 98.5774 226.422 98.7597 226.13 98.9155C225.838 99.0713 225.461 99.1491 224.997 99.1491ZM225.325 97.8814C225.752 97.8814 226.114 97.7687 226.409 97.5433C226.707 97.3146 226.932 96.9981 227.085 96.5938C227.24 96.1894 227.318 95.7187 227.318 95.1818C227.318 94.6515 227.242 94.1875 227.09 93.7898C226.937 93.392 226.713 93.0821 226.419 92.8601C226.124 92.638 225.759 92.527 225.325 92.527C224.877 92.527 224.504 92.643 224.206 92.875C223.908 93.107 223.682 93.4235 223.53 93.8246C223.381 94.2256 223.306 94.678 223.306 95.1818C223.306 95.6922 223.383 96.1513 223.535 96.5589C223.687 96.9666 223.913 97.2898 224.211 97.5284C224.513 97.7637 224.884 97.8814 225.325 97.8814ZM235.739 95.8331V91.3636H237.23V99H235.769V97.6776H235.689C235.514 98.0852 235.232 98.425 234.844 98.6967C234.46 98.9652 233.981 99.0994 233.407 99.0994C232.917 99.0994 232.483 98.9917 232.105 98.7763C231.73 98.5575 231.435 98.2344 231.22 97.8068C231.008 97.3793 230.902 96.8506 230.902 96.2209V91.3636H232.388V96.0419C232.388 96.5623 232.532 96.9766 232.821 97.2848C233.109 97.593 233.484 97.7472 233.944 97.7472C234.223 97.7472 234.499 97.6776 234.775 97.5384C235.053 97.3991 235.283 97.1887 235.466 96.907C235.651 96.6252 235.742 96.2673 235.739 95.8331ZM239.347 99V88.8182H240.834V92.6016H240.923C241.009 92.4425 241.134 92.2585 241.296 92.0497C241.458 91.8409 241.684 91.6586 241.972 91.5028C242.26 91.3438 242.642 91.2642 243.116 91.2642C243.732 91.2642 244.282 91.42 244.766 91.7315C245.25 92.0431 245.63 92.4922 245.905 93.0788C246.183 93.6655 246.322 94.3714 246.322 95.1967C246.322 96.022 246.185 96.7296 245.91 97.3196C245.635 97.9062 245.257 98.3587 244.776 98.6768C244.296 98.9917 243.747 99.1491 243.131 99.1491C242.666 99.1491 242.287 99.0713 241.992 98.9155C241.7 98.7597 241.472 98.5774 241.306 98.3686C241.14 98.1598 241.013 97.9742 240.923 97.8118H240.799V99H239.347ZM240.804 95.1818C240.804 95.7187 240.882 96.1894 241.037 96.5938C241.193 96.9981 241.419 97.3146 241.714 97.5433C242.009 97.7687 242.37 97.8814 242.797 97.8814C243.242 97.8814 243.613 97.7637 243.911 97.5284C244.209 97.2898 244.435 96.9666 244.587 96.5589C244.743 96.1513 244.821 95.6922 244.821 95.1818C244.821 94.678 244.745 94.2256 244.592 93.8246C244.443 93.4235 244.218 93.107 243.916 92.875C243.618 92.643 243.245 92.527 242.797 92.527C242.367 92.527 242.002 92.638 241.704 92.8601C241.409 93.0821 241.185 93.392 241.032 93.7898C240.88 94.1875 240.804 94.6515 240.804 95.1818ZM247.991 99V91.3636H249.478V99H247.991ZM248.742 90.1854C248.484 90.1854 248.262 90.0992 248.076 89.9268C247.894 89.7512 247.803 89.5424 247.803 89.3004C247.803 89.0552 247.894 88.8464 248.076 88.674C248.262 88.4983 248.484 88.4105 248.742 88.4105C249.001 88.4105 249.221 88.4983 249.403 88.674C249.589 88.8464 249.682 89.0552 249.682 89.3004C249.682 89.5424 249.589 89.7512 249.403 89.9268C249.221 90.0992 249.001 90.1854 248.742 90.1854ZM254.694 99.1541C253.955 99.1541 253.319 98.9867 252.785 98.652C252.255 98.3139 251.847 97.8482 251.562 97.255C251.277 96.6617 251.135 95.9822 251.135 95.2166C251.135 94.4411 251.281 93.7566 251.572 93.1634C251.864 92.5668 252.275 92.1011 252.805 91.7663C253.336 91.4316 253.96 91.2642 254.68 91.2642C255.26 91.2642 255.777 91.3719 256.231 91.5874C256.685 91.7995 257.051 92.0978 257.329 92.4822C257.611 92.8667 257.778 93.3158 257.831 93.8295H256.385C256.305 93.4716 256.123 93.1634 255.838 92.9048C255.556 92.6463 255.178 92.517 254.704 92.517C254.29 92.517 253.927 92.6264 253.616 92.8452C253.307 93.0606 253.067 93.3688 252.895 93.7699C252.722 94.1676 252.636 94.6383 252.636 95.1818C252.636 95.7386 252.721 96.2192 252.89 96.6236C253.059 97.0279 253.297 97.3411 253.606 97.5632C253.917 97.7853 254.283 97.8963 254.704 97.8963C254.986 97.8963 255.241 97.8449 255.47 97.7422C255.702 97.6361 255.896 97.4853 256.052 97.2898C256.211 97.0942 256.322 96.8589 256.385 96.5838H257.831C257.778 97.0777 257.618 97.5185 257.349 97.9062C257.081 98.294 256.721 98.599 256.27 98.821C255.823 99.0431 255.298 99.1541 254.694 99.1541ZM262.712 99.1541C261.96 99.1541 261.312 98.9934 260.768 98.6719C260.228 98.3471 259.811 97.8913 259.516 97.3047C259.224 96.7147 259.078 96.0237 259.078 95.2315C259.078 94.4493 259.224 93.7599 259.516 93.1634C259.811 92.5668 260.222 92.1011 260.749 91.7663C261.279 91.4316 261.899 91.2642 262.608 91.2642C263.039 91.2642 263.456 91.3355 263.861 91.478C264.265 91.6205 264.628 91.8442 264.95 92.1491C265.271 92.4541 265.525 92.8501 265.71 93.3374C265.896 93.8213 265.989 94.4096 265.989 95.1023V95.6293H259.918V94.5156H264.532C264.532 94.1245 264.452 93.7782 264.293 93.4766C264.134 93.1716 263.911 92.9313 263.622 92.7557C263.337 92.58 263.002 92.4922 262.618 92.4922C262.2 92.4922 261.836 92.5949 261.524 92.8004C261.216 93.0026 260.977 93.2678 260.808 93.5959C260.643 93.9207 260.56 94.2737 260.56 94.6548V95.5249C260.56 96.0353 260.649 96.4695 260.828 96.8274C261.01 97.1854 261.264 97.4588 261.589 97.6477C261.914 97.8333 262.293 97.9261 262.727 97.9261C263.009 97.9261 263.266 97.8864 263.498 97.8068C263.73 97.724 263.93 97.6013 264.099 97.4389C264.268 97.2765 264.398 97.076 264.487 96.8374L265.894 97.0909C265.781 97.5052 265.579 97.8681 265.288 98.1797C264.999 98.4879 264.636 98.7282 264.199 98.9006C263.765 99.0696 263.269 99.1541 262.712 99.1541ZM275.186 88.8182V99H273.645V90.3594H273.585L271.149 91.9503V90.4787L273.69 88.8182H275.186ZM281.381 99.1392C280.668 99.1392 280.038 99.0166 279.491 98.7713C278.948 98.526 278.522 98.188 278.214 97.7571C277.906 97.3262 277.753 96.8357 277.756 96.2855C277.753 95.8546 277.841 95.4586 278.02 95.0973C278.202 94.7327 278.449 94.4295 278.761 94.1875C279.072 93.9422 279.42 93.7865 279.805 93.7202V93.6605C279.298 93.5379 278.892 93.2661 278.587 92.8452C278.282 92.4242 278.131 91.9403 278.134 91.3935C278.131 90.8731 278.268 90.4091 278.547 90.0014C278.829 89.5904 279.215 89.2673 279.705 89.032C280.196 88.7966 280.754 88.679 281.381 88.679C282 88.679 282.554 88.7983 283.041 89.0369C283.532 89.2723 283.918 89.5954 284.2 90.0064C284.481 90.4141 284.624 90.8764 284.627 91.3935C284.624 91.9403 284.468 92.4242 284.16 92.8452C283.852 93.2661 283.451 93.5379 282.957 93.6605V93.7202C283.338 93.7865 283.681 93.9422 283.986 94.1875C284.294 94.4295 284.539 94.7327 284.722 95.0973C284.907 95.4586 285.002 95.8546 285.005 96.2855C285.002 96.8357 284.846 97.3262 284.538 97.7571C284.229 98.188 283.802 98.526 283.255 98.7713C282.711 99.0166 282.087 99.1392 281.381 99.1392ZM281.381 97.8814C281.802 97.8814 282.166 97.8118 282.474 97.6726C282.783 97.5301 283.021 97.3329 283.19 97.081C283.359 96.8258 283.446 96.5275 283.449 96.1861C283.446 95.8314 283.353 95.5182 283.17 95.2464C282.991 94.9747 282.748 94.7609 282.44 94.6051C282.131 94.4493 281.778 94.3714 281.381 94.3714C280.98 94.3714 280.623 94.4493 280.312 94.6051C280 94.7609 279.755 94.9747 279.576 95.2464C279.397 95.5182 279.309 95.8314 279.312 96.1861C279.309 96.5275 279.39 96.8258 279.556 97.081C279.725 97.3329 279.965 97.5301 280.277 97.6726C280.589 97.8118 280.956 97.8814 281.381 97.8814ZM281.381 93.1435C281.719 93.1435 282.019 93.0755 282.281 92.9396C282.542 92.8037 282.748 92.6148 282.897 92.3729C283.049 92.1309 283.127 91.8475 283.131 91.5227C283.127 91.2045 283.051 90.9261 282.902 90.6875C282.756 90.4489 282.552 90.2649 282.29 90.1357C282.029 90.0031 281.725 89.9368 281.381 89.9368C281.029 89.9368 280.721 90.0031 280.456 90.1357C280.194 90.2649 279.99 90.4489 279.844 90.6875C279.699 90.9261 279.627 91.2045 279.631 91.5227C279.627 91.8475 279.7 92.1309 279.849 92.3729C279.999 92.6148 280.204 92.8037 280.466 92.9396C280.731 93.0755 281.036 93.1435 281.381 93.1435Z" fill="#666666"/>
<defs>
<filter id="filter0_d_233_2588" x="0" y="0" width="342" height="145" filterUnits="userSpaceOnUse" color-interpolation-filters="sRGB">
<feFlood flood-opacity="0" result="BackgroundImageFix"/>
<feColorMatrix in="SourceAlpha" type="matrix" values="0 0 0 0 0 0 0 0 0 0 0 0 0 0 0 0 0 0 127 0" result="hardAlpha"/>
<feOffset/>
<feGaussianBlur stdDeviation="5"/>
<feComposite in2="hardAlpha" operator="out"/>
<feColorMatrix type="matrix" values="0 0 0 0 0 0 0 0 0 0 0 0 0 0 0 0 0 0 0.25 0"/>
<feBlend mode="normal" in2="BackgroundImageFix" result="effect1_dropShadow_233_2588"/>
<feBlend mode="normal" in="SourceGraphic" in2="effect1_dropShadow_233_2588" result="shape"/>
</filter>
</defs>
</svg>
