<svg width="342" height="145" viewBox="0 0 342 145" fill="none" xmlns="http://www.w3.org/2000/svg">
<g filter="url(#filter0_d_233_2578)">
<rect x="10" y="10" width="322" height="125" rx="15" fill="white"/>
</g>
<circle cx="52" cy="73" r="29" fill="#DE091C"/>
<path d="M50.9643 78.7648H54.6928V74.0005H59.3536V70.1891H54.6928V65.4248H50.9643V70.1891H46.3036V74.0005H50.9643V78.7648ZM52.8286 92.0572C48.4786 90.9455 44.9053 88.3648 42.1089 84.3152C39.3125 80.2655 37.9143 75.8268 37.9143 70.999V59.66L52.8286 53.9429L67.7428 59.66V70.999C67.7428 75.8268 66.3446 80.2655 63.5482 84.3152C60.7518 88.3648 57.1786 90.9455 52.8286 92.0572ZM52.8286 89.1033C56.4018 87.8963 59.3147 85.6174 61.5674 82.2665C63.8201 78.9157 64.9464 75.1598 64.9464 70.999V61.661L52.8286 56.992L40.7107 61.661V70.999C40.7107 75.1598 41.837 78.9157 44.0897 82.2665C46.3424 85.6174 49.2553 87.8963 52.8286 89.1033Z" fill="white"/>
<path d="M97.0114 45.3636H100.045L103.25 53.1818H103.386L106.591 45.3636H109.625V57H107.239V49.4261H107.142L104.131 56.9432H102.506L99.4943 49.3977H99.3977V57H97.0114V45.3636ZM118.839 45.3636H121.3V52.9205C121.3 53.7689 121.097 54.5114 120.692 55.1477C120.29 55.7841 119.728 56.2803 119.004 56.6364C118.281 56.9886 117.438 57.1648 116.476 57.1648C115.51 57.1648 114.665 56.9886 113.942 56.6364C113.218 56.2803 112.656 55.7841 112.254 55.1477C111.853 54.5114 111.652 53.7689 111.652 52.9205V45.3636H114.112V52.7102C114.112 53.1534 114.209 53.5473 114.402 53.892C114.599 54.2367 114.875 54.5076 115.232 54.7045C115.588 54.9015 116.002 55 116.476 55C116.953 55 117.368 54.9015 117.72 54.7045C118.076 54.5076 118.351 54.2367 118.544 53.892C118.741 53.5473 118.839 53.1534 118.839 52.7102V45.3636ZM127.449 57H123.324V45.3636H127.483C128.653 45.3636 129.661 45.5966 130.506 46.0625C131.35 46.5246 132 47.1894 132.455 48.0568C132.913 48.9242 133.142 49.9621 133.142 51.1705C133.142 52.3826 132.913 53.4242 132.455 54.2955C132 55.1667 131.347 55.8352 130.494 56.3011C129.646 56.767 128.631 57 127.449 57ZM125.784 54.892H127.347C128.074 54.892 128.686 54.7633 129.182 54.5057C129.682 54.2443 130.057 53.8409 130.307 53.2955C130.561 52.7462 130.688 52.0379 130.688 51.1705C130.688 50.3106 130.561 49.608 130.307 49.0625C130.057 48.517 129.684 48.1155 129.188 47.858C128.691 47.6004 128.08 47.4716 127.352 47.4716H125.784V54.892ZM134.919 57V48.2727H137.266V49.7955H137.357C137.516 49.2538 137.783 48.8447 138.158 48.5682C138.533 48.2879 138.964 48.1477 139.453 48.1477C139.574 48.1477 139.705 48.1553 139.845 48.1705C139.985 48.1856 140.108 48.2064 140.214 48.233V50.3807C140.101 50.3466 139.944 50.3163 139.743 50.2898C139.542 50.2633 139.358 50.25 139.192 50.25C138.836 50.25 138.518 50.3277 138.237 50.483C137.961 50.6345 137.741 50.8466 137.578 51.1193C137.419 51.392 137.339 51.7064 137.339 52.0625V57H134.919ZM141.881 57.1477C141.506 57.1477 141.184 57.0152 140.915 56.75C140.65 56.4811 140.517 56.1591 140.517 55.7841C140.517 55.4129 140.65 55.0947 140.915 54.8295C141.184 54.5644 141.506 54.4318 141.881 54.4318C142.244 54.4318 142.563 54.5644 142.835 54.8295C143.108 55.0947 143.244 55.4129 143.244 55.7841C143.244 56.0341 143.18 56.2633 143.051 56.4716C142.926 56.6761 142.761 56.8409 142.557 56.9659C142.352 57.0871 142.127 57.1477 141.881 57.1477ZM148.433 57V45.3636H156.274V47.392H150.893V50.1648H155.871V52.1932H150.893V54.9716H156.297V57H148.433ZM158.185 57V48.2727H160.491V49.8125H160.594C160.776 49.3011 161.079 48.8977 161.503 48.6023C161.927 48.3068 162.435 48.1591 163.026 48.1591C163.624 48.1591 164.134 48.3087 164.554 48.608C164.974 48.9034 165.255 49.3049 165.395 49.8125H165.486C165.664 49.3125 165.986 48.9129 166.452 48.6136C166.921 48.3106 167.476 48.1591 168.116 48.1591C168.931 48.1591 169.592 48.4186 170.099 48.9375C170.611 49.4527 170.866 50.1837 170.866 51.1307V57H168.452V51.608C168.452 51.1231 168.323 50.7595 168.065 50.517C167.808 50.2746 167.486 50.1534 167.099 50.1534C166.66 50.1534 166.317 50.2936 166.071 50.5739C165.825 50.8504 165.702 51.2159 165.702 51.6705V57H163.355V51.5568C163.355 51.1288 163.232 50.7879 162.986 50.5341C162.743 50.2803 162.423 50.1534 162.026 50.1534C161.757 50.1534 161.514 50.2216 161.298 50.358C161.086 50.4905 160.918 50.678 160.793 50.9205C160.668 51.1591 160.605 51.4394 160.605 51.7614V57H158.185ZM175.267 57.1648C174.71 57.1648 174.214 57.0682 173.778 56.875C173.343 56.678 172.998 56.3883 172.744 56.0057C172.494 55.6193 172.369 55.1383 172.369 54.5625C172.369 54.0777 172.458 53.6705 172.636 53.3409C172.814 53.0114 173.057 52.7462 173.364 52.5455C173.67 52.3447 174.019 52.1932 174.409 52.0909C174.803 51.9886 175.216 51.9167 175.648 51.875C176.155 51.822 176.564 51.7727 176.875 51.7273C177.186 51.678 177.411 51.6061 177.551 51.5114C177.691 51.4167 177.761 51.2765 177.761 51.0909V51.0568C177.761 50.697 177.648 50.4186 177.42 50.2216C177.197 50.0246 176.879 49.9261 176.466 49.9261C176.03 49.9261 175.684 50.0227 175.426 50.2159C175.169 50.4053 174.998 50.6439 174.915 50.9318L172.676 50.75C172.79 50.2197 173.013 49.7614 173.347 49.375C173.68 48.9848 174.11 48.6856 174.636 48.4773C175.167 48.2652 175.78 48.1591 176.477 48.1591C176.962 48.1591 177.426 48.2159 177.869 48.3295C178.316 48.4432 178.712 48.6193 179.057 48.858C179.405 49.0966 179.68 49.4034 179.881 49.7784C180.081 50.1496 180.182 50.5947 180.182 51.1136V57H177.886V55.7898H177.818C177.678 56.0625 177.491 56.303 177.256 56.5114C177.021 56.7159 176.739 56.8769 176.409 56.9943C176.08 57.108 175.699 57.1648 175.267 57.1648ZM175.96 55.4943C176.316 55.4943 176.631 55.4242 176.903 55.2841C177.176 55.1402 177.39 54.947 177.545 54.7045C177.701 54.4621 177.778 54.1875 177.778 53.8807V52.9545C177.703 53.0038 177.598 53.0492 177.466 53.0909C177.337 53.1288 177.191 53.1648 177.028 53.1989C176.866 53.2292 176.703 53.2576 176.54 53.2841C176.377 53.3068 176.229 53.3277 176.097 53.3466C175.813 53.3883 175.564 53.4545 175.352 53.5455C175.14 53.6364 174.975 53.7595 174.858 53.9148C174.741 54.0663 174.682 54.2557 174.682 54.483C174.682 54.8125 174.801 55.0644 175.04 55.2386C175.282 55.4091 175.589 55.4943 175.96 55.4943ZM184.48 51.9545V57H182.06V48.2727H184.366V49.8125H184.469C184.662 49.3049 184.986 48.9034 185.44 48.608C185.895 48.3087 186.446 48.1591 187.094 48.1591C187.7 48.1591 188.228 48.2917 188.679 48.5568C189.13 48.822 189.48 49.2008 189.73 49.6932C189.98 50.1818 190.105 50.7652 190.105 51.4432V57H187.685V51.875C187.688 51.3409 187.552 50.9242 187.276 50.625C186.999 50.322 186.618 50.1705 186.134 50.1705C185.808 50.1705 185.52 50.2405 185.27 50.3807C185.024 50.5208 184.83 50.7254 184.69 50.9943C184.554 51.2595 184.484 51.5795 184.48 51.9545ZM197.609 53.2841V48.2727H200.03V57H197.706V55.4148H197.615C197.418 55.9261 197.09 56.3371 196.632 56.6477C196.178 56.9583 195.623 57.1136 194.967 57.1136C194.384 57.1136 193.871 56.9811 193.428 56.7159C192.984 56.4508 192.638 56.0739 192.388 55.5852C192.142 55.0966 192.017 54.5114 192.013 53.8295V48.2727H194.433V53.3977C194.437 53.9129 194.575 54.3201 194.848 54.6193C195.121 54.9186 195.486 55.0682 195.945 55.0682C196.236 55.0682 196.509 55.0019 196.763 54.8693C197.017 54.733 197.221 54.5322 197.376 54.267C197.536 54.0019 197.613 53.6742 197.609 53.2841ZM205.943 57.1705C205.045 57.1705 204.273 56.9886 203.625 56.625C202.981 56.2576 202.485 55.7386 202.136 55.0682C201.788 54.3939 201.614 53.5966 201.614 52.6761C201.614 51.7784 201.788 50.9905 202.136 50.3125C202.485 49.6345 202.975 49.1061 203.608 48.7273C204.244 48.3485 204.991 48.1591 205.847 48.1591C206.422 48.1591 206.958 48.2519 207.455 48.4375C207.955 48.6193 208.39 48.8939 208.761 49.2614C209.136 49.6288 209.428 50.0909 209.636 50.6477C209.845 51.2008 209.949 51.8485 209.949 52.5909V53.2557H202.58V51.7557H207.67C207.67 51.4072 207.595 51.0985 207.443 50.8295C207.292 50.5606 207.081 50.3504 206.812 50.1989C206.547 50.0436 206.239 49.9659 205.886 49.9659C205.519 49.9659 205.193 50.0511 204.909 50.2216C204.629 50.3883 204.409 50.6136 204.25 50.8977C204.091 51.178 204.009 51.4905 204.006 51.8352V53.2614C204.006 53.6932 204.085 54.0663 204.244 54.3807C204.407 54.6951 204.636 54.9375 204.932 55.108C205.227 55.2784 205.578 55.3636 205.983 55.3636C206.252 55.3636 206.498 55.3258 206.722 55.25C206.945 55.1742 207.136 55.0606 207.295 54.9091C207.455 54.7576 207.576 54.572 207.659 54.3523L209.898 54.5C209.784 55.0379 209.551 55.5076 209.199 55.9091C208.85 56.3068 208.4 56.6174 207.847 56.8409C207.297 57.0606 206.663 57.1705 205.943 57.1705ZM213.949 45.3636V57H211.528V45.3636H213.949ZM219.636 57V45.3636H224.295C225.152 45.3636 225.866 45.4905 226.438 45.7443C227.009 45.9981 227.439 46.3504 227.727 46.8011C228.015 47.2481 228.159 47.7633 228.159 48.3466C228.159 48.8011 228.068 49.2008 227.886 49.5455C227.705 49.8864 227.455 50.1667 227.136 50.3864C226.822 50.6023 226.462 50.7557 226.057 50.8466V50.9602C226.5 50.9792 226.915 51.1042 227.301 51.3352C227.691 51.5663 228.008 51.8902 228.25 52.3068C228.492 52.7197 228.614 53.2121 228.614 53.7841C228.614 54.4015 228.46 54.9527 228.153 55.4375C227.85 55.9186 227.402 56.2992 226.807 56.5795C226.212 56.8598 225.479 57 224.608 57H219.636ZM222.097 54.9886H224.102C224.788 54.9886 225.288 54.858 225.602 54.5966C225.917 54.3314 226.074 53.9792 226.074 53.5398C226.074 53.2178 225.996 52.9337 225.841 52.6875C225.686 52.4413 225.464 52.2481 225.176 52.108C224.892 51.9678 224.553 51.8977 224.159 51.8977H222.097V54.9886ZM222.097 50.233H223.92C224.258 50.233 224.557 50.1742 224.818 50.0568C225.083 49.9356 225.292 49.7652 225.443 49.5455C225.598 49.3258 225.676 49.0625 225.676 48.7557C225.676 48.3352 225.527 47.9962 225.227 47.7386C224.932 47.4811 224.511 47.3523 223.966 47.3523H222.097V50.233ZM234.112 57.1705C233.23 57.1705 232.466 56.983 231.822 56.608C231.182 56.2292 230.688 55.7027 230.339 55.0284C229.991 54.3504 229.817 53.5644 229.817 52.6705C229.817 51.7689 229.991 50.9811 230.339 50.3068C230.688 49.6288 231.182 49.1023 231.822 48.7273C232.466 48.3485 233.23 48.1591 234.112 48.1591C234.995 48.1591 235.756 48.3485 236.396 48.7273C237.04 49.1023 237.536 49.6288 237.885 50.3068C238.233 50.9811 238.408 51.7689 238.408 52.6705C238.408 53.5644 238.233 54.3504 237.885 55.0284C237.536 55.7027 237.04 56.2292 236.396 56.608C235.756 56.983 234.995 57.1705 234.112 57.1705ZM234.124 55.2955C234.525 55.2955 234.86 55.1818 235.129 54.9545C235.398 54.7235 235.601 54.4091 235.737 54.0114C235.877 53.6136 235.947 53.161 235.947 52.6534C235.947 52.1458 235.877 51.6932 235.737 51.2955C235.601 50.8977 235.398 50.5833 235.129 50.3523C234.86 50.1212 234.525 50.0057 234.124 50.0057C233.718 50.0057 233.377 50.1212 233.101 50.3523C232.828 50.5833 232.622 50.8977 232.482 51.2955C232.345 51.6932 232.277 52.1458 232.277 52.6534C232.277 53.161 232.345 53.6136 232.482 54.0114C232.622 54.4091 232.828 54.7235 233.101 54.9545C233.377 55.1818 233.718 55.2955 234.124 55.2955ZM242.402 51.9545V57H239.982V48.2727H242.288V49.8125H242.391C242.584 49.3049 242.908 48.9034 243.362 48.608C243.817 48.3087 244.368 48.1591 245.016 48.1591C245.622 48.1591 246.15 48.2917 246.601 48.5568C247.052 48.822 247.402 49.2008 247.652 49.6932C247.902 50.1818 248.027 50.7652 248.027 51.4432V57H245.607V51.875C245.61 51.3409 245.474 50.9242 245.197 50.625C244.921 50.322 244.54 50.1705 244.055 50.1705C243.73 50.1705 243.442 50.2405 243.192 50.3807C242.946 50.5208 242.752 50.7254 242.612 50.9943C242.476 51.2595 242.406 51.5795 242.402 51.9545ZM253.151 57.142C252.488 57.142 251.887 56.9716 251.349 56.6307C250.815 56.286 250.391 55.7803 250.077 55.1136C249.766 54.4432 249.611 53.6212 249.611 52.6477C249.611 51.6477 249.772 50.8163 250.094 50.1534C250.416 49.4867 250.844 48.9886 251.378 48.6591C251.916 48.3258 252.505 48.1591 253.145 48.1591C253.634 48.1591 254.041 48.2424 254.366 48.4091C254.696 48.572 254.961 48.7765 255.162 49.0227C255.366 49.2652 255.522 49.5038 255.628 49.7386H255.702V45.3636H258.116V57H255.73V55.6023H255.628C255.514 55.8447 255.353 56.0852 255.145 56.3239C254.94 56.5587 254.673 56.7538 254.344 56.9091C254.018 57.0644 253.62 57.142 253.151 57.142ZM253.918 55.2159C254.308 55.2159 254.637 55.1098 254.906 54.8977C255.179 54.6818 255.387 54.3807 255.531 53.9943C255.679 53.608 255.753 53.1553 255.753 52.6364C255.753 52.1174 255.681 51.6667 255.537 51.2841C255.393 50.9015 255.185 50.6061 254.912 50.3977C254.639 50.1894 254.308 50.0852 253.918 50.0852C253.52 50.0852 253.185 50.1932 252.912 50.4091C252.639 50.625 252.433 50.9242 252.293 51.3068C252.152 51.6894 252.082 52.1326 252.082 52.6364C252.082 53.1439 252.152 53.5928 252.293 53.983C252.437 54.3693 252.643 54.6723 252.912 54.892C253.185 55.108 253.52 55.2159 253.918 55.2159Z" fill="#DE091C"/>
<path d="M97.142 82.2727V70.2727H98.8011V71.6875H98.9432C99.0417 71.5057 99.1837 71.2955 99.3693 71.0568C99.5549 70.8182 99.8125 70.6098 100.142 70.4318C100.472 70.25 100.907 70.1591 101.449 70.1591C102.153 70.1591 102.782 70.3371 103.335 70.6932C103.888 71.0492 104.322 71.5625 104.636 72.233C104.955 72.9034 105.114 73.7102 105.114 74.6534C105.114 75.5966 104.956 76.4053 104.642 77.0795C104.328 77.75 103.896 78.267 103.347 78.6307C102.797 78.9905 102.17 79.1705 101.466 79.1705C100.936 79.1705 100.502 79.0814 100.165 78.9034C99.8314 78.7254 99.5701 78.517 99.3807 78.2784C99.1913 78.0398 99.0455 77.8277 98.9432 77.642H98.8409V82.2727H97.142ZM98.8068 74.6364C98.8068 75.25 98.8958 75.7879 99.0739 76.25C99.2519 76.7121 99.5095 77.0739 99.8466 77.3352C100.184 77.5928 100.597 77.7216 101.085 77.7216C101.593 77.7216 102.017 77.5871 102.358 77.3182C102.699 77.0455 102.956 76.6761 103.131 76.2102C103.309 75.7443 103.398 75.2197 103.398 74.6364C103.398 74.0606 103.311 73.5436 103.136 73.0852C102.966 72.6269 102.708 72.2652 102.364 72C102.023 71.7348 101.597 71.6023 101.085 71.6023C100.593 71.6023 100.176 71.7292 99.8352 71.983C99.4981 72.2367 99.2424 72.5909 99.0682 73.0455C98.8939 73.5 98.8068 74.0303 98.8068 74.6364ZM107.017 79V70.2727H108.659V71.6591H108.75C108.909 71.1894 109.189 70.8201 109.591 70.5511C109.996 70.2784 110.455 70.142 110.966 70.142C111.072 70.142 111.197 70.1458 111.341 70.1534C111.489 70.161 111.604 70.1705 111.688 70.1818V71.8068C111.619 71.7879 111.498 71.767 111.324 71.7443C111.15 71.7178 110.975 71.7045 110.801 71.7045C110.4 71.7045 110.042 71.7898 109.727 71.9602C109.417 72.1269 109.17 72.3598 108.989 72.6591C108.807 72.9545 108.716 73.2917 108.716 73.6705V79H107.017ZM115.619 79.1932C115.066 79.1932 114.566 79.0909 114.119 78.8864C113.672 78.678 113.318 78.3769 113.057 77.983C112.799 77.589 112.67 77.1061 112.67 76.5341C112.67 76.0417 112.765 75.6364 112.955 75.3182C113.144 75 113.4 74.7481 113.722 74.5625C114.044 74.3769 114.403 74.2367 114.801 74.142C115.199 74.0473 115.604 73.9754 116.017 73.9261C116.54 73.8655 116.964 73.8163 117.29 73.7784C117.616 73.7367 117.852 73.6705 118 73.5795C118.148 73.4886 118.222 73.3409 118.222 73.1364V73.0966C118.222 72.6004 118.081 72.2159 117.801 71.9432C117.525 71.6705 117.112 71.5341 116.562 71.5341C115.991 71.5341 115.54 71.661 115.21 71.9148C114.884 72.1648 114.659 72.4432 114.534 72.75L112.938 72.3864C113.127 71.8561 113.403 71.428 113.767 71.1023C114.134 70.7727 114.557 70.5341 115.034 70.3864C115.511 70.2348 116.013 70.1591 116.54 70.1591C116.888 70.1591 117.258 70.2008 117.648 70.2841C118.042 70.3636 118.409 70.5114 118.75 70.7273C119.095 70.9432 119.377 71.2519 119.597 71.6534C119.816 72.0511 119.926 72.5682 119.926 73.2045V79H118.267V77.8068H118.199C118.089 78.0265 117.924 78.2424 117.705 78.4545C117.485 78.6667 117.203 78.8428 116.858 78.983C116.513 79.1231 116.1 79.1932 115.619 79.1932ZM115.989 77.8295C116.458 77.8295 116.86 77.7367 117.193 77.5511C117.53 77.3655 117.786 77.1231 117.96 76.8239C118.138 76.5208 118.227 76.197 118.227 75.8523V74.7273C118.167 74.7879 118.049 74.8447 117.875 74.8977C117.705 74.947 117.509 74.9905 117.29 75.0284C117.07 75.0625 116.856 75.0947 116.648 75.125C116.439 75.1515 116.265 75.1742 116.125 75.1932C115.795 75.2348 115.494 75.3049 115.222 75.4034C114.953 75.5019 114.737 75.6439 114.574 75.8295C114.415 76.0114 114.335 76.2538 114.335 76.5568C114.335 76.9773 114.491 77.2955 114.801 77.5114C115.112 77.7235 115.508 77.8295 115.989 77.8295ZM123.751 76.0398L123.74 73.9659H124.036L127.513 70.2727H129.547L125.581 74.4773H125.314L123.751 76.0398ZM122.189 79V67.3636H123.888V79H122.189ZM127.7 79L124.575 74.8523L125.746 73.6648L129.786 79H127.7ZM135.169 70.2727V71.6364H130.402V70.2727H135.169ZM131.68 68.1818H133.379V76.4375C133.379 76.767 133.429 77.0152 133.527 77.1818C133.625 77.3447 133.752 77.4564 133.908 77.517C134.067 77.5739 134.239 77.6023 134.425 77.6023C134.561 77.6023 134.68 77.5928 134.783 77.5739C134.885 77.5549 134.964 77.5398 135.021 77.5284L135.328 78.9318C135.23 78.9697 135.089 79.0076 134.908 79.0455C134.726 79.0871 134.499 79.1098 134.226 79.1136C133.779 79.1212 133.362 79.0417 132.976 78.875C132.589 78.7083 132.277 78.4508 132.038 78.1023C131.8 77.7538 131.68 77.3163 131.68 76.7898V68.1818ZM137.048 79V70.2727H138.747V79H137.048ZM137.906 68.9261C137.611 68.9261 137.357 68.8277 137.145 68.6307C136.937 68.4299 136.832 68.1913 136.832 67.9148C136.832 67.6345 136.937 67.3958 137.145 67.1989C137.357 66.9981 137.611 66.8977 137.906 66.8977C138.202 66.8977 138.454 66.9981 138.662 67.1989C138.874 67.3958 138.98 67.6345 138.98 67.9148C138.98 68.1913 138.874 68.4299 138.662 68.6307C138.454 68.8277 138.202 68.9261 137.906 68.9261ZM144.709 79.1761C143.864 79.1761 143.137 78.9848 142.527 78.6023C141.921 78.2159 141.455 77.6837 141.129 77.0057C140.804 76.3277 140.641 75.5511 140.641 74.6761C140.641 73.7898 140.807 73.0076 141.141 72.3295C141.474 71.6477 141.944 71.1155 142.55 70.733C143.156 70.3504 143.87 70.1591 144.692 70.1591C145.355 70.1591 145.946 70.2822 146.464 70.5284C146.983 70.7708 147.402 71.1117 147.72 71.5511C148.042 71.9905 148.233 72.5038 148.294 73.0909H146.641C146.55 72.6818 146.341 72.3295 146.016 72.0341C145.694 71.7386 145.262 71.5909 144.72 71.5909C144.247 71.5909 143.832 71.7159 143.476 71.9659C143.124 72.2121 142.849 72.5644 142.652 73.0227C142.455 73.4773 142.357 74.0152 142.357 74.6364C142.357 75.2727 142.453 75.822 142.646 76.2841C142.839 76.7462 143.112 77.1042 143.464 77.358C143.821 77.6117 144.239 77.7386 144.72 77.7386C145.042 77.7386 145.334 77.6799 145.595 77.5625C145.86 77.4413 146.082 77.2689 146.26 77.0455C146.442 76.822 146.569 76.553 146.641 76.2386H148.294C148.233 76.803 148.05 77.3068 147.743 77.75C147.436 78.1932 147.025 78.5417 146.51 78.7955C145.999 79.0492 145.398 79.1761 144.709 79.1761ZM151.673 76.0398L151.662 73.9659H151.957L155.435 70.2727H157.469L153.503 74.4773H153.236L151.673 76.0398ZM150.111 79V67.3636H151.81V79H150.111ZM155.622 79L152.497 74.8523L153.668 73.6648L157.707 79H155.622ZM161.557 79.1932C161.004 79.1932 160.504 79.0909 160.057 78.8864C159.61 78.678 159.256 78.3769 158.994 77.983C158.737 77.589 158.608 77.1061 158.608 76.5341C158.608 76.0417 158.703 75.6364 158.892 75.3182C159.081 75 159.337 74.7481 159.659 74.5625C159.981 74.3769 160.341 74.2367 160.739 74.142C161.136 74.0473 161.542 73.9754 161.955 73.9261C162.477 73.8655 162.902 73.8163 163.227 73.7784C163.553 73.7367 163.79 73.6705 163.938 73.5795C164.085 73.4886 164.159 73.3409 164.159 73.1364V73.0966C164.159 72.6004 164.019 72.2159 163.739 71.9432C163.462 71.6705 163.049 71.5341 162.5 71.5341C161.928 71.5341 161.477 71.661 161.148 71.9148C160.822 72.1648 160.597 72.4432 160.472 72.75L158.875 72.3864C159.064 71.8561 159.341 71.428 159.705 71.1023C160.072 70.7727 160.494 70.5341 160.972 70.3864C161.449 70.2348 161.951 70.1591 162.477 70.1591C162.826 70.1591 163.195 70.2008 163.585 70.2841C163.979 70.3636 164.347 70.5114 164.688 70.7273C165.032 70.9432 165.314 71.2519 165.534 71.6534C165.754 72.0511 165.864 72.5682 165.864 73.2045V79H164.205V77.8068H164.136C164.027 78.0265 163.862 78.2424 163.642 78.4545C163.422 78.6667 163.14 78.8428 162.795 78.983C162.451 79.1231 162.038 79.1932 161.557 79.1932ZM161.926 77.8295C162.396 77.8295 162.797 77.7367 163.131 77.5511C163.468 77.3655 163.723 77.1231 163.898 76.8239C164.076 76.5208 164.165 76.197 164.165 75.8523V74.7273C164.104 74.7879 163.987 74.8447 163.812 74.8977C163.642 74.947 163.447 74.9905 163.227 75.0284C163.008 75.0625 162.794 75.0947 162.585 75.125C162.377 75.1515 162.203 75.1742 162.062 75.1932C161.733 75.2348 161.432 75.3049 161.159 75.4034C160.89 75.5019 160.674 75.6439 160.511 75.8295C160.352 76.0114 160.273 76.2538 160.273 76.5568C160.273 76.9773 160.428 77.2955 160.739 77.5114C161.049 77.7235 161.445 77.8295 161.926 77.8295ZM161.864 69.108L163.193 66.4886H164.983L163.222 69.108H161.864ZM174.06 67.3636V79H172.361V67.3636H174.06ZM180.107 79.1761C179.247 79.1761 178.506 78.9924 177.885 78.625C177.268 78.2538 176.79 77.733 176.453 77.0625C176.12 76.3883 175.953 75.5985 175.953 74.6932C175.953 73.7992 176.12 73.0114 176.453 72.3295C176.79 71.6477 177.26 71.1155 177.862 70.733C178.468 70.3504 179.177 70.1591 179.987 70.1591C180.48 70.1591 180.957 70.2405 181.419 70.4034C181.881 70.5663 182.296 70.822 182.663 71.1705C183.031 71.5189 183.321 71.9716 183.533 72.5284C183.745 73.0814 183.851 73.7538 183.851 74.5455V75.1477H176.913V73.875H182.186C182.186 73.428 182.095 73.0322 181.913 72.6875C181.732 72.339 181.476 72.0644 181.146 71.8636C180.821 71.6629 180.438 71.5625 179.999 71.5625C179.521 71.5625 179.105 71.6799 178.749 71.9148C178.396 72.1458 178.124 72.4489 177.93 72.8239C177.741 73.1951 177.646 73.5985 177.646 74.0341V75.0284C177.646 75.6117 177.749 76.108 177.953 76.517C178.161 76.9261 178.451 77.2386 178.822 77.4545C179.194 77.6667 179.627 77.7727 180.124 77.7727C180.446 77.7727 180.739 77.7273 181.004 77.6364C181.269 77.5417 181.499 77.4015 181.692 77.2159C181.885 77.0303 182.033 76.8011 182.135 76.5284L183.743 76.8182C183.614 77.2917 183.383 77.7064 183.05 78.0625C182.72 78.4148 182.305 78.6894 181.805 78.8864C181.309 79.0795 180.743 79.1761 180.107 79.1761ZM179.22 69.108L180.55 66.4886H182.339L180.578 69.108H179.22ZM187.298 76.0398L187.287 73.9659H187.582L191.06 70.2727H193.094L189.128 74.4773H188.861L187.298 76.0398ZM185.736 79V67.3636H187.435V79H185.736ZM191.247 79L188.122 74.8523L189.293 73.6648L193.332 79H191.247ZM197.182 79.1932C196.629 79.1932 196.129 79.0909 195.682 78.8864C195.235 78.678 194.881 78.3769 194.619 77.983C194.362 77.589 194.233 77.1061 194.233 76.5341C194.233 76.0417 194.328 75.6364 194.517 75.3182C194.706 75 194.962 74.7481 195.284 74.5625C195.606 74.3769 195.966 74.2367 196.364 74.142C196.761 74.0473 197.167 73.9754 197.58 73.9261C198.102 73.8655 198.527 73.8163 198.852 73.7784C199.178 73.7367 199.415 73.6705 199.562 73.5795C199.71 73.4886 199.784 73.3409 199.784 73.1364V73.0966C199.784 72.6004 199.644 72.2159 199.364 71.9432C199.087 71.6705 198.674 71.5341 198.125 71.5341C197.553 71.5341 197.102 71.661 196.773 71.9148C196.447 72.1648 196.222 72.4432 196.097 72.75L194.5 72.3864C194.689 71.8561 194.966 71.428 195.33 71.1023C195.697 70.7727 196.119 70.5341 196.597 70.3864C197.074 70.2348 197.576 70.1591 198.102 70.1591C198.451 70.1591 198.82 70.2008 199.21 70.2841C199.604 70.3636 199.972 70.5114 200.312 70.7273C200.657 70.9432 200.939 71.2519 201.159 71.6534C201.379 72.0511 201.489 72.5682 201.489 73.2045V79H199.83V77.8068H199.761C199.652 78.0265 199.487 78.2424 199.267 78.4545C199.047 78.6667 198.765 78.8428 198.42 78.983C198.076 79.1231 197.663 79.1932 197.182 79.1932ZM197.551 77.8295C198.021 77.8295 198.422 77.7367 198.756 77.5511C199.093 77.3655 199.348 77.1231 199.523 76.8239C199.701 76.5208 199.79 76.197 199.79 75.8523V74.7273C199.729 74.7879 199.612 74.8447 199.438 74.8977C199.267 74.947 199.072 74.9905 198.852 75.0284C198.633 75.0625 198.419 75.0947 198.21 75.125C198.002 75.1515 197.828 75.1742 197.688 75.1932C197.358 75.2348 197.057 75.3049 196.784 75.4034C196.515 75.5019 196.299 75.6439 196.136 75.8295C195.977 76.0114 195.898 76.2538 195.898 76.5568C195.898 76.9773 196.053 77.2955 196.364 77.5114C196.674 77.7235 197.07 77.8295 197.551 77.8295ZM203.751 79V70.2727H205.393V71.6591H205.484C205.643 71.1894 205.924 70.8201 206.325 70.5511C206.731 70.2784 207.189 70.142 207.7 70.142C207.806 70.142 207.931 70.1458 208.075 70.1534C208.223 70.161 208.339 70.1705 208.422 70.1818V71.8068C208.354 71.7879 208.232 71.767 208.058 71.7443C207.884 71.7178 207.71 71.7045 207.536 71.7045C207.134 71.7045 206.776 71.7898 206.462 71.9602C206.151 72.1269 205.905 72.3598 205.723 72.6591C205.541 72.9545 205.45 73.2917 205.45 73.6705V79H203.751ZM204.831 66.733L206.001 68.2557L207.166 66.733H208.706V66.8182L206.706 69.2273H205.291L203.297 66.8182V66.733H204.831ZM211.455 76.0398L211.443 73.9659H211.739L215.216 70.2727H217.25L213.284 74.4773H213.017L211.455 76.0398ZM209.892 79V67.3636H211.591V79H209.892ZM215.403 79L212.278 74.8523L213.449 73.6648L217.489 79H215.403ZM221.338 79.1932C220.785 79.1932 220.285 79.0909 219.838 78.8864C219.391 78.678 219.037 78.3769 218.776 77.983C218.518 77.589 218.389 77.1061 218.389 76.5341C218.389 76.0417 218.484 75.6364 218.673 75.3182C218.863 75 219.118 74.7481 219.44 74.5625C219.762 74.3769 220.122 74.2367 220.52 74.142C220.918 74.0473 221.323 73.9754 221.736 73.9261C222.259 73.8655 222.683 73.8163 223.009 73.7784C223.334 73.7367 223.571 73.6705 223.719 73.5795C223.866 73.4886 223.94 73.3409 223.94 73.1364V73.0966C223.94 72.6004 223.8 72.2159 223.52 71.9432C223.243 71.6705 222.83 71.5341 222.281 71.5341C221.709 71.5341 221.259 71.661 220.929 71.9148C220.603 72.1648 220.378 72.4432 220.253 72.75L218.656 72.3864C218.846 71.8561 219.122 71.428 219.486 71.1023C219.853 70.7727 220.276 70.5341 220.753 70.3864C221.23 70.2348 221.732 70.1591 222.259 70.1591C222.607 70.1591 222.976 70.2008 223.366 70.2841C223.76 70.3636 224.128 70.5114 224.469 70.7273C224.813 70.9432 225.096 71.2519 225.315 71.6534C225.535 72.0511 225.645 72.5682 225.645 73.2045V79H223.986V77.8068H223.918C223.808 78.0265 223.643 78.2424 223.423 78.4545C223.204 78.6667 222.921 78.8428 222.577 78.983C222.232 79.1231 221.819 79.1932 221.338 79.1932ZM221.707 77.8295C222.177 77.8295 222.579 77.7367 222.912 77.5511C223.249 77.3655 223.505 77.1231 223.679 76.8239C223.857 76.5208 223.946 76.197 223.946 75.8523V74.7273C223.885 74.7879 223.768 74.8447 223.594 74.8977C223.423 74.947 223.228 74.9905 223.009 75.0284C222.789 75.0625 222.575 75.0947 222.366 75.125C222.158 75.1515 221.984 75.1742 221.844 75.1932C221.514 75.2348 221.213 75.3049 220.94 75.4034C220.671 75.5019 220.455 75.6439 220.293 75.8295C220.134 76.0114 220.054 76.2538 220.054 76.5568C220.054 76.9773 220.209 77.2955 220.52 77.5114C220.83 77.7235 221.226 77.8295 221.707 77.8295ZM232.142 82.2727V70.2727H233.801V71.6875H233.943C234.042 71.5057 234.184 71.2955 234.369 71.0568C234.555 70.8182 234.813 70.6098 235.142 70.4318C235.472 70.25 235.907 70.1591 236.449 70.1591C237.153 70.1591 237.782 70.3371 238.335 70.6932C238.888 71.0492 239.322 71.5625 239.636 72.233C239.955 72.9034 240.114 73.7102 240.114 74.6534C240.114 75.5966 239.956 76.4053 239.642 77.0795C239.328 77.75 238.896 78.267 238.347 78.6307C237.797 78.9905 237.17 79.1705 236.466 79.1705C235.936 79.1705 235.502 79.0814 235.165 78.9034C234.831 78.7254 234.57 78.517 234.381 78.2784C234.191 78.0398 234.045 77.8277 233.943 77.642H233.841V82.2727H232.142ZM233.807 74.6364C233.807 75.25 233.896 75.7879 234.074 76.25C234.252 76.7121 234.509 77.0739 234.847 77.3352C235.184 77.5928 235.597 77.7216 236.085 77.7216C236.593 77.7216 237.017 77.5871 237.358 77.3182C237.699 77.0455 237.956 76.6761 238.131 76.2102C238.309 75.7443 238.398 75.2197 238.398 74.6364C238.398 74.0606 238.311 73.5436 238.136 73.0852C237.966 72.6269 237.708 72.2652 237.364 72C237.023 71.7348 236.597 71.6023 236.085 71.6023C235.593 71.6023 235.176 71.7292 234.835 71.983C234.498 72.2367 234.242 72.5909 234.068 73.0455C233.894 73.5 233.807 74.0303 233.807 74.6364ZM242.017 79V70.2727H243.659V71.6591H243.75C243.909 71.1894 244.189 70.8201 244.591 70.5511C244.996 70.2784 245.455 70.142 245.966 70.142C246.072 70.142 246.197 70.1458 246.341 70.1534C246.489 70.161 246.604 70.1705 246.688 70.1818V71.8068C246.619 71.7879 246.498 71.767 246.324 71.7443C246.15 71.7178 245.975 71.7045 245.801 71.7045C245.4 71.7045 245.042 71.7898 244.727 71.9602C244.417 72.1269 244.17 72.3598 243.989 72.6591C243.807 72.9545 243.716 73.2917 243.716 73.6705V79H242.017ZM251.521 79.1761C250.703 79.1761 249.989 78.9886 249.379 78.6136C248.769 78.2386 248.296 77.714 247.959 77.0398C247.622 76.3655 247.453 75.5777 247.453 74.6761C247.453 73.7708 247.622 72.9792 247.959 72.3011C248.296 71.6231 248.769 71.0966 249.379 70.7216C249.989 70.3466 250.703 70.1591 251.521 70.1591C252.339 70.1591 253.054 70.3466 253.663 70.7216C254.273 71.0966 254.747 71.6231 255.084 72.3011C255.421 72.9792 255.589 73.7708 255.589 74.6761C255.589 75.5777 255.421 76.3655 255.084 77.0398C254.747 77.714 254.273 78.2386 253.663 78.6136C253.054 78.9886 252.339 79.1761 251.521 79.1761ZM251.527 77.75C252.057 77.75 252.497 77.6098 252.845 77.3295C253.194 77.0492 253.451 76.6761 253.618 76.2102C253.788 75.7443 253.874 75.2311 253.874 74.6705C253.874 74.1136 253.788 73.6023 253.618 73.1364C253.451 72.6667 253.194 72.2898 252.845 72.0057C252.497 71.7216 252.057 71.5795 251.527 71.5795C250.993 71.5795 250.55 71.7216 250.197 72.0057C249.849 72.2898 249.589 72.6667 249.419 73.1364C249.252 73.6023 249.169 74.1136 249.169 74.6705C249.169 75.2311 249.252 75.7443 249.419 76.2102C249.589 76.6761 249.849 77.0492 250.197 77.3295C250.55 77.6098 250.993 77.75 251.527 77.75ZM264.26 79.1932C263.707 79.1932 263.207 79.0909 262.76 78.8864C262.313 78.678 261.959 78.3769 261.697 77.983C261.44 77.589 261.311 77.1061 261.311 76.5341C261.311 76.0417 261.406 75.6364 261.595 75.3182C261.785 75 262.04 74.7481 262.362 74.5625C262.684 74.3769 263.044 74.2367 263.442 74.142C263.839 74.0473 264.245 73.9754 264.658 73.9261C265.18 73.8655 265.605 73.8163 265.93 73.7784C266.256 73.7367 266.493 73.6705 266.641 73.5795C266.788 73.4886 266.862 73.3409 266.862 73.1364V73.0966C266.862 72.6004 266.722 72.2159 266.442 71.9432C266.165 71.6705 265.752 71.5341 265.203 71.5341C264.631 71.5341 264.18 71.661 263.851 71.9148C263.525 72.1648 263.3 72.4432 263.175 72.75L261.578 72.3864C261.768 71.8561 262.044 71.428 262.408 71.1023C262.775 70.7727 263.197 70.5341 263.675 70.3864C264.152 70.2348 264.654 70.1591 265.18 70.1591C265.529 70.1591 265.898 70.2008 266.288 70.2841C266.682 70.3636 267.05 70.5114 267.391 70.7273C267.735 70.9432 268.018 71.2519 268.237 71.6534C268.457 72.0511 268.567 72.5682 268.567 73.2045V79H266.908V77.8068H266.839C266.73 78.0265 266.565 78.2424 266.345 78.4545C266.125 78.6667 265.843 78.8428 265.499 78.983C265.154 79.1231 264.741 79.1932 264.26 79.1932ZM264.629 77.8295C265.099 77.8295 265.5 77.7367 265.834 77.5511C266.171 77.3655 266.427 77.1231 266.601 76.8239C266.779 76.5208 266.868 76.197 266.868 75.8523V74.7273C266.807 74.7879 266.69 74.8447 266.516 74.8977C266.345 74.947 266.15 74.9905 265.93 75.0284C265.711 75.0625 265.497 75.0947 265.288 75.125C265.08 75.1515 264.906 75.1742 264.766 75.1932C264.436 75.2348 264.135 75.3049 263.862 75.4034C263.593 75.5019 263.377 75.6439 263.214 75.8295C263.055 76.0114 262.976 76.2538 262.976 76.5568C262.976 76.9773 263.131 77.2955 263.442 77.5114C263.752 77.7235 264.148 77.8295 264.629 77.8295ZM274.489 82.4545C273.795 82.4545 273.199 82.3636 272.699 82.1818C272.203 82 271.797 81.7595 271.483 81.4602C271.169 81.161 270.934 80.8333 270.778 80.4773L272.239 79.875C272.341 80.0417 272.477 80.2178 272.648 80.4034C272.822 80.5928 273.057 80.7538 273.352 80.8864C273.652 81.0189 274.036 81.0852 274.506 81.0852C275.15 81.0852 275.682 80.928 276.102 80.6136C276.523 80.303 276.733 79.8068 276.733 79.125V77.4091H276.625C276.523 77.5947 276.375 77.8011 276.182 78.0284C275.992 78.2557 275.731 78.4527 275.398 78.6193C275.064 78.786 274.631 78.8693 274.097 78.8693C273.407 78.8693 272.786 78.7083 272.233 78.3864C271.684 78.0606 271.248 77.5814 270.926 76.9489C270.608 76.3125 270.449 75.5303 270.449 74.6023C270.449 73.6742 270.606 72.8788 270.92 72.2159C271.239 71.553 271.674 71.0455 272.227 70.6932C272.78 70.3371 273.407 70.1591 274.108 70.1591C274.65 70.1591 275.087 70.25 275.42 70.4318C275.754 70.6098 276.013 70.8182 276.199 71.0568C276.388 71.2955 276.534 71.5057 276.636 71.6875H276.761V70.2727H278.426V79.1932C278.426 79.9432 278.252 80.5587 277.903 81.0398C277.555 81.5208 277.083 81.8769 276.489 82.108C275.898 82.339 275.231 82.4545 274.489 82.4545ZM274.472 77.4602C274.96 77.4602 275.373 77.3466 275.71 77.1193C276.051 76.8883 276.309 76.5587 276.483 76.1307C276.661 75.6989 276.75 75.1818 276.75 74.5795C276.75 73.9924 276.663 73.4754 276.489 73.0284C276.314 72.5814 276.059 72.233 275.722 71.983C275.384 71.7292 274.968 71.6023 274.472 71.6023C273.96 71.6023 273.534 71.7348 273.193 72C272.852 72.2614 272.595 72.6174 272.42 73.0682C272.25 73.5189 272.165 74.0227 272.165 74.5795C272.165 75.1515 272.252 75.6534 272.426 76.0852C272.6 76.517 272.858 76.8542 273.199 77.0966C273.544 77.339 273.968 77.4602 274.472 77.4602ZM284.466 79.1761C283.606 79.1761 282.866 78.9924 282.244 78.625C281.627 78.2538 281.15 77.733 280.812 77.0625C280.479 76.3883 280.312 75.5985 280.312 74.6932C280.312 73.7992 280.479 73.0114 280.812 72.3295C281.15 71.6477 281.619 71.1155 282.222 70.733C282.828 70.3504 283.536 70.1591 284.347 70.1591C284.839 70.1591 285.316 70.2405 285.778 70.4034C286.241 70.5663 286.655 70.822 287.023 71.1705C287.39 71.5189 287.68 71.9716 287.892 72.5284C288.104 73.0814 288.21 73.7538 288.21 74.5455V75.1477H281.273V73.875H286.545C286.545 73.428 286.455 73.0322 286.273 72.6875C286.091 72.339 285.835 72.0644 285.506 71.8636C285.18 71.6629 284.797 71.5625 284.358 71.5625C283.881 71.5625 283.464 71.6799 283.108 71.9148C282.756 72.1458 282.483 72.4489 282.29 72.8239C282.1 73.1951 282.006 73.5985 282.006 74.0341V75.0284C282.006 75.6117 282.108 76.108 282.312 76.517C282.521 76.9261 282.811 77.2386 283.182 77.4545C283.553 77.6667 283.987 77.7727 284.483 77.7727C284.805 77.7727 285.098 77.7273 285.364 77.6364C285.629 77.5417 285.858 77.4015 286.051 77.2159C286.244 77.0303 286.392 76.8011 286.494 76.5284L288.102 76.8182C287.973 77.2917 287.742 77.7064 287.409 78.0625C287.08 78.4148 286.665 78.6894 286.165 78.8864C285.669 79.0795 285.102 79.1761 284.466 79.1761ZM291.794 73.8182V79H290.095V70.2727H291.726V71.6932H291.834C292.035 71.2311 292.349 70.8598 292.777 70.5795C293.209 70.2992 293.752 70.1591 294.408 70.1591C295.002 70.1591 295.523 70.2841 295.97 70.5341C296.417 70.7803 296.764 71.1477 297.01 71.6364C297.256 72.125 297.379 72.7292 297.379 73.4489V79H295.68V73.6534C295.68 73.0208 295.516 72.5265 295.186 72.1705C294.857 71.8106 294.404 71.6307 293.828 71.6307C293.434 71.6307 293.084 71.7159 292.777 71.8864C292.474 72.0568 292.233 72.3068 292.055 72.6364C291.881 72.9621 291.794 73.3561 291.794 73.8182ZM303.732 70.2727V71.6364H298.964V70.2727H303.732ZM300.243 68.1818H301.942V76.4375C301.942 76.767 301.991 77.0152 302.089 77.1818C302.188 77.3447 302.315 77.4564 302.47 77.517C302.629 77.5739 302.802 77.6023 302.987 77.6023C303.124 77.6023 303.243 77.5928 303.345 77.5739C303.447 77.5549 303.527 77.5398 303.584 77.5284L303.891 78.9318C303.792 78.9697 303.652 79.0076 303.47 79.0455C303.288 79.0871 303.061 79.1098 302.788 79.1136C302.341 79.1212 301.925 79.0417 301.538 78.875C301.152 78.7083 300.839 78.4508 300.601 78.1023C300.362 77.7538 300.243 77.3163 300.243 76.7898V68.1818ZM306.685 82.2727C306.431 82.2727 306.2 82.2519 305.991 82.2102C305.783 82.1723 305.628 82.1307 305.526 82.0852L305.935 80.6932C306.245 80.7765 306.522 80.8125 306.764 80.8011C307.007 80.7898 307.221 80.6989 307.406 80.5284C307.596 80.358 307.762 80.0795 307.906 79.6932L308.116 79.1136L304.923 70.2727H306.741L308.952 77.0455H309.043L311.253 70.2727H313.077L309.48 80.1648C309.313 80.6193 309.101 81.0038 308.844 81.3182C308.586 81.6364 308.279 81.875 307.923 82.0341C307.567 82.1932 307.154 82.2727 306.685 82.2727Z" fill="#666666"/>
<path d="M96.6165 90.1406V88.8182H104.496V90.1406H101.32V99H99.7884V90.1406H96.6165ZM107.302 99.169C106.818 99.169 106.38 99.0795 105.989 98.9006C105.598 98.7183 105.288 98.4548 105.059 98.1101C104.834 97.7654 104.721 97.3428 104.721 96.8423C104.721 96.4115 104.804 96.0568 104.97 95.7784C105.136 95.5 105.359 95.2796 105.641 95.1172C105.923 94.9548 106.238 94.8321 106.586 94.7493C106.934 94.6664 107.288 94.6035 107.65 94.5604C108.107 94.5073 108.478 94.4643 108.763 94.4311C109.048 94.3946 109.256 94.3366 109.385 94.2571C109.514 94.1776 109.579 94.0483 109.579 93.8693V93.8345C109.579 93.4003 109.456 93.0639 109.211 92.8253C108.969 92.5866 108.608 92.4673 108.127 92.4673C107.626 92.4673 107.232 92.5784 106.944 92.8004C106.659 93.0192 106.461 93.2628 106.352 93.5312L104.955 93.2131C105.121 92.7491 105.363 92.3745 105.681 92.0895C106.002 91.8011 106.372 91.5923 106.79 91.4631C107.207 91.3305 107.646 91.2642 108.107 91.2642C108.412 91.2642 108.735 91.3007 109.077 91.3736C109.421 91.4432 109.743 91.5724 110.041 91.7614C110.343 91.9503 110.59 92.2204 110.782 92.5717C110.974 92.9197 111.07 93.3722 111.07 93.929V99H109.618V97.956H109.559C109.463 98.1482 109.318 98.3371 109.126 98.5227C108.934 98.7083 108.687 98.8625 108.385 98.9851C108.084 99.1077 107.723 99.169 107.302 99.169ZM107.625 97.9759C108.036 97.9759 108.387 97.8946 108.679 97.7322C108.974 97.5698 109.198 97.3577 109.35 97.0959C109.506 96.8307 109.584 96.5473 109.584 96.2457V95.2614C109.531 95.3144 109.428 95.3641 109.275 95.4105C109.126 95.4536 108.956 95.4917 108.763 95.5249C108.571 95.5547 108.384 95.5829 108.202 95.6094C108.019 95.6326 107.867 95.6525 107.744 95.669C107.456 95.7055 107.192 95.7668 106.954 95.853C106.718 95.9392 106.529 96.0634 106.387 96.2259C106.248 96.3849 106.178 96.5971 106.178 96.8622C106.178 97.2301 106.314 97.5085 106.586 97.6974C106.858 97.883 107.204 97.9759 107.625 97.9759ZM113.05 91.3636H114.537V99.4972C114.537 100.008 114.444 100.438 114.258 100.79C114.076 101.141 113.804 101.408 113.443 101.59C113.085 101.772 112.642 101.864 112.115 101.864C112.062 101.864 112.013 101.864 111.966 101.864C111.917 101.864 111.865 101.862 111.812 101.859V100.581C111.859 100.581 111.9 100.581 111.936 100.581C111.97 100.581 112.008 100.581 112.051 100.581C112.402 100.581 112.656 100.487 112.811 100.298C112.971 100.112 113.05 99.8419 113.05 99.4872V91.3636ZM113.786 90.1854C113.527 90.1854 113.305 90.0992 113.12 89.9268C112.937 89.7512 112.846 89.5424 112.846 89.3004C112.846 89.0552 112.937 88.8464 113.12 88.674C113.305 88.4983 113.527 88.4105 113.786 88.4105C114.044 88.4105 114.265 88.4983 114.447 88.674C114.633 88.8464 114.725 89.0552 114.725 89.3004C114.725 89.5424 114.633 89.7512 114.447 89.9268C114.265 90.0992 114.044 90.1854 113.786 90.1854ZM118.023 94.4659V99H116.536V91.3636H117.963V92.6065H118.058C118.233 92.2022 118.508 91.8774 118.883 91.6321C119.261 91.3868 119.736 91.2642 120.31 91.2642C120.83 91.2642 121.286 91.3736 121.677 91.5923C122.068 91.8078 122.371 92.1293 122.587 92.5568C122.802 92.9844 122.91 93.513 122.91 94.1428V99H121.423V94.3217C121.423 93.7682 121.279 93.3357 120.991 93.0241C120.703 92.7093 120.307 92.5518 119.803 92.5518C119.458 92.5518 119.151 92.6264 118.883 92.7756C118.618 92.9247 118.407 93.1435 118.252 93.4318C118.099 93.7169 118.023 94.0616 118.023 94.4659ZM127.126 99.169C126.642 99.169 126.204 99.0795 125.813 98.9006C125.422 98.7183 125.112 98.4548 124.884 98.1101C124.658 97.7654 124.546 97.3428 124.546 96.8423C124.546 96.4115 124.628 96.0568 124.794 95.7784C124.96 95.5 125.184 95.2796 125.465 95.1172C125.747 94.9548 126.062 94.8321 126.41 94.7493C126.758 94.6664 127.113 94.6035 127.474 94.5604C127.931 94.5073 128.302 94.4643 128.588 94.4311C128.873 94.3946 129.08 94.3366 129.209 94.2571C129.338 94.1776 129.403 94.0483 129.403 93.8693V93.8345C129.403 93.4003 129.28 93.0639 129.035 92.8253C128.793 92.5866 128.432 92.4673 127.951 92.4673C127.451 92.4673 127.056 92.5784 126.768 92.8004C126.483 93.0192 126.286 93.2628 126.176 93.5312L124.779 93.2131C124.945 92.7491 125.187 92.3745 125.505 92.0895C125.827 91.8011 126.196 91.5923 126.614 91.4631C127.031 91.3305 127.471 91.2642 127.931 91.2642C128.236 91.2642 128.559 91.3007 128.901 91.3736C129.245 91.4432 129.567 91.5724 129.865 91.7614C130.167 91.9503 130.414 92.2204 130.606 92.5717C130.798 92.9197 130.894 93.3722 130.894 93.929V99H129.443V97.956H129.383C129.287 98.1482 129.143 98.3371 128.95 98.5227C128.758 98.7083 128.511 98.8625 128.21 98.9851C127.908 99.1077 127.547 99.169 127.126 99.169ZM127.449 97.9759C127.86 97.9759 128.211 97.8946 128.503 97.7322C128.798 97.5698 129.022 97.3577 129.174 97.0959C129.33 96.8307 129.408 96.5473 129.408 96.2457V95.2614C129.355 95.3144 129.252 95.3641 129.1 95.4105C128.95 95.4536 128.78 95.4917 128.588 95.5249C128.395 95.5547 128.208 95.5829 128.026 95.6094C127.843 95.6326 127.691 95.6525 127.568 95.669C127.28 95.7055 127.017 95.7668 126.778 95.853C126.543 95.9392 126.354 96.0634 126.211 96.2259C126.072 96.3849 126.002 96.5971 126.002 96.8622C126.002 97.2301 126.138 97.5085 126.41 97.6974C126.682 97.883 127.028 97.9759 127.449 97.9759ZM127.394 90.3445L128.558 88.0526H130.124L128.583 90.3445H127.394ZM140 99.1392C139.287 99.1392 138.657 99.0166 138.111 98.7713C137.567 98.526 137.141 98.188 136.833 97.7571C136.525 97.3262 136.372 96.8357 136.376 96.2855C136.372 95.8546 136.46 95.4586 136.639 95.0973C136.821 94.7327 137.068 94.4295 137.38 94.1875C137.691 93.9422 138.039 93.7865 138.424 93.7202V93.6605C137.917 93.5379 137.511 93.2661 137.206 92.8452C136.901 92.4242 136.75 91.9403 136.753 91.3935C136.75 90.8731 136.888 90.4091 137.166 90.0014C137.448 89.5904 137.834 89.2673 138.324 89.032C138.815 88.7966 139.373 88.679 140 88.679C140.62 88.679 141.173 88.7983 141.66 89.0369C142.151 89.2723 142.537 89.5954 142.819 90.0064C143.1 90.4141 143.243 90.8764 143.246 91.3935C143.243 91.9403 143.087 92.4242 142.779 92.8452C142.471 93.2661 142.07 93.5379 141.576 93.6605V93.7202C141.957 93.7865 142.3 93.9422 142.605 94.1875C142.913 94.4295 143.158 94.7327 143.341 95.0973C143.526 95.4586 143.621 95.8546 143.624 96.2855C143.621 96.8357 143.465 97.3262 143.157 97.7571C142.849 98.188 142.421 98.526 141.874 98.7713C141.331 99.0166 140.706 99.1392 140 99.1392ZM140 97.8814C140.421 97.8814 140.785 97.8118 141.094 97.6726C141.402 97.5301 141.64 97.3329 141.809 97.081C141.979 96.8258 142.065 96.5275 142.068 96.1861C142.065 95.8314 141.972 95.5182 141.79 95.2464C141.611 94.9747 141.367 94.7609 141.059 94.6051C140.751 94.4493 140.398 94.3714 140 94.3714C139.599 94.3714 139.242 94.4493 138.931 94.6051C138.619 94.7609 138.374 94.9747 138.195 95.2464C138.016 95.5182 137.928 95.8314 137.932 96.1861C137.928 96.5275 138.01 96.8258 138.175 97.081C138.344 97.3329 138.585 97.5301 138.896 97.6726C139.208 97.8118 139.576 97.8814 140 97.8814ZM140 93.1435C140.338 93.1435 140.638 93.0755 140.9 92.9396C141.162 92.8037 141.367 92.6148 141.516 92.3729C141.669 92.1309 141.747 91.8475 141.75 91.5227C141.747 91.2045 141.67 90.9261 141.521 90.6875C141.375 90.4489 141.171 90.2649 140.91 90.1357C140.648 90.0031 140.345 89.9368 140 89.9368C139.648 89.9368 139.34 90.0031 139.075 90.1357C138.813 90.2649 138.609 90.4489 138.464 90.6875C138.318 90.9261 138.247 91.2045 138.25 91.5227C138.247 91.8475 138.319 92.1309 138.469 92.3729C138.618 92.6148 138.823 92.8037 139.085 92.9396C139.35 93.0755 139.655 93.1435 140 93.1435ZM148.846 99.1392C148.133 99.1392 147.503 99.0166 146.956 98.7713C146.413 98.526 145.987 98.188 145.679 97.7571C145.37 97.3262 145.218 96.8357 145.221 96.2855C145.218 95.8546 145.306 95.4586 145.485 95.0973C145.667 94.7327 145.914 94.4295 146.225 94.1875C146.537 93.9422 146.885 93.7865 147.27 93.7202V93.6605C146.762 93.5379 146.356 93.2661 146.051 92.8452C145.747 92.4242 145.596 91.9403 145.599 91.3935C145.596 90.8731 145.733 90.4091 146.012 90.0014C146.293 89.5904 146.68 89.2673 147.17 89.032C147.661 88.7966 148.219 88.679 148.846 88.679C149.465 88.679 150.019 88.7983 150.506 89.0369C150.997 89.2723 151.383 89.5954 151.664 90.0064C151.946 90.4141 152.089 90.8764 152.092 91.3935C152.089 91.9403 151.933 92.4242 151.625 92.8452C151.316 93.2661 150.915 93.5379 150.422 93.6605V93.7202C150.803 93.7865 151.146 93.9422 151.451 94.1875C151.759 94.4295 152.004 94.7327 152.186 95.0973C152.372 95.4586 152.467 95.8546 152.47 96.2855C152.467 96.8357 152.311 97.3262 152.002 97.7571C151.694 98.188 151.267 98.526 150.72 98.7713C150.176 99.0166 149.551 99.1392 148.846 99.1392ZM148.846 97.8814C149.266 97.8814 149.631 97.8118 149.939 97.6726C150.248 97.5301 150.486 97.3329 150.655 97.081C150.824 96.8258 150.91 96.5275 150.914 96.1861C150.91 95.8314 150.818 95.5182 150.635 95.2464C150.456 94.9747 150.213 94.7609 149.904 94.6051C149.596 94.4493 149.243 94.3714 148.846 94.3714C148.444 94.3714 148.088 94.4493 147.777 94.6051C147.465 94.7609 147.22 94.9747 147.041 95.2464C146.862 95.5182 146.774 95.8314 146.777 96.1861C146.774 96.5275 146.855 96.8258 147.021 97.081C147.19 97.3329 147.43 97.5301 147.742 97.6726C148.053 97.8118 148.421 97.8814 148.846 97.8814ZM148.846 93.1435C149.184 93.1435 149.484 93.0755 149.745 92.9396C150.007 92.8037 150.213 92.6148 150.362 92.3729C150.514 92.1309 150.592 91.8475 150.596 91.5227C150.592 91.2045 150.516 90.9261 150.367 90.6875C150.221 90.4489 150.017 90.2649 149.755 90.1357C149.493 90.0031 149.19 89.9368 148.846 89.9368C148.494 89.9368 148.186 90.0031 147.921 90.1357C147.659 90.2649 147.455 90.4489 147.309 90.6875C147.163 90.9261 147.092 91.2045 147.096 91.5227C147.092 91.8475 147.165 92.1309 147.314 92.3729C147.463 92.6148 147.669 92.8037 147.931 92.9396C148.196 93.0755 148.501 93.1435 148.846 93.1435ZM155.904 97.608L155.829 98.1499C155.78 98.5476 155.695 98.9619 155.576 99.3928C155.46 99.8269 155.339 100.23 155.213 100.601C155.09 100.972 154.989 101.267 154.91 101.486H153.856C153.899 101.28 153.958 101.002 154.035 100.651C154.111 100.303 154.185 99.9131 154.258 99.4822C154.331 99.0514 154.386 98.6122 154.422 98.1648L154.472 97.608H155.904ZM161.664 99V88.8182H165.293C166.085 88.8182 166.741 88.9624 167.262 89.2507C167.782 89.5391 168.171 89.9335 168.43 90.4339C168.688 90.9311 168.818 91.4912 168.818 92.1143C168.818 92.7408 168.687 93.3042 168.425 93.8047C168.166 94.3018 167.775 94.6963 167.252 94.9879C166.731 95.2763 166.077 95.4205 165.288 95.4205H162.792V94.1179H165.149C165.649 94.1179 166.055 94.0317 166.367 93.8594C166.678 93.6837 166.907 93.4451 167.053 93.1435C167.199 92.8419 167.271 92.4988 167.271 92.1143C167.271 91.7299 167.199 91.3885 167.053 91.0902C166.907 90.7919 166.677 90.5582 166.362 90.3892C166.05 90.2202 165.639 90.1357 165.129 90.1357H163.2V99H161.664ZM172.653 99.169C172.169 99.169 171.732 99.0795 171.341 98.9006C170.95 98.7183 170.64 98.4548 170.411 98.1101C170.186 97.7654 170.073 97.3428 170.073 96.8423C170.073 96.4115 170.156 96.0568 170.322 95.7784C170.487 95.5 170.711 95.2796 170.993 95.1172C171.274 94.9548 171.589 94.8321 171.937 94.7493C172.285 94.6664 172.64 94.6035 173.001 94.5604C173.459 94.5073 173.83 94.4643 174.115 94.4311C174.4 94.3946 174.607 94.3366 174.736 94.2571C174.866 94.1776 174.93 94.0483 174.93 93.8693V93.8345C174.93 93.4003 174.808 93.0639 174.562 92.8253C174.32 92.5866 173.959 92.4673 173.479 92.4673C172.978 92.4673 172.584 92.5784 172.295 92.8004C172.01 93.0192 171.813 93.2628 171.704 93.5312L170.307 93.2131C170.472 92.7491 170.714 92.3745 171.032 92.0895C171.354 91.8011 171.724 91.5923 172.141 91.4631C172.559 91.3305 172.998 91.2642 173.459 91.2642C173.764 91.2642 174.087 91.3007 174.428 91.3736C174.773 91.4432 175.094 91.5724 175.393 91.7614C175.694 91.9503 175.941 92.2204 176.133 92.5717C176.326 92.9197 176.422 93.3722 176.422 93.929V99H174.97V97.956H174.91C174.814 98.1482 174.67 98.3371 174.478 98.5227C174.286 98.7083 174.039 98.8625 173.737 98.9851C173.435 99.1077 173.074 99.169 172.653 99.169ZM172.976 97.9759C173.387 97.9759 173.739 97.8946 174.03 97.7322C174.325 97.5698 174.549 97.3577 174.702 97.0959C174.857 96.8307 174.935 96.5473 174.935 96.2457V95.2614C174.882 95.3144 174.779 95.3641 174.627 95.4105C174.478 95.4536 174.307 95.4917 174.115 95.5249C173.923 95.5547 173.735 95.5829 173.553 95.6094C173.371 95.6326 173.218 95.6525 173.096 95.669C172.807 95.7055 172.544 95.7668 172.305 95.853C172.07 95.9392 171.881 96.0634 171.738 96.2259C171.599 96.3849 171.53 96.5971 171.53 96.8622C171.53 97.2301 171.666 97.5085 171.937 97.6974C172.209 97.883 172.555 97.9759 172.976 97.9759ZM178.402 99V91.3636H179.838V92.5767H179.918C180.057 92.1657 180.302 91.8426 180.654 91.6072C181.008 91.3686 181.409 91.2493 181.857 91.2493C181.95 91.2493 182.059 91.2526 182.185 91.2592C182.314 91.2659 182.415 91.2741 182.488 91.2841V92.706C182.429 92.6894 182.323 92.6712 182.17 92.6513C182.018 92.6281 181.865 92.6165 181.713 92.6165C181.361 92.6165 181.048 92.6911 180.773 92.8402C180.501 92.986 180.286 93.1899 180.127 93.4517C179.968 93.7102 179.888 94.0052 179.888 94.3366V99H178.402ZM186.36 99.1491C185.743 99.1491 185.193 98.9917 184.709 98.6768C184.229 98.3587 183.851 97.9062 183.576 97.3196C183.304 96.7296 183.168 96.022 183.168 95.1967C183.168 94.3714 183.306 93.6655 183.581 93.0788C183.859 92.4922 184.24 92.0431 184.724 91.7315C185.208 91.42 185.757 91.2642 186.37 91.2642C186.844 91.2642 187.225 91.3438 187.513 91.5028C187.805 91.6586 188.03 91.8409 188.189 92.0497C188.352 92.2585 188.478 92.4425 188.567 92.6016H188.657V88.8182H190.143V99H188.692V97.8118H188.567C188.478 97.9742 188.349 98.1598 188.18 98.3686C188.014 98.5774 187.785 98.7597 187.493 98.9155C187.202 99.0713 186.824 99.1491 186.36 99.1491ZM186.688 97.8814C187.116 97.8814 187.477 97.7687 187.772 97.5433C188.07 97.3146 188.296 96.9981 188.448 96.5938C188.604 96.1894 188.682 95.7187 188.682 95.1818C188.682 94.6515 188.605 94.1875 188.453 93.7898C188.3 93.392 188.077 93.0821 187.782 92.8601C187.487 92.638 187.122 92.527 186.688 92.527C186.241 92.527 185.868 92.643 185.569 92.875C185.271 93.107 185.046 93.4235 184.893 93.8246C184.744 94.2256 184.67 94.678 184.67 95.1818C184.67 95.6922 184.746 96.1513 184.898 96.5589C185.051 96.9666 185.276 97.2898 185.574 97.5284C185.876 97.7637 186.247 97.8814 186.688 97.8814ZM197.102 95.8331V91.3636H198.594V99H197.132V97.6776H197.053C196.877 98.0852 196.595 98.425 196.207 98.6967C195.823 98.9652 195.344 99.0994 194.771 99.0994C194.28 99.0994 193.846 98.9917 193.468 98.7763C193.094 98.5575 192.799 98.2344 192.583 97.8068C192.371 97.3793 192.265 96.8506 192.265 96.2209V91.3636H193.751V96.0419C193.751 96.5623 193.896 96.9766 194.184 97.2848C194.472 97.593 194.847 97.7472 195.308 97.7472C195.586 97.7472 195.863 97.6776 196.138 97.5384C196.416 97.3991 196.647 97.1887 196.829 96.907C197.014 96.6252 197.106 96.2673 197.102 95.8331ZM200.71 99V88.8182H202.197V92.6016H202.286C202.373 92.4425 202.497 92.2585 202.659 92.0497C202.822 91.8409 203.047 91.6586 203.335 91.5028C203.624 91.3438 204.005 91.2642 204.479 91.2642C205.095 91.2642 205.646 91.42 206.129 91.7315C206.613 92.0431 206.993 92.4922 207.268 93.0788C207.546 93.6655 207.686 94.3714 207.686 95.1967C207.686 96.022 207.548 96.7296 207.273 97.3196C206.998 97.9062 206.62 98.3587 206.139 98.6768C205.659 98.9917 205.11 99.1491 204.494 99.1491C204.03 99.1491 203.65 99.0713 203.355 98.9155C203.064 98.7597 202.835 98.5774 202.669 98.3686C202.503 98.1598 202.376 97.9742 202.286 97.8118H202.162V99H200.71ZM202.167 95.1818C202.167 95.7187 202.245 96.1894 202.401 96.5938C202.557 96.9981 202.782 97.3146 203.077 97.5433C203.372 97.7687 203.733 97.8814 204.161 97.8814C204.605 97.8814 204.976 97.7637 205.274 97.5284C205.573 97.2898 205.798 96.9666 205.95 96.5589C206.106 96.1513 206.184 95.6922 206.184 95.1818C206.184 94.678 206.108 94.2256 205.955 93.8246C205.806 93.4235 205.581 93.107 205.279 92.875C204.981 92.643 204.608 92.527 204.161 92.527C203.73 92.527 203.365 92.638 203.067 92.8601C202.772 93.0821 202.548 93.392 202.396 93.7898C202.243 94.1875 202.167 94.6515 202.167 95.1818ZM209.355 99V91.3636H210.841V99H209.355ZM210.105 90.1854C209.847 90.1854 209.625 90.0992 209.439 89.9268C209.257 89.7512 209.166 89.5424 209.166 89.3004C209.166 89.0552 209.257 88.8464 209.439 88.674C209.625 88.4983 209.847 88.4105 210.105 88.4105C210.364 88.4105 210.584 88.4983 210.767 88.674C210.952 88.8464 211.045 89.0552 211.045 89.3004C211.045 89.5424 210.952 89.7512 210.767 89.9268C210.584 90.0992 210.364 90.1854 210.105 90.1854ZM216.058 99.1541C215.319 99.1541 214.682 98.9867 214.149 98.652C213.618 98.3139 213.211 97.8482 212.926 97.255C212.641 96.6617 212.498 95.9822 212.498 95.2166C212.498 94.4411 212.644 93.7566 212.936 93.1634C213.227 92.5668 213.638 92.1011 214.169 91.7663C214.699 91.4316 215.324 91.2642 216.043 91.2642C216.623 91.2642 217.14 91.3719 217.594 91.5874C218.048 91.7995 218.414 92.0978 218.693 92.4822C218.974 92.8667 219.142 93.3158 219.195 93.8295H217.748C217.669 93.4716 217.486 93.1634 217.201 92.9048C216.919 92.6463 216.542 92.517 216.068 92.517C215.653 92.517 215.29 92.6264 214.979 92.8452C214.671 93.0606 214.43 93.3688 214.258 93.7699C214.086 94.1676 213.999 94.6383 213.999 95.1818C213.999 95.7386 214.084 96.2192 214.253 96.6236C214.422 97.0279 214.661 97.3411 214.969 97.5632C215.28 97.7853 215.647 97.8963 216.068 97.8963C216.349 97.8963 216.605 97.8449 216.833 97.7422C217.065 97.6361 217.259 97.4853 217.415 97.2898C217.574 97.0942 217.685 96.8589 217.748 96.5838H219.195C219.142 97.0777 218.981 97.5185 218.713 97.9062C218.444 98.294 218.084 98.599 217.634 98.821C217.186 99.0431 216.661 99.1541 216.058 99.1541ZM224.076 99.1541C223.323 99.1541 222.675 98.9934 222.132 98.6719C221.592 98.3471 221.174 97.8913 220.879 97.3047C220.587 96.7147 220.441 96.0237 220.441 95.2315C220.441 94.4493 220.587 93.7599 220.879 93.1634C221.174 92.5668 221.585 92.1011 222.112 91.7663C222.642 91.4316 223.262 91.2642 223.971 91.2642C224.402 91.2642 224.82 91.3355 225.224 91.478C225.628 91.6205 225.991 91.8442 226.313 92.1491C226.634 92.4541 226.888 92.8501 227.074 93.3374C227.259 93.8213 227.352 94.4096 227.352 95.1023V95.6293H221.282V94.5156H225.895C225.895 94.1245 225.816 93.7782 225.657 93.4766C225.498 93.1716 225.274 92.9313 224.985 92.7557C224.7 92.58 224.366 92.4922 223.981 92.4922C223.564 92.4922 223.199 92.5949 222.887 92.8004C222.579 93.0026 222.341 93.2678 222.172 93.5959C222.006 93.9207 221.923 94.2737 221.923 94.6548V95.5249C221.923 96.0353 222.012 96.4695 222.191 96.8274C222.374 97.1854 222.627 97.4588 222.952 97.6477C223.277 97.8333 223.656 97.9261 224.091 97.9261C224.372 97.9261 224.629 97.8864 224.861 97.8068C225.093 97.724 225.294 97.6013 225.463 97.4389C225.632 97.2765 225.761 97.076 225.85 96.8374L227.257 97.0909C227.145 97.5052 226.943 97.8681 226.651 98.1797C226.363 98.4879 226 98.7282 225.562 98.9006C225.128 99.0696 224.632 99.1541 224.076 99.1541ZM233.895 88.8182L236.331 92.8004H236.41L238.846 88.8182H240.626L237.454 93.9091L240.646 99H238.856L236.41 95.0724H236.331L233.885 99H232.095L235.341 93.9091L232.115 88.8182H233.895Z" fill="#666666"/>
<defs>
<filter id="filter0_d_233_2578" x="0" y="0" width="342" height="145" filterUnits="userSpaceOnUse" color-interpolation-filters="sRGB">
<feFlood flood-opacity="0" result="BackgroundImageFix"/>
<feColorMatrix in="SourceAlpha" type="matrix" values="0 0 0 0 0 0 0 0 0 0 0 0 0 0 0 0 0 0 127 0" result="hardAlpha"/>
<feOffset/>
<feGaussianBlur stdDeviation="5"/>
<feComposite in2="hardAlpha" operator="out"/>
<feColorMatrix type="matrix" values="0 0 0 0 0 0 0 0 0 0 0 0 0 0 0 0 0 0 0.25 0"/>
<feBlend mode="normal" in2="BackgroundImageFix" result="effect1_dropShadow_233_2578"/>
<feBlend mode="normal" in="SourceGraphic" in2="effect1_dropShadow_233_2578" result="shape"/>
</filter>
</defs>
</svg>
