<svg width="214" height="40" viewBox="0 0 214 40" fill="none" xmlns="http://www.w3.org/2000/svg">
<g filter="url(#filter0_d_233_3123)">
<rect x="4" y="4" width="206" height="32" rx="16" fill="white"/>
</g>
<path d="M41.8452 17.3636H43.9631V25.3778C43.9631 25.9678 43.8471 26.4451 43.6151 26.8097C43.383 27.1742 43.05 27.4411 42.6158 27.6101C42.1849 27.7791 41.6695 27.8636 41.0696 27.8636C40.9967 27.8636 40.9271 27.862 40.8608 27.8587C40.7912 27.8587 40.7183 27.857 40.642 27.8537V26.1982C40.6984 26.2015 40.7481 26.2031 40.7912 26.2031C40.831 26.2064 40.8741 26.2081 40.9205 26.2081C41.2618 26.2081 41.5005 26.1352 41.6364 25.9893C41.7756 25.8468 41.8452 25.6314 41.8452 25.343V17.3636ZM42.8991 16.3793C42.5876 16.3793 42.3191 16.2749 42.0938 16.0661C41.8684 15.8539 41.7557 15.6004 41.7557 15.3054C41.7557 15.0137 41.8684 14.7635 42.0938 14.5547C42.3191 14.3426 42.5876 14.2365 42.8991 14.2365C43.2173 14.2365 43.4875 14.3426 43.7095 14.5547C43.9349 14.7635 44.0476 15.0137 44.0476 15.3054C44.0476 15.6004 43.9349 15.8539 43.7095 16.0661C43.4875 16.2749 43.2173 16.3793 42.8991 16.3793ZM47.8372 25.1442C47.35 25.1442 46.9158 25.0597 46.5346 24.8906C46.1535 24.7183 45.8519 24.4647 45.6298 24.13C45.411 23.7919 45.3017 23.371 45.3017 22.8672C45.3017 22.4429 45.3796 22.0866 45.5353 21.7983C45.6911 21.5099 45.9032 21.2779 46.1717 21.1023C46.4402 20.9266 46.7451 20.794 47.0865 20.7045C47.4312 20.6151 47.7924 20.5521 48.1703 20.5156C48.6144 20.4692 48.9724 20.4261 49.2441 20.3864C49.5159 20.3433 49.7131 20.2803 49.8358 20.1974C49.9584 20.1146 50.0197 19.992 50.0197 19.8295V19.7997C50.0197 19.4848 49.9203 19.2412 49.7214 19.0689C49.5259 18.8965 49.2475 18.8104 48.8862 18.8104C48.505 18.8104 48.2018 18.8949 47.9764 19.0639C47.751 19.2296 47.6019 19.4384 47.5289 19.6903L45.5701 19.5312C45.6696 19.0672 45.8651 18.6662 46.1568 18.3281C46.4484 17.9867 46.8246 17.7249 47.2853 17.5426C47.7493 17.357 48.2863 17.2642 48.8961 17.2642C49.3204 17.2642 49.7264 17.3139 50.1142 17.4134C50.5053 17.5128 50.8516 17.6669 51.1532 17.8757C51.4582 18.0845 51.6984 18.353 51.8741 18.6811C52.0498 19.0059 52.1376 19.3954 52.1376 19.8494V25H50.1291V23.9411H50.0694C49.9468 24.1797 49.7827 24.3902 49.5772 24.5724C49.3717 24.7514 49.1248 24.8923 48.8365 24.995C48.5481 25.0945 48.215 25.1442 47.8372 25.1442ZM48.4437 23.6825C48.7553 23.6825 49.0304 23.6212 49.269 23.4986C49.5076 23.3726 49.6949 23.2036 49.8308 22.9915C49.9667 22.7794 50.0346 22.5391 50.0346 22.2706V21.4602C49.9683 21.5033 49.8772 21.5431 49.7612 21.5795C49.6485 21.6127 49.5209 21.6442 49.3784 21.674C49.2359 21.7005 49.0933 21.7254 48.9508 21.7486C48.8083 21.7685 48.679 21.7867 48.563 21.8033C48.3145 21.8397 48.0974 21.8977 47.9118 21.9773C47.7261 22.0568 47.582 22.1645 47.4792 22.3004C47.3765 22.433 47.3251 22.5987 47.3251 22.7976C47.3251 23.0859 47.4295 23.3063 47.6383 23.4588C47.8504 23.608 48.1189 23.6825 48.4437 23.6825ZM55.8986 20.5852V25H53.7807V17.3636H55.7992V18.7109H55.8887C56.0577 18.2668 56.3411 17.9155 56.7388 17.657C57.1365 17.3951 57.6188 17.2642 58.1855 17.2642C58.7158 17.2642 59.1782 17.3802 59.5726 17.6122C59.967 17.8442 60.2736 18.1757 60.4924 18.6065C60.7111 19.0341 60.8205 19.5445 60.8205 20.1378V25H58.7026V20.5156C58.7059 20.0483 58.5866 19.6837 58.3446 19.4219C58.1027 19.1567 57.7696 19.0241 57.3453 19.0241C57.0603 19.0241 56.8084 19.0855 56.5897 19.2081C56.3742 19.3307 56.2052 19.5097 56.0826 19.745C55.9632 19.977 55.9019 20.2571 55.8986 20.5852ZM64.6673 25.1442C64.18 25.1442 63.7459 25.0597 63.3647 24.8906C62.9835 24.7183 62.6819 24.4647 62.4599 24.13C62.2411 23.7919 62.1317 23.371 62.1317 22.8672C62.1317 22.4429 62.2096 22.0866 62.3654 21.7983C62.5212 21.5099 62.7333 21.2779 63.0018 21.1023C63.2702 20.9266 63.5752 20.794 63.9165 20.7045C64.2612 20.6151 64.6225 20.5521 65.0004 20.5156C65.4445 20.4692 65.8024 20.4261 66.0742 20.3864C66.346 20.3433 66.5432 20.2803 66.6658 20.1974C66.7885 20.1146 66.8498 19.992 66.8498 19.8295V19.7997C66.8498 19.4848 66.7504 19.2412 66.5515 19.0689C66.3559 18.8965 66.0775 18.8104 65.7163 18.8104C65.3351 18.8104 65.0318 18.8949 64.8065 19.0639C64.5811 19.2296 64.4319 19.4384 64.359 19.6903L62.4002 19.5312C62.4996 19.0672 62.6952 18.6662 62.9869 18.3281C63.2785 17.9867 63.6547 17.7249 64.1154 17.5426C64.5794 17.357 65.1164 17.2642 65.7262 17.2642C66.1504 17.2642 66.5565 17.3139 66.9442 17.4134C67.3353 17.5128 67.6817 17.6669 67.9833 17.8757C68.2882 18.0845 68.5285 18.353 68.7042 18.6811C68.8799 19.0059 68.9677 19.3954 68.9677 19.8494V25H66.9592V23.9411H66.8995C66.7769 24.1797 66.6128 24.3902 66.4073 24.5724C66.2018 24.7514 65.9549 24.8923 65.6665 24.995C65.3782 25.0945 65.0451 25.1442 64.6673 25.1442ZM65.2738 23.6825C65.5853 23.6825 65.8604 23.6212 66.0991 23.4986C66.3377 23.3726 66.525 23.2036 66.6609 22.9915C66.7968 22.7794 66.8647 22.5391 66.8647 22.2706V21.4602C66.7984 21.5033 66.7073 21.5431 66.5913 21.5795C66.4786 21.6127 66.351 21.6442 66.2085 21.674C66.0659 21.7005 65.9234 21.7254 65.7809 21.7486C65.6384 21.7685 65.5091 21.7867 65.3931 21.8033C65.1445 21.8397 64.9274 21.8977 64.7418 21.9773C64.5562 22.0568 64.4121 22.1645 64.3093 22.3004C64.2066 22.433 64.1552 22.5987 64.1552 22.7976C64.1552 23.0859 64.2596 23.3063 64.4684 23.4588C64.6805 23.608 64.949 23.6825 65.2738 23.6825ZM71.8487 25.1293C71.5206 25.1293 71.2389 25.0133 71.0036 24.7812C70.7715 24.5459 70.6555 24.2642 70.6555 23.9361C70.6555 23.6113 70.7715 23.3329 71.0036 23.1009C71.2389 22.8688 71.5206 22.7528 71.8487 22.7528C72.1669 22.7528 72.4453 22.8688 72.6839 23.1009C72.9226 23.3329 73.0419 23.6113 73.0419 23.9361C73.0419 24.1548 72.9856 24.3554 72.8729 24.5376C72.7635 24.7166 72.6193 24.8608 72.4403 24.9702C72.2614 25.0762 72.0642 25.1293 71.8487 25.1293ZM77.5946 25.1243C77.0146 25.1243 76.4893 24.9751 76.0186 24.6768C75.5513 24.3752 75.1801 23.9328 74.905 23.3494C74.6332 22.7628 74.4973 22.0436 74.4973 21.1918C74.4973 20.3168 74.6382 19.5893 74.9199 19.0092C75.2016 18.4259 75.5762 17.9901 76.0435 17.7017C76.5141 17.41 77.0295 17.2642 77.5897 17.2642C78.0172 17.2642 78.3735 17.3371 78.6586 17.483C78.9469 17.6255 79.1789 17.8045 79.3546 18.0199C79.5336 18.232 79.6694 18.4408 79.7623 18.6463H79.8269V14.8182H81.9398V25H79.8517V23.777H79.7623C79.6628 23.9891 79.522 24.1996 79.3397 24.4084C79.1607 24.6139 78.927 24.7846 78.6387 24.9205C78.3536 25.0563 78.0056 25.1243 77.5946 25.1243ZM78.2658 23.4389C78.6072 23.4389 78.8955 23.3461 79.1309 23.1605C79.3695 22.9716 79.5518 22.7081 79.6777 22.37C79.807 22.032 79.8716 21.6359 79.8716 21.1818C79.8716 20.7277 79.8087 20.3333 79.6827 19.9986C79.5568 19.6638 79.3745 19.4053 79.1358 19.223C78.8972 19.0407 78.6072 18.9496 78.2658 18.9496C77.9178 18.9496 77.6245 19.044 77.3858 19.233C77.1472 19.4219 76.9666 19.6837 76.8439 20.0185C76.7213 20.3532 76.66 20.741 76.66 21.1818C76.66 21.6259 76.7213 22.0187 76.8439 22.3601C76.9699 22.6982 77.1505 22.9633 77.3858 23.1555C77.6245 23.3445 77.9178 23.4389 78.2658 23.4389ZM83.6811 25V17.3636H85.7344V18.696H85.8139C85.9531 18.2221 86.1868 17.8641 86.5149 17.6222C86.843 17.3769 87.2209 17.2543 87.6484 17.2543C87.7545 17.2543 87.8688 17.2609 87.9915 17.2741C88.1141 17.2874 88.2218 17.3056 88.3146 17.3288V19.2081C88.2152 19.1783 88.0777 19.1518 87.902 19.1286C87.7263 19.1054 87.5656 19.0938 87.4197 19.0938C87.1082 19.0938 86.8298 19.1617 86.5845 19.2976C86.3426 19.4302 86.1503 19.6158 86.0078 19.8544C85.8686 20.093 85.799 20.3681 85.799 20.6797V25H83.6811ZM91.3684 25.1442C90.8812 25.1442 90.447 25.0597 90.0659 24.8906C89.6847 24.7183 89.3831 24.4647 89.161 24.13C88.9423 23.7919 88.8329 23.371 88.8329 22.8672C88.8329 22.4429 88.9108 22.0866 89.0666 21.7983C89.2224 21.5099 89.4345 21.2779 89.7029 21.1023C89.9714 20.9266 90.2763 20.794 90.6177 20.7045C90.9624 20.6151 91.3237 20.5521 91.7015 20.5156C92.1457 20.4692 92.5036 20.4261 92.7754 20.3864C93.0472 20.3433 93.2444 20.2803 93.367 20.1974C93.4896 20.1146 93.551 19.992 93.551 19.8295V19.7997C93.551 19.4848 93.4515 19.2412 93.2527 19.0689C93.0571 18.8965 92.7787 18.8104 92.4174 18.8104C92.0363 18.8104 91.733 18.8949 91.5076 19.0639C91.2823 19.2296 91.1331 19.4384 91.0602 19.6903L89.1014 19.5312C89.2008 19.0672 89.3964 18.6662 89.688 18.3281C89.9797 17.9867 90.3559 17.7249 90.8166 17.5426C91.2806 17.357 91.8175 17.2642 92.4274 17.2642C92.8516 17.2642 93.2576 17.3139 93.6454 17.4134C94.0365 17.5128 94.3829 17.6669 94.6845 17.8757C94.9894 18.0845 95.2297 18.353 95.4054 18.6811C95.581 19.0059 95.6689 19.3954 95.6689 19.8494V25H93.6603V23.9411H93.6007C93.478 24.1797 93.314 24.3902 93.1085 24.5724C92.903 24.7514 92.6561 24.8923 92.3677 24.995C92.0794 25.0945 91.7463 25.1442 91.3684 25.1442ZM91.975 23.6825C92.2865 23.6825 92.5616 23.6212 92.8002 23.4986C93.0389 23.3726 93.2261 23.2036 93.362 22.9915C93.4979 22.7794 93.5659 22.5391 93.5659 22.2706V21.4602C93.4996 21.5033 93.4084 21.5431 93.2924 21.5795C93.1797 21.6127 93.0521 21.6442 92.9096 21.674C92.7671 21.7005 92.6246 21.7254 92.4821 21.7486C92.3395 21.7685 92.2103 21.7867 92.0943 21.8033C91.8457 21.8397 91.6286 21.8977 91.443 21.9773C91.2574 22.0568 91.1132 22.1645 91.0105 22.3004C90.9077 22.433 90.8564 22.5987 90.8564 22.7976C90.8564 23.0859 90.9608 23.3063 91.1696 23.4588C91.3817 23.608 91.6502 23.6825 91.975 23.6825ZM103.666 19.5412L101.727 19.6605C101.694 19.4948 101.622 19.3456 101.513 19.2131C101.404 19.0772 101.259 18.9695 101.08 18.8899C100.905 18.8071 100.694 18.7656 100.449 18.7656C100.121 18.7656 99.8442 18.8352 99.6188 18.9744C99.3934 19.1103 99.2807 19.2926 99.2807 19.5213C99.2807 19.7036 99.3536 19.8577 99.4995 19.9837C99.6453 20.1096 99.8955 20.2107 100.25 20.2869L101.632 20.5653C102.375 20.7178 102.928 20.9631 103.293 21.3011C103.657 21.6392 103.84 22.0833 103.84 22.6335C103.84 23.134 103.692 23.5732 103.397 23.951C103.106 24.3288 102.704 24.6238 102.194 24.8359C101.687 25.0447 101.102 25.1491 100.439 25.1491C99.4282 25.1491 98.6228 24.9387 98.0229 24.5178C97.4263 24.0935 97.0766 23.5168 96.9739 22.7876L99.057 22.6783C99.12 22.9865 99.2724 23.2218 99.5144 23.3842C99.7563 23.5433 100.066 23.6229 100.444 23.6229C100.815 23.6229 101.114 23.5516 101.339 23.4091C101.568 23.2633 101.684 23.076 101.687 22.8473C101.684 22.6551 101.602 22.4976 101.443 22.375C101.284 22.2491 101.039 22.1529 100.708 22.0866L99.3851 21.8232C98.6394 21.674 98.0842 21.4155 97.7196 21.0476C97.3584 20.6797 97.1777 20.2107 97.1777 19.6406C97.1777 19.1501 97.3103 18.7275 97.5755 18.3729C97.8439 18.0182 98.2201 17.7448 98.704 17.5526C99.1912 17.3603 99.7613 17.2642 100.414 17.2642C101.379 17.2642 102.138 17.468 102.691 17.8757C103.248 18.2834 103.573 18.8385 103.666 19.5412ZM107.291 20.5852V25H105.173V17.3636H107.192V18.7109H107.281C107.45 18.2668 107.734 17.9155 108.131 17.657C108.529 17.3951 109.011 17.2642 109.578 17.2642C110.108 17.2642 110.571 17.3802 110.965 17.6122C111.36 17.8442 111.666 18.1757 111.885 18.6065C112.104 19.0341 112.213 19.5445 112.213 20.1378V25H110.095V20.5156C110.098 20.0483 109.979 19.6837 109.737 19.4219C109.495 19.1567 109.162 19.0241 108.738 19.0241C108.453 19.0241 108.201 19.0855 107.982 19.2081C107.767 19.3307 107.598 19.5097 107.475 19.745C107.356 19.977 107.295 20.2571 107.291 20.5852ZM116.06 25.1442C115.573 25.1442 115.138 25.0597 114.757 24.8906C114.376 24.7183 114.075 24.4647 113.852 24.13C113.634 23.7919 113.524 23.371 113.524 22.8672C113.524 22.4429 113.602 22.0866 113.758 21.7983C113.914 21.5099 114.126 21.2779 114.394 21.1023C114.663 20.9266 114.968 20.794 115.309 20.7045C115.654 20.6151 116.015 20.5521 116.393 20.5156C116.837 20.4692 117.195 20.4261 117.467 20.3864C117.739 20.3433 117.936 20.2803 118.058 20.1974C118.181 20.1146 118.242 19.992 118.242 19.8295V19.7997C118.242 19.4848 118.143 19.2412 117.944 19.0689C117.749 18.8965 117.47 18.8104 117.109 18.8104C116.728 18.8104 116.424 18.8949 116.199 19.0639C115.974 19.2296 115.825 19.4384 115.752 19.6903L113.793 19.5312C113.892 19.0672 114.088 18.6662 114.379 18.3281C114.671 17.9867 115.047 17.7249 115.508 17.5426C115.972 17.357 116.509 17.2642 117.119 17.2642C117.543 17.2642 117.949 17.3139 118.337 17.4134C118.728 17.5128 119.074 17.6669 119.376 17.8757C119.681 18.0845 119.921 18.353 120.097 18.6811C120.272 19.0059 120.36 19.3954 120.36 19.8494V25H118.352V23.9411H118.292C118.169 24.1797 118.005 24.3902 117.8 24.5724C117.594 24.7514 117.347 24.8923 117.059 24.995C116.771 25.0945 116.438 25.1442 116.06 25.1442ZM116.666 23.6825C116.978 23.6825 117.253 23.6212 117.492 23.4986C117.73 23.3726 117.918 23.2036 118.053 22.9915C118.189 22.7794 118.257 22.5391 118.257 22.2706V21.4602C118.191 21.5033 118.1 21.5431 117.984 21.5795C117.871 21.6127 117.744 21.6442 117.601 21.674C117.459 21.7005 117.316 21.7254 117.173 21.7486C117.031 21.7685 116.902 21.7867 116.786 21.8033C116.537 21.8397 116.32 21.8977 116.134 21.9773C115.949 22.0568 115.805 22.1645 115.702 22.3004C115.599 22.433 115.548 22.5987 115.548 22.7976C115.548 23.0859 115.652 23.3063 115.861 23.4588C116.073 23.608 116.342 23.6825 116.666 23.6825ZM122.003 25V17.3636H124.057V18.696H124.136C124.275 18.2221 124.509 17.8641 124.837 17.6222C125.165 17.3769 125.543 17.2543 125.971 17.2543C126.077 17.2543 126.191 17.2609 126.314 17.2741C126.436 17.2874 126.544 17.3056 126.637 17.3288V19.2081C126.537 19.1783 126.4 19.1518 126.224 19.1286C126.049 19.1054 125.888 19.0938 125.742 19.0938C125.43 19.0938 125.152 19.1617 124.907 19.2976C124.665 19.4302 124.473 19.6158 124.33 19.8544C124.191 20.093 124.121 20.3681 124.121 20.6797V25H122.003ZM134.399 27.9332C133.342 27.9332 132.4 27.7891 131.575 27.5007C130.75 27.2157 130.052 26.7964 129.482 26.2429C128.912 25.6927 128.478 25.0199 128.179 24.2244C127.881 23.429 127.732 22.5241 127.732 21.5099C127.732 20.509 127.881 19.6009 128.179 18.7855C128.481 17.9702 128.92 17.2708 129.497 16.6875C130.074 16.1009 130.778 15.6501 131.61 15.3352C132.445 15.0204 133.396 14.8629 134.463 14.8629C135.451 14.8629 136.333 15.0071 137.108 15.2955C137.887 15.5838 138.547 15.9948 139.087 16.5284C139.631 17.0587 140.043 17.6901 140.325 18.4226C140.61 19.1518 140.751 19.9588 140.748 20.8438C140.751 21.4536 140.698 22.0137 140.588 22.5241C140.479 23.0346 140.307 23.4804 140.071 23.8615C139.839 24.2393 139.534 24.5393 139.157 24.7614C138.779 24.9801 138.321 25.1044 137.784 25.1342C137.4 25.1641 137.088 25.1359 136.85 25.0497C136.611 24.9635 136.429 24.8359 136.303 24.6669C136.18 24.4946 136.101 24.294 136.064 24.0653H136.005C135.925 24.2642 135.769 24.4448 135.537 24.6072C135.305 24.7663 135.022 24.8906 134.687 24.9801C134.356 25.0663 134.003 25.0978 133.628 25.0746C133.237 25.0514 132.866 24.9602 132.515 24.8011C132.167 24.642 131.857 24.4117 131.585 24.1101C131.316 23.8085 131.104 23.4356 130.949 22.9915C130.796 22.5473 130.718 22.0336 130.715 21.4503C130.718 20.8736 130.799 20.3714 130.958 19.9439C131.121 19.5163 131.335 19.1567 131.6 18.8651C131.868 18.5734 132.167 18.3447 132.495 18.179C132.823 18.0133 133.153 17.9072 133.484 17.8608C133.859 17.8045 134.213 17.8045 134.548 17.8608C134.883 17.9171 135.164 18.0083 135.393 18.1342C135.625 18.2602 135.769 18.3961 135.826 18.5419H135.895V17.9851H137.451V22.8374C137.455 23.0661 137.506 23.2434 137.605 23.3693C137.705 23.4953 137.839 23.5582 138.008 23.5582C138.237 23.5582 138.427 23.4571 138.58 23.255C138.736 23.0528 138.852 22.7429 138.928 22.3253C139.007 21.9077 139.047 21.3757 139.047 20.7294C139.047 20.1063 138.964 19.5594 138.799 19.0888C138.636 18.6148 138.408 18.2121 138.113 17.8807C137.821 17.5459 137.481 17.2741 137.093 17.0653C136.706 16.8565 136.285 16.7041 135.831 16.608C135.38 16.5118 134.916 16.4638 134.439 16.4638C133.613 16.4638 132.892 16.5897 132.276 16.8416C131.659 17.0902 131.146 17.4399 130.735 17.8906C130.324 18.3414 130.016 18.87 129.81 19.4766C129.608 20.0798 129.505 20.7377 129.502 21.4503C129.505 22.2358 129.614 22.9318 129.83 23.5384C130.049 24.1416 130.37 24.6487 130.794 25.0597C131.219 25.4706 131.742 25.7822 132.365 25.9943C132.989 26.2064 133.704 26.3125 134.513 26.3125C134.894 26.3125 135.267 26.2843 135.632 26.228C135.996 26.175 136.326 26.1087 136.621 26.0291C136.916 25.9529 137.153 25.8783 137.332 25.8054L137.824 27.2472C137.615 27.3665 137.332 27.4775 136.974 27.5803C136.619 27.6863 136.218 27.7708 135.771 27.8338C135.327 27.9001 134.869 27.9332 134.399 27.9332ZM134.17 23.4389C134.574 23.4389 134.896 23.361 135.135 23.2053C135.377 23.0495 135.549 22.8191 135.652 22.5142C135.758 22.206 135.807 21.8265 135.801 21.3757C135.797 20.978 135.746 20.6416 135.647 20.3665C135.551 20.0881 135.383 19.8776 135.145 19.7351C134.909 19.5893 134.581 19.5163 134.16 19.5163C133.792 19.5163 133.479 19.5942 133.221 19.75C132.965 19.9058 132.77 20.1245 132.634 20.4062C132.501 20.6847 132.433 21.0128 132.43 21.3906C132.433 21.742 132.49 22.075 132.599 22.3899C132.708 22.7015 132.889 22.955 133.141 23.1506C133.393 23.3428 133.736 23.4389 134.17 23.4389ZM145.636 25.1491C144.85 25.1491 144.174 24.9901 143.607 24.6719C143.044 24.3504 142.61 23.8963 142.305 23.3097C142 22.7197 141.847 22.022 141.847 21.2166C141.847 20.4311 142 19.7417 142.305 19.1484C142.61 18.5552 143.039 18.0928 143.593 17.7614C144.149 17.4299 144.802 17.2642 145.551 17.2642C146.055 17.2642 146.524 17.3454 146.958 17.5078C147.396 17.6669 147.777 17.9072 148.102 18.2287C148.43 18.5502 148.685 18.9545 148.867 19.4418C149.05 19.9257 149.141 20.4924 149.141 21.142V21.7237H142.693V20.4112H147.147C147.147 20.1063 147.081 19.8362 146.948 19.6009C146.816 19.3655 146.632 19.1816 146.396 19.049C146.164 18.9131 145.894 18.8452 145.586 18.8452C145.265 18.8452 144.98 18.9197 144.731 19.0689C144.486 19.2147 144.294 19.4119 144.154 19.6605C144.015 19.9058 143.944 20.1792 143.941 20.4808V21.7287C143.941 22.1065 144.01 22.433 144.149 22.7081C144.292 22.9832 144.492 23.1953 144.751 23.3445C145.009 23.4936 145.316 23.5682 145.671 23.5682C145.906 23.5682 146.121 23.535 146.317 23.4688C146.512 23.4025 146.68 23.303 146.819 23.1705C146.958 23.0379 147.064 22.8755 147.137 22.6832L149.096 22.8125C148.997 23.2831 148.793 23.6941 148.485 24.0455C148.18 24.3935 147.785 24.6652 147.301 24.8608C146.821 25.053 146.266 25.1491 145.636 25.1491ZM150.523 25V17.3636H152.541V18.7109H152.631C152.79 18.2635 153.055 17.9105 153.426 17.652C153.798 17.3935 154.242 17.2642 154.759 17.2642C155.282 17.2642 155.728 17.3951 156.096 17.657C156.464 17.9155 156.709 18.2668 156.832 18.7109H156.911C157.067 18.2734 157.349 17.9238 157.757 17.6619C158.168 17.3968 158.653 17.2642 159.213 17.2642C159.926 17.2642 160.504 17.4912 160.948 17.9453C161.396 18.3961 161.619 19.0357 161.619 19.8643V25H159.507V20.282C159.507 19.8577 159.394 19.5395 159.169 19.3274C158.943 19.1153 158.661 19.0092 158.323 19.0092C157.939 19.0092 157.639 19.1319 157.423 19.3771C157.208 19.6191 157.1 19.9389 157.1 20.3366V25H155.047V20.2372C155.047 19.8627 154.939 19.5644 154.724 19.3423C154.512 19.1203 154.232 19.0092 153.884 19.0092C153.648 19.0092 153.436 19.0689 153.247 19.1882C153.062 19.3042 152.914 19.4683 152.805 19.6804C152.695 19.8892 152.641 20.1345 152.641 20.4162V25H150.523ZM165.47 25.1442C164.983 25.1442 164.549 25.0597 164.167 24.8906C163.786 24.7183 163.485 24.4647 163.263 24.13C163.044 23.7919 162.934 23.371 162.934 22.8672C162.934 22.4429 163.012 22.0866 163.168 21.7983C163.324 21.5099 163.536 21.2779 163.805 21.1023C164.073 20.9266 164.378 20.794 164.719 20.7045C165.064 20.6151 165.425 20.5521 165.803 20.5156C166.247 20.4692 166.605 20.4261 166.877 20.3864C167.149 20.3433 167.346 20.2803 167.469 20.1974C167.591 20.1146 167.653 19.992 167.653 19.8295V19.7997C167.653 19.4848 167.553 19.2412 167.354 19.0689C167.159 18.8965 166.88 18.8104 166.519 18.8104C166.138 18.8104 165.835 18.8949 165.609 19.0639C165.384 19.2296 165.235 19.4384 165.162 19.6903L163.203 19.5312C163.302 19.0672 163.498 18.6662 163.79 18.3281C164.081 17.9867 164.457 17.7249 164.918 17.5426C165.382 17.357 165.919 17.2642 166.529 17.2642C166.953 17.2642 167.359 17.3139 167.747 17.4134C168.138 17.5128 168.484 17.6669 168.786 17.8757C169.091 18.0845 169.331 18.353 169.507 18.6811C169.683 19.0059 169.77 19.3954 169.77 19.8494V25H167.762V23.9411H167.702C167.58 24.1797 167.416 24.3902 167.21 24.5724C167.005 24.7514 166.758 24.8923 166.469 24.995C166.181 25.0945 165.848 25.1442 165.47 25.1442ZM166.077 23.6825C166.388 23.6825 166.663 23.6212 166.902 23.4986C167.14 23.3726 167.328 23.2036 167.464 22.9915C167.599 22.7794 167.667 22.5391 167.667 22.2706V21.4602C167.601 21.5033 167.51 21.5431 167.394 21.5795C167.281 21.6127 167.154 21.6442 167.011 21.674C166.869 21.7005 166.726 21.7254 166.584 21.7486C166.441 21.7685 166.312 21.7867 166.196 21.8033C165.947 21.8397 165.73 21.8977 165.545 21.9773C165.359 22.0568 165.215 22.1645 165.112 22.3004C165.009 22.433 164.958 22.5987 164.958 22.7976C164.958 23.0859 165.062 23.3063 165.271 23.4588C165.483 23.608 165.752 23.6825 166.077 23.6825ZM171.414 25V17.3636H173.531V25H171.414ZM172.477 16.3793C172.163 16.3793 171.892 16.2749 171.667 16.0661C171.445 15.8539 171.334 15.6004 171.334 15.3054C171.334 15.0137 171.445 14.7635 171.667 14.5547C171.892 14.3426 172.163 14.2365 172.477 14.2365C172.792 14.2365 173.061 14.3426 173.283 14.5547C173.508 14.7635 173.621 15.0137 173.621 15.3054C173.621 15.6004 173.508 15.8539 173.283 16.0661C173.061 16.2749 172.792 16.3793 172.477 16.3793ZM177.346 14.8182V25H175.228V14.8182H177.346ZM180.28 25.1293C179.952 25.1293 179.671 25.0133 179.435 24.7812C179.203 24.5459 179.087 24.2642 179.087 23.9361C179.087 23.6113 179.203 23.3329 179.435 23.1009C179.671 22.8688 179.952 22.7528 180.28 22.7528C180.599 22.7528 180.877 22.8688 181.116 23.1009C181.354 23.3329 181.474 23.6113 181.474 23.9361C181.474 24.1548 181.417 24.3554 181.305 24.5376C181.195 24.7166 181.051 24.8608 180.872 24.9702C180.693 25.0762 180.496 25.1293 180.28 25.1293ZM186.663 25.1491C185.88 25.1491 185.208 24.9834 184.644 24.652C184.084 24.3172 183.653 23.8532 183.352 23.2599C183.053 22.6667 182.904 21.9839 182.904 21.2116C182.904 20.4295 183.055 19.7434 183.357 19.1534C183.661 18.5601 184.094 18.0978 184.654 17.7663C185.214 17.4316 185.88 17.2642 186.653 17.2642C187.319 17.2642 187.902 17.3852 188.403 17.6271C188.903 17.8691 189.299 18.2088 189.591 18.6463C189.883 19.0838 190.043 19.5975 190.073 20.1875H188.075C188.018 19.8063 187.869 19.4998 187.627 19.2678C187.388 19.0324 187.075 18.9148 186.688 18.9148C186.359 18.9148 186.073 19.0043 185.827 19.1832C185.585 19.3589 185.397 19.6158 185.261 19.9538C185.125 20.2919 185.057 20.7012 185.057 21.1818C185.057 21.669 185.123 22.0833 185.256 22.4247C185.392 22.7661 185.582 23.0263 185.827 23.2053C186.073 23.3842 186.359 23.4737 186.688 23.4737C186.929 23.4737 187.147 23.424 187.339 23.3246C187.534 23.2251 187.695 23.081 187.821 22.892C187.95 22.6998 188.035 22.4695 188.075 22.201H190.073C190.04 22.7843 189.881 23.2981 189.596 23.7422C189.314 24.183 188.925 24.5277 188.428 24.7763C187.93 25.0249 187.342 25.1491 186.663 25.1491ZM191.389 25V23.7372L195.128 19.1087V19.054H191.519V17.3636H197.678V18.7408L194.169 23.255V23.3097H197.808V25H191.389Z" fill="#DE091C"/>
<path d="M13.218 14.092L14.109 14.546L13.218 14.092ZM14.0918 13.218L14.5458 14.109L14.0918 13.218ZM14.0918 26.782L14.5458 25.891H14.5458L14.0918 26.782ZM13.218 25.908L12.327 26.362H12.327L13.218 25.908ZM30.7822 25.908L29.8912 25.454L30.7822 25.908ZM29.9078 26.782L29.4538 25.891L29.9078 26.782ZM30.7822 14.092L29.8912 14.546V14.546L30.7822 14.092ZM29.9078 13.218L30.3618 12.327V12.327L29.9078 13.218ZM14.5892 13.192C14.1429 12.8666 13.5174 12.9646 13.192 13.4108C12.8666 13.8571 12.9646 14.4826 13.4108 14.808L14.5892 13.192ZM22.2286 20L21.6394 20.808C21.9987 21.07 22.4877 21.0633 22.8397 20.7915L22.2286 20ZM30.6111 14.7915C31.0482 14.454 31.129 13.826 30.7915 13.3889C30.454 12.9517 29.826 12.8709 29.3888 13.2085L30.6111 14.7915ZM30 16.2V23.8H32V16.2H30ZM27.8002 26H16.2002V28H27.8002V26ZM14 23.8V16.2H12V23.8H14ZM16.2002 14H27.8002V12H16.2002V14ZM14 16.2C14 15.6234 14.0008 15.2511 14.0239 14.9678C14.0461 14.6962 14.0838 14.5955 14.109 14.546L12.327 13.6381C12.1342 14.0164 12.0629 14.4096 12.0306 14.805C11.9992 15.1886 12 15.6564 12 16.2H14ZM16.2002 12C15.6566 12 15.1887 11.9992 14.805 12.0306C14.4096 12.0629 14.0162 12.1342 13.6378 12.327L14.5458 14.109C14.5952 14.0838 14.6959 14.0461 14.9678 14.0239C15.2513 14.0008 15.6237 14 16.2002 14V12ZM14.109 14.546C14.205 14.3576 14.3579 14.2047 14.5458 14.109L13.6378 12.327C13.0731 12.6147 12.6145 13.0738 12.327 13.6381L14.109 14.546ZM16.2002 26C15.6237 26 15.2513 25.9992 14.9678 25.9761C14.696 25.9538 14.5952 25.9161 14.5458 25.891L13.6378 27.673C14.0162 27.8658 14.4096 27.9371 14.805 27.9694C15.1887 28.0008 15.6566 28 16.2002 28V26ZM12 23.8C12 24.3435 11.9992 24.8113 12.0306 25.195C12.0629 25.5904 12.1342 25.9836 12.327 26.362L14.109 25.454C14.0838 25.4046 14.0461 25.3039 14.0239 25.0322C14.0008 24.7488 14 24.3765 14 23.8H12ZM14.5458 25.891C14.3578 25.7952 14.2049 25.6424 14.109 25.454L12.327 26.362C12.6145 26.9264 13.0732 27.3853 13.6378 27.673L14.5458 25.891ZM30 23.8C30 24.3766 29.9993 24.7489 29.9762 25.0323C29.954 25.3041 29.9163 25.4047 29.8912 25.454L31.6732 26.362C31.8661 25.9835 31.9373 25.5902 31.9696 25.1949C32.0008 24.8112 32 24.3434 32 23.8H30ZM27.8002 28C28.3438 28 28.8115 28.0008 29.1951 27.9694C29.5904 27.9371 29.9835 27.8657 30.3618 27.673L29.4538 25.891C29.4043 25.9162 29.3036 25.9539 29.0321 25.9761C28.7489 25.9992 28.3767 26 27.8002 26V28ZM29.8912 25.454C29.7956 25.6417 29.6425 25.7948 29.4538 25.891L30.3618 27.673C30.9257 27.3856 31.3854 26.927 31.6732 26.362L29.8912 25.454ZM32 16.2C32 15.6565 32.0008 15.1887 31.9695 14.8051C31.9373 14.4098 31.8661 14.0165 31.6732 13.6381L29.8912 14.546C29.9164 14.5954 29.954 14.696 29.9762 14.9677C29.9993 15.2511 30 15.6233 30 16.2H32ZM27.8002 14C28.3768 14 28.7489 14.0008 29.0321 14.0239C29.3036 14.0461 29.4043 14.0838 29.4538 14.109L30.3618 12.327C29.9835 12.1342 29.5904 12.0629 29.1951 12.0306C28.8115 11.9992 28.3437 12 27.8002 12V14ZM31.6732 13.6381C31.3854 13.0732 30.9259 12.6144 30.3618 12.327L29.4538 14.109C29.6424 14.2051 29.7956 14.3583 29.8912 14.546L31.6732 13.6381ZM13.4108 14.808L21.6394 20.808L22.8177 19.192L14.5892 13.192L13.4108 14.808ZM22.8397 20.7915L30.6111 14.7915L29.3888 13.2085L21.6175 19.2085L22.8397 20.7915Z" fill="#DE091C"/>
<defs>
<filter id="filter0_d_233_3123" x="0" y="0" width="214" height="40" filterUnits="userSpaceOnUse" color-interpolation-filters="sRGB">
<feFlood flood-opacity="0" result="BackgroundImageFix"/>
<feColorMatrix in="SourceAlpha" type="matrix" values="0 0 0 0 0 0 0 0 0 0 0 0 0 0 0 0 0 0 127 0" result="hardAlpha"/>
<feOffset/>
<feGaussianBlur stdDeviation="2"/>
<feComposite in2="hardAlpha" operator="out"/>
<feColorMatrix type="matrix" values="0 0 0 0 0 0 0 0 0 0 0 0 0 0 0 0 0 0 0.25 0"/>
<feBlend mode="normal" in2="BackgroundImageFix" result="effect1_dropShadow_233_3123"/>
<feBlend mode="normal" in="SourceGraphic" in2="effect1_dropShadow_233_3123" result="shape"/>
</filter>
</defs>
</svg>
