<svg width="21" height="21" viewBox="0 0 21 21" fill="none" xmlns="http://www.w3.org/2000/svg">
<path d="M14.0821 12.6679C13.6916 12.2774 13.0584 12.2774 12.6679 12.6679C12.2774 13.0584 12.2774 13.6916 12.6679 14.0821L14.0821 12.6679ZM18.4179 19.8321C18.8084 20.2226 19.4416 20.2226 19.8321 19.8321C20.2226 19.4416 20.2226 18.8084 19.8321 18.4179L18.4179 19.8321ZM8.58333 14.2917C5.43071 14.2917 2.875 11.736 2.875 8.58333H0.875C0.875 12.8405 4.32614 16.2917 8.58333 16.2917V14.2917ZM2.875 8.58333C2.875 5.43071 5.43071 2.875 8.58333 2.875V0.875C4.32614 0.875 0.875 4.32614 0.875 8.58333H2.875ZM8.58333 2.875C11.736 2.875 14.2917 5.43071 14.2917 8.58333H16.2917C16.2917 4.32614 12.8405 0.875 8.58333 0.875V2.875ZM14.2917 8.58333C14.2917 11.736 11.736 14.2917 8.58333 14.2917V16.2917C12.8405 16.2917 16.2917 12.8405 16.2917 8.58333H14.2917ZM12.6679 14.0821L18.4179 19.8321L19.8321 18.4179L14.0821 12.6679L12.6679 14.0821Z" fill="#E5505D"/>
</svg>
