<svg width="252" height="37" viewBox="0 0 252 37" fill="none" xmlns="http://www.w3.org/2000/svg">
<path d="M211.119 33V31.7273L215.057 27.6477C215.477 27.2045 215.824 26.8163 216.097 26.483C216.373 26.1458 216.58 25.8258 216.716 25.5227C216.852 25.2197 216.92 24.8977 216.92 24.5568C216.92 24.1705 216.83 23.8371 216.648 23.5568C216.466 23.2727 216.218 23.0549 215.903 22.9034C215.589 22.7481 215.235 22.6705 214.841 22.6705C214.424 22.6705 214.061 22.7557 213.75 22.9261C213.439 23.0966 213.201 23.3371 213.034 23.6477C212.867 23.9583 212.784 24.322 212.784 24.7386H211.108C211.108 24.0303 211.271 23.411 211.597 22.8807C211.922 22.3504 212.369 21.9394 212.938 21.6477C213.506 21.3523 214.152 21.2045 214.875 21.2045C215.606 21.2045 216.25 21.3504 216.807 21.642C217.367 21.9299 217.805 22.3239 218.119 22.8239C218.434 23.3201 218.591 23.8807 218.591 24.5057C218.591 24.9375 218.509 25.3598 218.347 25.7727C218.188 26.1856 217.909 26.6458 217.511 27.1534C217.114 27.6572 216.561 28.2689 215.852 28.9886L213.54 31.4091V31.4943H218.778V33H211.119ZM224.983 33.1932C224.085 33.1894 223.318 32.9527 222.682 32.483C222.045 32.0133 221.559 31.3295 221.222 30.4318C220.884 29.5341 220.716 28.4527 220.716 27.1875C220.716 25.9261 220.884 24.8485 221.222 23.9545C221.563 23.0606 222.051 22.3788 222.688 21.9091C223.328 21.4394 224.093 21.2045 224.983 21.2045C225.873 21.2045 226.636 21.4413 227.273 21.9148C227.909 22.3845 228.396 23.0663 228.733 23.9602C229.074 24.8504 229.244 25.9261 229.244 27.1875C229.244 28.4564 229.076 29.5398 228.739 30.4375C228.402 31.3314 227.915 32.0152 227.278 32.4886C226.642 32.9583 225.877 33.1932 224.983 33.1932ZM224.983 31.6761C225.771 31.6761 226.386 31.2917 226.83 30.5227C227.277 29.7538 227.5 28.642 227.5 27.1875C227.5 26.2216 227.398 25.4053 227.193 24.7386C226.992 24.0682 226.703 23.5606 226.324 23.2159C225.949 22.8674 225.502 22.6932 224.983 22.6932C224.199 22.6932 223.583 23.0795 223.136 23.8523C222.689 24.625 222.464 25.7367 222.46 27.1875C222.46 28.1572 222.561 28.9773 222.761 29.6477C222.966 30.3144 223.256 30.8201 223.631 31.1648C224.006 31.5057 224.456 31.6761 224.983 31.6761ZM237.334 30.8182V30.2045C237.334 29.7652 237.425 29.3636 237.607 29C237.792 28.6326 238.061 28.339 238.413 28.1193C238.769 27.8958 239.199 27.7841 239.703 27.7841C240.218 27.7841 240.65 27.8939 240.999 28.1136C241.347 28.3333 241.61 28.6269 241.788 28.9943C241.97 29.3617 242.061 29.7652 242.061 30.2045V30.8182C242.061 31.2576 241.97 31.661 241.788 32.0284C241.607 32.392 241.339 32.6856 240.987 32.9091C240.639 33.1288 240.211 33.2386 239.703 33.2386C239.192 33.2386 238.76 33.1288 238.408 32.9091C238.055 32.6856 237.788 32.392 237.607 32.0284C237.425 31.661 237.334 31.2576 237.334 30.8182ZM238.658 30.2045V30.8182C238.658 31.1439 238.735 31.4394 238.891 31.7045C239.046 31.9697 239.317 32.1023 239.703 32.1023C240.086 32.1023 240.353 31.9697 240.504 31.7045C240.656 31.4394 240.732 31.1439 240.732 30.8182V30.2045C240.732 29.8788 240.658 29.5833 240.51 29.3182C240.366 29.053 240.097 28.9205 239.703 28.9205C239.324 28.9205 239.055 29.053 238.896 29.3182C238.737 29.5833 238.658 29.8788 238.658 30.2045ZM231.482 24.1591V23.5455C231.482 23.1061 231.572 22.7027 231.754 22.3352C231.94 21.9678 232.209 21.6742 232.561 21.4545C232.917 21.2348 233.347 21.125 233.851 21.125C234.366 21.125 234.798 21.2348 235.146 21.4545C235.495 21.6742 235.758 21.9678 235.936 22.3352C236.114 22.7027 236.203 23.1061 236.203 23.5455V24.1591C236.203 24.5985 236.112 25.0019 235.93 25.3693C235.752 25.733 235.487 26.0265 235.135 26.25C234.786 26.4697 234.358 26.5795 233.851 26.5795C233.336 26.5795 232.902 26.4697 232.55 26.25C232.201 26.0265 231.936 25.733 231.754 25.3693C231.572 25.0019 231.482 24.5985 231.482 24.1591ZM232.811 23.5455V24.1591C232.811 24.4848 232.887 24.7803 233.038 25.0455C233.194 25.3106 233.464 25.4432 233.851 25.4432C234.23 25.4432 234.495 25.3106 234.646 25.0455C234.802 24.7803 234.879 24.4848 234.879 24.1591V23.5455C234.879 23.2197 234.805 22.9242 234.658 22.6591C234.51 22.3939 234.241 22.2614 233.851 22.2614C233.472 22.2614 233.203 22.3939 233.044 22.6591C232.889 22.9242 232.811 23.2197 232.811 23.5455ZM232.021 33L240.021 21.3636H241.379L233.379 33H232.021Z" fill="#666666"/>
<path d="M7.625 24.4205C7.56439 23.8826 7.31439 23.4659 6.875 23.1705C6.43561 22.8712 5.88258 22.7216 5.21591 22.7216C4.73864 22.7216 4.32576 22.7973 3.97727 22.9489C3.62879 23.0966 3.35795 23.3011 3.16477 23.5625C2.97538 23.8201 2.88068 24.1136 2.88068 24.4432C2.88068 24.7197 2.94508 24.9583 3.07386 25.1591C3.20644 25.3598 3.37879 25.5284 3.59091 25.6648C3.80682 25.7973 4.03788 25.9091 4.28409 26C4.5303 26.0871 4.76705 26.1591 4.99432 26.2159L6.13068 26.5114C6.50189 26.6023 6.88258 26.7254 7.27273 26.8807C7.66288 27.036 8.02462 27.2405 8.35795 27.4943C8.69129 27.7481 8.96023 28.0625 9.16477 28.4375C9.37311 28.8125 9.47727 29.2614 9.47727 29.7841C9.47727 30.4432 9.30682 31.0284 8.96591 31.5398C8.62879 32.0511 8.13826 32.4545 7.49432 32.75C6.85417 33.0455 6.07955 33.1932 5.17045 33.1932C4.29924 33.1932 3.54545 33.0549 2.90909 32.7784C2.27273 32.5019 1.77462 32.1098 1.41477 31.6023C1.05492 31.0909 0.856061 30.4848 0.818182 29.7841H2.57955C2.61364 30.2045 2.75 30.5549 2.98864 30.8352C3.23106 31.1117 3.53977 31.3182 3.91477 31.4545C4.29356 31.5871 4.70833 31.6534 5.15909 31.6534C5.6553 31.6534 6.09659 31.5758 6.48295 31.4205C6.87311 31.2614 7.17992 31.0417 7.40341 30.7614C7.62689 30.4773 7.73864 30.1458 7.73864 29.767C7.73864 29.4223 7.64015 29.1402 7.44318 28.9205C7.25 28.7008 6.98674 28.5189 6.65341 28.375C6.32386 28.2311 5.95076 28.1042 5.53409 27.9943L4.15909 27.6193C3.22727 27.3655 2.48864 26.9924 1.94318 26.5C1.40152 26.0076 1.13068 25.3561 1.13068 24.5455C1.13068 23.875 1.3125 23.2898 1.67614 22.7898C2.03977 22.2898 2.5322 21.9015 3.15341 21.625C3.77462 21.3447 4.47538 21.2045 5.25568 21.2045C6.04356 21.2045 6.73864 21.3428 7.34091 21.6193C7.94697 21.8958 8.42424 22.2765 8.77273 22.7614C9.12121 23.2424 9.30303 23.7955 9.31818 24.4205H7.625ZM11.4389 36.2727V24.2727H13.098V25.6875H13.2401C13.3385 25.5057 13.4806 25.2955 13.6662 25.0568C13.8518 24.8182 14.1094 24.6098 14.4389 24.4318C14.7685 24.25 15.2041 24.1591 15.7457 24.1591C16.4503 24.1591 17.0791 24.3371 17.6321 24.6932C18.1851 25.0492 18.6188 25.5625 18.9332 26.233C19.2514 26.9034 19.4105 27.7102 19.4105 28.6534C19.4105 29.5966 19.2533 30.4053 18.9389 31.0795C18.6245 31.75 18.1927 32.267 17.6435 32.6307C17.0942 32.9905 16.4673 33.1705 15.7628 33.1705C15.2325 33.1705 14.7988 33.0814 14.4616 32.9034C14.1283 32.7254 13.867 32.517 13.6776 32.2784C13.4882 32.0398 13.3423 31.8277 13.2401 31.642H13.1378V36.2727H11.4389ZM13.1037 28.6364C13.1037 29.25 13.1927 29.7879 13.3707 30.25C13.5488 30.7121 13.8063 31.0739 14.1435 31.3352C14.4806 31.5928 14.8935 31.7216 15.3821 31.7216C15.8897 31.7216 16.3139 31.5871 16.6548 31.3182C16.9957 31.0455 17.2533 30.6761 17.4276 30.2102C17.6056 29.7443 17.6946 29.2197 17.6946 28.6364C17.6946 28.0606 17.6075 27.5436 17.4332 27.0852C17.2628 26.6269 17.0052 26.2652 16.6605 26C16.3196 25.7348 15.8935 25.6023 15.3821 25.6023C14.8897 25.6023 14.473 25.7292 14.1321 25.983C13.795 26.2367 13.5393 26.5909 13.3651 27.0455C13.1908 27.5 13.1037 28.0303 13.1037 28.6364ZM23.8537 33.1932C23.3007 33.1932 22.8007 33.0909 22.3537 32.8864C21.9067 32.678 21.5526 32.3769 21.2912 31.983C21.0336 31.589 20.9048 31.1061 20.9048 30.5341C20.9048 30.0417 20.9995 29.6364 21.1889 29.3182C21.3783 29 21.634 28.7481 21.956 28.5625C22.2779 28.3769 22.6378 28.2367 23.0355 28.142C23.4332 28.0473 23.8385 27.9754 24.2514 27.9261C24.7741 27.8655 25.1984 27.8163 25.5241 27.7784C25.8499 27.7367 26.0866 27.6705 26.2344 27.5795C26.3821 27.4886 26.456 27.3409 26.456 27.1364V27.0966C26.456 26.6004 26.3158 26.2159 26.0355 25.9432C25.759 25.6705 25.3461 25.5341 24.7969 25.5341C24.2249 25.5341 23.7741 25.661 23.4446 25.9148C23.1188 26.1648 22.8935 26.4432 22.7685 26.75L21.1719 26.3864C21.3613 25.8561 21.6378 25.428 22.0014 25.1023C22.3688 24.7727 22.7912 24.5341 23.2685 24.3864C23.7457 24.2348 24.2476 24.1591 24.7741 24.1591C25.1226 24.1591 25.492 24.2008 25.8821 24.2841C26.276 24.3636 26.6435 24.5114 26.9844 24.7273C27.3291 24.9432 27.6113 25.2519 27.831 25.6534C28.0507 26.0511 28.1605 26.5682 28.1605 27.2045V33H26.5014V31.8068H26.4332C26.3234 32.0265 26.1586 32.2424 25.9389 32.4545C25.7192 32.6667 25.437 32.8428 25.0923 32.983C24.7476 33.1231 24.3348 33.1932 23.8537 33.1932ZM24.223 31.8295C24.6927 31.8295 25.0942 31.7367 25.4276 31.5511C25.7647 31.3655 26.0204 31.1231 26.1946 30.8239C26.3726 30.5208 26.4616 30.197 26.4616 29.8523V28.7273C26.401 28.7879 26.2836 28.8447 26.1094 28.8977C25.9389 28.947 25.7438 28.9905 25.5241 29.0284C25.3045 29.0625 25.0904 29.0947 24.8821 29.125C24.6738 29.1515 24.4995 29.1742 24.3594 29.1932C24.0298 29.2348 23.7287 29.3049 23.456 29.4034C23.187 29.5019 22.9711 29.6439 22.8082 29.8295C22.6491 30.0114 22.5696 30.2538 22.5696 30.5568C22.5696 30.9773 22.7249 31.2955 23.0355 31.5114C23.3461 31.7235 23.742 31.8295 24.223 31.8295ZM32.1222 21.3636V33H30.4233V21.3636H32.1222ZM36.1065 27.8182V33H34.4077V24.2727H36.0384V25.6932H36.1463C36.3471 25.2311 36.6615 24.8598 37.0895 24.5795C37.5213 24.2992 38.0649 24.1591 38.7202 24.1591C39.3149 24.1591 39.8357 24.2841 40.2827 24.5341C40.7296 24.7803 41.0762 25.1477 41.3224 25.6364C41.5687 26.125 41.6918 26.7292 41.6918 27.4489V33H39.9929V27.6534C39.9929 27.0208 39.8281 26.5265 39.4986 26.1705C39.169 25.8106 38.7164 25.6307 38.1406 25.6307C37.7467 25.6307 37.3963 25.7159 37.0895 25.8864C36.7865 26.0568 36.5459 26.3068 36.3679 26.6364C36.1937 26.9621 36.1065 27.3561 36.1065 27.8182ZM43.9702 33V24.2727H45.669V33H43.9702ZM44.8281 22.9261C44.5327 22.9261 44.2789 22.8277 44.0668 22.6307C43.8584 22.4299 43.7543 22.1913 43.7543 21.9148C43.7543 21.6345 43.8584 21.3958 44.0668 21.1989C44.2789 20.9981 44.5327 20.8977 44.8281 20.8977C45.1236 20.8977 45.3755 20.9981 45.5838 21.1989C45.7959 21.3958 45.902 21.6345 45.902 21.9148C45.902 22.1913 45.7959 22.4299 45.5838 22.6307C45.3755 22.8277 45.1236 22.9261 44.8281 22.9261ZM51.6307 33.1761C50.786 33.1761 50.0587 32.9848 49.4489 32.6023C48.8428 32.2159 48.3769 31.6837 48.0511 31.0057C47.7254 30.3277 47.5625 29.5511 47.5625 28.6761C47.5625 27.7898 47.7292 27.0076 48.0625 26.3295C48.3958 25.6477 48.8655 25.1155 49.4716 24.733C50.0777 24.3504 50.7917 24.1591 51.6136 24.1591C52.2765 24.1591 52.8674 24.2822 53.3864 24.5284C53.9053 24.7708 54.3239 25.1117 54.642 25.5511C54.964 25.9905 55.1553 26.5038 55.2159 27.0909H53.5625C53.4716 26.6818 53.2633 26.3295 52.9375 26.0341C52.6155 25.7386 52.1837 25.5909 51.642 25.5909C51.1686 25.5909 50.7538 25.7159 50.3977 25.9659C50.0455 26.2121 49.7708 26.5644 49.5739 27.0227C49.3769 27.4773 49.2784 28.0152 49.2784 28.6364C49.2784 29.2727 49.375 29.822 49.5682 30.2841C49.7614 30.7462 50.0341 31.1042 50.3864 31.358C50.7424 31.6117 51.161 31.7386 51.642 31.7386C51.964 31.7386 52.2557 31.6799 52.517 31.5625C52.7822 31.4413 53.0038 31.2689 53.1818 31.0455C53.3636 30.822 53.4905 30.553 53.5625 30.2386H55.2159C55.1553 30.803 54.9716 31.3068 54.6648 31.75C54.358 32.1932 53.947 32.5417 53.4318 32.7955C52.9205 33.0492 52.3201 33.1761 51.6307 33.1761ZM50.4318 20.733L51.6023 22.2557L52.767 20.733H54.3068V20.8182L52.3068 23.2273H50.892L48.8977 20.8182V20.733H50.4318ZM58.5952 30.0398L58.5838 27.9659H58.8793L62.3565 24.2727H64.3906L60.4247 28.4773H60.1577L58.5952 30.0398ZM57.0327 33V21.3636H58.7315V33H57.0327ZM62.544 33L59.419 28.8523L60.5895 27.6648L64.6293 33H62.544ZM67.0597 36.2727C66.8059 36.2727 66.5748 36.2519 66.3665 36.2102C66.1581 36.1723 66.0028 36.1307 65.9006 36.0852L66.3097 34.6932C66.6203 34.7765 66.8968 34.8125 67.1392 34.8011C67.3816 34.7898 67.5956 34.6989 67.7812 34.5284C67.9706 34.358 68.1373 34.0795 68.2812 33.6932L68.4915 33.1136L65.2983 24.2727H67.1165L69.3267 31.0455H69.4176L71.6278 24.2727H73.4517L69.8551 34.1648C69.6884 34.6193 69.4763 35.0038 69.2188 35.3182C68.9612 35.6364 68.6544 35.875 68.2983 36.0341C67.9422 36.1932 67.5294 36.2727 67.0597 36.2727Z" fill="#666666"/>
<path d="M12 12C6.47716 12 2 9.31371 2 6C2 2.68629 6.47715 0 12 0L242 0C247.523 0 252 2.68629 252 6C252 9.31371 247.523 12 242 12L12 12Z" fill="#E8E8E8"/>
<rect x="1" y="12" width="12" height="61" rx="6" transform="rotate(-90 1 12)" fill="#DE091C" fill-opacity="0.7"/>
</svg>
