<svg width="251" height="37" viewBox="0 0 251 37" fill="none" xmlns="http://www.w3.org/2000/svg">
<path d="M0.977273 33V31.8295L7.09659 22.875H0.926136V21.3636H9.24432V22.5341L3.125 31.4886H9.29545V33H0.977273ZM13.9006 33.1932C13.3475 33.1932 12.8475 33.0909 12.4006 32.8864C11.9536 32.678 11.5994 32.3769 11.3381 31.983C11.0805 31.589 10.9517 31.1061 10.9517 30.5341C10.9517 30.0417 11.0464 29.6364 11.2358 29.3182C11.4252 29 11.6809 28.7481 12.0028 28.5625C12.3248 28.3769 12.6847 28.2367 13.0824 28.142C13.4801 28.0473 13.8854 27.9754 14.2983 27.9261C14.821 27.8655 15.2453 27.8163 15.571 27.7784C15.8968 27.7367 16.1335 27.6705 16.2812 27.5795C16.429 27.4886 16.5028 27.3409 16.5028 27.1364V27.0966C16.5028 26.6004 16.3627 26.2159 16.0824 25.9432C15.8059 25.6705 15.393 25.5341 14.8438 25.5341C14.2718 25.5341 13.821 25.661 13.4915 25.9148C13.1657 26.1648 12.9403 26.4432 12.8153 26.75L11.2188 26.3864C11.4081 25.8561 11.6847 25.428 12.0483 25.1023C12.4157 24.7727 12.8381 24.5341 13.3153 24.3864C13.7926 24.2348 14.2945 24.1591 14.821 24.1591C15.1695 24.1591 15.5388 24.2008 15.929 24.2841C16.3229 24.3636 16.6903 24.5114 17.0312 24.7273C17.3759 24.9432 17.6581 25.2519 17.8778 25.6534C18.0975 26.0511 18.2074 26.5682 18.2074 27.2045V33H16.5483V31.8068H16.4801C16.3703 32.0265 16.2055 32.2424 15.9858 32.4545C15.7661 32.6667 15.4839 32.8428 15.1392 32.983C14.7945 33.1231 14.3816 33.1932 13.9006 33.1932ZM14.2699 31.8295C14.7396 31.8295 15.1411 31.7367 15.4744 31.5511C15.8116 31.3655 16.0672 31.1231 16.2415 30.8239C16.4195 30.5208 16.5085 30.197 16.5085 29.8523V28.7273C16.4479 28.7879 16.3305 28.8447 16.1562 28.8977C15.9858 28.947 15.7907 28.9905 15.571 29.0284C15.3513 29.0625 15.1373 29.0947 14.929 29.125C14.7206 29.1515 14.5464 29.1742 14.4062 29.1932C14.0767 29.2348 13.7756 29.3049 13.5028 29.4034C13.2339 29.5019 13.018 29.6439 12.8551 29.8295C12.696 30.0114 12.6165 30.2538 12.6165 30.5568C12.6165 30.9773 12.7718 31.2955 13.0824 31.5114C13.393 31.7235 13.7888 31.8295 14.2699 31.8295ZM14.2074 23.108L15.5369 20.4886H17.3267L15.5653 23.108H14.2074ZM20.4702 36.2727V24.2727H22.1293V25.6875H22.2713C22.3698 25.5057 22.5118 25.2955 22.6974 25.0568C22.883 24.8182 23.1406 24.6098 23.4702 24.4318C23.7997 24.25 24.2353 24.1591 24.777 24.1591C25.4815 24.1591 26.1103 24.3371 26.6634 24.6932C27.2164 25.0492 27.6501 25.5625 27.9645 26.233C28.2827 26.9034 28.4418 27.7102 28.4418 28.6534C28.4418 29.5966 28.2846 30.4053 27.9702 31.0795C27.6558 31.75 27.224 32.267 26.6747 32.6307C26.1255 32.9905 25.4986 33.1705 24.794 33.1705C24.2637 33.1705 23.83 33.0814 23.4929 32.9034C23.1596 32.7254 22.8982 32.517 22.7088 32.2784C22.5194 32.0398 22.3736 31.8277 22.2713 31.642H22.169V36.2727H20.4702ZM22.1349 28.6364C22.1349 29.25 22.224 29.7879 22.402 30.25C22.58 30.7121 22.8376 31.0739 23.1747 31.3352C23.5118 31.5928 23.9247 31.7216 24.4134 31.7216C24.9209 31.7216 25.3452 31.5871 25.6861 31.3182C26.027 31.0455 26.2846 30.6761 26.4588 30.2102C26.6368 29.7443 26.7259 29.2197 26.7259 28.6364C26.7259 28.0606 26.6387 27.5436 26.4645 27.0852C26.294 26.6269 26.0365 26.2652 25.6918 26C25.3509 25.7348 24.9247 25.6023 24.4134 25.6023C23.9209 25.6023 23.5043 25.7292 23.1634 25.983C22.8262 26.2367 22.5705 26.5909 22.3963 27.0455C22.2221 27.5 22.1349 28.0303 22.1349 28.6364ZM32.8849 33.1932C32.3319 33.1932 31.8319 33.0909 31.3849 32.8864C30.938 32.678 30.5838 32.3769 30.3224 31.983C30.0649 31.589 29.9361 31.1061 29.9361 30.5341C29.9361 30.0417 30.0308 29.6364 30.2202 29.3182C30.4096 29 30.6652 28.7481 30.9872 28.5625C31.3092 28.3769 31.669 28.2367 32.0668 28.142C32.4645 28.0473 32.8698 27.9754 33.2827 27.9261C33.8054 27.8655 34.2296 27.8163 34.5554 27.7784C34.8812 27.7367 35.1179 27.6705 35.2656 27.5795C35.4134 27.4886 35.4872 27.3409 35.4872 27.1364V27.0966C35.4872 26.6004 35.3471 26.2159 35.0668 25.9432C34.7902 25.6705 34.3774 25.5341 33.8281 25.5341C33.2562 25.5341 32.8054 25.661 32.4759 25.9148C32.1501 26.1648 31.9247 26.4432 31.7997 26.75L30.2031 26.3864C30.3925 25.8561 30.669 25.428 31.0327 25.1023C31.4001 24.7727 31.8224 24.5341 32.2997 24.3864C32.777 24.2348 33.2789 24.1591 33.8054 24.1591C34.1539 24.1591 34.5232 24.2008 34.9134 24.2841C35.3073 24.3636 35.6747 24.5114 36.0156 24.7273C36.3603 24.9432 36.6425 25.2519 36.8622 25.6534C37.0819 26.0511 37.1918 26.5682 37.1918 27.2045V33H35.5327V31.8068H35.4645C35.3546 32.0265 35.1899 32.2424 34.9702 32.4545C34.7505 32.6667 34.4683 32.8428 34.1236 32.983C33.7789 33.1231 33.366 33.1932 32.8849 33.1932ZM33.2543 31.8295C33.724 31.8295 34.1255 31.7367 34.4588 31.5511C34.7959 31.3655 35.0516 31.1231 35.2259 30.8239C35.4039 30.5208 35.4929 30.197 35.4929 29.8523V28.7273C35.4323 28.7879 35.3149 28.8447 35.1406 28.8977C34.9702 28.947 34.7751 28.9905 34.5554 29.0284C34.3357 29.0625 34.1217 29.0947 33.9134 29.125C33.705 29.1515 33.5308 29.1742 33.3906 29.1932C33.0611 29.2348 32.7599 29.3049 32.4872 29.4034C32.2183 29.5019 32.0024 29.6439 31.8395 29.8295C31.6804 30.0114 31.6009 30.2538 31.6009 30.5568C31.6009 30.9773 31.7562 31.2955 32.0668 31.5114C32.3774 31.7235 32.7732 31.8295 33.2543 31.8295ZM41.1534 21.3636V33H39.4545V21.3636H41.1534ZM47.6733 36.2727V24.2727H49.3324V25.6875H49.4744C49.5729 25.5057 49.715 25.2955 49.9006 25.0568C50.0862 24.8182 50.3438 24.6098 50.6733 24.4318C51.0028 24.25 51.4384 24.1591 51.9801 24.1591C52.6847 24.1591 53.3134 24.3371 53.8665 24.6932C54.4195 25.0492 54.8532 25.5625 55.1676 26.233C55.4858 26.9034 55.6449 27.7102 55.6449 28.6534C55.6449 29.5966 55.4877 30.4053 55.1733 31.0795C54.8589 31.75 54.4271 32.267 53.8778 32.6307C53.3286 32.9905 52.7017 33.1705 51.9972 33.1705C51.4669 33.1705 51.0331 33.0814 50.696 32.9034C50.3627 32.7254 50.1013 32.517 49.9119 32.2784C49.7225 32.0398 49.5767 31.8277 49.4744 31.642H49.3722V36.2727H47.6733ZM49.3381 28.6364C49.3381 29.25 49.4271 29.7879 49.6051 30.25C49.7831 30.7121 50.0407 31.0739 50.3778 31.3352C50.715 31.5928 51.1278 31.7216 51.6165 31.7216C52.1241 31.7216 52.5483 31.5871 52.8892 31.3182C53.2301 31.0455 53.4877 30.6761 53.6619 30.2102C53.84 29.7443 53.929 29.2197 53.929 28.6364C53.929 28.0606 53.8419 27.5436 53.6676 27.0852C53.4972 26.6269 53.2396 26.2652 52.8949 26C52.554 25.7348 52.1278 25.6023 51.6165 25.6023C51.1241 25.6023 50.7074 25.7292 50.3665 25.983C50.0294 26.2367 49.7737 26.5909 49.5994 27.0455C49.4252 27.5 49.3381 28.0303 49.3381 28.6364ZM59.2472 21.3636V33H57.5483V21.3636H59.2472ZM61.5327 33V24.2727H63.2315V33H61.5327ZM62.3906 22.9261C62.0952 22.9261 61.8414 22.8277 61.6293 22.6307C61.4209 22.4299 61.3168 22.1913 61.3168 21.9148C61.3168 21.6345 61.4209 21.3958 61.6293 21.1989C61.8414 20.9981 62.0952 20.8977 62.3906 20.8977C62.6861 20.8977 62.938 20.9981 63.1463 21.1989C63.3584 21.3958 63.4645 21.6345 63.4645 21.9148C63.4645 22.1913 63.3584 22.4299 63.1463 22.6307C62.938 22.8277 62.6861 22.9261 62.3906 22.9261ZM69.1932 33.1761C68.3485 33.1761 67.6212 32.9848 67.0114 32.6023C66.4053 32.2159 65.9394 31.6837 65.6136 31.0057C65.2879 30.3277 65.125 29.5511 65.125 28.6761C65.125 27.7898 65.2917 27.0076 65.625 26.3295C65.9583 25.6477 66.428 25.1155 67.0341 24.733C67.6402 24.3504 68.3542 24.1591 69.1761 24.1591C69.839 24.1591 70.4299 24.2822 70.9489 24.5284C71.4678 24.7708 71.8864 25.1117 72.2045 25.5511C72.5265 25.9905 72.7178 26.5038 72.7784 27.0909H71.125C71.0341 26.6818 70.8258 26.3295 70.5 26.0341C70.178 25.7386 69.7462 25.5909 69.2045 25.5909C68.7311 25.5909 68.3163 25.7159 67.9602 25.9659C67.608 26.2121 67.3333 26.5644 67.1364 27.0227C66.9394 27.4773 66.8409 28.0152 66.8409 28.6364C66.8409 29.2727 66.9375 29.822 67.1307 30.2841C67.3239 30.7462 67.5966 31.1042 67.9489 31.358C68.3049 31.6117 68.7235 31.7386 69.2045 31.7386C69.5265 31.7386 69.8182 31.6799 70.0795 31.5625C70.3447 31.4413 70.5663 31.2689 70.7443 31.0455C70.9261 30.822 71.053 30.553 71.125 30.2386H72.7784C72.7178 30.803 72.5341 31.3068 72.2273 31.75C71.9205 32.1932 71.5095 32.5417 70.9943 32.7955C70.483 33.0492 69.8826 33.1761 69.1932 33.1761Z" fill="#666666"/>
<path d="M210.511 33L215.591 22.9545V22.8693H209.716V21.3636H217.409V22.9205L212.347 33H210.511ZM223.186 33.1932C222.288 33.1894 221.521 32.9527 220.885 32.483C220.249 32.0133 219.762 31.3295 219.425 30.4318C219.088 29.5341 218.919 28.4527 218.919 27.1875C218.919 25.9261 219.088 24.8485 219.425 23.9545C219.766 23.0606 220.254 22.3788 220.891 21.9091C221.531 21.4394 222.296 21.2045 223.186 21.2045C224.076 21.2045 224.839 21.4413 225.476 21.9148C226.112 22.3845 226.599 23.0663 226.936 23.9602C227.277 24.8504 227.447 25.9261 227.447 27.1875C227.447 28.4564 227.279 29.5398 226.942 30.4375C226.605 31.3314 226.118 32.0152 225.482 32.4886C224.845 32.9583 224.08 33.1932 223.186 33.1932ZM223.186 31.6761C223.974 31.6761 224.589 31.2917 225.033 30.5227C225.48 29.7538 225.703 28.642 225.703 27.1875C225.703 26.2216 225.601 25.4053 225.396 24.7386C225.196 24.0682 224.906 23.5606 224.527 23.2159C224.152 22.8674 223.705 22.6932 223.186 22.6932C222.402 22.6932 221.786 23.0795 221.339 23.8523C220.893 24.625 220.667 25.7367 220.663 27.1875C220.663 28.1572 220.764 28.9773 220.964 29.6477C221.169 30.3144 221.459 30.8201 221.834 31.1648C222.209 31.5057 222.66 31.6761 223.186 31.6761ZM235.537 30.8182V30.2045C235.537 29.7652 235.628 29.3636 235.81 29C235.995 28.6326 236.264 28.339 236.616 28.1193C236.973 27.8958 237.402 27.7841 237.906 27.7841C238.421 27.7841 238.853 27.8939 239.202 28.1136C239.55 28.3333 239.813 28.6269 239.991 28.9943C240.173 29.3617 240.264 29.7652 240.264 30.2045V30.8182C240.264 31.2576 240.173 31.661 239.991 32.0284C239.81 32.392 239.543 32.6856 239.19 32.9091C238.842 33.1288 238.414 33.2386 237.906 33.2386C237.395 33.2386 236.963 33.1288 236.611 32.9091C236.259 32.6856 235.991 32.392 235.81 32.0284C235.628 31.661 235.537 31.2576 235.537 30.8182ZM236.861 30.2045V30.8182C236.861 31.1439 236.938 31.4394 237.094 31.7045C237.249 31.9697 237.52 32.1023 237.906 32.1023C238.289 32.1023 238.556 31.9697 238.707 31.7045C238.859 31.4394 238.935 31.1439 238.935 30.8182V30.2045C238.935 29.8788 238.861 29.5833 238.713 29.3182C238.569 29.053 238.3 28.9205 237.906 28.9205C237.527 28.9205 237.259 29.053 237.099 29.3182C236.94 29.5833 236.861 29.8788 236.861 30.2045ZM229.685 24.1591V23.5455C229.685 23.1061 229.776 22.7027 229.957 22.3352C230.143 21.9678 230.412 21.6742 230.764 21.4545C231.12 21.2348 231.55 21.125 232.054 21.125C232.569 21.125 233.001 21.2348 233.349 21.4545C233.698 21.6742 233.961 21.9678 234.139 22.3352C234.317 22.7027 234.406 23.1061 234.406 23.5455V24.1591C234.406 24.5985 234.315 25.0019 234.134 25.3693C233.955 25.733 233.69 26.0265 233.338 26.25C232.99 26.4697 232.562 26.5795 232.054 26.5795C231.539 26.5795 231.105 26.4697 230.753 26.25C230.404 26.0265 230.139 25.733 229.957 25.3693C229.776 25.0019 229.685 24.5985 229.685 24.1591ZM231.014 23.5455V24.1591C231.014 24.4848 231.09 24.7803 231.241 25.0455C231.397 25.3106 231.668 25.4432 232.054 25.4432C232.433 25.4432 232.698 25.3106 232.849 25.0455C233.005 24.7803 233.082 24.4848 233.082 24.1591V23.5455C233.082 23.2197 233.009 22.9242 232.861 22.6591C232.713 22.3939 232.444 22.2614 232.054 22.2614C231.675 22.2614 231.406 22.3939 231.247 22.6591C231.092 22.9242 231.014 23.2197 231.014 23.5455ZM230.224 33L238.224 21.3636H239.582L231.582 33H230.224Z" fill="#666666"/>
<path d="M11 12C5.47716 12 1 9.31371 1 6C1 2.68629 5.47715 0 11 0L241 0C246.523 0 251 2.68629 251 6C251 9.31371 246.523 12 241 12L11 12Z" fill="#E8E8E8"/>
<rect y="12" width="12" height="184" rx="6" transform="rotate(-90 0 12)" fill="#DE091C" fill-opacity="0.7"/>
</svg>
