<svg width="251" height="37" viewBox="0 0 251 37" fill="none" xmlns="http://www.w3.org/2000/svg">
<path d="M209.875 30.7273V29.3068L214.903 21.3636H216.023V23.4545H215.312L211.716 29.1477V29.2386H218.608V30.7273H209.875ZM215.392 33V30.2955L215.403 29.6477V21.3636H217.068V33H215.392ZM224.52 33.1591C223.705 33.1591 222.986 33.0189 222.361 32.7386C221.74 32.4583 221.253 32.072 220.901 31.5795C220.548 31.0871 220.374 30.5265 220.378 29.8977C220.374 29.4053 220.474 28.9527 220.679 28.5398C220.887 28.1231 221.17 27.7765 221.526 27.5C221.882 27.2197 222.279 27.0417 222.719 26.9659V26.8977C222.139 26.7576 221.675 26.447 221.327 25.9659C220.978 25.4848 220.806 24.9318 220.81 24.3068C220.806 23.7121 220.963 23.1818 221.281 22.7159C221.603 22.2462 222.045 21.8769 222.605 21.608C223.166 21.339 223.804 21.2045 224.52 21.2045C225.228 21.2045 225.861 21.3409 226.418 21.6136C226.978 21.8826 227.42 22.2519 227.741 22.7216C228.063 23.1875 228.226 23.7159 228.23 24.3068C228.226 24.9318 228.048 25.4848 227.696 25.9659C227.344 26.447 226.885 26.7576 226.321 26.8977V26.9659C226.757 27.0417 227.149 27.2197 227.497 27.5C227.849 27.7765 228.13 28.1231 228.338 28.5398C228.55 28.9527 228.658 29.4053 228.662 29.8977C228.658 30.5265 228.48 31.0871 228.128 31.5795C227.776 32.072 227.287 32.4583 226.662 32.7386C226.041 33.0189 225.327 33.1591 224.52 33.1591ZM224.52 31.7216C225.001 31.7216 225.418 31.642 225.77 31.483C226.122 31.3201 226.395 31.0947 226.588 30.8068C226.781 30.5152 226.88 30.1742 226.884 29.7841C226.88 29.3788 226.774 29.0208 226.565 28.7102C226.361 28.3996 226.082 28.1553 225.73 27.9773C225.378 27.7992 224.974 27.7102 224.52 27.7102C224.062 27.7102 223.654 27.7992 223.298 27.9773C222.942 28.1553 222.662 28.3996 222.457 28.7102C222.253 29.0208 222.152 29.3788 222.156 29.7841C222.152 30.1742 222.245 30.5152 222.435 30.8068C222.628 31.0947 222.902 31.3201 223.259 31.483C223.615 31.642 224.035 31.7216 224.52 31.7216ZM224.52 26.3068C224.906 26.3068 225.249 26.2292 225.548 26.0739C225.848 25.9186 226.082 25.7027 226.253 25.4261C226.427 25.1496 226.516 24.8258 226.52 24.4545C226.516 24.0909 226.429 23.7727 226.259 23.5C226.092 23.2273 225.859 23.017 225.56 22.8693C225.26 22.7178 224.914 22.642 224.52 22.642C224.118 22.642 223.766 22.7178 223.463 22.8693C223.164 23.017 222.931 23.2273 222.764 23.5C222.598 23.7727 222.516 24.0909 222.52 24.4545C222.516 24.8258 222.599 25.1496 222.77 25.4261C222.94 25.7027 223.175 25.9186 223.474 26.0739C223.777 26.2292 224.126 26.3068 224.52 26.3068ZM236.771 30.8182V30.2045C236.771 29.7652 236.862 29.3636 237.044 29C237.23 28.6326 237.499 28.339 237.851 28.1193C238.207 27.8958 238.637 27.7841 239.141 27.7841C239.656 27.7841 240.088 27.8939 240.436 28.1136C240.785 28.3333 241.048 28.6269 241.226 28.9943C241.408 29.3617 241.499 29.7652 241.499 30.2045V30.8182C241.499 31.2576 241.408 31.661 241.226 32.0284C241.044 32.392 240.777 32.6856 240.425 32.9091C240.076 33.1288 239.648 33.2386 239.141 33.2386C238.629 33.2386 238.197 33.1288 237.845 32.9091C237.493 32.6856 237.226 32.392 237.044 32.0284C236.862 31.661 236.771 31.2576 236.771 30.8182ZM238.095 30.2045V30.8182C238.095 31.1439 238.173 31.4394 238.328 31.7045C238.483 31.9697 238.754 32.1023 239.141 32.1023C239.523 32.1023 239.79 31.9697 239.942 31.7045C240.093 31.4394 240.169 31.1439 240.169 30.8182V30.2045C240.169 29.8788 240.095 29.5833 239.947 29.3182C239.804 29.053 239.535 28.9205 239.141 28.9205C238.762 28.9205 238.493 29.053 238.334 29.3182C238.175 29.5833 238.095 29.8788 238.095 30.2045ZM230.919 24.1591V23.5455C230.919 23.1061 231.01 22.7027 231.192 22.3352C231.377 21.9678 231.646 21.6742 231.999 21.4545C232.355 21.2348 232.785 21.125 233.288 21.125C233.804 21.125 234.235 21.2348 234.584 21.4545C234.932 21.6742 235.196 21.9678 235.374 22.3352C235.552 22.7027 235.641 23.1061 235.641 23.5455V24.1591C235.641 24.5985 235.55 25.0019 235.368 25.3693C235.19 25.733 234.925 26.0265 234.572 26.25C234.224 26.4697 233.796 26.5795 233.288 26.5795C232.773 26.5795 232.339 26.4697 231.987 26.25C231.639 26.0265 231.374 25.733 231.192 25.3693C231.01 25.0019 230.919 24.5985 230.919 24.1591ZM232.249 23.5455V24.1591C232.249 24.4848 232.324 24.7803 232.476 25.0455C232.631 25.3106 232.902 25.4432 233.288 25.4432C233.667 25.4432 233.932 25.3106 234.084 25.0455C234.239 24.7803 234.317 24.4848 234.317 24.1591V23.5455C234.317 23.2197 234.243 22.9242 234.095 22.6591C233.947 22.3939 233.679 22.2614 233.288 22.2614C232.91 22.2614 232.641 22.3939 232.482 22.6591C232.326 22.9242 232.249 23.2197 232.249 23.5455ZM231.459 33L239.459 21.3636H240.817L232.817 33H231.459Z" fill="#666666"/>
<path d="M12.9432 25.1477H11.1705C11.1023 24.7689 10.9754 24.4356 10.7898 24.1477C10.6042 23.8598 10.3769 23.6155 10.108 23.4148C9.83902 23.214 9.53788 23.0625 9.20455 22.9602C8.875 22.858 8.52462 22.8068 8.15341 22.8068C7.48295 22.8068 6.88258 22.9754 6.35227 23.3125C5.82576 23.6496 5.40909 24.1439 5.10227 24.7955C4.79924 25.447 4.64773 26.2424 4.64773 27.1818C4.64773 28.1288 4.79924 28.928 5.10227 29.5795C5.40909 30.2311 5.82765 30.7235 6.35795 31.0568C6.88826 31.3902 7.48485 31.5568 8.14773 31.5568C8.51515 31.5568 8.86364 31.5076 9.19318 31.4091C9.52652 31.3068 9.82765 31.1572 10.0966 30.9602C10.3655 30.7633 10.5928 30.5227 10.7784 30.2386C10.9678 29.9508 11.0985 29.6212 11.1705 29.25L12.9432 29.2557C12.8485 29.8277 12.6648 30.3542 12.392 30.8352C12.1231 31.3125 11.7765 31.7254 11.3523 32.0739C10.9318 32.4186 10.4508 32.6856 9.90909 32.875C9.36742 33.0644 8.77652 33.1591 8.13636 33.1591C7.12879 33.1591 6.23106 32.9205 5.44318 32.4432C4.6553 31.9621 4.03409 31.2746 3.57955 30.3807C3.12879 29.4867 2.90341 28.4205 2.90341 27.1818C2.90341 25.9394 3.13068 24.8731 3.58523 23.983C4.03977 23.089 4.66098 22.4034 5.44886 21.9261C6.23674 21.4451 7.13258 21.2045 8.13636 21.2045C8.75379 21.2045 9.32955 21.2936 9.86364 21.4716C10.4015 21.6458 10.8845 21.9034 11.3125 22.2443C11.7405 22.5814 12.0947 22.9943 12.375 23.483C12.6553 23.9678 12.8447 24.5227 12.9432 25.1477ZM6.96591 17.8239L8.13636 19.3466L9.30114 17.8239H10.8409V17.9091L8.84091 20.3182H7.42614L5.43182 17.9091V17.8239H6.96591ZM18.669 33.1761C17.8092 33.1761 17.0687 32.9924 16.4474 32.625C15.83 32.2538 15.3527 31.733 15.0156 31.0625C14.6823 30.3883 14.5156 29.5985 14.5156 28.6932C14.5156 27.7992 14.6823 27.0114 15.0156 26.3295C15.3527 25.6477 15.8224 25.1155 16.4247 24.733C17.0308 24.3504 17.7391 24.1591 18.5497 24.1591C19.0421 24.1591 19.5194 24.2405 19.9815 24.4034C20.4437 24.5663 20.8584 24.822 21.2259 25.1705C21.5933 25.5189 21.883 25.9716 22.0952 26.5284C22.3073 27.0814 22.4134 27.7538 22.4134 28.5455V29.1477H15.4759V27.875H20.7486C20.7486 27.428 20.6577 27.0322 20.4759 26.6875C20.294 26.339 20.0384 26.0644 19.7088 25.8636C19.383 25.6629 19.0005 25.5625 18.5611 25.5625C18.0838 25.5625 17.6671 25.6799 17.3111 25.9148C16.9588 26.1458 16.6861 26.4489 16.4929 26.8239C16.3035 27.1951 16.2088 27.5985 16.2088 28.0341V29.0284C16.2088 29.6117 16.3111 30.108 16.5156 30.517C16.724 30.9261 17.0137 31.2386 17.3849 31.4545C17.7562 31.6667 18.1899 31.7727 18.6861 31.7727C19.008 31.7727 19.3016 31.7273 19.5668 31.6364C19.8319 31.5417 20.0611 31.4015 20.2543 31.2159C20.4474 31.0303 20.5952 30.8011 20.6974 30.5284L22.3054 30.8182C22.1766 31.2917 21.9455 31.7064 21.6122 32.0625C21.2827 32.4148 20.8679 32.6894 20.3679 32.8864C19.8717 33.0795 19.3054 33.1761 18.669 33.1761ZM24.2983 33V24.2727H25.9403V25.6591H26.0312C26.1903 25.1894 26.4706 24.8201 26.8722 24.5511C27.2775 24.2784 27.7358 24.142 28.2472 24.142C28.3532 24.142 28.4782 24.1458 28.6222 24.1534C28.7699 24.161 28.8854 24.1705 28.9688 24.1818V25.8068C28.9006 25.7879 28.7794 25.767 28.6051 25.7443C28.4309 25.7178 28.2566 25.7045 28.0824 25.7045C27.6809 25.7045 27.3229 25.7898 27.0085 25.9602C26.6979 26.1269 26.4517 26.3598 26.2699 26.6591C26.0881 26.9545 25.9972 27.2917 25.9972 27.6705V33H24.2983ZM32.1378 27.8182V33H30.4389V24.2727H32.0696V25.6932H32.1776C32.3783 25.2311 32.6927 24.8598 33.1207 24.5795C33.5526 24.2992 34.0961 24.1591 34.7514 24.1591C35.3461 24.1591 35.867 24.2841 36.3139 24.5341C36.7609 24.7803 37.1075 25.1477 37.3537 25.6364C37.5999 26.125 37.723 26.7292 37.723 27.4489V33H36.0241V27.6534C36.0241 27.0208 35.8594 26.5265 35.5298 26.1705C35.2003 25.8106 34.7476 25.6307 34.1719 25.6307C33.7779 25.6307 33.4276 25.7159 33.1207 25.8864C32.8177 26.0568 32.5772 26.3068 32.3991 26.6364C32.2249 26.9621 32.1378 27.3561 32.1378 27.8182ZM40.7628 36.2727C40.509 36.2727 40.2779 36.2519 40.0696 36.2102C39.8613 36.1723 39.706 36.1307 39.6037 36.0852L40.0128 34.6932C40.3234 34.7765 40.5999 34.8125 40.8423 34.8011C41.0848 34.7898 41.2988 34.6989 41.4844 34.5284C41.6738 34.358 41.8404 34.0795 41.9844 33.6932L42.1946 33.1136L39.0014 24.2727H40.8196L43.0298 31.0455H43.1207L45.331 24.2727H47.1548L43.5582 34.1648C43.3916 34.6193 43.1795 35.0038 42.9219 35.3182C42.6643 35.6364 42.3575 35.875 42.0014 36.0341C41.6454 36.1932 41.2325 36.2727 40.7628 36.2727ZM42.3707 23.108L43.7003 20.4886H45.4901L43.7287 23.108H42.3707ZM54.5483 30.0398L54.5369 27.9659H54.8324L58.3097 24.2727H60.3438L56.3778 28.4773H56.1108L54.5483 30.0398ZM52.9858 33V21.3636H54.6847V33H52.9858ZM58.4972 33L55.3722 28.8523L56.5426 27.6648L60.5824 33H58.4972ZM64.4318 33.1932C63.8788 33.1932 63.3788 33.0909 62.9318 32.8864C62.4848 32.678 62.1307 32.3769 61.8693 31.983C61.6117 31.589 61.483 31.1061 61.483 30.5341C61.483 30.0417 61.5777 29.6364 61.767 29.3182C61.9564 29 62.2121 28.7481 62.5341 28.5625C62.8561 28.3769 63.2159 28.2367 63.6136 28.142C64.0114 28.0473 64.4167 27.9754 64.8295 27.9261C65.3523 27.8655 65.7765 27.8163 66.1023 27.7784C66.428 27.7367 66.6648 27.6705 66.8125 27.5795C66.9602 27.4886 67.0341 27.3409 67.0341 27.1364V27.0966C67.0341 26.6004 66.8939 26.2159 66.6136 25.9432C66.3371 25.6705 65.9242 25.5341 65.375 25.5341C64.803 25.5341 64.3523 25.661 64.0227 25.9148C63.697 26.1648 63.4716 26.4432 63.3466 26.75L61.75 26.3864C61.9394 25.8561 62.2159 25.428 62.5795 25.1023C62.947 24.7727 63.3693 24.5341 63.8466 24.3864C64.3239 24.2348 64.8258 24.1591 65.3523 24.1591C65.7008 24.1591 66.0701 24.2008 66.4602 24.2841C66.8542 24.3636 67.2216 24.5114 67.5625 24.7273C67.9072 24.9432 68.1894 25.2519 68.4091 25.6534C68.6288 26.0511 68.7386 26.5682 68.7386 27.2045V33H67.0795V31.8068H67.0114C66.9015 32.0265 66.7367 32.2424 66.517 32.4545C66.2973 32.6667 66.0152 32.8428 65.6705 32.983C65.3258 33.1231 64.9129 33.1932 64.4318 33.1932ZM64.8011 31.8295C65.2708 31.8295 65.6723 31.7367 66.0057 31.5511C66.3428 31.3655 66.5985 31.1231 66.7727 30.8239C66.9508 30.5208 67.0398 30.197 67.0398 29.8523V28.7273C66.9792 28.7879 66.8617 28.8447 66.6875 28.8977C66.517 28.947 66.322 28.9905 66.1023 29.0284C65.8826 29.0625 65.6686 29.0947 65.4602 29.125C65.2519 29.1515 65.0777 29.1742 64.9375 29.1932C64.608 29.2348 64.3068 29.3049 64.0341 29.4034C63.7652 29.5019 63.5492 29.6439 63.3864 29.8295C63.2273 30.0114 63.1477 30.2538 63.1477 30.5568C63.1477 30.9773 63.303 31.2955 63.6136 31.5114C63.9242 31.7235 64.3201 31.8295 64.8011 31.8295ZM77.5412 26.4034L76.0014 26.6761C75.937 26.4792 75.8348 26.2917 75.6946 26.1136C75.5582 25.9356 75.3726 25.7898 75.1378 25.6761C74.9029 25.5625 74.6094 25.5057 74.2571 25.5057C73.776 25.5057 73.3745 25.6136 73.0526 25.8295C72.7306 26.0417 72.5696 26.3163 72.5696 26.6534C72.5696 26.9451 72.6776 27.1799 72.8935 27.358C73.1094 27.536 73.4579 27.6818 73.9389 27.7955L75.3253 28.1136C76.1283 28.2992 76.7268 28.5852 77.1207 28.9716C77.5147 29.358 77.7116 29.8598 77.7116 30.4773C77.7116 31 77.5601 31.4659 77.2571 31.875C76.9579 32.2803 76.5393 32.5985 76.0014 32.8295C75.4673 33.0606 74.848 33.1761 74.1435 33.1761C73.1662 33.1761 72.3688 32.9678 71.7514 32.5511C71.134 32.1307 70.7552 31.5341 70.6151 30.7614L72.2571 30.5114C72.3594 30.9394 72.5696 31.2633 72.8878 31.483C73.206 31.6989 73.6207 31.8068 74.1321 31.8068C74.6889 31.8068 75.134 31.6913 75.4673 31.4602C75.8007 31.2254 75.9673 30.9394 75.9673 30.6023C75.9673 30.3295 75.8651 30.1004 75.6605 29.9148C75.4598 29.7292 75.151 29.589 74.7344 29.4943L73.2571 29.1705C72.4427 28.9848 71.8404 28.6894 71.4503 28.2841C71.0639 27.8788 70.8707 27.3655 70.8707 26.7443C70.8707 26.2292 71.0147 25.7784 71.3026 25.392C71.5904 25.0057 71.9882 24.7045 72.4957 24.4886C73.0033 24.2689 73.5848 24.1591 74.2401 24.1591C75.1832 24.1591 75.9257 24.3636 76.4673 24.7727C77.009 25.178 77.367 25.7216 77.5412 26.4034ZM73.0923 20.733L74.2628 22.2557L75.4276 20.733H76.9673V20.8182L74.9673 23.2273H73.5526L71.5582 20.8182V20.733H73.0923ZM83.3409 33.1761C82.4811 33.1761 81.7405 32.9924 81.1193 32.625C80.5019 32.2538 80.0246 31.733 79.6875 31.0625C79.3542 30.3883 79.1875 29.5985 79.1875 28.6932C79.1875 27.7992 79.3542 27.0114 79.6875 26.3295C80.0246 25.6477 80.4943 25.1155 81.0966 24.733C81.7027 24.3504 82.411 24.1591 83.2216 24.1591C83.714 24.1591 84.1913 24.2405 84.6534 24.4034C85.1155 24.5663 85.5303 24.822 85.8977 25.1705C86.2652 25.5189 86.5549 25.9716 86.767 26.5284C86.9792 27.0814 87.0852 27.7538 87.0852 28.5455V29.1477H80.1477V27.875H85.4205C85.4205 27.428 85.3295 27.0322 85.1477 26.6875C84.9659 26.339 84.7102 26.0644 84.3807 25.8636C84.0549 25.6629 83.6723 25.5625 83.233 25.5625C82.7557 25.5625 82.339 25.6799 81.983 25.9148C81.6307 26.1458 81.358 26.4489 81.1648 26.8239C80.9754 27.1951 80.8807 27.5985 80.8807 28.0341V29.0284C80.8807 29.6117 80.983 30.108 81.1875 30.517C81.3958 30.9261 81.6856 31.2386 82.0568 31.4545C82.428 31.6667 82.8617 31.7727 83.358 31.7727C83.6799 31.7727 83.9735 31.7273 84.2386 31.6364C84.5038 31.5417 84.733 31.4015 84.9261 31.2159C85.1193 31.0303 85.267 30.8011 85.3693 30.5284L86.9773 30.8182C86.8485 31.2917 86.6174 31.7064 86.2841 32.0625C85.9545 32.4148 85.5398 32.6894 85.0398 32.8864C84.5436 33.0795 83.9773 33.1761 83.3409 33.1761ZM90.669 21.3636V33H88.9702V21.3636H90.669Z" fill="#666666"/>
<path d="M11 12C5.47716 12 1 9.31371 1 6C1 2.68629 5.47715 0 11 0L241 0C246.523 0 251 2.68629 251 6C251 9.31371 246.523 12 241 12L11 12Z" fill="#E8E8E8"/>
<rect y="12" width="12" height="127" rx="6" transform="rotate(-90 0 12)" fill="#DE091C" fill-opacity="0.7"/>
</svg>
