<svg width="258" height="37" viewBox="0 0 258 37" fill="none" xmlns="http://www.w3.org/2000/svg">
<path d="M221.051 33.1591C220.237 33.1591 219.517 33.0189 218.892 32.7386C218.271 32.4583 217.784 32.072 217.432 31.5795C217.08 31.0871 216.905 30.5265 216.909 29.8977C216.905 29.4053 217.006 28.9527 217.21 28.5398C217.419 28.1231 217.701 27.7765 218.057 27.5C218.413 27.2197 218.811 27.0417 219.25 26.9659V26.8977C218.67 26.7576 218.206 26.447 217.858 25.9659C217.509 25.4848 217.337 24.9318 217.341 24.3068C217.337 23.7121 217.494 23.1818 217.812 22.7159C218.134 22.2462 218.576 21.8769 219.136 21.608C219.697 21.339 220.335 21.2045 221.051 21.2045C221.759 21.2045 222.392 21.3409 222.949 21.6136C223.509 21.8826 223.951 22.2519 224.273 22.7216C224.595 23.1875 224.758 23.7159 224.761 24.3068C224.758 24.9318 224.58 25.4848 224.227 25.9659C223.875 26.447 223.417 26.7576 222.852 26.8977V26.9659C223.288 27.0417 223.68 27.2197 224.028 27.5C224.381 27.7765 224.661 28.1231 224.869 28.5398C225.081 28.9527 225.189 29.4053 225.193 29.8977C225.189 30.5265 225.011 31.0871 224.659 31.5795C224.307 32.072 223.818 32.4583 223.193 32.7386C222.572 33.0189 221.858 33.1591 221.051 33.1591ZM221.051 31.7216C221.532 31.7216 221.949 31.642 222.301 31.483C222.653 31.3201 222.926 31.0947 223.119 30.8068C223.313 30.5152 223.411 30.1742 223.415 29.7841C223.411 29.3788 223.305 29.0208 223.097 28.7102C222.892 28.3996 222.614 28.1553 222.261 27.9773C221.909 27.7992 221.506 27.7102 221.051 27.7102C220.593 27.7102 220.186 27.7992 219.83 27.9773C219.473 28.1553 219.193 28.3996 218.989 28.7102C218.784 29.0208 218.684 29.3788 218.688 29.7841C218.684 30.1742 218.777 30.5152 218.966 30.8068C219.159 31.0947 219.434 31.3201 219.79 31.483C220.146 31.642 220.566 31.7216 221.051 31.7216ZM221.051 26.3068C221.438 26.3068 221.78 26.2292 222.08 26.0739C222.379 25.9186 222.614 25.7027 222.784 25.4261C222.958 25.1496 223.047 24.8258 223.051 24.4545C223.047 24.0909 222.96 23.7727 222.79 23.5C222.623 23.2273 222.39 23.017 222.091 22.8693C221.792 22.7178 221.445 22.642 221.051 22.642C220.65 22.642 220.297 22.7178 219.994 22.8693C219.695 23.017 219.462 23.2273 219.295 23.5C219.129 23.7727 219.047 24.0909 219.051 24.4545C219.047 24.8258 219.131 25.1496 219.301 25.4261C219.472 25.7027 219.706 25.9186 220.006 26.0739C220.309 26.2292 220.657 26.3068 221.051 26.3068ZM233.303 30.8182V30.2045C233.303 29.7652 233.393 29.3636 233.575 29C233.761 28.6326 234.03 28.339 234.382 28.1193C234.738 27.8958 235.168 27.7841 235.672 27.7841C236.187 27.7841 236.619 27.8939 236.967 28.1136C237.316 28.3333 237.579 28.6269 237.757 28.9943C237.939 29.3617 238.03 29.7652 238.03 30.2045V30.8182C238.03 31.2576 237.939 31.661 237.757 32.0284C237.575 32.392 237.308 32.6856 236.956 32.9091C236.607 33.1288 236.179 33.2386 235.672 33.2386C235.161 33.2386 234.729 33.1288 234.376 32.9091C234.024 32.6856 233.757 32.392 233.575 32.0284C233.393 31.661 233.303 31.2576 233.303 30.8182ZM234.626 30.2045V30.8182C234.626 31.1439 234.704 31.4394 234.859 31.7045C235.015 31.9697 235.286 32.1023 235.672 32.1023C236.054 32.1023 236.321 31.9697 236.473 31.7045C236.625 31.4394 236.7 31.1439 236.7 30.8182V30.2045C236.7 29.8788 236.626 29.5833 236.479 29.3182C236.335 29.053 236.066 28.9205 235.672 28.9205C235.293 28.9205 235.024 29.053 234.865 29.3182C234.706 29.5833 234.626 29.8788 234.626 30.2045ZM227.45 24.1591V23.5455C227.45 23.1061 227.541 22.7027 227.723 22.3352C227.909 21.9678 228.178 21.6742 228.53 21.4545C228.886 21.2348 229.316 21.125 229.82 21.125C230.335 21.125 230.767 21.2348 231.115 21.4545C231.464 21.6742 231.727 21.9678 231.905 22.3352C232.083 22.7027 232.172 23.1061 232.172 23.5455V24.1591C232.172 24.5985 232.081 25.0019 231.899 25.3693C231.721 25.733 231.456 26.0265 231.104 26.25C230.755 26.4697 230.327 26.5795 229.82 26.5795C229.304 26.5795 228.871 26.4697 228.518 26.25C228.17 26.0265 227.905 25.733 227.723 25.3693C227.541 25.0019 227.45 24.5985 227.45 24.1591ZM228.78 23.5455V24.1591C228.78 24.4848 228.856 24.7803 229.007 25.0455C229.162 25.3106 229.433 25.4432 229.82 25.4432C230.198 25.4432 230.464 25.3106 230.615 25.0455C230.77 24.7803 230.848 24.4848 230.848 24.1591V23.5455C230.848 23.2197 230.774 22.9242 230.626 22.6591C230.479 22.3939 230.21 22.2614 229.82 22.2614C229.441 22.2614 229.172 22.3939 229.013 22.6591C228.857 22.9242 228.78 23.2197 228.78 23.5455ZM227.99 33L235.99 21.3636H237.348L229.348 33H227.99Z" fill="#666666"/>
<path d="M11.9432 25.1477H10.1705C10.1023 24.7689 9.97538 24.4356 9.78977 24.1477C9.60417 23.8598 9.37689 23.6155 9.10795 23.4148C8.83902 23.214 8.53788 23.0625 8.20455 22.9602C7.875 22.858 7.52462 22.8068 7.15341 22.8068C6.48295 22.8068 5.88258 22.9754 5.35227 23.3125C4.82576 23.6496 4.40909 24.1439 4.10227 24.7955C3.79924 25.447 3.64773 26.2424 3.64773 27.1818C3.64773 28.1288 3.79924 28.928 4.10227 29.5795C4.40909 30.2311 4.82765 30.7235 5.35795 31.0568C5.88826 31.3902 6.48485 31.5568 7.14773 31.5568C7.51515 31.5568 7.86364 31.5076 8.19318 31.4091C8.52652 31.3068 8.82765 31.1572 9.09659 30.9602C9.36553 30.7633 9.5928 30.5227 9.77841 30.2386C9.9678 29.9508 10.0985 29.6212 10.1705 29.25L11.9432 29.2557C11.8485 29.8277 11.6648 30.3542 11.392 30.8352C11.1231 31.3125 10.7765 31.7254 10.3523 32.0739C9.93182 32.4186 9.45076 32.6856 8.90909 32.875C8.36742 33.0644 7.77652 33.1591 7.13636 33.1591C6.12879 33.1591 5.23106 32.9205 4.44318 32.4432C3.6553 31.9621 3.03409 31.2746 2.57955 30.3807C2.12879 29.4867 1.90341 28.4205 1.90341 27.1818C1.90341 25.9394 2.13068 24.8731 2.58523 23.983C3.03977 23.089 3.66098 22.4034 4.44886 21.9261C5.23674 21.4451 6.13258 21.2045 7.13636 21.2045C7.75379 21.2045 8.32955 21.2936 8.86364 21.4716C9.40152 21.6458 9.88447 21.9034 10.3125 22.2443C10.7405 22.5814 11.0947 22.9943 11.375 23.483C11.6553 23.9678 11.8447 24.5227 11.9432 25.1477ZM15.6065 27.8182V33H13.9077V21.3636H15.5838V25.6932H15.6918C15.8963 25.2235 16.2088 24.8504 16.6293 24.5739C17.0497 24.2973 17.599 24.1591 18.277 24.1591C18.8755 24.1591 19.3982 24.2822 19.8452 24.5284C20.2959 24.7746 20.6444 25.142 20.8906 25.6307C21.1406 26.1155 21.2656 26.7216 21.2656 27.4489V33H19.5668V27.6534C19.5668 27.0133 19.402 26.517 19.0724 26.1648C18.7429 25.8087 18.2846 25.6307 17.6974 25.6307C17.2959 25.6307 16.9361 25.7159 16.6179 25.8864C16.3035 26.0568 16.0554 26.3068 15.8736 26.6364C15.6955 26.9621 15.6065 27.3561 15.6065 27.8182ZM23.5327 33V24.2727H25.1747V25.6591H25.2656C25.4247 25.1894 25.705 24.8201 26.1065 24.5511C26.5118 24.2784 26.9702 24.142 27.4815 24.142C27.5876 24.142 27.7126 24.1458 27.8565 24.1534C28.0043 24.161 28.1198 24.1705 28.2031 24.1818V25.8068C28.1349 25.7879 28.0137 25.767 27.8395 25.7443C27.6652 25.7178 27.491 25.7045 27.3168 25.7045C26.9152 25.7045 26.5573 25.7898 26.2429 25.9602C25.9323 26.1269 25.6861 26.3598 25.5043 26.6591C25.3224 26.9545 25.2315 27.2917 25.2315 27.6705V33H23.5327ZM24.6122 20.733L25.7827 22.2557L26.9474 20.733H28.4872V20.8182L26.4872 23.2273H25.0724L23.0781 20.8182V20.733H24.6122ZM29.6733 33V24.2727H31.3722V33H29.6733ZM30.5312 22.9261C30.2358 22.9261 29.982 22.8277 29.7699 22.6307C29.5616 22.4299 29.4574 22.1913 29.4574 21.9148C29.4574 21.6345 29.5616 21.3958 29.7699 21.1989C29.982 20.9981 30.2358 20.8977 30.5312 20.8977C30.8267 20.8977 31.0786 20.9981 31.2869 21.1989C31.4991 21.3958 31.6051 21.6345 31.6051 21.9148C31.6051 22.1913 31.4991 22.4299 31.2869 22.6307C31.0786 22.8277 30.8267 22.9261 30.5312 22.9261ZM33.6577 36.2727V24.2727H35.3168V25.6875H35.4588C35.5573 25.5057 35.6993 25.2955 35.8849 25.0568C36.0705 24.8182 36.3281 24.6098 36.6577 24.4318C36.9872 24.25 37.4228 24.1591 37.9645 24.1591C38.669 24.1591 39.2978 24.3371 39.8509 24.6932C40.4039 25.0492 40.8376 25.5625 41.152 26.233C41.4702 26.9034 41.6293 27.7102 41.6293 28.6534C41.6293 29.5966 41.4721 30.4053 41.1577 31.0795C40.8433 31.75 40.4115 32.267 39.8622 32.6307C39.313 32.9905 38.6861 33.1705 37.9815 33.1705C37.4512 33.1705 37.0175 33.0814 36.6804 32.9034C36.3471 32.7254 36.0857 32.517 35.8963 32.2784C35.7069 32.0398 35.5611 31.8277 35.4588 31.642H35.3565V36.2727H33.6577ZM35.3224 28.6364C35.3224 29.25 35.4115 29.7879 35.5895 30.25C35.7675 30.7121 36.0251 31.0739 36.3622 31.3352C36.6993 31.5928 37.1122 31.7216 37.6009 31.7216C38.1084 31.7216 38.5327 31.5871 38.8736 31.3182C39.2145 31.0455 39.4721 30.6761 39.6463 30.2102C39.8243 29.7443 39.9134 29.2197 39.9134 28.6364C39.9134 28.0606 39.8262 27.5436 39.652 27.0852C39.4815 26.6269 39.224 26.2652 38.8793 26C38.5384 25.7348 38.1122 25.6023 37.6009 25.6023C37.1084 25.6023 36.6918 25.7292 36.3509 25.983C36.0137 26.2367 35.758 26.5909 35.5838 27.0455C35.4096 27.5 35.3224 28.0303 35.3224 28.6364ZM45.0952 30.0398L45.0838 27.9659H45.3793L48.8565 24.2727H50.8906L46.9247 28.4773H46.6577L45.0952 30.0398ZM43.5327 33V21.3636H45.2315V33H43.5327ZM49.044 33L45.919 28.8523L47.0895 27.6648L51.1293 33H49.044ZM54.9787 33.1932C54.4257 33.1932 53.9257 33.0909 53.4787 32.8864C53.0317 32.678 52.6776 32.3769 52.4162 31.983C52.1586 31.589 52.0298 31.1061 52.0298 30.5341C52.0298 30.0417 52.1245 29.6364 52.3139 29.3182C52.5033 29 52.759 28.7481 53.081 28.5625C53.4029 28.3769 53.7628 28.2367 54.1605 28.142C54.5582 28.0473 54.9635 27.9754 55.3764 27.9261C55.8991 27.8655 56.3234 27.8163 56.6491 27.7784C56.9749 27.7367 57.2116 27.6705 57.3594 27.5795C57.5071 27.4886 57.581 27.3409 57.581 27.1364V27.0966C57.581 26.6004 57.4408 26.2159 57.1605 25.9432C56.884 25.6705 56.4711 25.5341 55.9219 25.5341C55.3499 25.5341 54.8991 25.661 54.5696 25.9148C54.2438 26.1648 54.0185 26.4432 53.8935 26.75L52.2969 26.3864C52.4863 25.8561 52.7628 25.428 53.1264 25.1023C53.4938 24.7727 53.9162 24.5341 54.3935 24.3864C54.8707 24.2348 55.3726 24.1591 55.8991 24.1591C56.2476 24.1591 56.617 24.2008 57.0071 24.2841C57.401 24.3636 57.7685 24.5114 58.1094 24.7273C58.4541 24.9432 58.7363 25.2519 58.956 25.6534C59.1757 26.0511 59.2855 26.5682 59.2855 27.2045V33H57.6264V31.8068H57.5582C57.4484 32.0265 57.2836 32.2424 57.0639 32.4545C56.8442 32.6667 56.562 32.8428 56.2173 32.983C55.8726 33.1231 55.4598 33.1932 54.9787 33.1932ZM55.348 31.8295C55.8177 31.8295 56.2192 31.7367 56.5526 31.5511C56.8897 31.3655 57.1454 31.1231 57.3196 30.8239C57.4976 30.5208 57.5866 30.197 57.5866 29.8523V28.7273C57.526 28.7879 57.4086 28.8447 57.2344 28.8977C57.0639 28.947 56.8688 28.9905 56.6491 29.0284C56.4295 29.0625 56.2154 29.0947 56.0071 29.125C55.7988 29.1515 55.6245 29.1742 55.4844 29.1932C55.1548 29.2348 54.8537 29.3049 54.581 29.4034C54.312 29.5019 54.0961 29.6439 53.9332 29.8295C53.7741 30.0114 53.6946 30.2538 53.6946 30.5568C53.6946 30.9773 53.8499 31.2955 54.1605 31.5114C54.4711 31.7235 54.867 31.8295 55.348 31.8295Z" fill="#666666"/>
<path d="M11 12C5.47716 12 1 9.31371 1 6C1 2.68629 5.47715 0 11 0L241 0C246.523 0 251 2.68629 251 6C251 9.31371 246.523 12 241 12L11 12Z" fill="#E8E8E8"/>
<rect y="12" width="12" height="27" rx="6" transform="rotate(-90 0 12)" fill="#DE091C" fill-opacity="0.7"/>
</svg>
