<svg width="35" height="35" viewBox="0 0 35 35" fill="none" xmlns="http://www.w3.org/2000/svg">
<circle cx="17.5" cy="17.5" r="17.5" fill="#DE091C"/>
<path d="M11.0928 14.0438L10.4343 13.2913L11.0928 14.0438ZM15.8928 9.84383L15.2343 9.09125L15.2343 9.09125L15.8928 9.84383ZM20.1074 9.84383L19.4489 10.5964V10.5964L20.1074 9.84383ZM24.9074 14.0438L24.2489 14.7964L24.9074 14.0438ZM17.4326 8.7397L17.7162 9.69865L17.4326 8.7397ZM18.5674 8.7397L18.2838 9.69865L18.5674 8.7397ZM10.065 15.4019L11.0325 15.6547L10.065 15.4019ZM10.3452 14.7842L9.51784 14.2226L9.51784 14.2226L10.3452 14.7842ZM10.1522 23.7653L9.22836 24.148H9.22836L10.1522 23.7653ZM15.8477 23.7653L14.9238 23.3826L15.8477 23.7653ZM14.7654 24.8477L15.1481 25.7716L14.7654 24.8477ZM20.1522 23.7653L19.2284 24.148V24.148L20.1522 23.7653ZM25.8477 23.7653L24.9238 23.3826L25.8477 23.7653ZM24.7654 24.8477L25.1481 25.7716L24.7654 24.8477ZM25.9351 15.4019L24.9675 15.6547L25.9351 15.4019ZM25.6548 14.7842L26.4821 14.2226V14.2226L25.6548 14.7842ZM25 16.4521V22H27V16.4521H25ZM21 22V21H19V22H21ZM15 21V22H17V21H15ZM11 22V16.4521H9V22H11ZM11.7513 14.7964L16.5513 10.5964L15.2343 9.09125L10.4343 13.2913L11.7513 14.7964ZM19.4489 10.5964L24.2489 14.7964L25.5659 13.2912L20.7659 9.09125L19.4489 10.5964ZM16.5513 10.5964C16.9362 10.2596 17.1828 10.0447 17.3841 9.89417C17.5753 9.75117 17.665 9.71378 17.7162 9.69865L17.149 7.78075C16.7801 7.88986 16.4732 8.0779 16.1862 8.29257C15.9092 8.49974 15.596 8.77474 15.2343 9.09125L16.5513 10.5964ZM20.7659 9.09125C20.4041 8.77469 20.0909 8.4997 19.8138 8.29251C19.5267 8.07784 19.2198 7.88984 18.851 7.78075L18.2838 9.69865C18.335 9.7138 18.4249 9.75122 18.6161 9.89423C18.8174 10.0447 19.0641 10.2597 19.4489 10.5964L20.7659 9.09125ZM17.7162 9.69865C17.9013 9.64391 18.0987 9.64391 18.2838 9.69865L18.851 7.78075C18.2957 7.61654 17.7043 7.61654 17.149 7.78075L17.7162 9.69865ZM11 16.4521C11 15.8654 11.0076 15.75 11.0325 15.6547L9.09746 15.1491C8.99241 15.5511 9 15.9701 9 16.4521H11ZM10.4343 13.2913C10.0717 13.6085 9.75123 13.8787 9.51784 14.2226L11.1726 15.3459C11.2279 15.2644 11.3096 15.1829 11.7513 14.7964L10.4343 13.2913ZM11.0325 15.6547C11.0613 15.5444 11.1087 15.4399 11.1726 15.3459L9.51784 14.2226C9.32588 14.5053 9.18378 14.8188 9.09746 15.1491L11.0325 15.6547ZM13.0002 24C12.5206 24 12.211 23.9994 11.974 23.9833C11.746 23.9677 11.6592 23.9411 11.6175 23.9239L10.8522 25.7716C11.1781 25.9066 11.508 25.9561 11.8378 25.9786C12.1587 26.0005 12.548 26 13.0002 26V24ZM9 22C9 22.4523 8.99946 22.8416 9.02135 23.1624C9.04386 23.4922 9.09336 23.8221 9.22836 24.148L11.0761 23.3826C11.0589 23.341 11.0323 23.2542 11.0167 23.0262C11.0005 22.7893 11 22.4797 11 22H9ZM11.6175 23.9239C11.3723 23.8223 11.1775 23.6275 11.0761 23.3826L9.22836 24.148C9.53292 24.8833 10.1173 25.4672 10.8522 25.7716L11.6175 23.9239ZM15 22C15 22.4795 14.9994 22.7892 14.9832 23.0261C14.9677 23.2541 14.941 23.341 14.9238 23.3826L16.7715 24.148C16.9065 23.8221 16.9561 23.4923 16.9786 23.1624C17.0005 22.8415 17 22.4523 17 22H15ZM13.0002 26C13.4525 26 13.8417 26.0005 14.1625 25.9786C14.4923 25.9561 14.8222 25.9066 15.1481 25.7716L14.3827 23.9239C14.341 23.9411 14.2542 23.9677 14.0263 23.9833C13.7894 23.9994 13.4799 24 13.0002 24V26ZM14.9238 23.3826C14.8222 23.6278 14.6276 23.8224 14.3827 23.9239L15.1481 25.7716C15.8832 25.4671 16.4671 24.883 16.7715 24.148L14.9238 23.3826ZM18 18C16.3431 18 15 19.3431 15 21H17C17 20.4477 17.4477 20 18 20V18ZM21 21C21 19.3431 19.6569 18 18 18V20C18.5523 20 19 20.4477 19 21H21ZM23.0002 24C22.5206 24 22.211 23.9994 21.974 23.9833C21.746 23.9677 21.6592 23.9411 21.6175 23.9239L20.8522 25.7716C21.1781 25.9066 21.508 25.9561 21.8378 25.9786C22.1587 26.0005 22.548 26 23.0002 26V24ZM19 22C19 22.4522 18.9995 22.8415 19.0213 23.1623C19.0439 23.4922 19.0934 23.8221 19.2284 24.148L21.0761 23.3826C21.0589 23.341 21.0323 23.2542 21.0167 23.0262C21.0005 22.7892 21 22.4796 21 22H19ZM21.6175 23.9239C21.3723 23.8223 21.1775 23.6275 21.0761 23.3826L19.2284 24.148C19.5329 24.8833 20.1173 25.4672 20.8522 25.7716L21.6175 23.9239ZM25 22C25 22.4796 24.9994 22.7892 24.9832 23.0261C24.9677 23.2541 24.941 23.3409 24.9238 23.3826L26.7715 24.148C26.9065 23.8222 26.9561 23.4923 26.9786 23.1625C27.0005 22.8416 27 22.4524 27 22H25ZM23.0002 26C23.4525 26 23.8417 26.0005 24.1625 25.9786C24.4923 25.9561 24.8222 25.9066 25.1481 25.7716L24.3827 23.9239C24.341 23.9411 24.2542 23.9677 24.0263 23.9833C23.7894 23.9994 23.4799 24 23.0002 24V26ZM24.9238 23.3826C24.8222 23.6278 24.6276 23.8224 24.3827 23.9239L25.1481 25.7716C25.8832 25.4671 26.4671 24.883 26.7715 24.148L24.9238 23.3826ZM27 16.4521C27 15.9702 27.0076 15.5512 26.9026 15.1491L24.9675 15.6547C24.9924 15.75 25 15.8653 25 16.4521H27ZM24.2489 14.7964C24.6902 15.1825 24.772 15.2643 24.8274 15.3459L26.4821 14.2226C26.2488 13.8788 25.9289 13.6089 25.5659 13.2912L24.2489 14.7964ZM26.9026 15.1491C26.8162 14.8186 26.674 14.5052 26.4821 14.2226L24.8274 15.3459C24.8913 15.44 24.9387 15.5445 24.9675 15.6547L26.9026 15.1491Z" fill="white"/>
</svg>
