<svg width="223" height="52" viewBox="0 0 223 52" fill="none" xmlns="http://www.w3.org/2000/svg">
<g clip-path="url(#clip0_233_3026)">
<path d="M39.4279 8.14121H31.33V0.0622559H21.0248V8.14121H12.9269V18.4248H21.0248V26.5064H31.33V18.4248H39.4279V8.14121Z" fill="#DE091C"/>
<path d="M43.6366 32.5542V23.6546C43.6366 22.3953 44.6739 21.3661 45.9468 21.3661C47.2143 21.3661 48.2408 22.3953 48.2408 23.6546V35.8421C48.2408 37.5294 47.6341 39.1544 46.5427 40.4273L38.9268 48.4982C38.1712 49.2078 37.9843 49.8361 37.9843 50.7894V52.2573H29.6968L29.686 48.7609C29.686 47.4311 29.5777 45.6517 31.2487 43.9048L40.912 34.2225C41.256 33.8921 41.7083 33.7107 42.185 33.7107C43.1979 33.7107 44.0185 34.5286 44.0185 35.5361C44.0185 35.9721 43.8641 36.3946 43.5825 36.725L38.9214 41.7084C38.6208 42.0632 38.1089 42.7294 37.8543 43.5446C37.7162 43.9671 37.6783 44.3842 37.6702 44.8555H39.1706C39.176 44.5169 39.2004 44.2488 39.2816 43.9969C39.4279 43.523 39.7231 43.1005 39.9425 42.8296L44.6739 37.6486C45.2697 37.05 45.5947 36.2728 45.5947 35.4603C45.5947 34.2361 44.8554 33.1094 43.6366 32.5542Z" fill="#DE091C"/>
<path d="M8.71547 32.5542V23.6546C8.71547 22.3953 7.68089 21.3661 6.40797 21.3661C5.13776 21.3634 4.11401 22.3926 4.11401 23.6546V35.8421C4.11401 37.5294 4.72068 39.1544 5.80943 40.4273L13.4253 48.4982C14.1809 49.2078 14.3678 49.8361 14.3678 50.7894V52.2573H22.658L22.6661 48.7609C22.6661 47.4311 22.7744 45.6517 21.1061 43.9048L11.4428 34.2226C11.0961 33.8921 10.6465 33.7107 10.1671 33.7107C9.15693 33.7107 8.3336 34.5313 8.3336 35.5361C8.3336 35.9721 8.48797 36.3946 8.76964 36.7278L13.4334 41.7084C13.734 42.0632 14.2459 42.7294 14.4978 43.5446C14.6359 43.9671 14.6738 44.3815 14.6819 44.8555H13.1815C13.1761 44.5169 13.1517 44.2461 13.0705 43.9969C12.9242 43.523 12.6317 43.1005 12.4123 42.8296L7.67818 37.6486C7.08505 37.0473 6.76006 36.2728 6.76006 35.4576C6.76006 34.2361 7.49672 33.1094 8.71547 32.5542Z" fill="#DE091C"/>
<path d="M14.7984 16.6969C16.0875 16.6969 17.3767 16.6969 18.6632 16.6969C18.8852 16.6969 19.0667 16.548 19.129 16.3394C19.9361 13.7367 20.7404 11.1313 21.5448 8.52859C21.2361 8.52859 20.9246 8.52859 20.6132 8.52859C21.58 11.2423 22.5469 13.9534 23.5138 16.6644C23.6682 17.095 24.3209 17.1628 24.4454 16.6644C25.5179 12.3798 26.5932 8.09526 27.6657 3.81067C27.3569 3.81067 27.0454 3.81067 26.734 3.81067C27.755 9.6688 28.7734 15.5242 29.7944 21.3823C29.8648 21.7913 30.5013 21.8671 30.6773 21.4988C31.4519 19.8792 32.2292 18.2596 33.0038 16.64C33.1961 16.2392 32.4025 16.6969 32.9252 16.6969C33.4344 16.6969 33.9436 16.6969 34.45 16.6969C35.3627 16.6969 36.2727 16.6969 37.1854 16.6969C37.8084 16.6969 37.8084 15.7219 37.1854 15.7219C35.6823 15.7219 34.1792 15.7219 32.6761 15.7219C32.5163 15.7219 32.3321 15.8113 32.259 15.963C31.4546 17.6448 30.6475 19.324 29.8432 21.0059C30.1384 21.0438 30.4309 21.0844 30.7261 21.1223C29.705 15.2669 28.6867 9.4088 27.6657 3.55067C27.5817 3.06588 26.8477 3.10651 26.734 3.55067C25.6615 7.83526 24.5863 12.1198 23.5138 16.4044C23.8252 16.4044 24.134 16.4044 24.4454 16.4044C23.4786 13.6934 22.5117 10.9823 21.5448 8.2713C21.385 7.82172 20.7621 7.78922 20.6132 8.2713C19.8088 10.874 19.0044 13.4767 18.1973 16.0794C18.3544 15.9603 18.5088 15.8411 18.6632 15.7219C17.3767 15.7219 16.0875 15.7219 14.7984 15.7219C14.1754 15.7219 14.1754 16.6969 14.7984 16.6969Z" fill="white"/>
</g>
<path d="M71.321 8.54545H76.5455L80.9773 19.3523H81.1818L85.6136 8.54545H90.8381V26H86.7301V15.2784H86.5852L82.392 25.8892H79.767L75.5739 15.2188H75.429V26H71.321V8.54545ZM100.789 26.2472C99.4195 26.2472 98.2376 25.9773 97.2433 25.4375C96.2547 24.892 95.4933 24.1165 94.9592 23.1108C94.4308 22.0994 94.1666 20.8977 94.1666 19.5057C94.1666 18.1534 94.4337 16.9716 94.9678 15.9602C95.5018 14.9432 96.2547 14.1534 97.2263 13.5909C98.1979 13.0227 99.3428 12.7386 100.661 12.7386C101.593 12.7386 102.445 12.8835 103.218 13.1733C103.99 13.4631 104.658 13.892 105.221 14.4602C105.783 15.0284 106.221 15.7301 106.533 16.5653C106.846 17.3949 107.002 18.3466 107.002 19.4205V20.4602H95.624V18.0398H103.124C103.118 17.5966 103.013 17.2017 102.809 16.8551C102.604 16.5085 102.323 16.2386 101.965 16.0455C101.613 15.8466 101.206 15.7472 100.746 15.7472C100.28 15.7472 99.8626 15.8523 99.4933 16.0625C99.124 16.267 98.8314 16.5483 98.6155 16.9062C98.3996 17.2585 98.2859 17.6591 98.2746 18.108V20.571C98.2746 21.1051 98.3797 21.5739 98.5899 21.9773C98.8001 22.375 99.0984 22.6847 99.4848 22.9062C99.8712 23.1278 100.331 23.2386 100.865 23.2386C101.235 23.2386 101.57 23.1875 101.871 23.0852C102.172 22.983 102.431 22.8324 102.647 22.6335C102.863 22.4347 103.025 22.1903 103.133 21.9006L106.959 22.0114C106.8 22.8693 106.451 23.6165 105.911 24.2528C105.377 24.8835 104.675 25.375 103.806 25.7273C102.937 26.0739 101.931 26.2472 100.789 26.2472ZM115.112 26.1875C114.146 26.1875 113.268 25.9375 112.478 25.4375C111.688 24.9375 111.058 24.1875 110.586 23.1875C110.114 22.1875 109.879 20.946 109.879 19.4631C109.879 17.9233 110.123 16.6562 110.612 15.6619C111.1 14.6676 111.739 13.9318 112.529 13.4545C113.325 12.9773 114.18 12.7386 115.095 12.7386C115.782 12.7386 116.37 12.858 116.859 13.0966C117.347 13.3295 117.751 13.6307 118.069 14C118.387 14.3693 118.629 14.7528 118.793 15.1506H118.879V8.54545H123.046V26H118.921V23.8778H118.793C118.617 24.2812 118.367 24.6591 118.043 25.0114C117.72 25.3636 117.313 25.6477 116.825 25.8636C116.342 26.0795 115.771 26.1875 115.112 26.1875ZM116.561 22.9403C117.066 22.9403 117.498 22.7983 117.856 22.5142C118.214 22.2244 118.489 21.8182 118.683 21.2955C118.876 20.7727 118.972 20.1591 118.972 19.4545C118.972 18.7386 118.876 18.1222 118.683 17.6051C118.495 17.0881 118.22 16.6903 117.856 16.4119C117.498 16.1335 117.066 15.9943 116.561 15.9943C116.043 15.9943 115.606 16.1364 115.248 16.4205C114.89 16.7045 114.617 17.1051 114.43 17.6222C114.248 18.1392 114.157 18.75 114.157 19.4545C114.157 20.1591 114.251 20.7727 114.438 21.2955C114.626 21.8182 114.896 22.2244 115.248 22.5142C115.606 22.7983 116.043 22.9403 116.561 22.9403ZM126.882 26V12.9091H131.05V26H126.882ZM128.97 11.3835C128.385 11.3835 127.882 11.1903 127.462 10.804C127.041 10.4119 126.831 9.94034 126.831 9.3892C126.831 8.84375 127.041 8.37784 127.462 7.99148C127.882 7.59943 128.385 7.40341 128.97 7.40341C129.561 7.40341 130.064 7.59943 130.479 7.99148C130.899 8.37784 131.109 8.84375 131.109 9.3892C131.109 9.94034 130.899 10.4119 130.479 10.804C130.064 11.1903 129.561 11.3835 128.97 11.3835ZM142.343 12.9091V15.9773H133.922V12.9091H142.343ZM135.678 26V12.2443C135.678 11.233 135.868 10.3949 136.249 9.73011C136.63 9.05966 137.158 8.55966 137.834 8.23011C138.51 7.89489 139.291 7.72727 140.178 7.72727C140.757 7.72727 141.303 7.77273 141.814 7.86364C142.331 7.94886 142.715 8.02557 142.965 8.09375L142.3 11.1449C142.147 11.0937 141.959 11.0511 141.737 11.017C141.522 10.983 141.317 10.9659 141.124 10.9659C140.635 10.9659 140.3 11.0739 140.118 11.2898C139.936 11.5057 139.845 11.8011 139.845 12.1761V26H135.678ZM145.548 26V12.9091H149.715V26H145.548ZM147.636 11.3835C147.05 11.3835 146.548 11.1903 146.127 10.804C145.707 10.4119 145.496 9.94034 145.496 9.3892C145.496 8.84375 145.707 8.37784 146.127 7.99148C146.548 7.59943 147.05 7.40341 147.636 7.40341C148.227 7.40341 148.729 7.59943 149.144 7.99148C149.565 8.37784 149.775 8.84375 149.775 9.3892C149.775 9.94034 149.565 10.4119 149.144 10.804C148.729 11.1903 148.227 11.3835 147.636 11.3835ZM157.736 18.5341V26H153.568V12.9091H157.531V15.3125H157.676C157.966 14.5114 158.46 13.8835 159.159 13.429C159.858 12.9688 160.69 12.7386 161.656 12.7386C162.576 12.7386 163.375 12.946 164.051 13.3608C164.733 13.7699 165.261 14.3437 165.636 15.0824C166.017 15.8153 166.204 16.6733 166.199 17.6562V26H162.031V18.4744C162.037 17.7472 161.852 17.179 161.477 16.7699C161.108 16.3608 160.593 16.1562 159.934 16.1562C159.497 16.1562 159.111 16.2528 158.775 16.446C158.446 16.6335 158.19 16.9034 158.008 17.2557C157.832 17.608 157.741 18.0341 157.736 18.5341ZM174.76 26.1875C173.794 26.1875 172.916 25.9375 172.127 25.4375C171.337 24.9375 170.706 24.1875 170.235 23.1875C169.763 22.1875 169.527 20.946 169.527 19.4631C169.527 17.9233 169.771 16.6562 170.26 15.6619C170.749 14.6676 171.388 13.9318 172.178 13.4545C172.973 12.9773 173.828 12.7386 174.743 12.7386C175.431 12.7386 176.019 12.858 176.507 13.0966C176.996 13.3295 177.399 13.6307 177.717 14C178.036 14.3693 178.277 14.7528 178.442 15.1506H178.527V8.54545H182.695V26H178.57V23.8778H178.442C178.266 24.2812 178.016 24.6591 177.692 25.0114C177.368 25.3636 176.962 25.6477 176.473 25.8636C175.99 26.0795 175.419 26.1875 174.76 26.1875ZM176.209 22.9403C176.715 22.9403 177.146 22.7983 177.504 22.5142C177.862 22.2244 178.138 21.8182 178.331 21.2955C178.524 20.7727 178.621 20.1591 178.621 19.4545C178.621 18.7386 178.524 18.1222 178.331 17.6051C178.144 17.0881 177.868 16.6903 177.504 16.4119C177.146 16.1335 176.715 15.9943 176.209 15.9943C175.692 15.9943 175.254 16.1364 174.896 16.4205C174.538 16.7045 174.266 17.1051 174.078 17.6222C173.896 18.1392 173.806 18.75 173.806 19.4545C173.806 20.1591 173.899 20.7727 174.087 21.2955C174.274 21.8182 174.544 22.2244 174.896 22.5142C175.254 22.7983 175.692 22.9403 176.209 22.9403ZM192.65 26.2472C191.28 26.2472 190.099 25.9773 189.104 25.4375C188.116 24.892 187.354 24.1165 186.82 23.1108C186.292 22.0994 186.028 20.8977 186.028 19.5057C186.028 18.1534 186.295 16.9716 186.829 15.9602C187.363 14.9432 188.116 14.1534 189.087 13.5909C190.059 13.0227 191.204 12.7386 192.522 12.7386C193.454 12.7386 194.306 12.8835 195.079 13.1733C195.851 13.4631 196.519 13.892 197.082 14.4602C197.644 15.0284 198.082 15.7301 198.394 16.5653C198.707 17.3949 198.863 18.3466 198.863 19.4205V20.4602H187.485V18.0398H194.985C194.979 17.5966 194.874 17.2017 194.67 16.8551C194.465 16.5085 194.184 16.2386 193.826 16.0455C193.474 15.8466 193.067 15.7472 192.607 15.7472C192.141 15.7472 191.724 15.8523 191.354 16.0625C190.985 16.267 190.692 16.5483 190.476 16.9062C190.261 17.2585 190.147 17.6591 190.136 18.108V20.571C190.136 21.1051 190.241 21.5739 190.451 21.9773C190.661 22.375 190.959 22.6847 191.346 22.9062C191.732 23.1278 192.192 23.2386 192.726 23.2386C193.096 23.2386 193.431 23.1875 193.732 23.0852C194.033 22.983 194.292 22.8324 194.508 22.6335C194.724 22.4347 194.886 22.1903 194.993 21.9006L198.82 22.0114C198.661 22.8693 198.312 23.6165 197.772 24.2528C197.238 24.8835 196.536 25.375 195.667 25.7273C194.797 26.0739 193.792 26.2472 192.65 26.2472ZM202.191 26V12.9091H206.24V15.2955H206.376C206.615 14.4318 207.004 13.7898 207.544 13.3693C208.083 12.9432 208.711 12.7301 209.427 12.7301C209.62 12.7301 209.819 12.7443 210.024 12.7727C210.228 12.7955 210.419 12.8324 210.595 12.8835V16.5057C210.396 16.4375 210.135 16.3835 209.811 16.3438C209.492 16.304 209.208 16.2841 208.958 16.2841C208.464 16.2841 208.018 16.3949 207.62 16.6165C207.228 16.8324 206.919 17.1364 206.691 17.5284C206.47 17.9148 206.359 18.3693 206.359 18.892V26H202.191Z" fill="#DE091C"/>
<path d="M71.0114 46V34.3636H75.6023C76.4848 34.3636 77.2367 34.5322 77.858 34.8693C78.4792 35.2027 78.9527 35.6667 79.2784 36.2614C79.608 36.8523 79.7727 37.5341 79.7727 38.3068C79.7727 39.0795 79.6061 39.7614 79.2727 40.3523C78.9394 40.9432 78.4564 41.4034 77.8239 41.733C77.1951 42.0625 76.4337 42.2273 75.5398 42.2273H72.6136V40.2557H75.142C75.6155 40.2557 76.0057 40.1742 76.3125 40.0114C76.6231 39.8447 76.8542 39.6155 77.0057 39.3239C77.161 39.0284 77.2386 38.6894 77.2386 38.3068C77.2386 37.9205 77.161 37.5833 77.0057 37.2955C76.8542 37.0038 76.6231 36.7784 76.3125 36.6193C76.0019 36.4564 75.608 36.375 75.1307 36.375H73.4716V46H71.0114ZM84.3795 46.1648C83.8227 46.1648 83.3265 46.0682 82.8909 45.875C82.4553 45.678 82.1106 45.3883 81.8568 45.0057C81.6068 44.6193 81.4818 44.1383 81.4818 43.5625C81.4818 43.0777 81.5708 42.6705 81.7489 42.3409C81.9269 42.0114 82.1693 41.7462 82.4761 41.5455C82.783 41.3447 83.1314 41.1932 83.5216 41.0909C83.9155 40.9886 84.3284 40.9167 84.7602 40.875C85.2678 40.822 85.6769 40.7727 85.9875 40.7273C86.2981 40.678 86.5235 40.6061 86.6636 40.5114C86.8038 40.4167 86.8739 40.2765 86.8739 40.0909V40.0568C86.8739 39.697 86.7602 39.4186 86.533 39.2216C86.3095 39.0246 85.9913 38.9261 85.5784 38.9261C85.1428 38.9261 84.7962 39.0227 84.5386 39.2159C84.2811 39.4053 84.1106 39.6439 84.0273 39.9318L81.7886 39.75C81.9023 39.2197 82.1258 38.7614 82.4591 38.375C82.7924 37.9848 83.2223 37.6856 83.7489 37.4773C84.2792 37.2652 84.8928 37.1591 85.5898 37.1591C86.0746 37.1591 86.5386 37.2159 86.9818 37.3295C87.4288 37.4432 87.8246 37.6193 88.1693 37.858C88.5178 38.0966 88.7924 38.4034 88.9932 38.7784C89.1939 39.1496 89.2943 39.5947 89.2943 40.1136V46H86.9989V44.7898H86.9307C86.7905 45.0625 86.603 45.303 86.3682 45.5114C86.1333 45.7159 85.8511 45.8769 85.5216 45.9943C85.192 46.108 84.8114 46.1648 84.3795 46.1648ZM85.0727 44.4943C85.4288 44.4943 85.7432 44.4242 86.0159 44.2841C86.2886 44.1402 86.5027 43.947 86.658 43.7045C86.8133 43.4621 86.8909 43.1875 86.8909 42.8807V41.9545C86.8152 42.0038 86.711 42.0492 86.5784 42.0909C86.4496 42.1288 86.3038 42.1648 86.1409 42.1989C85.978 42.2292 85.8152 42.2576 85.6523 42.2841C85.4894 42.3068 85.3417 42.3277 85.2091 42.3466C84.925 42.3883 84.6769 42.4545 84.4648 42.5455C84.2527 42.6364 84.0879 42.7595 83.9705 42.9148C83.853 43.0663 83.7943 43.2557 83.7943 43.483C83.7943 43.8125 83.9136 44.0644 84.1523 44.2386C84.3947 44.4091 84.7015 44.4943 85.0727 44.4943ZM91.9722 46V37.2727H94.3188V38.7955H94.4097C94.5688 38.2538 94.8358 37.8447 95.2108 37.5682C95.5858 37.2879 96.0176 37.1477 96.5063 37.1477C96.6275 37.1477 96.7581 37.1553 96.8983 37.1705C97.0384 37.1856 97.1616 37.2064 97.2676 37.233V39.3807C97.154 39.3466 96.9968 39.3163 96.796 39.2898C96.5953 39.2633 96.4116 39.25 96.2449 39.25C95.8888 39.25 95.5706 39.3277 95.2903 39.483C95.0138 39.6345 94.7941 39.8466 94.6313 40.1193C94.4722 40.392 94.3926 40.7064 94.3926 41.0625V46H91.9722ZM102.129 46.142C101.466 46.142 100.865 45.9716 100.328 45.6307C99.7935 45.286 99.3692 44.7803 99.0548 44.1136C98.7442 43.4432 98.5889 42.6212 98.5889 41.6477C98.5889 40.6477 98.7499 39.8163 99.0719 39.1534C99.3938 38.4867 99.8219 37.9886 100.356 37.6591C100.894 37.3258 101.483 37.1591 102.123 37.1591C102.612 37.1591 103.019 37.2424 103.345 37.4091C103.674 37.572 103.939 37.7765 104.14 38.0227C104.345 38.2652 104.5 38.5038 104.606 38.7386H104.68V34.3636H107.095V46H104.708V44.6023H104.606C104.492 44.8447 104.331 45.0852 104.123 45.3239C103.918 45.5587 103.651 45.7538 103.322 45.9091C102.996 46.0644 102.598 46.142 102.129 46.142ZM102.896 44.2159C103.286 44.2159 103.615 44.1098 103.884 43.8977C104.157 43.6818 104.365 43.3807 104.509 42.9943C104.657 42.608 104.731 42.1553 104.731 41.6364C104.731 41.1174 104.659 40.6667 104.515 40.2841C104.371 39.9015 104.163 39.6061 103.89 39.3977C103.617 39.1894 103.286 39.0852 102.896 39.0852C102.498 39.0852 102.163 39.1932 101.89 39.4091C101.617 39.625 101.411 39.9242 101.271 40.3068C101.131 40.6894 101.061 41.1326 101.061 41.6364C101.061 42.1439 101.131 42.5928 101.271 42.983C101.415 43.3693 101.621 43.6723 101.89 43.892C102.163 44.108 102.498 44.2159 102.896 44.2159ZM115.481 42.2841V37.2727H117.902V46H115.578V44.4148H115.487C115.29 44.9261 114.962 45.3371 114.504 45.6477C114.049 45.9583 113.495 46.1136 112.839 46.1136C112.256 46.1136 111.743 45.9811 111.299 45.7159C110.856 45.4508 110.51 45.0739 110.26 44.5852C110.013 44.0966 109.888 43.5114 109.885 42.8295V37.2727H112.305V42.3977C112.309 42.9129 112.447 43.3201 112.72 43.6193C112.993 43.9186 113.358 44.0682 113.816 44.0682C114.108 44.0682 114.381 44.0019 114.635 43.8693C114.888 43.733 115.093 43.5322 115.248 43.267C115.407 43.0019 115.485 42.6742 115.481 42.2841ZM120.683 46V34.3636H123.104V38.7386H123.178C123.284 38.5038 123.437 38.2652 123.638 38.0227C123.842 37.7765 124.107 37.572 124.433 37.4091C124.763 37.2424 125.172 37.1591 125.661 37.1591C126.297 37.1591 126.884 37.3258 127.422 37.6591C127.96 37.9886 128.39 38.4867 128.712 39.1534C129.034 39.8163 129.195 40.6477 129.195 41.6477C129.195 42.6212 129.037 43.4432 128.723 44.1136C128.412 44.7803 127.988 45.286 127.45 45.6307C126.916 45.9716 126.318 46.142 125.655 46.142C125.185 46.142 124.786 46.0644 124.456 45.9091C124.13 45.7538 123.863 45.5587 123.655 45.3239C123.446 45.0852 123.287 44.8447 123.178 44.6023H123.07V46H120.683ZM123.053 41.6364C123.053 42.1553 123.125 42.608 123.268 42.9943C123.412 43.3807 123.621 43.6818 123.893 43.8977C124.166 44.1098 124.498 44.2159 124.888 44.2159C125.282 44.2159 125.615 44.108 125.888 43.892C126.161 43.6723 126.367 43.3693 126.507 42.983C126.651 42.5928 126.723 42.1439 126.723 41.6364C126.723 41.1326 126.653 40.6894 126.513 40.3068C126.373 39.9242 126.166 39.625 125.893 39.4091C125.621 39.1932 125.286 39.0852 124.888 39.0852C124.494 39.0852 124.161 39.1894 123.888 39.3977C123.619 39.6061 123.412 39.9015 123.268 40.2841C123.125 40.6667 123.053 41.1174 123.053 41.6364ZM131.61 46V37.2727H134.03V46H131.61ZM132.826 36.1477C132.466 36.1477 132.157 36.0284 131.899 35.7898C131.646 35.5473 131.519 35.2576 131.519 34.9205C131.519 34.5871 131.646 34.3011 131.899 34.0625C132.157 33.8201 132.466 33.6989 132.826 33.6989C133.185 33.6989 133.492 33.8201 133.746 34.0625C134.004 34.3011 134.132 34.5871 134.132 34.9205C134.132 35.2576 134.004 35.5473 133.746 35.7898C133.492 36.0284 133.185 36.1477 132.826 36.1477ZM140.712 46.1705C139.818 46.1705 139.049 45.9811 138.405 45.6023C137.765 45.2197 137.273 44.6894 136.928 44.0114C136.587 43.3333 136.417 42.553 136.417 41.6705C136.417 40.7765 136.589 39.9924 136.934 39.3182C137.282 38.6402 137.777 38.1117 138.417 37.733C139.057 37.3504 139.818 37.1591 140.701 37.1591C141.462 37.1591 142.129 37.2973 142.701 37.5739C143.273 37.8504 143.725 38.2386 144.059 38.7386C144.392 39.2386 144.576 39.8258 144.61 40.5H142.326C142.261 40.0644 142.091 39.714 141.814 39.4489C141.542 39.1799 141.184 39.0455 140.741 39.0455C140.366 39.0455 140.038 39.1477 139.758 39.3523C139.481 39.553 139.265 39.8466 139.11 40.233C138.955 40.6193 138.877 41.0871 138.877 41.6364C138.877 42.1932 138.953 42.6667 139.104 43.0568C139.26 43.447 139.477 43.7443 139.758 43.9489C140.038 44.1534 140.366 44.2557 140.741 44.2557C141.017 44.2557 141.265 44.1989 141.485 44.0852C141.708 43.9716 141.892 43.8068 142.036 43.5909C142.184 43.3712 142.28 43.108 142.326 42.8011H144.61C144.572 43.4678 144.39 44.0549 144.064 44.5625C143.743 45.0663 143.297 45.4602 142.729 45.7443C142.161 46.0284 141.489 46.1705 140.712 46.1705ZM150.937 46.1705C150.039 46.1705 149.266 45.9886 148.619 45.625C147.975 45.2576 147.479 44.7386 147.13 44.0682C146.782 43.3939 146.607 42.5966 146.607 41.6761C146.607 40.7784 146.782 39.9905 147.13 39.3125C147.479 38.6345 147.969 38.1061 148.602 37.7273C149.238 37.3485 149.984 37.1591 150.84 37.1591C151.416 37.1591 151.952 37.2519 152.448 37.4375C152.948 37.6193 153.384 37.8939 153.755 38.2614C154.13 38.6288 154.422 39.0909 154.63 39.6477C154.838 40.2008 154.943 40.8485 154.943 41.5909V42.2557H147.573V40.7557H152.664C152.664 40.4072 152.588 40.0985 152.437 39.8295C152.285 39.5606 152.075 39.3504 151.806 39.1989C151.541 39.0436 151.232 38.9659 150.88 38.9659C150.513 38.9659 150.187 39.0511 149.903 39.2216C149.623 39.3883 149.403 39.6136 149.244 39.8977C149.085 40.178 149.003 40.4905 148.999 40.8352V42.2614C148.999 42.6932 149.079 43.0663 149.238 43.3807C149.401 43.6951 149.63 43.9375 149.926 44.108C150.221 44.2784 150.571 44.3636 150.977 44.3636C151.246 44.3636 151.492 44.3258 151.715 44.25C151.939 44.1742 152.13 44.0606 152.289 43.9091C152.448 43.7576 152.57 43.572 152.653 43.3523L154.891 43.5C154.778 44.0379 154.545 44.5076 154.193 44.9091C153.844 45.3068 153.393 45.6174 152.84 45.8409C152.291 46.0606 151.657 46.1705 150.937 46.1705Z" fill="#DE091C"/>
<defs>
<clipPath id="clip0_233_3026">
<rect width="52" height="52" fill="white"/>
</clipPath>
</defs>
</svg>
