<svg width="342" height="145" viewBox="0 0 342 145" fill="none" xmlns="http://www.w3.org/2000/svg">
<g filter="url(#filter0_d_233_3126)">
<rect x="10" y="10" width="322" height="125" rx="15" fill="white"/>
</g>
<path d="M106.744 33.3636V45H104.619L99.5568 37.6761H99.4716V45H97.0114V33.3636H99.1705L104.193 40.6818H104.295V33.3636H106.744ZM112.709 45.1705C111.811 45.1705 111.038 44.9886 110.391 44.625C109.747 44.2576 109.25 43.7386 108.902 43.0682C108.554 42.3939 108.379 41.5966 108.379 40.6761C108.379 39.7784 108.554 38.9905 108.902 38.3125C109.25 37.6345 109.741 37.1061 110.374 36.7273C111.01 36.3485 111.756 36.1591 112.612 36.1591C113.188 36.1591 113.724 36.2519 114.22 36.4375C114.72 36.6193 115.156 36.8939 115.527 37.2614C115.902 37.6288 116.194 38.0909 116.402 38.6477C116.61 39.2008 116.714 39.8485 116.714 40.5909V41.2557H109.345V39.7557H114.436C114.436 39.4072 114.36 39.0985 114.209 38.8295C114.057 38.5606 113.847 38.3504 113.578 38.1989C113.313 38.0436 113.004 37.9659 112.652 37.9659C112.285 37.9659 111.959 38.0511 111.675 38.2216C111.394 38.3883 111.175 38.6136 111.016 38.8977C110.857 39.178 110.775 39.4905 110.771 39.8352V41.2614C110.771 41.6932 110.851 42.0663 111.01 42.3807C111.173 42.6951 111.402 42.9375 111.697 43.108C111.993 43.2784 112.343 43.3636 112.749 43.3636C113.018 43.3636 113.264 43.3258 113.487 43.25C113.711 43.1742 113.902 43.0606 114.061 42.9091C114.22 42.7576 114.341 42.572 114.425 42.3523L116.663 42.5C116.55 43.0379 116.317 43.5076 115.964 43.9091C115.616 44.3068 115.165 44.6174 114.612 44.8409C114.063 45.0606 113.429 45.1705 112.709 45.1705ZM118.294 36.2727H120.714V45.4318C120.714 46.1061 120.582 46.6515 120.317 47.0682C120.052 47.4848 119.671 47.7898 119.175 47.983C118.682 48.1761 118.093 48.2727 117.408 48.2727C117.324 48.2727 117.245 48.2708 117.169 48.267C117.089 48.267 117.006 48.2652 116.919 48.2614V46.3693C116.983 46.3731 117.04 46.375 117.089 46.375C117.135 46.3788 117.184 46.3807 117.237 46.3807C117.627 46.3807 117.9 46.2973 118.055 46.1307C118.214 45.9678 118.294 45.7216 118.294 45.392V36.2727ZM119.499 35.1477C119.143 35.1477 118.836 35.0284 118.578 34.7898C118.321 34.5473 118.192 34.2576 118.192 33.9205C118.192 33.5871 118.321 33.3011 118.578 33.0625C118.836 32.8201 119.143 32.6989 119.499 32.6989C119.862 32.6989 120.171 32.8201 120.425 33.0625C120.682 33.3011 120.811 33.5871 120.811 33.9205C120.811 34.2576 120.682 34.5473 120.425 34.7898C120.171 35.0284 119.862 35.1477 119.499 35.1477ZM122.699 45V33.3636H125.119V37.7386H125.193C125.299 37.5038 125.453 37.2652 125.653 37.0227C125.858 36.7765 126.123 36.572 126.449 36.4091C126.778 36.2424 127.188 36.1591 127.676 36.1591C128.313 36.1591 128.9 36.3258 129.438 36.6591C129.975 36.9886 130.405 37.4867 130.727 38.1534C131.049 38.8163 131.21 39.6477 131.21 40.6477C131.21 41.6212 131.053 42.4432 130.739 43.1136C130.428 43.7803 130.004 44.286 129.466 44.6307C128.932 44.9716 128.333 45.142 127.67 45.142C127.201 45.142 126.801 45.0644 126.472 44.9091C126.146 44.7538 125.879 44.5587 125.67 44.3239C125.462 44.0852 125.303 43.8447 125.193 43.6023H125.085V45H122.699ZM125.068 40.6364C125.068 41.1553 125.14 41.608 125.284 41.9943C125.428 42.3807 125.636 42.6818 125.909 42.8977C126.182 43.1098 126.513 43.2159 126.903 43.2159C127.297 43.2159 127.631 43.108 127.903 42.892C128.176 42.6723 128.383 42.3693 128.523 41.983C128.667 41.5928 128.739 41.1439 128.739 40.6364C128.739 40.1326 128.669 39.6894 128.528 39.3068C128.388 38.9242 128.182 38.625 127.909 38.4091C127.636 38.1932 127.301 38.0852 126.903 38.0852C126.509 38.0852 126.176 38.1894 125.903 38.3977C125.634 38.6061 125.428 38.9015 125.284 39.2841C125.14 39.6667 125.068 40.1174 125.068 40.6364ZM135.246 33.3636V45H132.825V33.3636H135.246ZM137.185 45V36.2727H139.605V45H137.185ZM138.401 35.1477C138.041 35.1477 137.732 35.0284 137.474 34.7898C137.221 34.5473 137.094 34.2576 137.094 33.9205C137.094 33.5871 137.221 33.3011 137.474 33.0625C137.732 32.8201 138.041 32.6989 138.401 32.6989C138.76 32.6989 139.067 32.8201 139.321 33.0625C139.579 33.3011 139.707 33.5871 139.707 33.9205C139.707 34.2576 139.579 34.5473 139.321 34.7898C139.067 35.0284 138.76 35.1477 138.401 35.1477ZM141.499 45V43.5568L145.771 38.267V38.2045H141.646V36.2727H148.686V37.8466L144.675 43.0057V43.0682H148.834V45H141.499ZM143.999 32.6477L145.141 34.0341L146.283 32.6477H148.345V32.7273L146.044 35.2273H144.243L141.936 32.7273V32.6477H143.999ZM157.946 38.7614L155.73 38.8977C155.692 38.7083 155.611 38.5379 155.486 38.3864C155.361 38.2311 155.196 38.108 154.991 38.017C154.791 37.9223 154.55 37.875 154.27 37.875C153.895 37.875 153.579 37.9545 153.321 38.1136C153.063 38.2689 152.935 38.4773 152.935 38.7386C152.935 38.947 153.018 39.1231 153.185 39.267C153.351 39.411 153.637 39.5265 154.043 39.6136L155.622 39.9318C156.471 40.1061 157.103 40.3864 157.52 40.7727C157.937 41.1591 158.145 41.6667 158.145 42.2955C158.145 42.8674 157.976 43.3693 157.639 43.8011C157.306 44.233 156.848 44.5701 156.264 44.8125C155.685 45.0511 155.016 45.1705 154.259 45.1705C153.103 45.1705 152.183 44.9299 151.497 44.4489C150.815 43.964 150.416 43.3049 150.298 42.4716L152.679 42.3466C152.751 42.6989 152.925 42.9678 153.202 43.1534C153.478 43.3352 153.832 43.4261 154.264 43.4261C154.688 43.4261 155.029 43.3447 155.287 43.1818C155.548 43.0152 155.681 42.8011 155.685 42.5398C155.681 42.3201 155.588 42.1402 155.406 42C155.224 41.8561 154.944 41.7462 154.565 41.6705L153.054 41.3693C152.202 41.1989 151.567 40.9034 151.151 40.483C150.738 40.0625 150.531 39.5265 150.531 38.875C150.531 38.3144 150.683 37.8314 150.986 37.4261C151.293 37.0208 151.723 36.7083 152.276 36.4886C152.832 36.2689 153.484 36.1591 154.23 36.1591C155.332 36.1591 156.2 36.392 156.832 36.858C157.469 37.3239 157.84 37.9583 157.946 38.7614ZM153.139 32.6477L154.281 34.0341L155.423 32.6477H157.486V32.7273L155.179 35.2273H153.378L151.077 32.7273V32.6477H153.139ZM159.669 45V36.2727H162.089V45H159.669ZM160.016 35.1477L161.22 32.5625H163.459L161.726 35.1477H160.016ZM167.686 45V43.5568L171.959 38.267V38.2045H167.834V36.2727H174.874V37.8466L170.862 43.0057V43.0682H175.021V45H167.686ZM179.361 45.1648C178.804 45.1648 178.308 45.0682 177.872 44.875C177.437 44.678 177.092 44.3883 176.838 44.0057C176.588 43.6193 176.463 43.1383 176.463 42.5625C176.463 42.0777 176.552 41.6705 176.73 41.3409C176.908 41.0114 177.151 40.7462 177.457 40.5455C177.764 40.3447 178.113 40.1932 178.503 40.0909C178.897 39.9886 179.31 39.9167 179.741 39.875C180.249 39.822 180.658 39.7727 180.969 39.7273C181.279 39.678 181.505 39.6061 181.645 39.5114C181.785 39.4167 181.855 39.2765 181.855 39.0909V39.0568C181.855 38.697 181.741 38.4186 181.514 38.2216C181.291 38.0246 180.973 37.9261 180.56 37.9261C180.124 37.9261 179.777 38.0227 179.52 38.2159C179.262 38.4053 179.092 38.6439 179.009 38.9318L176.77 38.75C176.884 38.2197 177.107 37.7614 177.44 37.375C177.774 36.9848 178.204 36.6856 178.73 36.4773C179.26 36.2652 179.874 36.1591 180.571 36.1591C181.056 36.1591 181.52 36.2159 181.963 36.3295C182.41 36.4432 182.806 36.6193 183.151 36.858C183.499 37.0966 183.774 37.4034 183.974 37.7784C184.175 38.1496 184.276 38.5947 184.276 39.1136V45H181.98V43.7898H181.912C181.772 44.0625 181.584 44.303 181.349 44.5114C181.115 44.7159 180.832 44.8769 180.503 44.9943C180.173 45.108 179.793 45.1648 179.361 45.1648ZM180.054 43.4943C180.41 43.4943 180.724 43.4242 180.997 43.2841C181.27 43.1402 181.484 42.947 181.639 42.7045C181.795 42.4621 181.872 42.1875 181.872 41.8807V40.9545C181.796 41.0038 181.692 41.0492 181.56 41.0909C181.431 41.1288 181.285 41.1648 181.122 41.1989C180.959 41.2292 180.796 41.2576 180.634 41.2841C180.471 41.3068 180.323 41.3277 180.19 41.3466C179.906 41.3883 179.658 41.4545 179.446 41.5455C179.234 41.6364 179.069 41.7595 178.952 41.9148C178.834 42.0663 178.776 42.2557 178.776 42.483C178.776 42.8125 178.895 43.0644 179.134 43.2386C179.376 43.4091 179.683 43.4943 180.054 43.4943ZM193.415 38.7614L191.199 38.8977C191.161 38.7083 191.08 38.5379 190.955 38.3864C190.83 38.2311 190.665 38.108 190.46 38.017C190.259 37.9223 190.019 37.875 189.739 37.875C189.364 37.875 189.047 37.9545 188.79 38.1136C188.532 38.2689 188.403 38.4773 188.403 38.7386C188.403 38.947 188.487 39.1231 188.653 39.267C188.82 39.411 189.106 39.5265 189.511 39.6136L191.091 39.9318C191.939 40.1061 192.572 40.3864 192.989 40.7727C193.405 41.1591 193.614 41.6667 193.614 42.2955C193.614 42.8674 193.445 43.3693 193.108 43.8011C192.775 44.233 192.316 44.5701 191.733 44.8125C191.153 45.0511 190.485 45.1705 189.727 45.1705C188.572 45.1705 187.652 44.9299 186.966 44.4489C186.284 43.964 185.884 43.3049 185.767 42.4716L188.148 42.3466C188.22 42.6989 188.394 42.9678 188.67 43.1534C188.947 43.3352 189.301 43.4261 189.733 43.4261C190.157 43.4261 190.498 43.3447 190.756 43.1818C191.017 43.0152 191.15 42.8011 191.153 42.5398C191.15 42.3201 191.057 42.1402 190.875 42C190.693 41.8561 190.413 41.7462 190.034 41.6705L188.523 41.3693C187.67 41.1989 187.036 40.9034 186.619 40.483C186.206 40.0625 186 39.5265 186 38.875C186 38.3144 186.152 37.8314 186.455 37.4261C186.761 37.0208 187.191 36.7083 187.744 36.4886C188.301 36.2689 188.953 36.1591 189.699 36.1591C190.801 36.1591 191.669 36.392 192.301 36.858C192.938 37.3239 193.309 37.9583 193.415 38.7614ZM199.78 36.2727V38.0909H194.524V36.2727H199.78ZM195.717 34.1818H198.138V42.3182C198.138 42.5417 198.172 42.7159 198.24 42.8409C198.308 42.9621 198.403 43.0473 198.524 43.0966C198.649 43.1458 198.793 43.1705 198.956 43.1705C199.07 43.1705 199.183 43.161 199.297 43.142C199.411 43.1193 199.498 43.1023 199.558 43.0909L199.939 44.892C199.818 44.9299 199.647 44.9735 199.428 45.0227C199.208 45.0758 198.941 45.108 198.626 45.1193C198.043 45.142 197.532 45.0644 197.092 44.8864C196.657 44.7083 196.318 44.4318 196.075 44.0568C195.833 43.6818 195.714 43.2083 195.717 42.6364V34.1818ZM203.845 45.1648C203.288 45.1648 202.792 45.0682 202.357 44.875C201.921 44.678 201.576 44.3883 201.322 44.0057C201.072 43.6193 200.947 43.1383 200.947 42.5625C200.947 42.0777 201.036 41.6705 201.214 41.3409C201.393 41.0114 201.635 40.7462 201.942 40.5455C202.249 40.3447 202.597 40.1932 202.987 40.0909C203.381 39.9886 203.794 39.9167 204.226 39.875C204.733 39.822 205.143 39.7727 205.453 39.7273C205.764 39.678 205.989 39.6061 206.129 39.5114C206.269 39.4167 206.339 39.2765 206.339 39.0909V39.0568C206.339 38.697 206.226 38.4186 205.999 38.2216C205.775 38.0246 205.457 37.9261 205.044 37.9261C204.608 37.9261 204.262 38.0227 204.004 38.2159C203.747 38.4053 203.576 38.6439 203.493 38.9318L201.254 38.75C201.368 38.2197 201.591 37.7614 201.925 37.375C202.258 36.9848 202.688 36.6856 203.214 36.4773C203.745 36.2652 204.358 36.1591 205.055 36.1591C205.54 36.1591 206.004 36.2159 206.447 36.3295C206.894 36.4432 207.29 36.6193 207.635 36.858C207.983 37.0966 208.258 37.4034 208.459 37.7784C208.66 38.1496 208.76 38.5947 208.76 39.1136V45H206.464V43.7898H206.396C206.256 44.0625 206.069 44.303 205.834 44.5114C205.599 44.7159 205.317 44.8769 204.987 44.9943C204.658 45.108 204.277 45.1648 203.845 45.1648ZM204.538 43.4943C204.894 43.4943 205.209 43.4242 205.482 43.2841C205.754 43.1402 205.968 42.947 206.124 42.7045C206.279 42.4621 206.357 42.1875 206.357 41.8807V40.9545C206.281 41.0038 206.177 41.0492 206.044 41.0909C205.915 41.1288 205.769 41.1648 205.607 41.1989C205.444 41.2292 205.281 41.2576 205.118 41.2841C204.955 41.3068 204.807 41.3277 204.675 41.3466C204.391 41.3883 204.143 41.4545 203.93 41.5455C203.718 41.6364 203.554 41.7595 203.436 41.9148C203.319 42.0663 203.26 42.2557 203.26 42.483C203.26 42.8125 203.379 43.0644 203.618 43.2386C203.86 43.4091 204.167 43.4943 204.538 43.4943ZM204.277 35.1477L205.482 32.5625H207.72L205.987 35.1477H204.277ZM218.462 36.2727L215.411 45H212.683L209.632 36.2727H212.189L214.001 42.517H214.092L215.899 36.2727H218.462ZM221.893 42.4886L221.899 39.5852H222.251L225.047 36.2727H227.825L224.07 40.6591H223.496L221.893 42.4886ZM219.7 45V33.3636H222.121V45H219.7ZM225.155 45L222.587 41.1989L224.2 39.4886L227.99 45H225.155ZM231.501 45.1648C230.945 45.1648 230.448 45.0682 230.013 44.875C229.577 44.678 229.232 44.3883 228.979 44.0057C228.729 43.6193 228.604 43.1383 228.604 42.5625C228.604 42.0777 228.693 41.6705 228.871 41.3409C229.049 41.0114 229.291 40.7462 229.598 40.5455C229.905 40.3447 230.253 40.1932 230.643 40.0909C231.037 39.9886 231.45 39.9167 231.882 39.875C232.39 39.822 232.799 39.7727 233.109 39.7273C233.42 39.678 233.645 39.6061 233.786 39.5114C233.926 39.4167 233.996 39.2765 233.996 39.0909V39.0568C233.996 38.697 233.882 38.4186 233.655 38.2216C233.431 38.0246 233.113 37.9261 232.7 37.9261C232.265 37.9261 231.918 38.0227 231.661 38.2159C231.403 38.4053 231.232 38.6439 231.149 38.9318L228.911 38.75C229.024 38.2197 229.248 37.7614 229.581 37.375C229.914 36.9848 230.344 36.6856 230.871 36.4773C231.401 36.2652 232.015 36.1591 232.712 36.1591C233.196 36.1591 233.661 36.2159 234.104 36.3295C234.551 36.4432 234.946 36.6193 235.291 36.858C235.64 37.0966 235.914 37.4034 236.115 37.7784C236.316 38.1496 236.416 38.5947 236.416 39.1136V45H234.121V43.7898H234.053C233.912 44.0625 233.725 44.303 233.49 44.5114C233.255 44.7159 232.973 44.8769 232.643 44.9943C232.314 45.108 231.933 45.1648 231.501 45.1648ZM232.195 43.4943C232.551 43.4943 232.865 43.4242 233.138 43.2841C233.411 43.1402 233.625 42.947 233.78 42.7045C233.935 42.4621 234.013 42.1875 234.013 41.8807V40.9545C233.937 41.0038 233.833 41.0492 233.7 41.0909C233.571 41.1288 233.426 41.1648 233.263 41.1989C233.1 41.2292 232.937 41.2576 232.774 41.2841C232.611 41.3068 232.464 41.3277 232.331 41.3466C232.047 41.3883 231.799 41.4545 231.587 41.5455C231.375 41.6364 231.21 41.7595 231.092 41.9148C230.975 42.0663 230.916 42.2557 230.916 42.483C230.916 42.8125 231.036 43.0644 231.274 43.2386C231.517 43.4091 231.823 43.4943 232.195 43.4943ZM242.043 33.3636H245.077L248.281 41.1818H248.418L251.622 33.3636H254.656V45H252.27V37.4261H252.173L249.162 44.9432H247.537L244.526 37.3977H244.429V45H242.043V33.3636ZM256.683 45V33.3636H259.143V38.1648H264.138V33.3636H266.592V45H264.138V40.1932H259.143V45H256.683ZM272.746 45H268.621V33.3636H272.78C273.95 33.3636 274.958 33.5966 275.803 34.0625C276.647 34.5246 277.297 35.1894 277.751 36.0568C278.21 36.9242 278.439 37.9621 278.439 39.1705C278.439 40.3826 278.21 41.4242 277.751 42.2955C277.297 43.1667 276.643 43.8352 275.791 44.3011C274.943 44.767 273.928 45 272.746 45ZM271.081 42.892H272.643C273.371 42.892 273.982 42.7633 274.479 42.5057C274.979 42.2443 275.354 41.8409 275.604 41.2955C275.857 40.7462 275.984 40.0379 275.984 39.1705C275.984 38.3106 275.857 37.608 275.604 37.0625C275.354 36.517 274.981 36.1155 274.484 35.858C273.988 35.6004 273.376 35.4716 272.649 35.4716H271.081V42.892Z" fill="#DE091C"/>
<path d="M105.153 62.0398C105.044 61.6951 104.896 61.3864 104.71 61.1136C104.528 60.8371 104.311 60.6023 104.057 60.4091C103.803 60.2121 103.513 60.0625 103.188 59.9602C102.866 59.858 102.511 59.8068 102.125 59.8068C101.47 59.8068 100.879 59.9754 100.352 60.3125C99.8258 60.6496 99.4091 61.1439 99.1023 61.7955C98.7992 62.4432 98.6477 63.2367 98.6477 64.1761C98.6477 65.1193 98.8011 65.9167 99.108 66.5682C99.4148 67.2197 99.8352 67.714 100.369 68.0511C100.903 68.3883 101.511 68.5568 102.193 68.5568C102.826 68.5568 103.377 68.428 103.847 68.1705C104.32 67.9129 104.686 67.5492 104.943 67.0795C105.205 66.6061 105.335 66.0492 105.335 65.4091L105.79 65.4943H102.46V64.0455H107.034V65.3693C107.034 66.3466 106.826 67.1951 106.409 67.9148C105.996 68.6307 105.424 69.1837 104.693 69.5739C103.966 69.964 103.133 70.1591 102.193 70.1591C101.14 70.1591 100.216 69.9167 99.4205 69.4318C98.6288 68.947 98.0114 68.2595 97.5682 67.3693C97.125 66.4754 96.9034 65.4148 96.9034 64.1875C96.9034 63.2595 97.0322 62.4261 97.2898 61.6875C97.5473 60.9489 97.9091 60.322 98.375 59.8068C98.8447 59.2879 99.3958 58.892 100.028 58.6193C100.665 58.3428 101.36 58.2045 102.114 58.2045C102.742 58.2045 103.328 58.2973 103.869 58.483C104.415 58.6686 104.9 58.9318 105.324 59.2727C105.752 59.6136 106.106 60.0189 106.386 60.4886C106.667 60.9545 106.856 61.4716 106.955 62.0398H105.153ZM112.803 70.1761C111.984 70.1761 111.27 69.9886 110.661 69.6136C110.051 69.2386 109.577 68.714 109.24 68.0398C108.903 67.3655 108.734 66.5777 108.734 65.6761C108.734 64.7708 108.903 63.9792 109.24 63.3011C109.577 62.6231 110.051 62.0966 110.661 61.7216C111.27 61.3466 111.984 61.1591 112.803 61.1591C113.621 61.1591 114.335 61.3466 114.945 61.7216C115.554 62.0966 116.028 62.6231 116.365 63.3011C116.702 63.9792 116.871 64.7708 116.871 65.6761C116.871 66.5777 116.702 67.3655 116.365 68.0398C116.028 68.714 115.554 69.2386 114.945 69.6136C114.335 69.9886 113.621 70.1761 112.803 70.1761ZM112.808 68.75C113.339 68.75 113.778 68.6098 114.126 68.3295C114.475 68.0492 114.732 67.6761 114.899 67.2102C115.07 66.7443 115.155 66.2311 115.155 65.6705C115.155 65.1136 115.07 64.6023 114.899 64.1364C114.732 63.6667 114.475 63.2898 114.126 63.0057C113.778 62.7216 113.339 62.5795 112.808 62.5795C112.274 62.5795 111.831 62.7216 111.479 63.0057C111.13 63.2898 110.871 63.6667 110.7 64.1364C110.534 64.6023 110.45 65.1136 110.45 65.6705C110.45 66.2311 110.534 66.7443 110.7 67.2102C110.871 67.6761 111.13 68.0492 111.479 68.3295C111.831 68.6098 112.274 68.75 112.808 68.75ZM118.767 70V61.2727H120.409V62.6591H120.5C120.659 62.1894 120.939 61.8201 121.341 61.5511C121.746 61.2784 122.205 61.142 122.716 61.142C122.822 61.142 122.947 61.1458 123.091 61.1534C123.239 61.161 123.354 61.1705 123.438 61.1818V62.8068C123.369 62.7879 123.248 62.767 123.074 62.7443C122.9 62.7178 122.725 62.7045 122.551 62.7045C122.15 62.7045 121.792 62.7898 121.477 62.9602C121.167 63.1269 120.92 63.3598 120.739 63.6591C120.557 63.9545 120.466 64.2917 120.466 64.6705V70H118.767ZM126.47 67.0398L126.459 64.9659H126.754L130.232 61.2727H132.266L128.3 65.4773H128.033L126.47 67.0398ZM124.908 70V58.3636H126.607V70H124.908ZM130.419 70L127.294 65.8523L128.464 64.6648L132.504 70H130.419ZM137.216 70.1761C136.356 70.1761 135.616 69.9924 134.994 69.625C134.377 69.2538 133.9 68.733 133.562 68.0625C133.229 67.3883 133.062 66.5985 133.062 65.6932C133.062 64.7992 133.229 64.0114 133.562 63.3295C133.9 62.6477 134.369 62.1155 134.972 61.733C135.578 61.3504 136.286 61.1591 137.097 61.1591C137.589 61.1591 138.066 61.2405 138.528 61.4034C138.991 61.5663 139.405 61.822 139.773 62.1705C140.14 62.5189 140.43 62.9716 140.642 63.5284C140.854 64.0814 140.96 64.7538 140.96 65.5455V66.1477H134.023V64.875H139.295C139.295 64.428 139.205 64.0322 139.023 63.6875C138.841 63.339 138.585 63.0644 138.256 62.8636C137.93 62.6629 137.547 62.5625 137.108 62.5625C136.631 62.5625 136.214 62.6799 135.858 62.9148C135.506 63.1458 135.233 63.4489 135.04 63.8239C134.85 64.1951 134.756 64.5985 134.756 65.0341V66.0284C134.756 66.6117 134.858 67.108 135.062 67.517C135.271 67.9261 135.561 68.2386 135.932 68.4545C136.303 68.6667 136.737 68.7727 137.233 68.7727C137.555 68.7727 137.848 68.7273 138.114 68.6364C138.379 68.5417 138.608 68.4015 138.801 68.2159C138.994 68.0303 139.142 67.8011 139.244 67.5284L140.852 67.8182C140.723 68.2917 140.492 68.7064 140.159 69.0625C139.83 69.4148 139.415 69.6894 138.915 69.8864C138.419 70.0795 137.852 70.1761 137.216 70.1761ZM136.33 60.108L137.659 57.4886H139.449L137.688 60.108H136.33ZM144.544 64.8182V70H142.845V58.3636H144.521V62.6932H144.629C144.834 62.2235 145.146 61.8504 145.567 61.5739C145.987 61.2973 146.536 61.1591 147.214 61.1591C147.813 61.1591 148.336 61.2822 148.783 61.5284C149.233 61.7746 149.582 62.142 149.828 62.6307C150.078 63.1155 150.203 63.7216 150.203 64.4489V70H148.504V64.6534C148.504 64.0133 148.339 63.517 148.01 63.1648C147.68 62.8087 147.222 62.6307 146.635 62.6307C146.233 62.6307 145.874 62.7159 145.555 62.8864C145.241 63.0568 144.993 63.3068 144.811 63.6364C144.633 63.9621 144.544 64.3561 144.544 64.8182ZM156.146 70.1761C155.328 70.1761 154.614 69.9886 154.004 69.6136C153.394 69.2386 152.921 68.714 152.584 68.0398C152.247 67.3655 152.078 66.5777 152.078 65.6761C152.078 64.7708 152.247 63.9792 152.584 63.3011C152.921 62.6231 153.394 62.0966 154.004 61.7216C154.614 61.3466 155.328 61.1591 156.146 61.1591C156.964 61.1591 157.679 61.3466 158.288 61.7216C158.898 62.0966 159.372 62.6231 159.709 63.3011C160.046 63.9792 160.214 64.7708 160.214 65.6761C160.214 66.5777 160.046 67.3655 159.709 68.0398C159.372 68.714 158.898 69.2386 158.288 69.6136C157.679 69.9886 156.964 70.1761 156.146 70.1761ZM156.152 68.75C156.682 68.75 157.122 68.6098 157.47 68.3295C157.819 68.0492 158.076 67.6761 158.243 67.2102C158.413 66.7443 158.499 66.2311 158.499 65.6705C158.499 65.1136 158.413 64.6023 158.243 64.1364C158.076 63.6667 157.819 63.2898 157.47 63.0057C157.122 62.7216 156.682 62.5795 156.152 62.5795C155.618 62.5795 155.175 62.7216 154.822 63.0057C154.474 63.2898 154.214 63.6667 154.044 64.1364C153.877 64.6023 153.794 65.1136 153.794 65.6705C153.794 66.2311 153.877 66.7443 154.044 67.2102C154.214 67.6761 154.474 68.0492 154.822 68.3295C155.175 68.6098 155.618 68.75 156.152 68.75ZM166.839 64.1818C166.839 62.7576 167.027 61.447 167.402 60.25C167.777 59.053 168.324 57.9489 169.044 56.9375H170.601C170.321 57.3125 170.059 57.7727 169.817 58.3182C169.574 58.8636 169.362 59.4621 169.18 60.1136C168.999 60.7614 168.857 61.4337 168.754 62.1307C168.652 62.8239 168.601 63.5076 168.601 64.1818C168.601 65.0833 168.69 65.9962 168.868 66.9205C169.046 67.8447 169.286 68.7027 169.589 69.4943C169.893 70.286 170.23 70.9318 170.601 71.4318H169.044C168.324 70.4205 167.777 69.3163 167.402 68.1193C167.027 66.9223 166.839 65.6098 166.839 64.1818ZM176.784 58.3636V70H175.023V60.125H174.955L172.17 61.9432V60.2614L175.074 58.3636H176.784ZM183.773 70.1591C183.061 70.1591 182.42 70.0227 181.852 69.75C181.288 69.4735 180.837 69.0947 180.5 68.6136C180.163 68.1326 179.983 67.5833 179.96 66.9659H181.665C181.706 67.4659 181.928 67.8769 182.33 68.1989C182.731 68.5208 183.212 68.6818 183.773 68.6818C184.22 68.6818 184.616 68.5795 184.96 68.375C185.309 68.1667 185.581 67.8807 185.778 67.517C185.979 67.1534 186.08 66.7386 186.08 66.2727C186.08 65.7992 185.977 65.3769 185.773 65.0057C185.568 64.6345 185.286 64.3428 184.926 64.1307C184.57 63.9186 184.161 63.8106 183.699 63.8068C183.347 63.8068 182.992 63.8674 182.636 63.9886C182.28 64.1098 181.992 64.2689 181.773 64.4659L180.165 64.2273L180.818 58.3636H187.216V59.8693H182.278L181.909 63.125H181.977C182.205 62.9053 182.506 62.7216 182.881 62.5739C183.259 62.4261 183.665 62.3523 184.097 62.3523C184.805 62.3523 185.436 62.5208 185.989 62.858C186.545 63.1951 186.983 63.6553 187.301 64.2386C187.623 64.8182 187.782 65.4848 187.778 66.2386C187.782 66.9924 187.612 67.6648 187.267 68.2557C186.926 68.8466 186.453 69.3125 185.847 69.6534C185.244 69.9905 184.553 70.1591 183.773 70.1591ZM193.905 70.1932C193.007 70.1894 192.24 69.9527 191.604 69.483C190.967 69.0133 190.481 68.3295 190.143 67.4318C189.806 66.5341 189.638 65.4527 189.638 64.1875C189.638 62.9261 189.806 61.8485 190.143 60.9545C190.484 60.0606 190.973 59.3788 191.609 58.9091C192.25 58.4394 193.015 58.2045 193.905 58.2045C194.795 58.2045 195.558 58.4413 196.195 58.9148C196.831 59.3845 197.318 60.0663 197.655 60.9602C197.996 61.8504 198.166 62.9261 198.166 64.1875C198.166 65.4564 197.998 66.5398 197.661 67.4375C197.323 68.3314 196.837 69.0152 196.2 69.4886C195.564 69.9583 194.799 70.1932 193.905 70.1932ZM193.905 68.6761C194.693 68.6761 195.308 68.2917 195.751 67.5227C196.198 66.7538 196.422 65.642 196.422 64.1875C196.422 63.2216 196.32 62.4053 196.115 61.7386C195.914 61.0682 195.625 60.5606 195.246 60.2159C194.871 59.8674 194.424 59.6932 193.905 59.6932C193.121 59.6932 192.505 60.0795 192.058 60.8523C191.611 61.625 191.386 62.7367 191.382 64.1875C191.382 65.1572 191.482 65.9773 191.683 66.6477C191.888 67.3144 192.178 67.8201 192.553 68.1648C192.928 68.5057 193.378 68.6761 193.905 68.6761ZM204.439 70V61.2727H206.07V62.6932H206.178C206.359 62.2121 206.657 61.8371 207.07 61.5682C207.482 61.2955 207.977 61.1591 208.553 61.1591C209.136 61.1591 209.625 61.2955 210.018 61.5682C210.416 61.8409 210.71 62.2159 210.899 62.6932H210.99C211.198 62.2273 211.53 61.8561 211.984 61.5795C212.439 61.2992 212.981 61.1591 213.609 61.1591C214.401 61.1591 215.047 61.4072 215.547 61.9034C216.051 62.3996 216.303 63.1477 216.303 64.1477V70H214.604V64.3068C214.604 63.7159 214.443 63.2879 214.121 63.0227C213.799 62.7576 213.414 62.625 212.967 62.625C212.414 62.625 211.984 62.7955 211.678 63.1364C211.371 63.4735 211.217 63.9072 211.217 64.4375V70H209.524V64.1989C209.524 63.7254 209.376 63.3447 209.081 63.0568C208.786 62.7689 208.401 62.625 207.928 62.625C207.606 62.625 207.308 62.7102 207.036 62.8807C206.767 63.0473 206.549 63.2803 206.382 63.5795C206.219 63.8788 206.138 64.2254 206.138 64.6193V70H204.439ZM221.847 65.1705C221.847 66.5985 221.659 67.911 221.284 69.108C220.909 70.3049 220.362 71.4091 219.642 72.4205H218.085C218.366 72.0455 218.627 71.5852 218.869 71.0398C219.112 70.4943 219.324 69.8977 219.506 69.25C219.688 68.5985 219.83 67.9242 219.932 67.2273C220.034 66.5303 220.085 65.8447 220.085 65.1705C220.085 64.2727 219.996 63.3617 219.818 62.4375C219.64 61.5133 219.4 60.6553 219.097 59.8636C218.794 59.072 218.456 58.4261 218.085 57.9261H219.642C220.362 58.9375 220.909 60.0417 221.284 61.2386C221.659 62.4356 221.847 63.7462 221.847 65.1705Z" fill="#666666"/>
<circle cx="52" cy="73" r="29" fill="#DE091C"/>
<path d="M41.8937 88.75C41.5146 88.75 41.1792 88.6406 40.8875 88.4219C40.5958 88.2031 40.45 87.9188 40.45 87.5688V83.8938C39.6042 83.4271 38.9844 82.7563 38.5906 81.8813C38.1969 81.0063 38 80.0729 38 79.0813V61.7125C38 59.5542 39.1156 57.9792 41.3469 56.9875C43.5781 55.9958 47.1437 55.5 52.0437 55.5C56.8854 55.5 60.4219 55.9958 62.6531 56.9875C64.8844 57.9792 66 59.5542 66 61.7125V79.0813C66 80.0729 65.8031 81.0063 65.4094 81.8813C65.0156 82.7563 64.3958 83.4271 63.55 83.8938V87.5688C63.55 87.9188 63.4042 88.2031 63.1125 88.4219C62.8208 88.6406 62.4854 88.75 62.1062 88.75H61.275C60.8667 88.75 60.5167 88.6406 60.225 88.4219C59.9333 88.2031 59.7875 87.9188 59.7875 87.5688V85.1625H44.2125V87.5688C44.2125 87.9188 44.0667 88.2031 43.775 88.4219C43.4833 88.6406 43.1333 88.75 42.725 88.75H41.8937ZM52.0437 60.575H63.375H40.625H52.0437ZM59.7875 73.3938H40.625H63.375H59.7875ZM40.625 70.7688H63.375V63.2H40.625V70.7688ZM45.2625 80.35C45.9333 80.35 46.5021 80.1167 46.9688 79.65C47.4354 79.1833 47.6687 78.6146 47.6687 77.9438C47.6687 77.2729 47.4354 76.7042 46.9688 76.2375C46.5021 75.7708 45.9333 75.5375 45.2625 75.5375C44.5917 75.5375 44.0229 75.7708 43.5563 76.2375C43.0896 76.7042 42.8563 77.2729 42.8563 77.9438C42.8563 78.6146 43.0896 79.1833 43.5563 79.65C44.0229 80.1167 44.5917 80.35 45.2625 80.35ZM58.7375 80.35C59.4083 80.35 59.9771 80.1167 60.4438 79.65C60.9104 79.1833 61.1438 78.6146 61.1438 77.9438C61.1438 77.2729 60.9104 76.7042 60.4438 76.2375C59.9771 75.7708 59.4083 75.5375 58.7375 75.5375C58.0667 75.5375 57.4979 75.7708 57.0312 76.2375C56.5646 76.7042 56.3313 77.2729 56.3313 77.9438C56.3313 78.6146 56.5646 79.1833 57.0312 79.65C57.4979 80.1167 58.0667 80.35 58.7375 80.35ZM40.625 60.575H63.375C62.675 59.8167 61.3333 59.2188 59.35 58.7812C57.3667 58.3438 54.9312 58.125 52.0437 58.125C48.6021 58.125 45.9625 58.3219 44.125 58.7156C42.2875 59.1094 41.1208 59.7292 40.625 60.575ZM44.2125 82.5375H59.7875C60.8083 82.5375 61.6615 82.1437 62.3469 81.3562C63.0323 80.5687 63.375 79.6646 63.375 78.6438V73.3938H40.625V78.6438C40.625 79.6646 40.9677 80.5687 41.6531 81.3562C42.3385 82.1437 43.1917 82.5375 44.2125 82.5375Z" fill="white"/>
<rect x="96" y="86" width="178" height="32" rx="16" fill="#DE091C"/>
<path d="M115.707 97.2929C115.317 96.9024 114.683 96.9024 114.293 97.2929C113.902 97.6834 113.902 98.3166 114.293 98.7071L115.707 97.2929ZM119 102L119.707 102.707C120.098 102.317 120.098 101.683 119.707 101.293L119 102ZM114.293 105.293C113.902 105.683 113.902 106.317 114.293 106.707C114.683 107.098 115.317 107.098 115.707 106.707L114.293 105.293ZM109.707 97.2929C109.317 96.9024 108.683 96.9024 108.293 97.2929C107.902 97.6834 107.902 98.3166 108.293 98.7071L109.707 97.2929ZM113 102L113.707 102.707C114.098 102.317 114.098 101.683 113.707 101.293L113 102ZM108.293 105.293C107.902 105.683 107.902 106.317 108.293 106.707C108.683 107.098 109.317 107.098 109.707 106.707L108.293 105.293ZM114.293 98.7071L118.293 102.707L119.707 101.293L115.707 97.2929L114.293 98.7071ZM118.293 101.293L114.293 105.293L115.707 106.707L119.707 102.707L118.293 101.293ZM108.293 98.7071L112.293 102.707L113.707 101.293L109.707 97.2929L108.293 98.7071ZM112.293 101.293L108.293 105.293L109.707 106.707L113.707 102.707L112.293 101.293Z" fill="white"/>
<path d="M131.885 107V96.8182H135.902C136.674 96.8182 137.332 96.9657 137.876 97.2607C138.419 97.5523 138.834 97.9583 139.119 98.4787C139.407 98.9957 139.551 99.5923 139.551 100.268C139.551 100.945 139.405 101.541 139.114 102.058C138.822 102.575 138.399 102.978 137.846 103.266C137.296 103.555 136.629 103.699 135.847 103.699H133.287V101.974H135.499C135.914 101.974 136.255 101.902 136.523 101.76C136.795 101.614 136.997 101.414 137.13 101.158C137.266 100.9 137.334 100.603 137.334 100.268C137.334 99.9304 137.266 99.6354 137.13 99.3835C136.997 99.1283 136.795 98.9311 136.523 98.7919C136.252 98.6494 135.907 98.5781 135.489 98.5781H134.038V107H131.885ZM140.91 107V99.3636H142.963V100.696H143.042C143.182 100.222 143.415 99.8641 143.743 99.6222C144.072 99.3769 144.449 99.2543 144.877 99.2543C144.983 99.2543 145.097 99.2609 145.22 99.2741C145.343 99.2874 145.45 99.3056 145.543 99.3288V101.208C145.444 101.178 145.306 101.152 145.131 101.129C144.955 101.105 144.794 101.094 144.648 101.094C144.337 101.094 144.058 101.162 143.813 101.298C143.571 101.43 143.379 101.616 143.236 101.854C143.097 102.093 143.028 102.368 143.028 102.68V107H140.91ZM142.202 96.1918L143.202 97.4048L144.201 96.1918H146.006V96.2614L143.987 98.4489H142.411L140.398 96.2614V96.1918H142.202ZM149.763 107.149C148.977 107.149 148.301 106.99 147.734 106.672C147.171 106.35 146.737 105.896 146.432 105.31C146.127 104.72 145.974 104.022 145.974 103.217C145.974 102.431 146.127 101.742 146.432 101.148C146.737 100.555 147.166 100.093 147.719 99.7614C148.276 99.4299 148.929 99.2642 149.678 99.2642C150.182 99.2642 150.651 99.3454 151.085 99.5078C151.523 99.6669 151.904 99.9072 152.229 100.229C152.557 100.55 152.812 100.955 152.994 101.442C153.177 101.926 153.268 102.492 153.268 103.142V103.724H146.82V102.411H151.274C151.274 102.106 151.208 101.836 151.075 101.601C150.943 101.366 150.759 101.182 150.523 101.049C150.291 100.913 150.021 100.845 149.713 100.845C149.392 100.845 149.107 100.92 148.858 101.069C148.613 101.215 148.42 101.412 148.281 101.661C148.142 101.906 148.071 102.179 148.067 102.481V103.729C148.067 104.107 148.137 104.433 148.276 104.708C148.419 104.983 148.619 105.195 148.878 105.344C149.136 105.494 149.443 105.568 149.798 105.568C150.033 105.568 150.248 105.535 150.444 105.469C150.639 105.402 150.807 105.303 150.946 105.17C151.085 105.038 151.191 104.875 151.264 104.683L153.223 104.812C153.124 105.283 152.92 105.694 152.612 106.045C152.307 106.393 151.912 106.665 151.428 106.861C150.948 107.053 150.393 107.149 149.763 107.149ZM154.65 99.3636H156.768V107.378C156.768 107.968 156.652 108.445 156.42 108.81C156.188 109.174 155.855 109.441 155.42 109.61C154.99 109.779 154.474 109.864 153.874 109.864C153.801 109.864 153.732 109.862 153.665 109.859C153.596 109.859 153.523 109.857 153.447 109.854V108.198C153.503 108.201 153.553 108.203 153.596 108.203C153.636 108.206 153.679 108.208 153.725 108.208C154.067 108.208 154.305 108.135 154.441 107.989C154.58 107.847 154.65 107.631 154.65 107.343V99.3636ZM155.704 98.3793C155.392 98.3793 155.124 98.2749 154.898 98.0661C154.673 97.8539 154.56 97.6004 154.56 97.3054C154.56 97.0137 154.673 96.7635 154.898 96.5547C155.124 96.3426 155.392 96.2365 155.704 96.2365C156.022 96.2365 156.292 96.3426 156.514 96.5547C156.74 96.7635 156.852 97.0137 156.852 97.3054C156.852 97.6004 156.74 97.8539 156.514 98.0661C156.292 98.2749 156.022 98.3793 155.704 98.3793ZM158.464 107V99.3636H160.582V107H158.464ZM158.768 98.3793L159.822 96.1172H161.78L160.264 98.3793H158.768ZM166.341 99.3636V100.955H161.742V99.3636H166.341ZM162.786 97.5341H164.904V104.653C164.904 104.849 164.934 105.001 164.993 105.111C165.053 105.217 165.136 105.291 165.242 105.335C165.351 105.378 165.477 105.399 165.62 105.399C165.719 105.399 165.819 105.391 165.918 105.374C166.017 105.354 166.094 105.339 166.147 105.33L166.48 106.906C166.374 106.939 166.225 106.977 166.032 107.02C165.84 107.066 165.606 107.094 165.331 107.104C164.821 107.124 164.373 107.056 163.989 106.901C163.608 106.745 163.311 106.503 163.099 106.175C162.887 105.847 162.783 105.432 162.786 104.932V97.5341ZM173.078 102.585V107H170.96V99.3636H172.979V100.711H173.068C173.237 100.267 173.521 99.9155 173.919 99.657C174.316 99.3951 174.798 99.2642 175.365 99.2642C175.896 99.2642 176.358 99.3802 176.752 99.6122C177.147 99.8442 177.453 100.176 177.672 100.607C177.891 101.034 178 101.545 178 102.138V107H175.882V102.516C175.886 102.048 175.766 101.684 175.524 101.422C175.282 101.157 174.949 101.024 174.525 101.024C174.24 101.024 173.988 101.085 173.769 101.208C173.554 101.331 173.385 101.51 173.262 101.745C173.143 101.977 173.082 102.257 173.078 102.585ZM181.847 107.144C181.36 107.144 180.926 107.06 180.544 106.891C180.163 106.718 179.862 106.465 179.64 106.13C179.421 105.792 179.311 105.371 179.311 104.867C179.311 104.443 179.389 104.087 179.545 103.798C179.701 103.51 179.913 103.278 180.181 103.102C180.45 102.927 180.755 102.794 181.096 102.705C181.441 102.615 181.802 102.552 182.18 102.516C182.624 102.469 182.982 102.426 183.254 102.386C183.526 102.343 183.723 102.28 183.846 102.197C183.968 102.115 184.029 101.992 184.029 101.83V101.8C184.029 101.485 183.93 101.241 183.731 101.069C183.536 100.897 183.257 100.81 182.896 100.81C182.515 100.81 182.212 100.895 181.986 101.064C181.761 101.23 181.612 101.438 181.539 101.69L179.58 101.531C179.679 101.067 179.875 100.666 180.167 100.328C180.458 99.9867 180.834 99.7249 181.295 99.5426C181.759 99.357 182.296 99.2642 182.906 99.2642C183.33 99.2642 183.736 99.3139 184.124 99.4134C184.515 99.5128 184.861 99.6669 185.163 99.8757C185.468 100.085 185.708 100.353 185.884 100.681C186.06 101.006 186.147 101.395 186.147 101.849V107H184.139V105.941H184.079C183.957 106.18 183.792 106.39 183.587 106.572C183.382 106.751 183.135 106.892 182.846 106.995C182.558 107.094 182.225 107.144 181.847 107.144ZM182.453 105.683C182.765 105.683 183.04 105.621 183.279 105.499C183.517 105.373 183.705 105.204 183.841 104.991C183.976 104.779 184.044 104.539 184.044 104.271V103.46C183.978 103.503 183.887 103.543 183.771 103.58C183.658 103.613 183.531 103.644 183.388 103.674C183.246 103.701 183.103 103.725 182.961 103.749C182.818 103.768 182.689 103.787 182.573 103.803C182.324 103.84 182.107 103.898 181.922 103.977C181.736 104.057 181.592 104.165 181.489 104.3C181.386 104.433 181.335 104.599 181.335 104.798C181.335 105.086 181.439 105.306 181.648 105.459C181.86 105.608 182.129 105.683 182.453 105.683ZM191.031 99.3636H193.149V107.378C193.149 107.968 193.033 108.445 192.801 108.81C192.569 109.174 192.235 109.441 191.801 109.61C191.37 109.779 190.855 109.864 190.255 109.864C190.182 109.864 190.113 109.862 190.046 109.859C189.977 109.859 189.904 109.857 189.828 109.854V108.198C189.884 108.201 189.934 108.203 189.977 108.203C190.017 108.206 190.06 108.208 190.106 108.208C190.447 108.208 190.686 108.135 190.822 107.989C190.961 107.847 191.031 107.631 191.031 107.343V99.3636ZM192.085 98.3793C191.773 98.3793 191.505 98.2749 191.279 98.0661C191.054 97.8539 190.941 97.6004 190.941 97.3054C190.941 97.0137 191.054 96.7635 191.279 96.5547C191.505 96.3426 191.773 96.2365 192.085 96.2365C192.403 96.2365 192.673 96.3426 192.895 96.5547C193.12 96.7635 193.233 97.0137 193.233 97.3054C193.233 97.6004 193.12 97.8539 192.895 98.0661C192.673 98.2749 192.403 98.3793 192.085 98.3793ZM194.845 107V99.3636H196.963V107H194.845ZM195.148 98.3793L196.202 96.1172H198.161L196.645 98.3793H195.148ZM198.62 107V105.737L202.358 101.109V101.054H198.749V99.3636H204.909V100.741L201.399 105.255V105.31H205.038V107H198.62ZM209.253 107.124C208.673 107.124 208.147 106.975 207.677 106.677C207.21 106.375 206.838 105.933 206.563 105.349C206.291 104.763 206.156 104.044 206.156 103.192C206.156 102.317 206.296 101.589 206.578 101.009C206.86 100.426 207.234 99.9901 207.702 99.7017C208.172 99.41 208.688 99.2642 209.248 99.2642C209.675 99.2642 210.032 99.3371 210.317 99.483C210.605 99.6255 210.837 99.8045 211.013 100.02C211.192 100.232 211.328 100.441 211.42 100.646H211.485V96.8182H213.598V107H211.51V105.777H211.42C211.321 105.989 211.18 106.2 210.998 106.408C210.819 106.614 210.585 106.785 210.297 106.92C210.012 107.056 209.664 107.124 209.253 107.124ZM209.924 105.439C210.265 105.439 210.554 105.346 210.789 105.161C211.028 104.972 211.21 104.708 211.336 104.37C211.465 104.032 211.53 103.636 211.53 103.182C211.53 102.728 211.467 102.333 211.341 101.999C211.215 101.664 211.033 101.405 210.794 101.223C210.555 101.041 210.265 100.95 209.924 100.95C209.576 100.95 209.283 101.044 209.044 101.233C208.805 101.422 208.625 101.684 208.502 102.018C208.379 102.353 208.318 102.741 208.318 103.182C208.318 103.626 208.379 104.019 208.502 104.36C208.628 104.698 208.809 104.963 209.044 105.156C209.283 105.344 209.576 105.439 209.924 105.439ZM217.457 102.585V107H215.339V99.3636H217.358V100.711H217.447C217.616 100.267 217.9 99.9155 218.297 99.657C218.695 99.3951 219.177 99.2642 219.744 99.2642C220.274 99.2642 220.737 99.3802 221.131 99.6122C221.526 99.8442 221.832 100.176 222.051 100.607C222.27 101.034 222.379 101.545 222.379 102.138V107H220.261V102.516C220.265 102.048 220.145 101.684 219.903 101.422C219.661 101.157 219.328 101.024 218.904 101.024C218.619 101.024 218.367 101.085 218.148 101.208C217.933 101.331 217.764 101.51 217.641 101.745C217.522 101.977 217.461 102.257 217.457 102.585ZM224.048 107V99.3636H226.166V107H224.048ZM224.352 98.3793L225.406 96.1172H227.364L225.848 98.3793H224.352ZM231.103 107V99.3636H233.156V100.696H233.236C233.375 100.222 233.609 99.8641 233.937 99.6222C234.265 99.3769 234.643 99.2543 235.07 99.2543C235.176 99.2543 235.291 99.2609 235.413 99.2741C235.536 99.2874 235.644 99.3056 235.737 99.3288V101.208C235.637 101.178 235.5 101.152 235.324 101.129C235.148 101.105 234.987 101.094 234.842 101.094C234.53 101.094 234.252 101.162 234.006 101.298C233.764 101.43 233.572 101.616 233.43 101.854C233.29 102.093 233.221 102.368 233.221 102.68V107H231.103ZM232.396 96.1918L233.395 97.4048L234.394 96.1918H236.199V96.2614L234.18 98.4489H232.604L230.591 96.2614V96.1918H232.396ZM238.79 107.144C238.303 107.144 237.869 107.06 237.488 106.891C237.107 106.718 236.805 106.465 236.583 106.13C236.364 105.792 236.255 105.371 236.255 104.867C236.255 104.443 236.333 104.087 236.488 103.798C236.644 103.51 236.856 103.278 237.125 103.102C237.393 102.927 237.698 102.794 238.04 102.705C238.384 102.615 238.746 102.552 239.123 102.516C239.568 102.469 239.925 102.426 240.197 102.386C240.469 102.343 240.666 102.28 240.789 102.197C240.912 102.115 240.973 101.992 240.973 101.83V101.8C240.973 101.485 240.873 101.241 240.675 101.069C240.479 100.897 240.201 100.81 239.839 100.81C239.458 100.81 239.155 100.895 238.93 101.064C238.704 101.23 238.555 101.438 238.482 101.69L236.523 101.531C236.623 101.067 236.818 100.666 237.11 100.328C237.402 99.9867 237.778 99.7249 238.238 99.5426C238.702 99.357 239.239 99.2642 239.849 99.2642C240.273 99.2642 240.68 99.3139 241.067 99.4134C241.458 99.5128 241.805 99.6669 242.106 99.8757C242.411 100.085 242.652 100.353 242.827 100.681C243.003 101.006 243.091 101.395 243.091 101.849V107H241.082V105.941H241.023C240.9 106.18 240.736 106.39 240.53 106.572C240.325 106.751 240.078 106.892 239.79 106.995C239.501 107.094 239.168 107.144 238.79 107.144ZM239.397 105.683C239.708 105.683 239.983 105.621 240.222 105.499C240.461 105.373 240.648 105.204 240.784 104.991C240.92 104.779 240.988 104.539 240.988 104.271V103.46C240.921 103.503 240.83 103.543 240.714 103.58C240.602 103.613 240.474 103.644 240.331 103.674C240.189 103.701 240.046 103.725 239.904 103.749C239.761 103.768 239.632 103.787 239.516 103.803C239.268 103.84 239.05 103.898 238.865 103.977C238.679 104.057 238.535 104.165 238.432 104.3C238.33 104.433 238.278 104.599 238.278 104.798C238.278 105.086 238.383 105.306 238.591 105.459C238.804 105.608 239.072 105.683 239.397 105.683ZM239.168 98.3793L240.222 96.1172H242.181L240.665 98.3793H239.168ZM247.548 107.124C246.968 107.124 246.442 106.975 245.972 106.677C245.504 106.375 245.133 105.933 244.858 105.349C244.586 104.763 244.45 104.044 244.45 103.192C244.45 102.317 244.591 101.589 244.873 101.009C245.155 100.426 245.529 99.9901 245.997 99.7017C246.467 99.41 246.983 99.2642 247.543 99.2642C247.97 99.2642 248.327 99.3371 248.612 99.483C248.9 99.6255 249.132 99.8045 249.308 100.02C249.487 100.232 249.623 100.441 249.715 100.646H249.78V96.8182H251.893V107H249.805V105.777H249.715C249.616 105.989 249.475 106.2 249.293 106.408C249.114 106.614 248.88 106.785 248.592 106.92C248.307 107.056 247.959 107.124 247.548 107.124ZM248.219 105.439C248.56 105.439 248.849 105.346 249.084 105.161C249.323 104.972 249.505 104.708 249.631 104.37C249.76 104.032 249.825 103.636 249.825 103.182C249.825 102.728 249.762 102.333 249.636 101.999C249.51 101.664 249.328 101.405 249.089 101.223C248.85 101.041 248.56 100.95 248.219 100.95C247.871 100.95 247.578 101.044 247.339 101.233C247.1 101.422 246.92 101.684 246.797 102.018C246.674 102.353 246.613 102.741 246.613 103.182C246.613 103.626 246.674 104.019 246.797 104.36C246.923 104.698 247.104 104.963 247.339 105.156C247.578 105.344 247.871 105.439 248.219 105.439ZM254.942 109.864C254.673 109.864 254.421 109.842 254.186 109.799C253.954 109.759 253.762 109.708 253.609 109.645L254.087 108.064C254.335 108.14 254.559 108.182 254.758 108.188C254.96 108.195 255.134 108.148 255.28 108.049C255.429 107.95 255.55 107.781 255.643 107.542L255.767 107.219L253.028 99.3636H255.255L256.836 104.972H256.915L258.511 99.3636H260.754L257.786 107.825C257.643 108.236 257.449 108.594 257.204 108.899C256.962 109.207 256.655 109.444 256.284 109.61C255.913 109.779 255.465 109.864 254.942 109.864Z" fill="white"/>
<defs>
<filter id="filter0_d_233_3126" x="0" y="0" width="342" height="145" filterUnits="userSpaceOnUse" color-interpolation-filters="sRGB">
<feFlood flood-opacity="0" result="BackgroundImageFix"/>
<feColorMatrix in="SourceAlpha" type="matrix" values="0 0 0 0 0 0 0 0 0 0 0 0 0 0 0 0 0 0 127 0" result="hardAlpha"/>
<feOffset/>
<feGaussianBlur stdDeviation="5"/>
<feComposite in2="hardAlpha" operator="out"/>
<feColorMatrix type="matrix" values="0 0 0 0 0 0 0 0 0 0 0 0 0 0 0 0 0 0 0.25 0"/>
<feBlend mode="normal" in2="BackgroundImageFix" result="effect1_dropShadow_233_3126"/>
<feBlend mode="normal" in="SourceGraphic" in2="effect1_dropShadow_233_3126" result="shape"/>
</filter>
</defs>
</svg>
