<svg width="182" height="32" viewBox="0 0 182 32" fill="none" xmlns="http://www.w3.org/2000/svg">
<rect width="182" height="32" rx="16" fill="#DE091C"/>
<path d="M23 22H24C24 21.4477 23.5523 21 23 21V22ZM17 22V21C16.4477 21 16 21.4477 16 22H17ZM21.7548 9.26042C22.2831 9.42168 22.842 9.12421 23.0033 8.59599C23.1645 8.06777 22.867 7.50884 22.3388 7.34758L21.7548 9.26042ZM12.8037 19.1963L13.5108 19.9034L13.5109 19.9034L12.8037 19.1963ZM12.293 19.7071L11.5858 19L11.5857 19.0001L12.293 19.7071ZM27.707 19.707L28.4143 19.0001L28.4141 18.9999L27.707 19.707ZM27.9776 14.4001C27.9355 13.8494 27.455 13.4371 26.9044 13.4791C26.3537 13.5211 25.9413 14.0016 25.9834 14.5523L27.9776 14.4001ZM22 22V23H24V22H22ZM18 23V22H16V23H18ZM17 23H23V21H17V23ZM20 25C18.8954 25 18 24.1046 18 23H16C16 25.2091 17.7909 27 20 27V25ZM22 23C22 24.1046 21.1046 25 20 25V27C22.2091 27 24 25.2091 24 23H22ZM28 11C28 12.6569 26.6569 14 25 14V16C27.7614 16 30 13.7614 30 11H28ZM25 14C23.3431 14 22 12.6569 22 11H20C20 13.7614 22.2386 16 25 16V14ZM22 11C22 9.34315 23.3431 8 25 8V6C22.2386 6 20 8.23858 20 11H22ZM25 8C26.6569 8 28 9.34315 28 11H30C30 8.23858 27.7614 6 25 6V8ZM22.3388 7.34758C21.5978 7.12134 20.8122 7 20 7V9C20.6121 9 21.201 9.09133 21.7548 9.26042L22.3388 7.34758ZM20 7C15.5817 7 12 10.5817 12 15H14C14 11.6863 16.6863 9 20 9V7ZM12 15V18.7224H14V15H12ZM12 18.7224C12 18.6349 12.0348 18.551 12.0965 18.4893L13.5109 19.9034C13.824 19.5902 14 19.1655 14 18.7224H12ZM12.0966 18.4892L11.5858 19L13.0001 20.4142L13.5108 19.9034L12.0966 18.4892ZM11.5857 19.0001C11.211 19.3749 11 19.8833 11 20.4141H13L13.0002 20.4141L11.5857 19.0001ZM11 20.4141V21H13V20.4141H11ZM11 21C11 22.1046 11.8954 23 13 23V21V21H11ZM13 23H27V21H13V23ZM27 23C28.1046 23 29 22.1046 29 21H27V23ZM29 21V20.4142H27V21H29ZM29 20.4142C29 19.8835 28.789 19.3749 28.4143 19.0001L26.9997 20.4139L27 20.4142H29ZM28.4141 18.9999L27.9034 18.4892L26.4892 19.9034L26.9999 20.4141L28.4141 18.9999ZM27.9034 18.4892C27.9652 18.551 28 18.635 28 18.7224H26C26 19.1655 26.176 19.5902 26.4892 19.9034L27.9034 18.4892ZM28 18.7224V15H26V18.7224H28ZM28 15C28 14.7996 27.9928 14.5992 27.9776 14.4001L25.9834 14.5523C25.9945 14.6981 26 14.8475 26 15H28Z" fill="white"/>
<path d="M46.4013 11.8182V22H44.5419L40.1122 15.5916H40.0376V22H37.8849V11.8182H39.7741L44.169 18.2216H44.2585V11.8182H46.4013ZM50.3176 22.1442C49.8304 22.1442 49.3962 22.0597 49.0151 21.8906C48.6339 21.7183 48.3323 21.4647 48.1103 21.13C47.8915 20.7919 47.7821 20.371 47.7821 19.8672C47.7821 19.4429 47.86 19.0866 48.0158 18.7983C48.1716 18.5099 48.3837 18.2779 48.6522 18.1023C48.9206 17.9266 49.2256 17.794 49.5669 17.7045C49.9116 17.6151 50.2729 17.5521 50.6507 17.5156C51.0949 17.4692 51.4528 17.4261 51.7246 17.3864C51.9964 17.3433 52.1936 17.2803 52.3162 17.1974C52.4389 17.1146 52.5002 16.992 52.5002 16.8295V16.7997C52.5002 16.4848 52.4007 16.2412 52.2019 16.0689C52.0063 15.8965 51.7279 15.8104 51.3667 15.8104C50.9855 15.8104 50.6822 15.8949 50.4569 16.0639C50.2315 16.2296 50.0823 16.4384 50.0094 16.6903L48.0506 16.5312C48.15 16.0672 48.3456 15.6662 48.6373 15.3281C48.9289 14.9867 49.3051 14.7249 49.7658 14.5426C50.2298 14.357 50.7667 14.2642 51.3766 14.2642C51.8008 14.2642 52.2069 14.3139 52.5946 14.4134C52.9857 14.5128 53.3321 14.6669 53.6337 14.8757C53.9386 15.0845 54.1789 15.353 54.3546 15.6811C54.5302 16.0059 54.6181 16.3954 54.6181 16.8494V22H52.6096V20.9411H52.5499C52.4273 21.1797 52.2632 21.3902 52.0577 21.5724C51.8522 21.7514 51.6053 21.8923 51.3169 21.995C51.0286 22.0945 50.6955 22.1442 50.3176 22.1442ZM50.9242 20.6825C51.2357 20.6825 51.5108 20.6212 51.7495 20.4986C51.9881 20.3726 52.1754 20.2036 52.3113 19.9915C52.4471 19.7794 52.5151 19.5391 52.5151 19.2706V18.4602C52.4488 18.5033 52.3577 18.5431 52.2417 18.5795C52.129 18.6127 52.0014 18.6442 51.8588 18.674C51.7163 18.7005 51.5738 18.7254 51.4313 18.7486C51.2888 18.7685 51.1595 18.7867 51.0435 18.8033C50.7949 18.8397 50.5778 18.8977 50.3922 18.9773C50.2066 19.0568 50.0624 19.1645 49.9597 19.3004C49.8569 19.433 49.8056 19.5987 49.8056 19.7976C49.8056 20.0859 49.91 20.3063 50.1188 20.4588C50.3309 20.608 50.5994 20.6825 50.9242 20.6825ZM62.6149 16.5412L60.676 16.6605C60.6428 16.4948 60.5716 16.3456 60.4622 16.2131C60.3528 16.0772 60.2086 15.9695 60.0297 15.8899C59.854 15.8071 59.6435 15.7656 59.3983 15.7656C59.0701 15.7656 58.7934 15.8352 58.568 15.9744C58.3426 16.1103 58.2299 16.2926 58.2299 16.5213C58.2299 16.7036 58.3029 16.8577 58.4487 16.9837C58.5945 17.1096 58.8448 17.2107 59.1994 17.2869L60.5815 17.5653C61.3239 17.7178 61.8774 17.9631 62.242 18.3011C62.6066 18.6392 62.7889 19.0833 62.7889 19.6335C62.7889 20.134 62.6414 20.5732 62.3464 20.951C62.0547 21.3288 61.6537 21.6238 61.1433 21.8359C60.6362 22.0447 60.0512 22.1491 59.3883 22.1491C58.3774 22.1491 57.572 21.9387 56.9721 21.5178C56.3755 21.0935 56.0259 20.5168 55.9231 19.7876L58.0062 19.6783C58.0692 19.9865 58.2217 20.2218 58.4636 20.3842C58.7056 20.5433 59.0154 20.6229 59.3933 20.6229C59.7645 20.6229 60.0628 20.5516 60.2882 20.4091C60.5169 20.2633 60.6329 20.076 60.6362 19.8473C60.6329 19.6551 60.5517 19.4976 60.3926 19.375C60.2335 19.2491 59.9882 19.1529 59.6568 19.0866L58.3343 18.8232C57.5886 18.674 57.0334 18.4155 56.6689 18.0476C56.3076 17.6797 56.127 17.2107 56.127 16.6406C56.127 16.1501 56.2595 15.7275 56.5247 15.3729C56.7931 15.0182 57.1693 14.7448 57.6532 14.5526C58.1404 14.3603 58.7105 14.2642 59.3635 14.2642C60.3279 14.2642 61.0869 14.468 61.6404 14.8757C62.1973 15.2834 62.5221 15.8385 62.6149 16.5412ZM68.1843 14.3636V15.9545H63.5856V14.3636H68.1843ZM64.6296 12.5341H66.7475V19.6534C66.7475 19.849 66.7773 20.0014 66.837 20.1108C66.8967 20.2169 66.9795 20.2914 67.0856 20.3345C67.195 20.3776 67.3209 20.3991 67.4634 20.3991C67.5629 20.3991 67.6623 20.3909 67.7617 20.3743C67.8612 20.3544 67.9374 20.3395 67.9904 20.3295L68.3235 21.9055C68.2174 21.9387 68.0683 21.9768 67.8761 22.0199C67.6838 22.0663 67.4502 22.0945 67.1751 22.1044C66.6647 22.1243 66.2172 22.0563 65.8327 21.9006C65.4516 21.7448 65.1549 21.5028 64.9428 21.1747C64.7307 20.8466 64.6263 20.4323 64.6296 19.9318V12.5341ZM71.7415 22.1442C71.2543 22.1442 70.8201 22.0597 70.4389 21.8906C70.0578 21.7183 69.7562 21.4647 69.5341 21.13C69.3153 20.7919 69.206 20.371 69.206 19.8672C69.206 19.4429 69.2839 19.0866 69.4396 18.7983C69.5954 18.5099 69.8075 18.2779 70.076 18.1023C70.3445 17.9266 70.6494 17.794 70.9908 17.7045C71.3355 17.6151 71.6967 17.5521 72.0746 17.5156C72.5187 17.4692 72.8767 17.4261 73.1484 17.3864C73.4202 17.3433 73.6174 17.2803 73.7401 17.1974C73.8627 17.1146 73.924 16.992 73.924 16.8295V16.7997C73.924 16.4848 73.8246 16.2412 73.6257 16.0689C73.4302 15.8965 73.1518 15.8104 72.7905 15.8104C72.4093 15.8104 72.1061 15.8949 71.8807 16.0639C71.6553 16.2296 71.5062 16.4384 71.4332 16.6903L69.4744 16.5312C69.5739 16.0672 69.7694 15.6662 70.0611 15.3281C70.3527 14.9867 70.7289 14.7249 71.1896 14.5426C71.6536 14.357 72.1906 14.2642 72.8004 14.2642C73.2247 14.2642 73.6307 14.3139 74.0185 14.4134C74.4096 14.5128 74.7559 14.6669 75.0575 14.8757C75.3625 15.0845 75.6027 15.353 75.7784 15.6811C75.9541 16.0059 76.0419 16.3954 76.0419 16.8494V22H74.0334V20.9411H73.9737C73.8511 21.1797 73.687 21.3902 73.4815 21.5724C73.276 21.7514 73.0291 21.8923 72.7408 21.995C72.4524 22.0945 72.1193 22.1442 71.7415 22.1442ZM72.348 20.6825C72.6596 20.6825 72.9347 20.6212 73.1733 20.4986C73.4119 20.3726 73.5992 20.2036 73.7351 19.9915C73.871 19.7794 73.9389 19.5391 73.9389 19.2706V18.4602C73.8726 18.5033 73.7815 18.5431 73.6655 18.5795C73.5528 18.6127 73.4252 18.6442 73.2827 18.674C73.1402 18.7005 72.9976 18.7254 72.8551 18.7486C72.7126 18.7685 72.5833 18.7867 72.4673 18.8033C72.2188 18.8397 72.0017 18.8977 71.8161 18.9773C71.6304 19.0568 71.4863 19.1645 71.3835 19.3004C71.2808 19.433 71.2294 19.5987 71.2294 19.7976C71.2294 20.0859 71.3338 20.3063 71.5426 20.4588C71.7547 20.608 72.0232 20.6825 72.348 20.6825ZM84.5309 14.3636L81.8612 22H79.4748L76.805 14.3636H79.0423L80.6282 19.8274H80.7077L82.2887 14.3636H84.5309ZM85.6147 22V14.3636H87.7326V22H85.6147ZM86.6786 13.3793C86.3638 13.3793 86.0936 13.2749 85.8683 13.0661C85.6462 12.8539 85.5352 12.6004 85.5352 12.3054C85.5352 12.0137 85.6462 11.7635 85.8683 11.5547C86.0936 11.3426 86.3638 11.2365 86.6786 11.2365C86.9935 11.2365 87.262 11.3426 87.484 11.5547C87.7094 11.7635 87.8221 12.0137 87.8221 12.3054C87.8221 12.6004 87.7094 12.8539 87.484 13.0661C87.262 13.2749 86.9935 13.3793 86.6786 13.3793ZM93.4909 14.3636V15.9545H88.8922V14.3636H93.4909ZM89.9363 12.5341H92.0542V19.6534C92.0542 19.849 92.084 20.0014 92.1436 20.1108C92.2033 20.2169 92.2862 20.2914 92.3922 20.3345C92.5016 20.3776 92.6275 20.3991 92.7701 20.3991C92.8695 20.3991 92.9689 20.3909 93.0684 20.3743C93.1678 20.3544 93.244 20.3395 93.2971 20.3295L93.6301 21.9055C93.5241 21.9387 93.3749 21.9768 93.1827 22.0199C92.9905 22.0663 92.7568 22.0945 92.4817 22.1044C91.9713 22.1243 91.5239 22.0563 91.1394 21.9006C90.7582 21.7448 90.4616 21.5028 90.2495 21.1747C90.0373 20.8466 89.9329 20.4323 89.9363 19.9318V12.5341ZM100.229 17.5852V22H98.1108V14.3636H100.129V15.7109H100.219C100.388 15.2668 100.671 14.9155 101.069 14.657C101.467 14.3951 101.949 14.2642 102.516 14.2642C103.046 14.2642 103.508 14.3802 103.903 14.6122C104.297 14.8442 104.604 15.1757 104.822 15.6065C105.041 16.0341 105.151 16.5445 105.151 17.1378V22H103.033V17.5156C103.036 17.0483 102.917 16.6837 102.675 16.4219C102.433 16.1567 102.1 16.0241 101.675 16.0241C101.39 16.0241 101.138 16.0855 100.92 16.2081C100.704 16.3307 100.535 16.5097 100.413 16.745C100.293 16.977 100.232 17.2571 100.229 17.5852ZM110.27 22.1491C109.498 22.1491 108.83 21.9851 108.267 21.657C107.706 21.3255 107.274 20.8648 106.969 20.2749C106.664 19.6816 106.512 18.9938 106.512 18.2116C106.512 17.4228 106.664 16.7334 106.969 16.1435C107.274 15.5502 107.706 15.0895 108.267 14.7614C108.83 14.4299 109.498 14.2642 110.27 14.2642C111.042 14.2642 111.709 14.4299 112.269 14.7614C112.832 15.0895 113.266 15.5502 113.571 16.1435C113.876 16.7334 114.029 17.4228 114.029 18.2116C114.029 18.9938 113.876 19.6816 113.571 20.2749C113.266 20.8648 112.832 21.3255 112.269 21.657C111.709 21.9851 111.042 22.1491 110.27 22.1491ZM110.28 20.5085C110.631 20.5085 110.925 20.4091 111.16 20.2102C111.395 20.008 111.573 19.733 111.692 19.3849C111.815 19.0369 111.876 18.6409 111.876 18.1967C111.876 17.7526 111.815 17.3565 111.692 17.0085C111.573 16.6605 111.395 16.3854 111.16 16.1832C110.925 15.9811 110.631 15.88 110.28 15.88C109.925 15.88 109.627 15.9811 109.385 16.1832C109.146 16.3854 108.966 16.6605 108.843 17.0085C108.724 17.3565 108.664 17.7526 108.664 18.1967C108.664 18.6409 108.724 19.0369 108.843 19.3849C108.966 19.733 109.146 20.008 109.385 20.2102C109.627 20.4091 109.925 20.5085 110.28 20.5085ZM119.468 14.3636V15.9545H114.869V14.3636H119.468ZM115.913 12.5341H118.031V19.6534C118.031 19.849 118.061 20.0014 118.12 20.1108C118.18 20.2169 118.263 20.2914 118.369 20.3345C118.478 20.3776 118.604 20.3991 118.747 20.3991C118.846 20.3991 118.945 20.3909 119.045 20.3743C119.144 20.3544 119.221 20.3395 119.274 20.3295L119.607 21.9055C119.501 21.9387 119.352 21.9768 119.159 22.0199C118.967 22.0663 118.733 22.0945 118.458 22.1044C117.948 22.1243 117.5 22.0563 117.116 21.9006C116.735 21.7448 116.438 21.5028 116.226 21.1747C116.014 20.8466 115.91 20.4323 115.913 19.9318V12.5341ZM120.847 22V14.3636H122.965V22H120.847ZM121.911 13.3793C121.596 13.3793 121.326 13.2749 121.101 13.0661C120.879 12.8539 120.768 12.6004 120.768 12.3054C120.768 12.0137 120.879 11.7635 121.101 11.5547C121.326 11.3426 121.596 11.2365 121.911 11.2365C122.226 11.2365 122.494 11.3426 122.716 11.5547C122.942 11.7635 123.055 12.0137 123.055 12.3054C123.055 12.6004 122.942 12.8539 122.716 13.0661C122.494 13.2749 122.226 13.3793 121.911 13.3793ZM128.768 14.3636V15.9545H124.055V14.3636H128.768ZM125.134 22V13.8118C125.134 13.2583 125.242 12.7992 125.457 12.4347C125.676 12.0701 125.974 11.7966 126.352 11.6143C126.73 11.4321 127.159 11.3409 127.64 11.3409C127.964 11.3409 128.261 11.3658 128.529 11.4155C128.801 11.4652 129.003 11.5099 129.136 11.5497L128.758 13.1406C128.675 13.1141 128.573 13.0893 128.45 13.0661C128.331 13.0429 128.208 13.0312 128.082 13.0312C127.77 13.0312 127.553 13.1042 127.431 13.25C127.308 13.3925 127.247 13.593 127.247 13.8516V22H125.134ZM130.062 22V14.3636H132.18V22H130.062ZM131.126 13.3793C130.811 13.3793 130.541 13.2749 130.316 13.0661C130.093 12.8539 129.982 12.6004 129.982 12.3054C129.982 12.0137 130.093 11.7635 130.316 11.5547C130.541 11.3426 130.811 11.2365 131.126 11.2365C131.441 11.2365 131.709 11.3426 131.931 11.5547C132.157 11.7635 132.269 12.0137 132.269 12.3054C132.269 12.6004 132.157 12.8539 131.931 13.0661C131.709 13.2749 131.441 13.3793 131.126 13.3793ZM135.795 19.8026L135.8 17.2621H136.109L138.555 14.3636H140.986L137.7 18.2017H137.197L135.795 19.8026ZM133.876 22V11.8182H135.994V22H133.876ZM138.649 22L136.402 18.674L137.814 17.1776L141.13 22H138.649ZM144.202 22.1442C143.715 22.1442 143.281 22.0597 142.9 21.8906C142.519 21.7183 142.217 21.4647 141.995 21.13C141.776 20.7919 141.667 20.371 141.667 19.8672C141.667 19.4429 141.745 19.0866 141.901 18.7983C142.056 18.5099 142.268 18.2779 142.537 18.1023C142.805 17.9266 143.11 17.794 143.452 17.7045C143.796 17.6151 144.158 17.5521 144.536 17.5156C144.98 17.4692 145.338 17.4261 145.609 17.3864C145.881 17.3433 146.078 17.2803 146.201 17.1974C146.324 17.1146 146.385 16.992 146.385 16.8295V16.7997C146.385 16.4848 146.286 16.2412 146.087 16.0689C145.891 15.8965 145.613 15.8104 145.251 15.8104C144.87 15.8104 144.567 15.8949 144.342 16.0639C144.116 16.2296 143.967 16.4384 143.894 16.6903L141.935 16.5312C142.035 16.0672 142.23 15.6662 142.522 15.3281C142.814 14.9867 143.19 14.7249 143.651 14.5426C144.115 14.357 144.652 14.2642 145.261 14.2642C145.686 14.2642 146.092 14.3139 146.479 14.4134C146.871 14.5128 147.217 14.6669 147.518 14.8757C147.823 15.0845 148.064 15.353 148.239 15.6811C148.415 16.0059 148.503 16.3954 148.503 16.8494V22H146.494V20.9411H146.435C146.312 21.1797 146.148 21.3902 145.942 21.5724C145.737 21.7514 145.49 21.8923 145.202 21.995C144.913 22.0945 144.58 22.1442 144.202 22.1442ZM144.809 20.6825C145.121 20.6825 145.396 20.6212 145.634 20.4986C145.873 20.3726 146.06 20.2036 146.196 19.9915C146.332 19.7794 146.4 19.5391 146.4 19.2706V18.4602C146.334 18.5033 146.242 18.5431 146.126 18.5795C146.014 18.6127 145.886 18.6442 145.744 18.674C145.601 18.7005 145.459 18.7254 145.316 18.7486C145.174 18.7685 145.044 18.7867 144.928 18.8033C144.68 18.8397 144.463 18.8977 144.277 18.9773C144.091 19.0568 143.947 19.1645 143.844 19.3004C143.742 19.433 143.69 19.5987 143.69 19.7976C143.69 20.0859 143.795 20.3063 144.004 20.4588C144.216 20.608 144.484 20.6825 144.809 20.6825ZM153.596 22.1491C152.814 22.1491 152.141 21.9834 151.578 21.652C151.018 21.3172 150.587 20.8532 150.285 20.2599C149.987 19.6667 149.838 18.9839 149.838 18.2116C149.838 17.4295 149.989 16.7434 150.29 16.1534C150.595 15.5601 151.028 15.0978 151.588 14.7663C152.148 14.4316 152.814 14.2642 153.586 14.2642C154.252 14.2642 154.836 14.3852 155.336 14.6271C155.837 14.8691 156.233 15.2088 156.525 15.6463C156.816 16.0838 156.977 16.5975 157.007 17.1875H155.008C154.952 16.8063 154.803 16.4998 154.561 16.2678C154.322 16.0324 154.009 15.9148 153.621 15.9148C153.293 15.9148 153.006 16.0043 152.761 16.1832C152.519 16.3589 152.33 16.6158 152.194 16.9538C152.058 17.2919 151.99 17.7012 151.99 18.1818C151.99 18.669 152.057 19.0833 152.189 19.4247C152.325 19.7661 152.516 20.0263 152.761 20.2053C153.006 20.3842 153.293 20.4737 153.621 20.4737C153.863 20.4737 154.08 20.424 154.272 20.3246C154.468 20.2251 154.629 20.081 154.755 19.892C154.884 19.6998 154.968 19.4695 155.008 19.201H157.007C156.974 19.7843 156.815 20.2981 156.529 20.7422C156.248 21.183 155.858 21.5277 155.361 21.7763C154.864 22.0249 154.276 22.1491 153.596 22.1491ZM161.843 22.1491C161.057 22.1491 160.381 21.9901 159.814 21.6719C159.251 21.3504 158.817 20.8963 158.512 20.3097C158.207 19.7197 158.055 19.022 158.055 18.2166C158.055 17.4311 158.207 16.7417 158.512 16.1484C158.817 15.5552 159.246 15.0928 159.8 14.7614C160.356 14.4299 161.009 14.2642 161.758 14.2642C162.262 14.2642 162.731 14.3454 163.165 14.5078C163.603 14.6669 163.984 14.9072 164.309 15.2287C164.637 15.5502 164.892 15.9545 165.074 16.4418C165.257 16.9257 165.348 17.4924 165.348 18.142V18.7237H158.9V17.4112H163.354C163.354 17.1063 163.288 16.8362 163.155 16.6009C163.023 16.3655 162.839 16.1816 162.604 16.049C162.372 15.9131 162.101 15.8452 161.793 15.8452C161.472 15.8452 161.187 15.9197 160.938 16.0689C160.693 16.2147 160.501 16.4119 160.361 16.6605C160.222 16.9058 160.151 17.1792 160.148 17.4808V18.7287C160.148 19.1065 160.217 19.433 160.356 19.7081C160.499 19.9832 160.699 20.1953 160.958 20.3445C161.216 20.4936 161.523 20.5682 161.878 20.5682C162.113 20.5682 162.328 20.535 162.524 20.4688C162.72 20.4025 162.887 20.303 163.026 20.1705C163.165 20.0379 163.271 19.8755 163.344 19.6832L165.303 19.8125C165.204 20.2831 165 20.6941 164.692 21.0455C164.387 21.3935 163.992 21.6652 163.508 21.8608C163.028 22.053 162.473 22.1491 161.843 22.1491Z" fill="white"/>
</svg>
