<svg width="184" height="40" viewBox="0 0 184 40" fill="none" xmlns="http://www.w3.org/2000/svg">
<g filter="url(#filter0_d_233_3121)">
<rect x="4" y="4" width="176" height="32" rx="16" fill="white"/>
</g>
<path d="M44.8679 24.4489V17.4091H46.6477V24.4489H44.8679ZM42.2379 21.8189V20.0391H49.2777V21.8189H42.2379ZM51.1868 24.2102V22.5149L55.4375 15.8182H56.8991V18.1648H56.0341L53.3544 22.4055V22.4851H59.3949V24.2102H51.1868ZM56.0739 26V23.6932L56.1136 22.9425V15.8182H58.1321V26H56.0739ZM60.8292 26V24.4489L64.4535 21.093C64.7617 20.7947 65.0202 20.5263 65.229 20.2876C65.4412 20.049 65.6019 19.8153 65.7113 19.5866C65.8207 19.3546 65.8754 19.1044 65.8754 18.8359C65.8754 18.5376 65.8074 18.2808 65.6715 18.0653C65.5356 17.8466 65.35 17.6792 65.1147 17.5632C64.8794 17.4439 64.6126 17.3842 64.3143 17.3842C64.0027 17.3842 63.7309 17.4472 63.4989 17.5732C63.2669 17.6991 63.0879 17.8797 62.962 18.1151C62.8361 18.3504 62.7731 18.6304 62.7731 18.9553H60.7298C60.7298 18.2891 60.8806 17.7107 61.1822 17.2202C61.4838 16.7296 61.9064 16.3501 62.4499 16.0817C62.9935 15.8132 63.6199 15.679 64.3292 15.679C65.0584 15.679 65.6931 15.8082 66.2333 16.0668C66.7769 16.322 67.1995 16.6766 67.5011 17.1307C67.8027 17.5848 67.9535 18.1051 67.9535 18.6918C67.9535 19.0762 67.8772 19.4557 67.7248 19.8303C67.5756 20.2048 67.3088 20.6207 66.9244 21.0781C66.5399 21.5322 65.998 22.0774 65.2987 22.7138L63.8121 24.1705V24.2401H68.0877V26H60.8292ZM73.6397 26.2237C72.7846 26.2204 72.0488 26.0099 71.4324 25.5923C70.8192 25.1747 70.3469 24.5698 70.0154 23.7777C69.6873 22.9856 69.5249 22.0327 69.5282 20.919C69.5282 19.8087 69.6923 18.8625 70.0204 18.0803C70.3519 17.2981 70.8242 16.7031 71.4373 16.2955C72.0538 15.8845 72.7879 15.679 73.6397 15.679C74.4915 15.679 75.224 15.8845 75.8372 16.2955C76.4537 16.7064 76.9276 17.303 77.2591 18.0852C77.5905 18.8641 77.7546 19.8087 77.7512 20.919C77.7512 22.036 77.5855 22.9905 77.2541 23.7827C76.926 24.5748 76.4553 25.1797 75.8422 25.5973C75.229 26.0149 74.4949 26.2237 73.6397 26.2237ZM73.6397 24.4389C74.2231 24.4389 74.6887 24.1456 75.0368 23.5589C75.3848 22.9723 75.5571 22.0923 75.5538 20.919C75.5538 20.1468 75.4743 19.5038 75.3152 18.9901C75.1594 18.4763 74.9373 18.0902 74.649 17.8317C74.3639 17.5732 74.0275 17.4439 73.6397 17.4439C73.0597 17.4439 72.5957 17.7339 72.2477 18.3139C71.8997 18.8939 71.724 19.7623 71.7207 20.919C71.7207 21.7012 71.7986 22.3542 71.9544 22.8778C72.1135 23.3982 72.3372 23.7893 72.6255 24.0511C72.9139 24.3097 73.252 24.4389 73.6397 24.4389ZM82.3723 24.2102V22.5149L86.623 15.8182H88.0847V18.1648H87.2196L84.54 22.4055V22.4851H90.5804V24.2102H82.3723ZM87.2594 26V23.6932L87.2992 22.9425V15.8182H89.3176V26H87.2594ZM95.6987 15.679C96.2224 15.679 96.7261 15.7668 97.21 15.9425C97.6973 16.1181 98.1315 16.3982 98.5126 16.7827C98.8971 17.1671 99.2003 17.6776 99.4224 18.3139C99.6478 18.947 99.7621 19.7242 99.7654 20.6456C99.7654 21.5107 99.6677 22.2829 99.4721 22.9624C99.2799 23.6385 99.0031 24.2135 98.6419 24.6875C98.2806 25.1615 97.8448 25.5227 97.3343 25.7713C96.8239 26.0166 96.2538 26.1392 95.6241 26.1392C94.9447 26.1392 94.3448 26.0083 93.8244 25.7464C93.304 25.4813 92.8848 25.1217 92.5666 24.6676C92.2517 24.2102 92.0611 23.6965 91.9949 23.1264H94.1177C94.2006 23.4976 94.3746 23.786 94.6397 23.9915C94.9049 24.1937 95.233 24.2947 95.6241 24.2947C96.287 24.2947 96.7908 24.0064 97.1355 23.4297C97.4802 22.8497 97.6542 22.0559 97.6575 21.0483H97.5879C97.4354 21.3466 97.2299 21.6035 96.9714 21.8189C96.7129 22.031 96.4163 22.1951 96.0815 22.3111C95.7501 22.4271 95.3971 22.4851 95.0225 22.4851C94.4226 22.4851 93.8874 22.3442 93.4167 22.0625C92.9461 21.7808 92.5749 21.393 92.3031 20.8991C92.0313 20.4053 91.8954 19.8419 91.8954 19.2088C91.8921 18.526 92.0495 17.9179 92.3677 17.3842C92.6859 16.8506 93.13 16.433 93.7001 16.1314C94.2735 15.8265 94.9397 15.6757 95.6987 15.679ZM95.7136 17.3693C95.3788 17.3693 95.0806 17.4489 94.8187 17.608C94.5602 17.767 94.3547 17.9808 94.2022 18.2493C94.0531 18.5178 93.9802 18.8177 93.9835 19.1491C93.9835 19.4839 94.0564 19.7855 94.2022 20.054C94.3514 20.3191 94.5536 20.5312 94.8088 20.6903C95.0673 20.8461 95.3623 20.924 95.6937 20.924C95.9423 20.924 96.1726 20.8776 96.3848 20.7848C96.5969 20.692 96.7808 20.5644 96.9366 20.402C97.0957 20.2363 97.22 20.0457 97.3095 19.8303C97.399 19.6148 97.4437 19.3861 97.4437 19.1442C97.4404 18.8227 97.3642 18.5277 97.215 18.2592C97.0659 17.9908 96.8604 17.7753 96.5985 17.6129C96.3367 17.4505 96.0417 17.3693 95.7136 17.3693ZM104.941 15.679C105.465 15.679 105.968 15.7668 106.452 15.9425C106.939 16.1181 107.374 16.3982 107.755 16.7827C108.139 17.1671 108.443 17.6776 108.665 18.3139C108.89 18.947 109.004 19.7242 109.008 20.6456C109.008 21.5107 108.91 22.2829 108.714 22.9624C108.522 23.6385 108.245 24.2135 107.884 24.6875C107.523 25.1615 107.087 25.5227 106.577 25.7713C106.066 26.0166 105.496 26.1392 104.866 26.1392C104.187 26.1392 103.587 26.0083 103.067 25.7464C102.546 25.4813 102.127 25.1217 101.809 24.6676C101.494 24.2102 101.303 23.6965 101.237 23.1264H103.36C103.443 23.4976 103.617 23.786 103.882 23.9915C104.147 24.1937 104.475 24.2947 104.866 24.2947C105.529 24.2947 106.033 24.0064 106.378 23.4297C106.722 22.8497 106.896 22.0559 106.9 21.0483H106.83C106.678 21.3466 106.472 21.6035 106.214 21.8189C105.955 22.031 105.658 22.1951 105.324 22.3111C104.992 22.4271 104.639 22.4851 104.265 22.4851C103.665 22.4851 103.13 22.3442 102.659 22.0625C102.188 21.7808 101.817 21.393 101.545 20.8991C101.273 20.4053 101.138 19.8419 101.138 19.2088C101.134 18.526 101.292 17.9179 101.61 17.3842C101.928 16.8506 102.372 16.433 102.942 16.1314C103.516 15.8265 104.182 15.6757 104.941 15.679ZM104.956 17.3693C104.621 17.3693 104.323 17.4489 104.061 17.608C103.802 17.767 103.597 17.9808 103.444 18.2493C103.295 18.5178 103.222 18.8177 103.226 19.1491C103.226 19.4839 103.299 19.7855 103.444 20.054C103.594 20.3191 103.796 20.5312 104.051 20.6903C104.309 20.8461 104.604 20.924 104.936 20.924C105.184 20.924 105.415 20.8776 105.627 20.7848C105.839 20.692 106.023 20.5644 106.179 20.402C106.338 20.2363 106.462 20.0457 106.552 19.8303C106.641 19.6148 106.686 19.3861 106.686 19.1442C106.683 18.8227 106.606 18.5277 106.457 18.2592C106.308 17.9908 106.103 17.7753 105.841 17.6129C105.579 17.4505 105.284 17.3693 104.956 17.3693ZM118.169 15.8182V26H116.016V17.8615H115.957L113.625 19.3232V17.4141L116.146 15.8182H118.169ZM120.589 26V24.4489L124.213 21.093C124.521 20.7947 124.78 20.5263 124.989 20.2876C125.201 20.049 125.362 19.8153 125.471 19.5866C125.58 19.3546 125.635 19.1044 125.635 18.8359C125.635 18.5376 125.567 18.2808 125.431 18.0653C125.295 17.8466 125.11 17.6792 124.874 17.5632C124.639 17.4439 124.372 17.3842 124.074 17.3842C123.762 17.3842 123.491 17.4472 123.259 17.5732C123.027 17.6991 122.848 17.8797 122.722 18.1151C122.596 18.3504 122.533 18.6304 122.533 18.9553H120.49C120.49 18.2891 120.64 17.7107 120.942 17.2202C121.244 16.7296 121.666 16.3501 122.21 16.0817C122.753 15.8132 123.38 15.679 124.089 15.679C124.818 15.679 125.453 15.8082 125.993 16.0668C126.537 16.322 126.959 16.6766 127.261 17.1307C127.562 17.5848 127.713 18.1051 127.713 18.6918C127.713 19.0762 127.637 19.4557 127.485 19.8303C127.335 20.2048 127.069 20.6207 126.684 21.0781C126.3 21.5322 125.758 22.0774 125.058 22.7138L123.572 24.1705V24.2401H127.847V26H120.589ZM133.171 26.1392C132.428 26.1392 131.767 26.0116 131.187 25.7564C130.61 25.4979 130.155 25.1432 129.82 24.6925C129.489 24.2384 129.318 23.7147 129.308 23.1214H131.475C131.489 23.37 131.57 23.5888 131.719 23.7777C131.872 23.9633 132.074 24.1075 132.326 24.2102C132.578 24.313 132.861 24.3643 133.176 24.3643C133.504 24.3643 133.794 24.3063 134.046 24.1903C134.298 24.0743 134.495 23.9136 134.637 23.7081C134.78 23.5026 134.851 23.2656 134.851 22.9972C134.851 22.7254 134.775 22.4851 134.623 22.2763C134.473 22.0642 134.258 21.8984 133.976 21.7791C133.698 21.6598 133.366 21.6001 132.982 21.6001H132.032V20.0192H132.982C133.307 20.0192 133.593 19.9628 133.842 19.8501C134.094 19.7375 134.289 19.5817 134.429 19.3828C134.568 19.1806 134.637 18.9453 134.637 18.6768C134.637 18.4216 134.576 18.1979 134.453 18.0057C134.334 17.8101 134.165 17.6577 133.946 17.5483C133.731 17.4389 133.479 17.3842 133.191 17.3842C132.899 17.3842 132.632 17.4373 132.39 17.5433C132.148 17.6461 131.954 17.7936 131.809 17.9858C131.663 18.178 131.585 18.4034 131.575 18.6619H129.512C129.522 18.0753 129.689 17.5582 130.014 17.1108C130.339 16.6634 130.776 16.3137 131.326 16.0618C131.88 15.8066 132.505 15.679 133.201 15.679C133.903 15.679 134.518 15.8066 135.045 16.0618C135.572 16.317 135.981 16.6617 136.273 17.0959C136.568 17.5268 136.714 18.0107 136.711 18.5476C136.714 19.1177 136.537 19.5933 136.179 19.9744C135.824 20.3556 135.362 20.5975 134.792 20.7003V20.7798C135.541 20.8759 136.111 21.1361 136.502 21.5604C136.896 21.9813 137.092 22.5083 137.088 23.1413C137.092 23.7214 136.924 24.2367 136.586 24.6875C136.252 25.1383 135.789 25.4929 135.199 25.7514C134.609 26.0099 133.933 26.1392 133.171 26.1392ZM141.722 24.2102V22.5149L145.973 15.8182H147.434V18.1648H146.569L143.89 22.4055V22.4851H149.93V24.2102H141.722ZM146.609 26V23.6932L146.649 22.9425V15.8182H148.667V26H146.609ZM155.083 26.1392C154.38 26.1392 153.754 26.0099 153.204 25.7514C152.657 25.4929 152.223 25.1366 151.901 24.6825C151.58 24.2285 151.412 23.7081 151.399 23.1214H153.487C153.51 23.5159 153.676 23.8357 153.984 24.081C154.293 24.3262 154.659 24.4489 155.083 24.4489C155.421 24.4489 155.719 24.3743 155.978 24.2251C156.24 24.0727 156.444 23.8622 156.589 23.5938C156.739 23.322 156.813 23.0104 156.813 22.6591C156.813 22.3011 156.737 21.9863 156.585 21.7145C156.435 21.4427 156.228 21.2306 155.963 21.0781C155.698 20.9257 155.395 20.8478 155.053 20.8445C154.755 20.8445 154.465 20.9058 154.183 21.0284C153.905 21.151 153.688 21.3184 153.532 21.5305L151.618 21.1875L152.1 15.8182H158.325V17.5781H153.875L153.612 20.1286H153.671C153.85 19.8767 154.12 19.6679 154.482 19.5021C154.843 19.3364 155.247 19.2536 155.695 19.2536C156.308 19.2536 156.855 19.3977 157.335 19.6861C157.816 19.9744 158.195 20.3705 158.474 20.8743C158.752 21.3748 158.89 21.9515 158.886 22.6044C158.89 23.2905 158.731 23.9003 158.409 24.4339C158.091 24.9643 157.645 25.3819 157.072 25.6868C156.502 25.9884 155.839 26.1392 155.083 26.1392ZM164.295 26.1392C163.772 26.1359 163.266 26.0481 162.779 25.8757C162.295 25.7034 161.861 25.4233 161.477 25.0355C161.092 24.6477 160.787 24.134 160.562 23.4943C160.34 22.8546 160.229 22.0691 160.229 21.1378C160.232 20.2827 160.33 19.5187 160.522 18.8459C160.718 18.1697 160.996 17.5964 161.357 17.1257C161.722 16.6551 162.158 16.2971 162.665 16.0518C163.172 15.8033 163.74 15.679 164.37 15.679C165.049 15.679 165.649 15.8116 166.17 16.0767C166.69 16.3385 167.108 16.6948 167.423 17.1456C167.741 17.5964 167.933 18.1018 167.999 18.6619H165.876C165.794 18.3073 165.62 18.0289 165.354 17.8267C165.089 17.6245 164.761 17.5234 164.37 17.5234C163.707 17.5234 163.203 17.8118 162.859 18.3885C162.517 18.9652 162.343 19.7491 162.337 20.7401H162.406C162.559 20.4384 162.764 20.1816 163.023 19.9695C163.285 19.754 163.581 19.59 163.913 19.4773C164.247 19.3613 164.6 19.3033 164.972 19.3033C165.575 19.3033 166.112 19.4458 166.582 19.7308C167.053 20.0125 167.424 20.4003 167.696 20.8942C167.968 21.388 168.104 21.9531 168.104 22.5895C168.104 23.2789 167.943 23.892 167.621 24.429C167.303 24.9659 166.857 25.3868 166.284 25.6918C165.714 25.9934 165.051 26.1425 164.295 26.1392ZM164.286 24.4489C164.617 24.4489 164.914 24.3693 165.175 24.2102C165.437 24.0511 165.643 23.8357 165.792 23.5639C165.941 23.2921 166.016 22.9872 166.016 22.6491C166.016 22.3111 165.941 22.0078 165.792 21.7393C165.646 21.4709 165.444 21.2571 165.185 21.098C164.927 20.9389 164.632 20.8594 164.3 20.8594C164.052 20.8594 163.821 20.9058 163.609 20.9986C163.401 21.0914 163.217 21.2206 163.058 21.3864C162.902 21.5521 162.779 21.7443 162.69 21.9631C162.6 22.1785 162.555 22.4089 162.555 22.6541C162.555 22.9822 162.63 23.2822 162.779 23.554C162.932 23.8258 163.137 24.0429 163.396 24.2053C163.657 24.3677 163.954 24.4489 164.286 24.4489Z" fill="#DE091C"/>
<path d="M22.5029 12.2572L23.4314 11.8858L23.4314 11.8858L22.5029 12.2572ZM23.5572 14.8929L22.6287 15.2643L22.6287 15.2643L23.5572 14.8929ZM23.2368 16.916L22.4686 16.2758L22.4686 16.2758L23.2368 16.916ZM22.6694 17.5969L23.4377 18.2371L23.4377 18.237L22.6694 17.5969ZM22.7914 20.2915L22.0843 20.9986L22.0843 20.9986L22.7914 20.2915ZM24.7085 22.2085L25.4157 21.5014L25.4156 21.5014L24.7085 22.2085ZM27.4031 22.3307L26.763 21.5624L26.7629 21.5625L27.4031 22.3307ZM28.0842 21.7633L28.7243 22.5316L28.7244 22.5315L28.0842 21.7633ZM30.1071 21.4429L30.4785 20.5144L30.4785 20.5144L30.1071 21.4429ZM32.7426 22.4971L32.3712 23.4256L32.3712 23.4256L32.7426 22.4971ZM33.9999 24.354H32.9999V24.3541L33.9999 24.354ZM34 27.1053H35V27.1053L34 27.1053ZM20.646 12C21.0549 12 21.4226 12.249 21.5745 12.6286L23.4314 11.8858C22.9758 10.7469 21.8727 10 20.646 10V12ZM21.5745 12.6286L22.6287 15.2643L24.4857 14.5215L23.4314 11.8858L21.5745 12.6286ZM22.6287 15.2643C22.7652 15.6054 22.7037 15.9937 22.4686 16.2758L24.005 17.5562C24.7106 16.7095 24.8949 15.5444 24.4857 14.5215L22.6287 15.2643ZM22.4686 16.2758L21.9012 16.9567L23.4377 18.237L24.0051 17.5561L22.4686 16.2758ZM21.9012 16.9567C20.9081 18.1485 20.9869 19.9013 22.0843 20.9986L23.4985 19.5844C23.133 19.2189 23.1064 18.6346 23.4377 18.2371L21.9012 16.9567ZM22.0843 20.9986L24.0015 22.9157L25.4156 21.5014L23.4984 19.5844L22.0843 20.9986ZM24.0014 22.9157C25.0986 24.0128 26.8513 24.0922 28.0433 23.0989L26.7629 21.5625C26.3655 21.8936 25.7813 21.8671 25.4157 21.5014L24.0014 22.9157ZM28.0431 23.099L28.7243 22.5316L27.4441 20.995L26.763 21.5624L28.0431 23.099ZM28.7244 22.5315C29.0065 22.2964 29.3947 22.2349 29.7357 22.3714L30.4785 20.5144C29.4555 20.1052 28.2906 20.2896 27.444 20.9951L28.7244 22.5315ZM29.7357 22.3713L32.3712 23.4256L33.114 21.5687L30.4785 20.5144L29.7357 22.3713ZM32.3712 23.4256C32.751 23.5775 32.9999 23.9452 32.9999 24.354H34.9999C34.9999 23.1272 34.2529 22.0242 33.114 21.5687L32.3712 23.4256ZM32.9999 24.3541L33 27.1054L35 27.1053L34.9999 24.354L32.9999 24.3541ZM33 27.1053C33 27.5995 32.5995 28 32.1055 28V30C33.7043 30 35 28.704 35 27.1053H33ZM32.1055 28C23.763 28 17 21.2372 17 12.8948H15C15 22.3418 22.6585 30 32.1055 30V28ZM17 12.8948C17 12.4006 17.4006 12 17.8947 12V10C16.296 10 15 11.2961 15 12.8948H17ZM17.8947 12H20.646V10H17.8947V12Z" fill="#DE091C"/>
<defs>
<filter id="filter0_d_233_3121" x="0" y="0" width="184" height="40" filterUnits="userSpaceOnUse" color-interpolation-filters="sRGB">
<feFlood flood-opacity="0" result="BackgroundImageFix"/>
<feColorMatrix in="SourceAlpha" type="matrix" values="0 0 0 0 0 0 0 0 0 0 0 0 0 0 0 0 0 0 127 0" result="hardAlpha"/>
<feOffset/>
<feGaussianBlur stdDeviation="2"/>
<feComposite in2="hardAlpha" operator="out"/>
<feColorMatrix type="matrix" values="0 0 0 0 0 0 0 0 0 0 0 0 0 0 0 0 0 0 0.25 0"/>
<feBlend mode="normal" in2="BackgroundImageFix" result="effect1_dropShadow_233_3121"/>
<feBlend mode="normal" in="SourceGraphic" in2="effect1_dropShadow_233_3121" result="shape"/>
</filter>
</defs>
</svg>
