<svg width="32" height="32" viewBox="0 0 32 32" fill="none" xmlns="http://www.w3.org/2000/svg">
<circle cx="16" cy="16" r="16" fill="#DE091C"/>
<path d="M23.9869 12.1942L23.498 13.0666V13.0666L23.9869 12.1942ZM24.3532 12.3995L24.8421 11.5271L24.8421 11.5271L24.3532 12.3995ZM25.9984 15.2101L26.9984 15.2079V15.2079L25.9984 15.2101ZM25.9997 15.7766L24.9997 15.7788V15.7788L25.9997 15.7766ZM24.35 18.6043L24.8374 19.4775V19.4775L24.35 18.6043ZM23.9883 18.8062L23.5009 17.933V17.933L23.9883 18.8062ZM22.837 20.8131L23.8369 20.7964L22.837 20.8131ZM22.8441 21.2411L21.8443 21.2578L22.8441 21.2411ZM21.2503 24.0842L21.755 24.9475L21.755 24.9475L21.2503 24.0842ZM20.7625 24.3694L20.2578 23.5061L20.2578 23.5061L20.7625 24.3694ZM17.5079 24.3451L16.9904 25.2008L16.9904 25.2008L17.5079 24.3451ZM17.1517 24.1297L17.6691 23.274L17.6691 23.274L17.1517 24.1297ZM14.8488 24.1283L14.3324 23.272L14.8488 24.1283ZM14.4949 24.3418L15.0113 25.1981L14.4949 24.3418ZM11.252 24.3692L10.75 25.2341L11.252 24.3692ZM10.7581 24.0826L11.2601 23.2177L10.7581 24.0826ZM9.15589 21.2342L10.1557 21.251L9.15589 21.2342ZM9.16277 20.8236L8.16291 20.8068L9.16277 20.8236ZM8.00499 18.8013L7.51614 19.6737H7.51615L8.00499 18.8013ZM7.64651 18.6005L8.13535 17.7281H8.13535L7.64651 18.6005ZM6.00164 15.79L7.00163 15.7877L6.00164 15.79ZM6.00036 15.2235L5.00036 15.2258L6.00036 15.2235ZM7.64993 12.3958L7.16252 11.5226L7.64993 12.3958ZM8.01163 12.1938L8.49904 13.067L8.01163 12.1938ZM9.16254 10.187L8.16268 10.2037L9.16254 10.187ZM9.1554 9.75903L10.1553 9.74233V9.74233L9.1554 9.75903ZM10.7493 6.9159L10.2446 6.05261V6.05261L10.7493 6.9159ZM11.2371 6.63069L11.7418 7.49399V7.49399L11.2371 6.63069ZM14.4919 6.65493L15.0094 5.79922V5.79922L14.4919 6.65493ZM14.8482 6.87034L14.3307 7.72604L14.8482 6.87034ZM17.1507 6.87174L16.6342 6.01543V6.01543L17.1507 6.87174ZM17.5047 6.65825L18.0211 7.51455V7.51455L17.5047 6.65825ZM20.7473 6.63082L20.2453 7.49568L20.7473 6.63082ZM21.2413 6.91756L21.7433 6.0527V6.0527L21.2413 6.91756ZM22.844 9.76567L21.8442 9.74897V9.74897L22.844 9.76567ZM22.837 10.1859L23.8369 10.2026L23.8369 10.2026L22.837 10.1859ZM22.8357 10.317L23.8356 10.3018L22.8357 10.317ZM23.1366 11.3517L24.0041 10.8542L23.1366 11.3517ZM23.0724 11.2377L22.1895 11.7072L23.0724 11.2377ZM22.3483 7.67761L23.0969 7.0145V7.0145L22.3483 7.67761ZM22.7652 8.41886L23.7204 8.12279L22.7652 8.41886ZM18.699 6.05588L18.9196 7.03125L18.699 6.05588ZM19.5427 6.04887L19.3387 7.02782L19.5427 6.04887ZM16.1303 7.19099L16.098 6.19152L16.1303 7.19099ZM17.0383 6.93804L17.527 7.81053L17.0383 6.93804ZM14.9603 6.93696L14.4707 7.80892L14.9603 6.93696ZM15.8704 7.19099L15.9028 6.19152L15.8704 7.19099ZM12.4454 6.04259L12.6513 7.02117L12.4454 6.04259ZM13.2928 6.04887L13.0723 7.02427L13.2928 6.04887ZM9.234 8.4164L10.1894 8.71158L9.234 8.4164ZM9.64875 7.67667L8.89879 7.01519L9.64875 7.67667ZM8.86329 11.3508L9.73077 11.8483L8.86329 11.3508ZM8.92652 11.2386L8.0438 10.7687L8.92652 11.2386ZM9.16388 10.316L10.1638 10.3307L9.16388 10.316ZM8.12305 12.1304L7.60816 11.2731L8.12305 12.1304ZM8.79832 11.4621L7.94696 10.9375H7.94696L8.79832 11.4621ZM6.09882 13.8749L7.04941 14.1853L6.09882 13.8749ZM6.5284 13.1388L7.26617 13.8139H7.26617L6.5284 13.1388ZM6.53279 17.8607L5.79517 18.5359L5.79517 18.5359L6.53279 17.8607ZM6.10483 17.1296L5.15508 17.4426L6.10483 17.1296ZM8.86505 19.6575L9.73448 19.1634L8.86505 19.6575ZM8.79491 19.5364L7.94289 20.0599L8.79491 19.5364ZM8.12606 18.8705L7.60745 19.7255L8.12606 18.8705ZM9.16389 20.6851L8.16404 20.702L9.16389 20.6851ZM8.93252 19.7782L9.81814 19.3138L8.93252 19.7782ZM9.65168 23.3224L8.90315 23.9855L9.65168 23.3224ZM9.23449 22.5812L10.1897 22.2851L9.23449 22.5812ZM13.3006 24.9441L13.5211 25.9195H13.5211L13.3006 24.9441ZM12.4569 24.9512L12.2528 25.9301L12.4569 24.9512ZM15.8689 23.809L15.8367 22.8096L15.8366 22.8096L15.8689 23.809ZM14.9611 24.062L15.4497 24.9345L14.9611 24.062ZM17.0393 24.063L17.5289 23.191L17.0393 24.063ZM16.1296 23.809L16.162 22.8096H16.162L16.1296 23.809ZM19.554 24.9575L19.7599 25.936L19.554 24.9575ZM18.7072 24.9511L18.9276 23.9757L18.7072 24.9511ZM22.7657 22.5837L23.7211 22.8788L22.7657 22.5837ZM22.3509 23.3234L23.1009 23.9848L22.3509 23.3234ZM23.1362 19.6492L22.2687 19.1518L23.1362 19.6492ZM23.0729 19.7615L22.1902 19.2916L23.0729 19.7615ZM22.8357 20.6841L21.8358 20.6694L22.8357 20.6841ZM23.8765 18.8697L24.3914 19.727L23.8765 18.8697ZM23.2014 19.5379L24.0528 20.0625L23.2014 19.5379ZM25.9007 17.1252L26.8513 17.4357L25.9007 17.1252ZM25.4714 17.8612L24.7336 17.1861L25.4714 17.8612ZM25.4667 13.1393L26.2044 12.4641L25.4667 13.1393ZM25.8948 13.8704L24.9451 14.1835L25.8948 13.8704ZM23.874 12.1298L24.3906 11.2736L23.874 12.1298ZM23.2027 11.4643L22.3515 11.9892L23.2027 11.4643ZM15.9999 18.5308C14.349 18.5308 12.9983 17.1807 12.9983 15.5001H10.9983C10.9983 18.2716 13.2307 20.5308 15.9999 20.5308V18.5308ZM12.9983 15.5001C12.9983 13.8194 14.349 12.4693 15.9999 12.4693V10.4693C13.2307 10.4693 10.9983 12.7285 10.9983 15.5001H12.9983ZM15.9999 12.4693C17.6507 12.4693 19.0014 13.8194 19.0014 15.5001H21.0014C21.0014 12.7285 18.769 10.4693 15.9999 10.4693V12.4693ZM19.0014 15.5001C19.0014 17.1807 17.6507 18.5308 15.9999 18.5308V20.5308C18.769 20.5308 21.0014 18.2716 21.0014 15.5001H19.0014ZM23.498 13.0666L23.8644 13.2719L24.8421 11.5271L24.4757 11.3218L23.498 13.0666ZM24.9984 15.2124L24.9997 15.7788L26.9997 15.7743L26.9984 15.2079L24.9984 15.2124ZM23.8626 17.7311L23.5009 17.933L24.4757 19.6794L24.8374 19.4775L23.8626 17.7311ZM21.8371 20.8298L21.8443 21.2578L23.844 21.2244L23.8369 20.7964L21.8371 20.8298ZM20.7456 23.2209L20.2578 23.5061L21.2672 25.2327L21.755 24.9475L20.7456 23.2209ZM18.0254 23.4894L17.6691 23.274L16.6342 24.9854L16.9904 25.2008L18.0254 23.4894ZM14.3324 23.272L13.9784 23.4855L15.0113 25.1981L15.3653 24.9846L14.3324 23.272ZM11.754 23.5044L11.2601 23.2177L10.2561 24.9474L10.75 25.2341L11.754 23.5044ZM10.1557 21.251L10.1626 20.8403L8.16291 20.8068L8.15603 21.2175L10.1557 21.251ZM8.49383 17.929L8.13535 17.7281L7.15766 19.4728L7.51614 19.6737L8.49383 17.929ZM7.00163 15.7877L7.00036 15.2213L5.00036 15.2258L5.00164 15.7922L7.00163 15.7877ZM8.13734 13.2689L8.49904 13.067L7.52422 11.3207L7.16252 11.5226L8.13734 13.2689ZM10.1624 10.1703L10.1553 9.74233L8.15554 9.77573L8.16268 10.2037L10.1624 10.1703ZM11.254 7.7792L11.7418 7.49399L10.7324 5.7674L10.2446 6.05261L11.254 7.7792ZM13.9745 7.51063L14.3307 7.72604L15.3656 6.01463L15.0094 5.79922L13.9745 7.51063ZM17.6672 7.72804L18.0211 7.51455L16.9882 5.80194L16.6342 6.01543L17.6672 7.72804ZM20.2453 7.49568L20.7393 7.78242L21.7433 6.0527L21.2493 5.76595L20.2453 7.49568ZM21.8442 9.74897L21.8371 10.1692L23.8369 10.2026L23.8439 9.78237L21.8442 9.74897ZM21.8371 10.1692C21.8362 10.2253 21.835 10.2796 21.8358 10.3322L23.8356 10.3018C23.8354 10.2898 23.8356 10.2778 23.8369 10.2026L21.8371 10.1692ZM24.0041 10.8542C23.9684 10.792 23.9613 10.7794 23.9554 10.7682L22.1895 11.7072C22.2139 11.7531 22.2396 11.7976 22.2691 11.8492L24.0041 10.8542ZM21.8358 10.3322C21.8431 10.8119 21.9641 11.2833 22.1895 11.7072L23.9554 10.7682C23.8793 10.6251 23.8381 10.4652 23.8356 10.3018L21.8358 10.3322ZM20.7393 7.78242C21.394 8.16242 21.5177 8.248 21.5998 8.34072L23.0969 7.0145C22.7498 6.62273 22.2781 6.36313 21.7433 6.0527L20.7393 7.78242ZM23.8439 9.78237C23.8543 9.15933 23.875 8.62182 23.7204 8.12279L21.81 8.71492C21.8475 8.83573 21.8568 8.98942 21.8442 9.74897L23.8439 9.78237ZM21.5998 8.34072C21.695 8.44814 21.7668 8.57561 21.81 8.71493L23.7204 8.12279C23.5936 7.71376 23.3814 7.3357 23.0969 7.0145L21.5998 8.34072ZM18.0211 7.51455C18.6683 7.12425 18.801 7.05805 18.9196 7.03125L18.4784 5.0805C17.9695 5.19559 17.5156 5.48383 16.9882 5.80194L18.0211 7.51455ZM21.2493 5.76595C20.7159 5.45634 20.2575 5.17637 19.7468 5.06991L19.3387 7.02782C19.4578 7.05265 19.5926 7.11679 20.2453 7.49568L21.2493 5.76595ZM18.9196 7.03125C19.0572 7.00012 19.2 6.99892 19.3387 7.02782L19.7468 5.06991C19.3283 4.98267 18.8959 4.98611 18.4784 5.0805L18.9196 7.03125ZM16.0003 8.19203C16.0594 8.19203 16.1107 8.19215 16.1626 8.19047L16.098 6.19152C16.0858 6.19191 16.0718 6.19203 16.0003 6.19203V8.19203ZM16.6342 6.01543C16.5774 6.04968 16.5619 6.05872 16.5497 6.06555L17.527 7.81053C17.5709 7.78594 17.612 7.7613 17.6672 7.72804L16.6342 6.01543ZM16.1626 8.19047C16.6415 8.17499 17.1092 8.0445 17.527 7.81053L16.5497 6.06555C16.4107 6.1434 16.2559 6.18641 16.098 6.19152L16.1626 8.19047ZM14.3307 7.72604C14.3806 7.7562 14.4251 7.78331 14.4707 7.80892L15.4499 6.06501C15.4393 6.05906 15.4279 6.05231 15.3656 6.01463L14.3307 7.72604ZM16.0003 6.19203C15.9287 6.19203 15.915 6.19192 15.9028 6.19152L15.838 8.19047C15.8901 8.19216 15.9412 8.19203 16.0003 8.19203V6.19203ZM14.4707 7.80892C14.8893 8.04394 15.3583 8.17493 15.838 8.19047L15.9028 6.19152C15.7444 6.18639 15.5889 6.14309 15.4499 6.06501L14.4707 7.80892ZM11.7418 7.49399C12.3967 7.11117 12.5318 7.04631 12.6513 7.02117L12.2395 5.06402C11.727 5.17186 11.2671 5.45481 10.7324 5.7674L11.7418 7.49399ZM15.0094 5.79922C14.4797 5.4789 14.0242 5.18895 13.5132 5.07347L13.0723 7.02427C13.1914 7.05117 13.325 7.11788 13.9745 7.51063L15.0094 5.79922ZM12.6513 7.02117C12.7903 6.99193 12.934 6.993 13.0723 7.02427L13.5132 5.07347C13.0942 4.97877 12.6597 4.97562 12.2395 5.06402L12.6513 7.02117ZM10.1553 9.74233C10.1426 8.98607 10.1522 8.83224 10.1894 8.71158L8.27856 8.12122C8.12485 8.61873 8.14515 9.15401 8.15554 9.77573L10.1553 9.74233ZM10.2446 6.05261C9.71168 6.36415 9.24383 6.62401 8.89879 7.01519L10.3987 8.33816C10.4806 8.24535 10.6035 8.15946 11.254 7.7792L10.2446 6.05261ZM10.1894 8.71158C10.2322 8.57318 10.3037 8.44589 10.3987 8.33816L8.89879 7.01519C8.61615 7.33564 8.40476 7.71273 8.27856 8.12122L10.1894 8.71158ZM9.73077 11.8483C9.75993 11.7975 9.78519 11.7537 9.80924 11.7085L8.0438 10.7687C8.03795 10.7797 8.031 10.792 7.99581 10.8534L9.73077 11.8483ZM8.16268 10.2037C8.16395 10.2794 8.16416 10.2897 8.16399 10.3014L10.1638 10.3307C10.1645 10.2786 10.1633 10.2241 10.1624 10.1703L8.16268 10.2037ZM9.80924 11.7085C10.0351 11.2841 10.1567 10.8118 10.1638 10.3307L8.16399 10.3014C8.16159 10.4647 8.12026 10.625 8.0438 10.7687L9.80924 11.7085ZM8.49904 13.067C8.55248 13.0372 8.59469 13.0136 8.63795 12.9876L7.60816 11.2731C7.59703 11.2798 7.5834 11.2876 7.52422 11.3207L8.49904 13.067ZM7.99581 10.8534C7.96082 10.9144 7.95354 10.9268 7.94696 10.9375L9.64969 11.9867C9.67649 11.9432 9.70137 11.8996 9.73077 11.8483L7.99581 10.8534ZM8.63795 12.9876C9.05062 12.7398 9.39734 12.3962 9.64969 11.9867L7.94696 10.9375C7.86173 11.0758 7.74531 11.1907 7.60816 11.2731L8.63795 12.9876ZM7.00036 15.2213C6.99864 14.4592 7.01011 14.3057 7.04941 14.1853L5.14824 13.5644C4.98565 14.0622 4.99896 14.6018 5.00036 15.2258L7.00036 15.2213ZM7.16252 11.5226C6.62096 11.8249 6.14461 12.0769 5.79063 12.4638L7.26617 13.8139C7.34998 13.7223 7.4753 13.6385 8.13734 13.2689L7.16252 11.5226ZM7.04941 14.1853C7.0945 14.0473 7.16855 13.9206 7.26617 13.8139L5.79063 12.4638C5.50095 12.7804 5.28174 13.1557 5.14824 13.5644L7.04941 14.1853ZM8.13535 17.7281C7.47811 17.3598 7.35372 17.2765 7.27042 17.1855L5.79517 18.5359C6.14719 18.9205 6.62043 19.1718 7.15767 19.4728L8.13535 17.7281ZM5.00164 15.7922C5.00304 16.4117 4.99211 16.9481 5.15508 17.4426L7.05458 16.8166C7.01522 16.6971 7.00334 16.5451 7.00163 15.7877L5.00164 15.7922ZM7.27042 17.1855C7.17358 17.0797 7.09988 16.954 7.05458 16.8166L5.15508 17.4426C5.28878 17.8483 5.50688 18.221 5.79517 18.5359L7.27042 17.1855ZM9.73448 19.1634C9.70303 19.1081 9.67602 19.0603 9.64692 19.0129L7.94289 20.0599C7.94995 20.0714 7.95766 20.0847 7.99562 20.1515L9.73448 19.1634ZM7.51615 19.6737C7.58369 19.7116 7.59632 19.7188 7.60745 19.7255L8.64467 18.0155C8.59696 17.9866 8.5483 17.9595 8.49383 17.929L7.51615 19.6737ZM9.64692 19.0129C9.39695 18.6061 9.05395 18.2638 8.64467 18.0155L7.60745 19.7255C7.743 19.8077 7.85815 19.922 7.94289 20.0599L9.64692 19.0129ZM10.1626 20.8403C10.1637 20.7762 10.1647 20.7228 10.1637 20.6682L8.16404 20.702C8.16427 20.7158 8.16416 20.732 8.16291 20.8068L10.1626 20.8403ZM7.99562 20.1515C8.03531 20.2214 8.0411 20.2316 8.04689 20.2426L9.81814 19.3138C9.79222 19.2644 9.76334 19.2142 9.73448 19.1634L7.99562 20.1515ZM10.1637 20.6682C10.1558 20.1959 10.0374 19.732 9.81814 19.3138L8.04689 20.2426C8.12108 20.3841 8.16132 20.5415 8.16404 20.702L10.1637 20.6682ZM11.2601 23.2177C10.6064 22.8383 10.4825 22.7522 10.4002 22.6593L8.90315 23.9855C9.25004 24.3771 9.7202 24.6364 10.2561 24.9474L11.2601 23.2177ZM8.15603 21.2175C8.14559 21.8402 8.12461 22.378 8.27931 22.8772L10.1897 22.2851C10.1523 22.1644 10.143 22.011 10.1557 21.251L8.15603 21.2175ZM10.4002 22.6593C10.3045 22.5512 10.2326 22.4237 10.1897 22.2851L8.27931 22.8772C8.40633 23.287 8.61915 23.6649 8.90315 23.9855L10.4002 22.6593ZM13.9784 23.4855C13.3314 23.8757 13.1985 23.9419 13.08 23.9687L13.5211 25.9195C14.03 25.8044 14.4838 25.5163 15.0113 25.1981L13.9784 23.4855ZM10.75 25.2341C11.2837 25.5439 11.7423 25.8237 12.2528 25.9301L12.661 23.9722C12.5418 23.9474 12.4064 23.8831 11.754 23.5044L10.75 25.2341ZM13.08 23.9687C12.9422 23.9999 12.7994 24.0011 12.661 23.9722L12.2528 25.9301C12.6714 26.0174 13.1038 26.0139 13.5211 25.9195L13.08 23.9687ZM15.9989 22.808C15.9399 22.808 15.8886 22.8079 15.8367 22.8096L15.9012 24.8085C15.9135 24.8081 15.9275 24.808 15.9989 24.808V22.808ZM15.3653 24.9846C15.4233 24.9497 15.4379 24.9411 15.4497 24.9345L14.4724 23.1895C14.4281 23.2144 14.3864 23.2394 14.3324 23.272L15.3653 24.9846ZM15.8366 22.8096C15.3577 22.8251 14.8901 22.9556 14.4724 23.1895L15.4497 24.9345C15.5888 24.8566 15.7435 24.8136 15.9013 24.8085L15.8366 22.8096ZM17.6691 23.274C17.6174 23.2427 17.574 23.2164 17.5289 23.191L16.5497 24.935C16.5608 24.9412 16.5738 24.9489 16.6342 24.9854L17.6691 23.274ZM15.9989 24.808C16.0707 24.808 16.085 24.8081 16.0973 24.8085L16.162 22.8096C16.11 22.8079 16.058 22.808 15.9989 22.808V24.808ZM17.5289 23.191C17.1104 22.9561 16.6418 22.8251 16.162 22.8096L16.0973 24.8085C16.2555 24.8137 16.4106 24.8568 16.5497 24.935L17.5289 23.191ZM20.2578 23.5061C19.6031 23.8888 19.4676 23.9537 19.3481 23.9789L19.7599 25.936C20.2724 25.8282 20.7323 25.5453 21.2672 25.2327L20.2578 23.5061ZM16.9904 25.2008C17.5204 25.5213 17.9758 25.811 18.4867 25.9265L18.9276 23.9757C18.8085 23.9487 18.6746 23.882 18.0254 23.4894L16.9904 25.2008ZM19.3481 23.9789C19.2094 24.0081 19.0663 24.007 18.9276 23.9757L18.4867 25.9265C18.9054 26.0211 19.3394 26.0245 19.7599 25.936L19.3481 23.9789ZM21.8443 21.2578C21.8569 22.0144 21.8475 22.1679 21.8102 22.2885L23.7211 22.8788C23.8748 22.3812 23.8544 21.8457 23.844 21.2244L21.8443 21.2578ZM21.755 24.9475C22.2879 24.6359 22.7558 24.376 23.1009 23.9848L21.6009 22.6619C21.5191 22.7547 21.3961 22.8406 20.7456 23.2209L21.755 24.9475ZM21.8102 22.2885C21.7675 22.4268 21.696 22.5541 21.6009 22.6619L23.1009 23.9848C23.3835 23.6644 23.5949 23.2874 23.7211 22.8788L21.8102 22.2885ZM22.2687 19.1518C22.2395 19.2026 22.2143 19.2464 22.1902 19.2916L23.9556 20.2314C23.9615 20.2204 23.9685 20.208 24.0036 20.1467L22.2687 19.1518ZM23.8369 20.7964C23.8356 20.7217 23.8354 20.7106 23.8356 20.6988L21.8358 20.6694C21.835 20.7214 21.8362 20.775 21.8371 20.8298L23.8369 20.7964ZM22.1902 19.2916C21.9642 19.7162 21.8429 20.1887 21.8358 20.6694L23.8356 20.6988C23.838 20.5351 23.8793 20.3748 23.9556 20.2314L22.1902 19.2916ZM23.5009 17.933C23.4508 17.961 23.4057 17.986 23.3616 18.0125L24.3914 19.727C24.4016 19.7208 24.4132 19.7142 24.4757 19.6794L23.5009 17.933ZM24.0036 20.1467C24.0359 20.0904 24.0453 20.0747 24.0528 20.0625L22.3501 19.0133C22.3242 19.0553 22.3008 19.0958 22.2687 19.1518L24.0036 20.1467ZM23.3616 18.0125C22.9488 18.2604 22.6023 18.6039 22.3501 19.0133L24.0528 20.0625C24.1381 19.924 24.2543 19.8093 24.3914 19.727L23.3616 18.0125ZM24.9997 15.7788C25.0014 16.5396 24.9895 16.6941 24.9501 16.8147L26.8513 17.4357C27.0138 16.9382 27.0011 16.3996 26.9997 15.7743L24.9997 15.7788ZM24.8374 19.4775C25.3792 19.175 25.8552 18.9231 26.2092 18.5362L24.7336 17.1861C24.6498 17.2778 24.5245 17.3617 23.8626 17.7311L24.8374 19.4775ZM24.9501 16.8147C24.9048 16.9533 24.8309 17.0798 24.7336 17.1861L26.2092 18.5362C26.4992 18.2193 26.7179 17.8439 26.8513 17.4357L24.9501 16.8147ZM23.8644 13.2719C24.5213 13.64 24.6458 13.7235 24.7291 13.8145L26.2044 12.4641C25.8524 12.0796 25.3796 11.8284 24.8421 11.5271L23.8644 13.2719ZM26.9984 15.2079C26.997 14.5875 27.0075 14.0517 26.8446 13.5574L24.9451 14.1835C24.9845 14.3031 24.9967 14.4559 24.9984 15.2124L26.9984 15.2079ZM24.7291 13.8145C24.8261 13.9205 24.8999 14.0462 24.9451 14.1835L26.8446 13.5574C26.7108 13.1515 26.4925 12.7788 26.2044 12.4641L24.7291 13.8145ZM24.4757 11.3218C24.4143 11.2874 24.4014 11.2801 24.3906 11.2736L23.3574 12.986C23.4016 13.0126 23.4456 13.0372 23.498 13.0666L24.4757 11.3218ZM22.2691 11.8492C22.3023 11.907 22.3257 11.9472 22.3515 11.9892L24.0539 10.9394C24.0459 10.9265 24.0361 10.91 24.0041 10.8542L22.2691 11.8492ZM24.3906 11.2736C24.2544 11.1913 24.1387 11.077 24.0539 10.9394L22.3515 11.9892C22.6028 12.3965 22.9473 12.7385 23.3574 12.986L24.3906 11.2736Z" fill="white"/>
</svg>
