<svg width="90" height="32" viewBox="0 0 90 32" fill="none" xmlns="http://www.w3.org/2000/svg">
<rect width="90" height="32" rx="16" fill="#DE091C"/>
<path d="M43.4084 14.7464C43.3686 14.3454 43.1979 14.0339 42.8963 13.8118C42.5947 13.5897 42.1854 13.4787 41.6683 13.4787C41.317 13.4787 41.0204 13.5284 40.7784 13.6278C40.5365 13.724 40.3509 13.8582 40.2216 14.0305C40.0956 14.2029 40.0327 14.3984 40.0327 14.6172C40.026 14.7995 40.0642 14.9586 40.147 15.0945C40.2332 15.2304 40.3509 15.348 40.5 15.4474C40.6491 15.5436 40.8215 15.6281 41.017 15.701C41.2126 15.7706 41.4214 15.8303 41.6435 15.88L42.5582 16.0987C43.0024 16.1982 43.41 16.3307 43.7812 16.4964C44.1525 16.6622 44.474 16.866 44.7457 17.108C45.0175 17.3499 45.228 17.6349 45.3771 17.9631C45.5296 18.2912 45.6075 18.6674 45.6108 19.0916C45.6075 19.7147 45.4484 20.255 45.1335 20.7124C44.822 21.1664 44.3712 21.5194 43.7812 21.7713C43.1946 22.0199 42.487 22.1442 41.6584 22.1442C40.8364 22.1442 40.1205 22.0182 39.5107 21.7663C38.9041 21.5144 38.4302 21.1416 38.0888 20.6477C37.7507 20.1506 37.5734 19.5357 37.5568 18.8033H39.6399C39.6631 19.1446 39.7609 19.4297 39.9332 19.6584C40.1089 19.8838 40.3426 20.0545 40.6342 20.1705C40.9292 20.2831 41.2623 20.3395 41.6335 20.3395C41.9981 20.3395 42.3146 20.2865 42.5831 20.1804C42.8549 20.0743 43.0653 19.9268 43.2145 19.7379C43.3636 19.549 43.4382 19.3319 43.4382 19.0866C43.4382 18.858 43.3703 18.6657 43.2344 18.5099C43.1018 18.3542 42.9063 18.2216 42.6477 18.1122C42.3925 18.0028 42.0793 17.9034 41.7081 17.8139L40.5994 17.5355C39.741 17.3267 39.0632 17.0002 38.5661 16.5561C38.0689 16.112 37.822 15.5137 37.8253 14.7614C37.822 14.1449 37.986 13.6063 38.3175 13.1456C38.6522 12.6849 39.1113 12.3253 39.6946 12.0668C40.2779 11.8082 40.9408 11.679 41.6832 11.679C42.4389 11.679 43.0985 11.8082 43.6619 12.0668C44.2287 12.3253 44.6695 12.6849 44.9844 13.1456C45.2992 13.6063 45.4616 14.1399 45.4716 14.7464H43.4084ZM49.8329 22.1243C49.2529 22.1243 48.7276 21.9751 48.2569 21.6768C47.7896 21.3752 47.4184 20.9328 47.1433 20.3494C46.8715 19.7628 46.7356 19.0436 46.7356 18.1918C46.7356 17.3168 46.8765 16.5893 47.1582 16.0092C47.4399 15.4259 47.8145 14.9901 48.2818 14.7017C48.7524 14.41 49.2678 14.2642 49.8279 14.2642C50.2555 14.2642 50.6118 14.3371 50.8968 14.483C51.1852 14.6255 51.4172 14.8045 51.5929 15.0199C51.7718 15.232 51.9077 15.4408 52.0005 15.6463H52.0652V11.8182H54.1781V22H52.09V20.777H52.0005C51.9011 20.9891 51.7602 21.1996 51.5779 21.4084C51.399 21.6139 51.1653 21.7846 50.877 21.9205C50.5919 22.0563 50.2439 22.1243 49.8329 22.1243ZM50.5041 20.4389C50.8455 20.4389 51.1338 20.3461 51.3691 20.1605C51.6078 19.9716 51.7901 19.7081 51.916 19.37C52.0453 19.032 52.1099 18.6359 52.1099 18.1818C52.1099 17.7277 52.0469 17.3333 51.921 16.9986C51.795 16.6638 51.6127 16.4053 51.3741 16.223C51.1355 16.0407 50.8455 15.9496 50.5041 15.9496C50.1561 15.9496 49.8627 16.044 49.6241 16.233C49.3855 16.4219 49.2048 16.6837 49.0822 17.0185C48.9596 17.3532 48.8983 17.741 48.8983 18.1818C48.8983 18.6259 48.9596 19.0187 49.0822 19.3601C49.2082 19.6982 49.3888 19.9633 49.6241 20.1555C49.8627 20.3445 50.1561 20.4389 50.5041 20.4389ZM55.9194 22V14.3636H58.0373V22H55.9194ZM56.2227 13.3793L57.2766 11.1172H59.2354L57.7191 13.3793H56.2227ZM61.8517 11.8182V22H59.7338V11.8182H61.8517ZM67.0284 22.1491C66.2429 22.1491 65.5668 21.9901 65 21.6719C64.4366 21.3504 64.0024 20.8963 63.6974 20.3097C63.3925 19.7197 63.2401 19.022 63.2401 18.2166C63.2401 17.4311 63.3925 16.7417 63.6974 16.1484C64.0024 15.5552 64.4316 15.0928 64.9851 14.7614C65.5419 14.4299 66.1948 14.2642 66.9439 14.2642C67.4477 14.2642 67.9167 14.3454 68.3509 14.5078C68.7884 14.6669 69.1695 14.9072 69.4943 15.2287C69.8224 15.5502 70.0777 15.9545 70.2599 16.4418C70.4422 16.9257 70.5334 17.4924 70.5334 18.142V18.7237H64.0852V17.4112H68.5398C68.5398 17.1063 68.4735 16.8362 68.3409 16.6009C68.2083 16.3655 68.0244 16.1816 67.7891 16.049C67.5571 15.9131 67.2869 15.8452 66.9787 15.8452C66.6572 15.8452 66.3722 15.9197 66.1236 16.0689C65.8783 16.2147 65.6861 16.4119 65.5469 16.6605C65.4077 16.9058 65.3364 17.1792 65.3331 17.4808V18.7287C65.3331 19.1065 65.4027 19.433 65.5419 19.7081C65.6844 19.9832 65.8849 20.1953 66.1435 20.3445C66.402 20.4936 66.7086 20.5682 67.0632 20.5682C67.2985 20.5682 67.514 20.535 67.7095 20.4688C67.9051 20.4025 68.0724 20.303 68.2116 20.1705C68.3509 20.0379 68.4569 19.8755 68.5298 19.6832L70.4886 19.8125C70.3892 20.2831 70.1854 20.6941 69.8771 21.0455C69.5722 21.3935 69.1778 21.6652 68.6939 21.8608C68.2133 22.053 67.6581 22.1491 67.0284 22.1491ZM75.9773 14.3636V15.9545H71.3786V14.3636H75.9773ZM72.4226 12.5341H74.5405V19.6534C74.5405 19.849 74.5703 20.0014 74.63 20.1108C74.6896 20.2169 74.7725 20.2914 74.8786 20.3345C74.9879 20.3776 75.1139 20.3991 75.2564 20.3991C75.3558 20.3991 75.4553 20.3909 75.5547 20.3743C75.6541 20.3544 75.7304 20.3395 75.7834 20.3295L76.1165 21.9055C76.0104 21.9387 75.8613 21.9768 75.669 22.0199C75.4768 22.0663 75.2431 22.0945 74.968 22.1044C74.4576 22.1243 74.0102 22.0563 73.6257 21.9006C73.2446 21.7448 72.9479 21.5028 72.7358 21.1747C72.5237 20.8466 72.4193 20.4323 72.4226 19.9318V12.5341Z" fill="white"/>
<path d="M15.4472 16.6056C14.9532 16.3586 14.3526 16.5588 14.1056 17.0528C13.8586 17.5468 14.0588 18.1474 14.5528 18.3944L15.4472 16.6056ZM20.5528 21.3944C21.0468 21.6414 21.6474 21.4412 21.8944 20.9472C22.1414 20.4532 21.9412 19.8526 21.4472 19.6056L20.5528 21.3944ZM21.4472 12.3944C21.9412 12.1474 22.1414 11.5468 21.8944 11.0528C21.6474 10.5588 21.0468 10.3586 20.5528 10.6056L21.4472 12.3944ZM14.5528 13.6056C14.0588 13.8526 13.8586 14.4532 14.1056 14.9472C14.3526 15.4412 14.9532 15.6414 15.4472 15.3944L14.5528 13.6056ZM24 24C22.8954 24 22 23.1046 22 22H20C20 24.2091 21.7909 26 24 26V24ZM22 22C22 20.8954 22.8954 20 24 20V18C21.7909 18 20 19.7909 20 22H22ZM24 20C25.1046 20 26 20.8954 26 22H28C28 19.7909 26.2091 18 24 18V20ZM26 22C26 23.1046 25.1046 24 24 24V26C26.2091 26 28 24.2091 28 22H26ZM14.5528 18.3944L20.5528 21.3944L21.4472 19.6056L15.4472 16.6056L14.5528 18.3944ZM12 18C10.8954 18 10 17.1046 10 16H8C8 18.2091 9.79086 20 12 20V18ZM10 16C10 14.8954 10.8954 14 12 14V12C9.79086 12 8 13.7909 8 16H10ZM12 14C13.1046 14 14 14.8954 14 16H16C16 13.7909 14.2091 12 12 12V14ZM14 16C14 17.1046 13.1046 18 12 18V20C14.2091 20 16 18.2091 16 16H14ZM20.5528 10.6056L14.5528 13.6056L15.4472 15.3944L21.4472 12.3944L20.5528 10.6056ZM24 12C22.8954 12 22 11.1046 22 10H20C20 12.2091 21.7909 14 24 14V12ZM22 10C22 8.89543 22.8954 8 24 8V6C21.7909 6 20 7.79086 20 10H22ZM24 8C25.1046 8 26 8.89543 26 10H28C28 7.79086 26.2091 6 24 6V8ZM26 10C26 11.1046 25.1046 12 24 12V14C26.2091 14 28 12.2091 28 10H26Z" fill="white"/>
</svg>
