<svg width="120" height="24" viewBox="0 0 120 24" fill="none" xmlns="http://www.w3.org/2000/svg">
<path d="M2.33496 10.3367C2.02171 10.047 2.19187 9.52328 2.61557 9.47305L8.61914 8.76124C8.79182 8.74077 8.94181 8.63197 9.01465 8.47407L11.5469 2.98421C11.7256 2.59677 12.2764 2.59672 12.4551 2.98416L14.9873 8.47415C15.0601 8.63205 15.2092 8.74078 15.3818 8.76126L21.3857 9.47305C21.8094 9.52328 21.9795 10.047 21.6662 10.3367L17.2279 14.4414C17.1002 14.5595 17.0433 14.7355 17.0771 14.906L18.2551 20.8358C18.3383 21.2543 17.8929 21.5779 17.5206 21.3695L12.2453 18.4166C12.0935 18.3317 11.9087 18.3316 11.757 18.4165L6.48109 21.3696C6.10878 21.578 5.66294 21.2544 5.74609 20.8359L6.92437 14.906C6.95826 14.7354 6.90134 14.5595 6.77367 14.4415L2.33496 10.3367Z" fill="#DE091C"/>
<path d="M2.61557 9.47305L2.49783 8.48L2.49782 8.48L2.61557 9.47305ZM2.33496 10.3367L3.01392 9.60248L3.01391 9.60248L2.33496 10.3367ZM6.77367 14.4415L6.09471 15.1757L6.09472 15.1757L6.77367 14.4415ZM6.92437 14.906L7.9052 15.1009L7.9052 15.1009L6.92437 14.906ZM5.74609 20.8359L4.76527 20.641L4.76527 20.641L5.74609 20.8359ZM6.48109 21.3696L5.99266 20.497L5.99265 20.497L6.48109 21.3696ZM11.757 18.4165L12.2454 19.2891L12.2454 19.2891L11.757 18.4165ZM12.2453 18.4166L11.7568 19.2892H11.7568L12.2453 18.4166ZM17.5206 21.3695L18.0091 20.4969H18.0091L17.5206 21.3695ZM18.2551 20.8358L17.2743 21.0307L17.2743 21.0307L18.2551 20.8358ZM17.0771 14.906L18.058 14.7112L18.058 14.7111L17.0771 14.906ZM17.2279 14.4414L17.9069 15.1756L17.9069 15.1756L17.2279 14.4414ZM21.6662 10.3367L20.9873 9.60251L20.9873 9.60254L21.6662 10.3367ZM21.3857 9.47305L21.5035 8.48L21.5035 8.48L21.3857 9.47305ZM15.3818 8.76126L15.2641 9.7543L15.2641 9.7543L15.3818 8.76126ZM14.9873 8.47415L14.0792 8.89298L14.0792 8.89299L14.9873 8.47415ZM12.4551 2.98416L13.3631 2.56532L13.3631 2.56531L12.4551 2.98416ZM11.5469 2.98421L10.6388 2.56536V2.56536L11.5469 2.98421ZM9.01465 8.47407L8.10659 8.05522L8.10659 8.05522L9.01465 8.47407ZM8.61914 8.76124L8.73688 9.75429L8.73688 9.75429L8.61914 8.76124ZM2.49782 8.48C1.22673 8.63071 0.716261 10.2018 1.65601 11.0708L3.01391 9.60248C3.32716 9.89216 3.15701 10.4159 2.73331 10.4661L2.49782 8.48ZM1.65601 11.0708L6.09471 15.1757L7.45262 13.7073L3.01392 9.60248L1.65601 11.0708ZM6.09472 15.1757C5.96637 15.057 5.90984 14.8807 5.94355 14.7111L7.9052 15.1009C8.00669 14.5901 7.8363 14.0621 7.45262 13.7073L6.09472 15.1757ZM5.94355 14.7111L4.76527 20.641L6.72692 21.0308L7.9052 15.1009L5.94355 14.7111ZM4.76527 20.641C4.5156 21.8975 5.85354 22.8669 6.96953 22.2422L5.99265 20.497C6.36402 20.2891 6.81028 20.6112 6.72692 21.0308L4.76527 20.641ZM6.96951 22.2422L12.2454 19.2891L11.2685 17.5439L5.99266 20.497L6.96951 22.2422ZM12.2454 19.2891C12.0933 19.3743 11.9082 19.3739 11.7568 19.2892L12.7337 17.544C12.2789 17.2895 11.7241 17.2889 11.2685 17.5439L12.2454 19.2891ZM11.7568 19.2892L17.0322 22.2421L18.0091 20.4969L12.7337 17.544L11.7568 19.2892ZM17.0322 22.2421C18.1493 22.8674 19.4854 21.8962 19.236 20.6409L17.2743 21.0307C17.1912 20.6124 17.6366 20.2885 18.0091 20.4969L17.0322 22.2421ZM19.236 20.641L18.058 14.7112L16.0963 15.1009L17.2743 21.0307L19.236 20.641ZM18.058 14.7111C18.0917 14.8809 18.0351 15.057 17.9069 15.1756L16.549 13.7072C16.1654 14.062 15.9948 14.59 16.0963 15.1009L18.058 14.7111ZM17.9069 15.1756L22.3452 11.0709L20.9873 9.60254L16.5489 13.7073L17.9069 15.1756ZM22.3452 11.0709C23.2846 10.2021 22.775 8.63077 21.5035 8.48L21.268 10.4661C20.8438 10.4158 20.6744 9.89188 20.9873 9.60251L22.3452 11.0709ZM21.5035 8.48L15.4996 7.76821L15.2641 9.7543L21.268 10.4661L21.5035 8.48ZM15.4996 7.76821C15.674 7.78889 15.8232 7.89895 15.8954 8.0553L14.0792 8.89299C14.297 9.36515 14.7444 9.69267 15.2641 9.7543L15.4996 7.76821ZM15.8954 8.05531L13.3631 2.56532L11.547 3.40299L14.0792 8.89298L15.8954 8.05531ZM13.3631 2.56531C12.8269 1.4028 11.1748 1.40325 10.6388 2.56536L12.4549 3.40305C12.2763 3.79029 11.7258 3.79063 11.547 3.403L13.3631 2.56531ZM10.6388 2.56536L8.10659 8.05522L9.92271 8.89291L12.4549 3.40305L10.6388 2.56536ZM8.10659 8.05522C8.1797 7.89673 8.32936 7.7886 8.5014 7.7682L8.73688 9.75429C9.25428 9.69294 9.70393 9.36721 9.92271 8.89291L8.10659 8.05522ZM8.5014 7.7682L2.49783 8.48L2.7333 10.4661L8.73688 9.75429L8.5014 7.7682Z" fill="#DE091C"/>
<path d="M26.335 10.3367C26.0217 10.047 26.1919 9.52328 26.6156 9.47305L32.6191 8.76124C32.7918 8.74077 32.9418 8.63197 33.0146 8.47407L35.5469 2.98421C35.7256 2.59677 36.2764 2.59672 36.4551 2.98416L38.9873 8.47415C39.0601 8.63205 39.2092 8.74078 39.3818 8.76126L45.3857 9.47305C45.8094 9.52328 45.9795 10.047 45.6662 10.3367L41.2279 14.4414C41.1002 14.5595 41.0433 14.7355 41.0771 14.906L42.2551 20.8358C42.3383 21.2543 41.8929 21.5779 41.5206 21.3695L36.2453 18.4166C36.0935 18.3317 35.9087 18.3316 35.757 18.4165L30.4811 21.3696C30.1088 21.578 29.6629 21.2544 29.7461 20.8359L30.9244 14.906C30.9583 14.7354 30.9013 14.5595 30.7737 14.4415L26.335 10.3367Z" fill="#DE091C"/>
<path d="M26.6156 9.47305L26.4978 8.48L26.4978 8.48L26.6156 9.47305ZM26.335 10.3367L27.0139 9.60248L27.0139 9.60248L26.335 10.3367ZM30.7737 14.4415L30.0947 15.1757L30.0947 15.1757L30.7737 14.4415ZM30.9244 14.906L31.9052 15.1009L31.9052 15.1009L30.9244 14.906ZM29.7461 20.8359L28.7653 20.641L28.7653 20.641L29.7461 20.8359ZM30.4811 21.3696L29.9927 20.497L29.9926 20.497L30.4811 21.3696ZM35.757 18.4165L36.2454 19.2891L36.2454 19.2891L35.757 18.4165ZM36.2453 18.4166L35.7568 19.2892H35.7568L36.2453 18.4166ZM41.5206 21.3695L42.0091 20.4969H42.0091L41.5206 21.3695ZM42.2551 20.8358L41.2743 21.0307L41.2743 21.0307L42.2551 20.8358ZM41.0771 14.906L42.058 14.7112L42.058 14.7111L41.0771 14.906ZM41.2279 14.4414L41.9069 15.1756L41.9069 15.1756L41.2279 14.4414ZM45.6662 10.3367L44.9873 9.60251L44.9873 9.60254L45.6662 10.3367ZM45.3857 9.47305L45.5035 8.48L45.5035 8.48L45.3857 9.47305ZM39.3818 8.76126L39.2641 9.7543L39.2641 9.7543L39.3818 8.76126ZM38.9873 8.47415L38.0792 8.89298L38.0792 8.89299L38.9873 8.47415ZM36.4551 2.98416L37.3631 2.56532L37.3631 2.56531L36.4551 2.98416ZM35.5469 2.98421L34.6388 2.56536V2.56536L35.5469 2.98421ZM33.0146 8.47407L32.1066 8.05522L32.1066 8.05522L33.0146 8.47407ZM32.6191 8.76124L32.7369 9.75429L32.7369 9.75429L32.6191 8.76124ZM26.4978 8.48C25.2267 8.63071 24.7163 10.2018 25.656 11.0708L27.0139 9.60248C27.3272 9.89216 27.157 10.4159 26.7333 10.4661L26.4978 8.48ZM25.656 11.0708L30.0947 15.1757L31.4526 13.7073L27.0139 9.60248L25.656 11.0708ZM30.0947 15.1757C29.9664 15.057 29.9098 14.8807 29.9435 14.7111L31.9052 15.1009C32.0067 14.5901 31.8363 14.0621 31.4526 13.7073L30.0947 15.1757ZM29.9435 14.7111L28.7653 20.641L30.7269 21.0308L31.9052 15.1009L29.9435 14.7111ZM28.7653 20.641C28.5156 21.8975 29.8535 22.8669 30.9695 22.2422L29.9926 20.497C30.364 20.2891 30.8103 20.6112 30.7269 21.0308L28.7653 20.641ZM30.9695 22.2422L36.2454 19.2891L35.2685 17.5439L29.9927 20.497L30.9695 22.2422ZM36.2454 19.2891C36.0933 19.3743 35.9082 19.3739 35.7568 19.2892L36.7337 17.544C36.2789 17.2895 35.7241 17.2889 35.2685 17.5439L36.2454 19.2891ZM35.7568 19.2892L41.0322 22.2421L42.0091 20.4969L36.7337 17.544L35.7568 19.2892ZM41.0322 22.2421C42.1493 22.8674 43.4854 21.8962 43.236 20.6409L41.2743 21.0307C41.1912 20.6124 41.6366 20.2885 42.0091 20.4969L41.0322 22.2421ZM43.236 20.641L42.058 14.7112L40.0963 15.1009L41.2743 21.0307L43.236 20.641ZM42.058 14.7111C42.0917 14.8809 42.0351 15.057 41.9069 15.1756L40.549 13.7072C40.1654 14.062 39.9948 14.59 40.0963 15.1009L42.058 14.7111ZM41.9069 15.1756L46.3452 11.0709L44.9873 9.60254L40.5489 13.7073L41.9069 15.1756ZM46.3452 11.0709C47.2846 10.2021 46.775 8.63077 45.5035 8.48L45.268 10.4661C44.8438 10.4158 44.6744 9.89188 44.9873 9.60251L46.3452 11.0709ZM45.5035 8.48L39.4996 7.76821L39.2641 9.7543L45.268 10.4661L45.5035 8.48ZM39.4996 7.76821C39.674 7.78889 39.8232 7.89895 39.8954 8.0553L38.0792 8.89299C38.297 9.36515 38.7444 9.69267 39.2641 9.7543L39.4996 7.76821ZM39.8954 8.05531L37.3631 2.56532L35.547 3.40299L38.0792 8.89298L39.8954 8.05531ZM37.3631 2.56531C36.8269 1.4028 35.1748 1.40325 34.6388 2.56536L36.4549 3.40305C36.2763 3.79029 35.7258 3.79063 35.547 3.403L37.3631 2.56531ZM34.6388 2.56536L32.1066 8.05522L33.9227 8.89291L36.4549 3.40305L34.6388 2.56536ZM32.1066 8.05522C32.1797 7.89673 32.3294 7.7886 32.5014 7.7682L32.7369 9.75429C33.2543 9.69294 33.7039 9.36721 33.9227 8.89291L32.1066 8.05522ZM32.5014 7.7682L26.4978 8.48L26.7333 10.4661L32.7369 9.75429L32.5014 7.7682Z" fill="#DE091C"/>
<path d="M50.335 10.3367C50.0217 10.047 50.1919 9.52328 50.6156 9.47305L56.6191 8.76124C56.7918 8.74077 56.9418 8.63197 57.0146 8.47407L59.5469 2.98421C59.7256 2.59677 60.2764 2.59672 60.4551 2.98416L62.9873 8.47415C63.0601 8.63205 63.2092 8.74078 63.3818 8.76126L69.3857 9.47305C69.8094 9.52328 69.9795 10.047 69.6662 10.3367L65.2279 14.4414C65.1002 14.5595 65.0433 14.7355 65.0771 14.906L66.2551 20.8358C66.3383 21.2543 65.8929 21.5779 65.5206 21.3695L60.2453 18.4166C60.0935 18.3317 59.9087 18.3316 59.757 18.4165L54.4811 21.3696C54.1088 21.578 53.6629 21.2544 53.7461 20.8359L54.9244 14.906C54.9583 14.7354 54.9013 14.5595 54.7737 14.4415L50.335 10.3367Z" fill="#DE091C"/>
<path d="M50.6156 9.47305L50.4978 8.48L50.4978 8.48L50.6156 9.47305ZM50.335 10.3367L51.0139 9.60248L51.0139 9.60248L50.335 10.3367ZM54.7737 14.4415L54.0947 15.1757L54.0947 15.1757L54.7737 14.4415ZM54.9244 14.906L55.9052 15.1009L55.9052 15.1009L54.9244 14.906ZM53.7461 20.8359L52.7653 20.641L52.7653 20.641L53.7461 20.8359ZM54.4811 21.3696L53.9927 20.497L53.9926 20.497L54.4811 21.3696ZM59.757 18.4165L60.2454 19.2891L60.2454 19.2891L59.757 18.4165ZM60.2453 18.4166L59.7568 19.2892H59.7568L60.2453 18.4166ZM65.5206 21.3695L66.0091 20.4969H66.0091L65.5206 21.3695ZM66.2551 20.8358L65.2743 21.0307L65.2743 21.0307L66.2551 20.8358ZM65.0771 14.906L66.058 14.7112L66.058 14.7111L65.0771 14.906ZM65.2279 14.4414L65.9069 15.1756L65.9069 15.1756L65.2279 14.4414ZM69.6662 10.3367L68.9873 9.60251L68.9873 9.60254L69.6662 10.3367ZM69.3857 9.47305L69.5035 8.48L69.5035 8.48L69.3857 9.47305ZM63.3818 8.76126L63.2641 9.7543L63.2641 9.7543L63.3818 8.76126ZM62.9873 8.47415L62.0792 8.89298L62.0792 8.89299L62.9873 8.47415ZM60.4551 2.98416L61.3631 2.56532L61.3631 2.56531L60.4551 2.98416ZM59.5469 2.98421L58.6388 2.56536V2.56536L59.5469 2.98421ZM57.0146 8.47407L56.1066 8.05522L56.1066 8.05522L57.0146 8.47407ZM56.6191 8.76124L56.7369 9.75429L56.7369 9.75429L56.6191 8.76124ZM50.4978 8.48C49.2267 8.63071 48.7163 10.2018 49.656 11.0708L51.0139 9.60248C51.3272 9.89216 51.157 10.4159 50.7333 10.4661L50.4978 8.48ZM49.656 11.0708L54.0947 15.1757L55.4526 13.7073L51.0139 9.60248L49.656 11.0708ZM54.0947 15.1757C53.9664 15.057 53.9098 14.8807 53.9435 14.7111L55.9052 15.1009C56.0067 14.5901 55.8363 14.0621 55.4526 13.7073L54.0947 15.1757ZM53.9435 14.7111L52.7653 20.641L54.7269 21.0308L55.9052 15.1009L53.9435 14.7111ZM52.7653 20.641C52.5156 21.8975 53.8535 22.8669 54.9695 22.2422L53.9926 20.497C54.364 20.2891 54.8103 20.6112 54.7269 21.0308L52.7653 20.641ZM54.9695 22.2422L60.2454 19.2891L59.2685 17.5439L53.9927 20.497L54.9695 22.2422ZM60.2454 19.2891C60.0933 19.3743 59.9082 19.3739 59.7568 19.2892L60.7337 17.544C60.2789 17.2895 59.7241 17.2889 59.2685 17.5439L60.2454 19.2891ZM59.7568 19.2892L65.0322 22.2421L66.0091 20.4969L60.7337 17.544L59.7568 19.2892ZM65.0322 22.2421C66.1493 22.8674 67.4854 21.8962 67.236 20.6409L65.2743 21.0307C65.1912 20.6124 65.6366 20.2885 66.0091 20.4969L65.0322 22.2421ZM67.236 20.641L66.058 14.7112L64.0963 15.1009L65.2743 21.0307L67.236 20.641ZM66.058 14.7111C66.0917 14.8809 66.0351 15.057 65.9069 15.1756L64.549 13.7072C64.1654 14.062 63.9948 14.59 64.0963 15.1009L66.058 14.7111ZM65.9069 15.1756L70.3452 11.0709L68.9873 9.60254L64.5489 13.7073L65.9069 15.1756ZM70.3452 11.0709C71.2846 10.2021 70.775 8.63077 69.5035 8.48L69.268 10.4661C68.8438 10.4158 68.6744 9.89188 68.9873 9.60251L70.3452 11.0709ZM69.5035 8.48L63.4996 7.76821L63.2641 9.7543L69.268 10.4661L69.5035 8.48ZM63.4996 7.76821C63.674 7.78889 63.8232 7.89895 63.8954 8.0553L62.0792 8.89299C62.297 9.36515 62.7444 9.69267 63.2641 9.7543L63.4996 7.76821ZM63.8954 8.05531L61.3631 2.56532L59.547 3.40299L62.0792 8.89298L63.8954 8.05531ZM61.3631 2.56531C60.8269 1.4028 59.1748 1.40325 58.6388 2.56536L60.4549 3.40305C60.2763 3.79029 59.7258 3.79063 59.547 3.403L61.3631 2.56531ZM58.6388 2.56536L56.1066 8.05522L57.9227 8.89291L60.4549 3.40305L58.6388 2.56536ZM56.1066 8.05522C56.1797 7.89673 56.3294 7.7886 56.5014 7.7682L56.7369 9.75429C57.2543 9.69294 57.7039 9.36721 57.9227 8.89291L56.1066 8.05522ZM56.5014 7.7682L50.4978 8.48L50.7333 10.4661L56.7369 9.75429L56.5014 7.7682Z" fill="#DE091C"/>
<path d="M74.335 10.3367C74.0217 10.047 74.1919 9.52328 74.6156 9.47305L80.6191 8.76124C80.7918 8.74077 80.9418 8.63197 81.0146 8.47407L83.5469 2.98421C83.7256 2.59677 84.2764 2.59672 84.4551 2.98416L86.9873 8.47415C87.0601 8.63205 87.2092 8.74078 87.3818 8.76126L93.3857 9.47305C93.8094 9.52328 93.9795 10.047 93.6662 10.3367L89.2279 14.4414C89.1002 14.5595 89.0433 14.7355 89.0771 14.906L90.2551 20.8358C90.3383 21.2543 89.8929 21.5779 89.5206 21.3695L84.2453 18.4166C84.0935 18.3317 83.9087 18.3316 83.757 18.4165L78.4811 21.3696C78.1088 21.578 77.6629 21.2544 77.7461 20.8359L78.9244 14.906C78.9583 14.7354 78.9013 14.5595 78.7737 14.4415L74.335 10.3367Z" fill="#DE091C"/>
<path d="M74.6156 9.47305L74.4978 8.48L74.4978 8.48L74.6156 9.47305ZM74.335 10.3367L75.0139 9.60248L75.0139 9.60248L74.335 10.3367ZM78.7737 14.4415L78.0947 15.1757L78.0947 15.1757L78.7737 14.4415ZM78.9244 14.906L79.9052 15.1009L79.9052 15.1009L78.9244 14.906ZM77.7461 20.8359L76.7653 20.641L76.7653 20.641L77.7461 20.8359ZM78.4811 21.3696L77.9927 20.497L77.9926 20.497L78.4811 21.3696ZM83.757 18.4165L84.2454 19.2891L84.2454 19.2891L83.757 18.4165ZM84.2453 18.4166L83.7568 19.2892H83.7568L84.2453 18.4166ZM89.5206 21.3695L90.0091 20.4969H90.0091L89.5206 21.3695ZM90.2551 20.8358L89.2743 21.0307L89.2743 21.0307L90.2551 20.8358ZM89.0771 14.906L90.058 14.7112L90.058 14.7111L89.0771 14.906ZM89.2279 14.4414L89.9069 15.1756L89.9069 15.1756L89.2279 14.4414ZM93.6662 10.3367L92.9873 9.60251L92.9873 9.60254L93.6662 10.3367ZM93.3857 9.47305L93.5035 8.48L93.5035 8.48L93.3857 9.47305ZM87.3818 8.76126L87.2641 9.7543L87.2641 9.7543L87.3818 8.76126ZM86.9873 8.47415L86.0792 8.89298L86.0792 8.89299L86.9873 8.47415ZM84.4551 2.98416L85.3631 2.56532L85.3631 2.56531L84.4551 2.98416ZM83.5469 2.98421L82.6388 2.56536V2.56536L83.5469 2.98421ZM81.0146 8.47407L80.1066 8.05522L80.1066 8.05522L81.0146 8.47407ZM80.6191 8.76124L80.7369 9.75429L80.7369 9.75429L80.6191 8.76124ZM74.4978 8.48C73.2267 8.63071 72.7163 10.2018 73.656 11.0708L75.0139 9.60248C75.3272 9.89216 75.157 10.4159 74.7333 10.4661L74.4978 8.48ZM73.656 11.0708L78.0947 15.1757L79.4526 13.7073L75.0139 9.60248L73.656 11.0708ZM78.0947 15.1757C77.9664 15.057 77.9098 14.8807 77.9435 14.7111L79.9052 15.1009C80.0067 14.5901 79.8363 14.0621 79.4526 13.7073L78.0947 15.1757ZM77.9435 14.7111L76.7653 20.641L78.7269 21.0308L79.9052 15.1009L77.9435 14.7111ZM76.7653 20.641C76.5156 21.8975 77.8535 22.8669 78.9695 22.2422L77.9926 20.497C78.364 20.2891 78.8103 20.6112 78.7269 21.0308L76.7653 20.641ZM78.9695 22.2422L84.2454 19.2891L83.2685 17.5439L77.9927 20.497L78.9695 22.2422ZM84.2454 19.2891C84.0933 19.3743 83.9082 19.3739 83.7568 19.2892L84.7337 17.544C84.2789 17.2895 83.7241 17.2889 83.2685 17.5439L84.2454 19.2891ZM83.7568 19.2892L89.0322 22.2421L90.0091 20.4969L84.7337 17.544L83.7568 19.2892ZM89.0322 22.2421C90.1493 22.8674 91.4854 21.8962 91.236 20.6409L89.2743 21.0307C89.1912 20.6124 89.6366 20.2885 90.0091 20.4969L89.0322 22.2421ZM91.236 20.641L90.058 14.7112L88.0963 15.1009L89.2743 21.0307L91.236 20.641ZM90.058 14.7111C90.0917 14.8809 90.0351 15.057 89.9069 15.1756L88.549 13.7072C88.1654 14.062 87.9948 14.59 88.0963 15.1009L90.058 14.7111ZM89.9069 15.1756L94.3452 11.0709L92.9873 9.60254L88.5489 13.7073L89.9069 15.1756ZM94.3452 11.0709C95.2846 10.2021 94.775 8.63077 93.5035 8.48L93.268 10.4661C92.8438 10.4158 92.6744 9.89188 92.9873 9.60251L94.3452 11.0709ZM93.5035 8.48L87.4996 7.76821L87.2641 9.7543L93.268 10.4661L93.5035 8.48ZM87.4996 7.76821C87.674 7.78889 87.8232 7.89895 87.8954 8.0553L86.0792 8.89299C86.297 9.36515 86.7444 9.69267 87.2641 9.7543L87.4996 7.76821ZM87.8954 8.05531L85.3631 2.56532L83.547 3.40299L86.0792 8.89298L87.8954 8.05531ZM85.3631 2.56531C84.8269 1.4028 83.1748 1.40325 82.6388 2.56536L84.4549 3.40305C84.2763 3.79029 83.7258 3.79063 83.547 3.403L85.3631 2.56531ZM82.6388 2.56536L80.1066 8.05522L81.9227 8.89291L84.4549 3.40305L82.6388 2.56536ZM80.1066 8.05522C80.1797 7.89673 80.3294 7.7886 80.5014 7.7682L80.7369 9.75429C81.2543 9.69294 81.7039 9.36721 81.9227 8.89291L80.1066 8.05522ZM80.5014 7.7682L74.4978 8.48L74.7333 10.4661L80.7369 9.75429L80.5014 7.7682Z" fill="#DE091C"/>
<path d="M98.6156 9.47305L98.4978 8.48L98.4978 8.48L98.6156 9.47305ZM98.335 10.3367L99.0139 9.60248L99.0139 9.60248L98.335 10.3367ZM102.774 14.4415L102.095 15.1757L102.095 15.1757L102.774 14.4415ZM102.924 14.906L103.905 15.1009L103.905 15.1009L102.924 14.906ZM101.746 20.8359L100.765 20.641L100.765 20.641L101.746 20.8359ZM102.481 21.3696L101.993 20.497L101.993 20.497L102.481 21.3696ZM107.757 18.4165L108.245 19.2891L108.245 19.2891L107.757 18.4165ZM108.245 18.4166L107.757 19.2892H107.757L108.245 18.4166ZM113.521 21.3695L114.009 20.4969H114.009L113.521 21.3695ZM114.255 20.8358L113.274 21.0307L113.274 21.0307L114.255 20.8358ZM113.077 14.906L114.058 14.7112L114.058 14.7111L113.077 14.906ZM113.228 14.4414L113.907 15.1756L113.907 15.1756L113.228 14.4414ZM117.666 10.3367L116.987 9.60251L116.987 9.60254L117.666 10.3367ZM117.386 9.47305L117.503 8.48L117.503 8.48L117.386 9.47305ZM111.382 8.76126L111.264 9.7543L111.264 9.7543L111.382 8.76126ZM110.987 8.47415L110.079 8.89298L110.079 8.89299L110.987 8.47415ZM108.455 2.98416L109.363 2.56532L109.363 2.56531L108.455 2.98416ZM107.547 2.98421L106.639 2.56536V2.56536L107.547 2.98421ZM105.015 8.47407L105.923 8.89291L105.015 8.47407ZM104.619 8.76124L104.737 9.75429L104.737 9.75429L104.619 8.76124ZM98.4978 8.48C97.2267 8.63071 96.7163 10.2018 97.656 11.0708L99.0139 9.60248C99.3272 9.89216 99.157 10.4159 98.7333 10.4661L98.4978 8.48ZM97.656 11.0708L102.095 15.1757L103.453 13.7073L99.0139 9.60248L97.656 11.0708ZM102.095 15.1757C101.966 15.057 101.91 14.8807 101.944 14.7111L103.905 15.1009C104.007 14.5901 103.836 14.0621 103.453 13.7073L102.095 15.1757ZM101.944 14.7111L100.765 20.641L102.727 21.0308L103.905 15.1009L101.944 14.7111ZM100.765 20.641C100.516 21.8975 101.854 22.8669 102.97 22.2422L101.993 20.497C102.364 20.2891 102.81 20.6112 102.727 21.0308L100.765 20.641ZM102.97 22.2422L108.245 19.2891L107.269 17.5439L101.993 20.497L102.97 22.2422ZM108.245 19.2891C108.093 19.3743 107.908 19.3739 107.757 19.2892L108.734 17.544C108.279 17.2895 107.724 17.2889 107.269 17.5439L108.245 19.2891ZM107.757 19.2892L113.032 22.2421L114.009 20.4969L108.734 17.544L107.757 19.2892ZM113.032 22.2421C114.149 22.8674 115.485 21.8962 115.236 20.641L113.274 21.0307C113.191 20.6124 113.637 20.2884 114.009 20.4969L113.032 22.2421ZM115.236 20.641L114.058 14.7112L112.096 15.1009L113.274 21.0307L115.236 20.641ZM114.058 14.7111C114.092 14.8809 114.035 15.057 113.907 15.1756L112.549 13.7072C112.165 14.062 111.995 14.59 112.096 15.1009L114.058 14.7111ZM113.907 15.1756L118.345 11.0709L116.987 9.60254L112.549 13.7073L113.907 15.1756ZM118.345 11.0709C119.285 10.2021 118.775 8.63077 117.503 8.48L117.268 10.4661C116.844 10.4158 116.674 9.89188 116.987 9.60251L118.345 11.0709ZM117.503 8.48L111.5 7.76821L111.264 9.7543L117.268 10.4661L117.503 8.48ZM111.5 7.76821C111.674 7.78889 111.823 7.89895 111.895 8.0553L110.079 8.89299C110.297 9.36515 110.744 9.69268 111.264 9.7543L111.5 7.76821ZM111.895 8.05531L109.363 2.56532L107.547 3.40299L110.079 8.89298L111.895 8.05531ZM109.363 2.56531C108.827 1.4028 107.175 1.40325 106.639 2.56536L108.455 3.40305C108.276 3.79029 107.726 3.79063 107.547 3.403L109.363 2.56531ZM106.639 2.56536L104.107 8.05522L105.923 8.89291L108.455 3.40305L106.639 2.56536ZM104.107 8.05522C104.18 7.89673 104.329 7.7886 104.501 7.7682L104.737 9.75429C105.254 9.69294 105.704 9.36721 105.923 8.89291L104.107 8.05522ZM104.501 7.7682L98.4978 8.48L98.7333 10.4661L104.737 9.75429L104.501 7.7682Z" fill="#DE091C"/>
</svg>
