<svg width="41" height="41" viewBox="0 0 41 41" fill="none" xmlns="http://www.w3.org/2000/svg">
<path d="M7.48063 25.9667L8.34666 26.4667L7.48063 25.9667ZM15.7656 11.6167L14.8996 11.1167L15.7656 11.6167ZM25.2346 11.6167L26.1006 11.1167L25.2346 11.6167ZM33.5196 25.9667L34.3856 25.4667L33.5196 25.9667ZM19.11 7.12861L19.5167 8.04215L19.11 7.12861ZM21.8897 7.12861L21.483 8.04215L21.8897 7.12861ZM6.65649 33.5141L6.06871 34.3232H6.06871L6.65649 33.5141ZM5.26647 31.107L6.26099 31.0025L5.26647 31.107ZM34.3437 33.5141L34.9315 34.3232L34.3437 33.5141ZM35.7338 31.107L36.7283 31.2116L35.7338 31.107ZM20.5851 27.3333H21.5851C21.5851 26.781 21.1374 26.3333 20.5851 26.3333V27.3333ZM20.5851 27.5042L20.5848 28.5042C20.8501 28.5042 21.1045 28.3989 21.2921 28.2113C21.4797 28.0238 21.5851 27.7694 21.5851 27.5042H20.5851ZM20.4149 27.5041H19.4149C19.4149 28.0563 19.8625 28.504 20.4147 28.5041L20.4149 27.5041ZM20.4149 27.3333V26.3333C19.8626 26.3333 19.4149 26.781 19.4149 27.3333H20.4149ZM21.5 15.375C21.5 14.8227 21.0523 14.375 20.5 14.375C19.9477 14.375 19.5 14.8227 19.5 15.375H21.5ZM19.5 22.2083C19.5 22.7606 19.9477 23.2083 20.5 23.2083C21.0523 23.2083 21.5 22.7606 21.5 22.2083H19.5ZM28.7852 33.1667H12.2153V35.1667H28.7852V33.1667ZM8.34666 26.4667L16.6316 12.1167L14.8996 11.1167L6.61461 25.4667L8.34666 26.4667ZM24.3686 12.1167L32.6536 26.4667L34.3856 25.4667L26.1006 11.1167L24.3686 12.1167ZM16.6316 12.1167C17.4183 10.7542 17.9745 9.79274 18.4569 9.10986C18.9423 8.42271 19.2614 8.15584 19.5167 8.04215L18.7032 6.21506C17.9444 6.55291 17.3682 7.18464 16.8233 7.95593C16.2755 8.7315 15.6665 9.78838 14.8996 11.1167L16.6316 12.1167ZM26.1006 11.1167C25.3337 9.78831 24.7246 8.73143 24.1766 7.95583C23.6316 7.18451 23.0552 6.55287 22.2964 6.21506L21.483 8.04215C21.7384 8.15588 22.0577 8.42284 22.5432 9.10996C23.0257 9.79281 23.582 10.7542 24.3686 12.1167L26.1006 11.1167ZM19.5167 8.04215C20.1424 7.76358 20.8573 7.76358 21.483 8.04215L22.2964 6.21506C21.1529 5.70594 19.8467 5.70594 18.7032 6.21506L19.5167 8.04215ZM12.2153 33.1667C10.6419 33.1667 9.5313 33.1656 8.69882 33.0893C7.86116 33.0124 7.47048 32.8695 7.24428 32.7051L6.06871 34.3232C6.74063 34.8113 7.57572 34.9946 8.5161 35.0809C9.46165 35.1677 10.6814 35.1667 12.2153 35.1667V33.1667ZM6.61461 25.4667C5.84765 26.7951 5.23695 27.8509 4.83933 28.7132C4.44388 29.5708 4.18514 30.3856 4.27195 31.2116L6.26099 31.0025C6.23176 30.7244 6.30329 30.3146 6.65553 29.5507C7.00559 28.7916 7.56 27.8293 8.34666 26.4667L6.61461 25.4667ZM7.24428 32.7051C6.69003 32.3024 6.33256 31.6835 6.26099 31.0025L4.27195 31.2116C4.40281 32.4566 5.0562 33.5875 6.06871 34.3232L7.24428 32.7051ZM28.7852 35.1667C30.3191 35.1667 31.5387 35.1677 32.4842 35.0809C33.4246 34.9946 34.2596 34.8113 34.9315 34.3232L33.7559 32.7051C33.5297 32.8695 33.1391 33.0124 32.3015 33.0893C31.4691 33.1656 30.3585 33.1667 28.7852 33.1667V35.1667ZM32.6536 26.4667C33.4402 27.8293 33.9946 28.7916 34.3447 29.5507C34.6969 30.3146 34.7685 30.7244 34.7392 31.0025L36.7283 31.2116C36.8151 30.3856 36.5563 29.5708 36.1609 28.7132C35.7633 27.8509 35.1526 26.7951 34.3856 25.4667L32.6536 26.4667ZM34.9315 34.3232C35.944 33.5875 36.5974 32.4566 36.7283 31.2116L34.7392 31.0025C34.6677 31.6835 34.3102 32.3024 33.7559 32.7051L34.9315 34.3232ZM19.5851 27.3333V27.5042H21.5851V27.3333H19.5851ZM20.5853 26.5042L20.4152 26.5041L20.4147 28.5041L20.5848 28.5042L20.5853 26.5042ZM21.4149 27.5041V27.3333H19.4149V27.5041H21.4149ZM20.4149 28.3333H20.5851V26.3333H20.4149V28.3333ZM19.5 15.375V22.2083H21.5V15.375H19.5Z" fill="white"/>
</svg>
